<svg width="500" height="500" viewBox="0 0 500 500" fill="none" xmlns="http://www.w3.org/2000/svg">
<path d="M391.64 102.69C362.28 83.18 326.79 75.87 288.58 92.4C250.81 108.74 231.43 147.33 198.77 170.23C164.03 194.58 118.77 197.23 81.09 216.07C54.47 229.41 36.51 254.07 32.66 283.66C25.13 341.6 57 400.21 110.92 423.48C144.55 437.99 183.42 437.17 216.85 422.48C242.51 411.21 264.7 393.13 290.26 381.4C334.64 361 386.61 362 428.9 336.07C473.66 308.65 478.67 259.81 467.57 214.74C457.48 173.78 429.71 128 391.64 102.69Z" fill="#00D54B"/>
<path opacity="0.7" d="M391.64 102.69C362.28 83.18 326.79 75.87 288.58 92.4C250.81 108.74 231.43 147.33 198.77 170.23C164.03 194.58 118.77 197.23 81.09 216.07C54.47 229.41 36.51 254.07 32.66 283.66C25.13 341.6 57 400.21 110.92 423.48C144.55 437.99 183.42 437.17 216.85 422.48C242.51 411.21 264.7 393.13 290.26 381.4C334.64 361 386.61 362 428.9 336.07C473.66 308.65 478.67 259.81 467.57 214.74C457.48 173.78 429.71 128 391.64 102.69Z" fill="white"/>
<path d="M232.19 433.08C203.32 433.08 176.81 428.14 153.39 418.41C113.26 401.72 78.89 368.84 61.46 330.41C60.26 327.78 59.09 324.96 57.98 322.05C46.28 291.54 43.27 256.45 49.28 220.56C58.08 167.98 84.77 122.35 122.48 95.39C151.48 74.66 187.86 63.25 224.96 63.25C236.265 63.2486 247.544 64.3099 258.65 66.42C290.51 72.49 317.44 88.75 334.49 112.19C337.49 116.38 340.42 120.66 343.22 124.81C349.43 134 355.29 142.69 362.91 150.81C375.1 163.81 388.91 175.31 399.6 183.88C410.29 192.45 421.28 202.15 430.98 216.3C439.138 228.503 445.249 241.957 449.07 256.13C468.44 326.12 415.77 386 353.73 409C324.16 420 279.06 433.05 232.2 433.05L232.19 433.08Z" fill="#263238"/>
<path d="M216 97.52C216 98.1015 215.828 98.6699 215.505 99.1534C215.181 99.6369 214.722 100.014 214.185 100.236C213.648 100.459 213.057 100.517 212.486 100.404C211.916 100.29 211.392 100.01 210.981 99.5989C210.57 99.1877 210.29 98.6639 210.176 98.0936C210.063 97.5233 210.121 96.9321 210.344 96.3949C210.566 95.8577 210.943 95.3985 211.427 95.0755C211.91 94.7524 212.479 94.58 213.06 94.58C213.84 94.58 214.588 94.8898 215.139 95.4411C215.69 95.9925 216 96.7403 216 97.52V97.52Z" fill="white"/>
<path d="M395.89 212.14C395.89 212.724 395.716 213.294 395.391 213.778C395.066 214.263 394.603 214.64 394.063 214.861C393.523 215.082 392.929 215.137 392.358 215.019C391.786 214.902 391.262 214.617 390.853 214.201C390.444 213.784 390.168 213.256 390.061 212.682C389.953 212.109 390.018 211.516 390.248 210.98C390.479 210.444 390.863 209.988 391.353 209.671C391.843 209.354 392.416 209.19 393 209.2C393.772 209.211 394.508 209.525 395.05 210.076C395.591 210.626 395.893 211.368 395.89 212.14V212.14Z" fill="white"/>
<path d="M81.85 234.6C83.4737 234.6 84.79 233.284 84.79 231.66C84.79 230.036 83.4737 228.72 81.85 228.72C80.2263 228.72 78.91 230.036 78.91 231.66C78.91 233.284 80.2263 234.6 81.85 234.6Z" fill="white"/>
<path d="M130.01 138.28C131.634 138.28 132.95 136.964 132.95 135.34C132.95 133.716 131.634 132.4 130.01 132.4C128.386 132.4 127.07 133.716 127.07 135.34C127.07 136.964 128.386 138.28 130.01 138.28Z" fill="white"/>
<path d="M249.47 85.48C249.468 85.7703 249.38 86.0535 249.217 86.2939C249.055 86.5344 248.824 86.7212 248.556 86.831C248.287 86.9407 247.992 86.9684 247.707 86.9105C247.423 86.8527 247.162 86.7119 246.957 86.5059C246.752 86.2999 246.613 86.038 246.558 85.7531C246.502 85.4682 246.531 85.1732 246.643 84.9052C246.754 84.6371 246.943 84.4081 247.184 84.2471C247.426 84.086 247.71 84 248 84C248.194 83.9986 248.387 84.0361 248.566 84.1101C248.746 84.1841 248.909 84.2933 249.046 84.4311C249.183 84.5689 249.291 84.7327 249.364 84.9128C249.437 85.0929 249.473 85.2857 249.47 85.48V85.48Z" fill="white"/>
<path d="M294.89 134.9C294.89 135.191 294.804 135.476 294.642 135.718C294.48 135.96 294.249 136.148 293.98 136.259C293.711 136.37 293.415 136.399 293.13 136.341C292.844 136.283 292.582 136.142 292.377 135.936C292.172 135.729 292.033 135.466 291.977 135.181C291.921 134.895 291.952 134.599 292.065 134.33C292.178 134.062 292.368 133.833 292.611 133.673C292.854 133.513 293.139 133.428 293.43 133.43C293.623 133.43 293.813 133.468 293.991 133.542C294.169 133.616 294.33 133.725 294.466 133.861C294.602 133.998 294.709 134.16 294.782 134.338C294.855 134.517 294.891 134.707 294.89 134.9V134.9Z" fill="white"/>
<path d="M94.43 170.65C95.2419 170.65 95.9 169.992 95.9 169.18C95.9 168.368 95.2419 167.71 94.43 167.71C93.6181 167.71 92.96 168.368 92.96 169.18C92.96 169.992 93.6181 170.65 94.43 170.65Z" fill="white"/>
<path d="M144.33 130.56C144.332 130.851 144.247 131.136 144.087 131.379C143.927 131.622 143.698 131.812 143.43 131.925C143.161 132.038 142.865 132.069 142.579 132.013C142.294 131.957 142.031 131.818 141.824 131.613C141.618 131.408 141.477 131.146 141.419 130.86C141.361 130.575 141.39 130.279 141.501 130.01C141.612 129.741 141.8 129.51 142.042 129.348C142.284 129.186 142.569 129.1 142.86 129.1C143.248 129.1 143.621 129.253 143.896 129.527C144.171 129.801 144.327 130.172 144.33 130.56V130.56Z" fill="white"/>
<path d="M212.02 82.73C212.832 82.73 213.49 82.0719 213.49 81.26C213.49 80.4481 212.832 79.79 212.02 79.79C211.208 79.79 210.55 80.4481 210.55 81.26C210.55 82.0719 211.208 82.73 212.02 82.73Z" fill="white"/>
<path d="M250.04 163.71C250.852 163.71 251.51 163.052 251.51 162.24C251.51 161.428 250.852 160.77 250.04 160.77C249.228 160.77 248.57 161.428 248.57 162.24C248.57 163.052 249.228 163.71 250.04 163.71Z" fill="white"/>
<path d="M61.89 291.44C62.7019 291.44 63.36 290.782 63.36 289.97C63.36 289.158 62.7019 288.5 61.89 288.5C61.0781 288.5 60.42 289.158 60.42 289.97C60.42 290.782 61.0781 291.44 61.89 291.44Z" fill="white"/>
<path d="M86.35 313.4C87.1619 313.4 87.82 312.742 87.82 311.93C87.82 311.118 87.1619 310.46 86.35 310.46C85.5381 310.46 84.88 311.118 84.88 311.93C84.88 312.742 85.5381 313.4 86.35 313.4Z" fill="white"/>
<path d="M76.64 322.35C77.4519 322.35 78.11 321.692 78.11 320.88C78.11 320.068 77.4519 319.41 76.64 319.41C75.8281 319.41 75.17 320.068 75.17 320.88C75.17 321.692 75.8281 322.35 76.64 322.35Z" fill="white"/>
<path d="M176.44 88.21C177.252 88.21 177.91 87.5519 177.91 86.74C177.91 85.9281 177.252 85.27 176.44 85.27C175.628 85.27 174.97 85.9281 174.97 86.74C174.97 87.5519 175.628 88.21 176.44 88.21Z" fill="white"/>
<path d="M202.47 158.5C203.282 158.5 203.94 157.842 203.94 157.03C203.94 156.218 203.282 155.56 202.47 155.56C201.658 155.56 201 156.218 201 157.03C201 157.842 201.658 158.5 202.47 158.5Z" fill="white"/>
<path d="M224.257 153.807C228.139 153.179 230.776 149.522 230.147 145.641C229.519 141.759 225.862 139.122 221.98 139.751C218.099 140.379 215.462 144.036 216.09 147.917C216.719 151.799 220.375 154.436 224.257 153.807Z" fill="white"/>
<path d="M71 208.41C74.9323 208.41 78.12 205.222 78.12 201.29C78.12 197.358 74.9323 194.17 71 194.17C67.0677 194.17 63.88 197.358 63.88 201.29C63.88 205.222 67.0677 208.41 71 208.41Z" fill="white"/>
<path d="M119.94 177.86C122.387 177.86 124.37 175.877 124.37 173.43C124.37 170.983 122.387 169 119.94 169C117.493 169 115.51 170.983 115.51 173.43C115.51 175.877 117.493 177.86 119.94 177.86Z" fill="white"/>
<path d="M287 215.18C289.447 215.18 291.43 213.197 291.43 210.75C291.43 208.303 289.447 206.32 287 206.32C284.553 206.32 282.57 208.303 282.57 210.75C282.57 213.197 284.553 215.18 287 215.18Z" fill="white"/>
<path d="M293.68 96.29C290.13 95.8 289.74 95.41 289.25 91.86C288.77 95.41 288.38 95.8 284.83 96.29C288.38 96.77 288.77 97.16 289.25 100.71C289.74 97.16 290.13 96.77 293.68 96.29Z" fill="white"/>
<path d="M324.71 253.65H303.81L309.5 207.94V199.75H319.02V207.94L324.71 253.65Z" fill="white" stroke="#263238" stroke-width="1.07731" stroke-linecap="round" stroke-linejoin="round"/>
<path d="M361.43 253.65H341.64L346.78 208.14V199.75H356.29V207.94L361.43 253.65Z" fill="white" stroke="#263238" stroke-width="1.07731" stroke-linecap="round" stroke-linejoin="round"/>
<path d="M315.49 101.43C315.407 101.199 315.255 101 315.055 100.859C314.854 100.718 314.615 100.642 314.37 100.642C314.125 100.642 313.886 100.718 313.685 100.859C313.485 101 313.333 101.199 313.25 101.43L311.67 106C309.961 110.92 309.089 116.092 309.09 121.3V205H319.65V121.3C319.651 116.092 318.779 110.92 317.07 106L315.49 101.43Z" fill="white" stroke="#263238" stroke-width="1.07731" stroke-linecap="round" stroke-linejoin="round"/>
<path d="M321.28 204.32H307.47V210.83H321.28V204.32Z" fill="#263238" stroke="white" stroke-width="1.07731" stroke-linecap="round" stroke-linejoin="round"/>
<path d="M352.82 101.43C352.74 101.198 352.589 100.997 352.389 100.855C352.19 100.713 351.95 100.636 351.705 100.636C351.46 100.636 351.22 100.713 351.021 100.855C350.821 100.997 350.67 101.198 350.59 101.43L349 106C347.291 110.92 346.419 116.092 346.42 121.3V205H357V121.3C357 116.093 356.131 110.922 354.43 106L352.82 101.43Z" fill="white" stroke="#263238" stroke-width="1.07731" stroke-linecap="round" stroke-linejoin="round"/>
<path d="M334.19 78.06C334.082 77.8928 333.934 77.7553 333.759 77.6601C333.585 77.5649 333.389 77.5151 333.19 77.5151C332.991 77.5151 332.795 77.5649 332.621 77.6601C332.446 77.7553 332.298 77.8928 332.19 78.06L328.72 83.89C324.806 90.4487 322.733 97.9419 322.72 105.58V185.48H343.54V105.58C343.527 97.9419 341.454 90.4487 337.54 83.89L334.19 78.06Z" fill="#263238" stroke="white" stroke-width="1.07731" stroke-linecap="round" stroke-linejoin="round"/>
<path d="M358.61 204.32H344.8V210.83H358.61V204.32Z" fill="#263238" stroke="white" stroke-width="1.07731" stroke-linecap="round" stroke-linejoin="round"/>
<path d="M326.78 128.48C326.78 128.48 321.17 156.77 310.21 167.73C306.621 171.16 303.379 174.935 300.53 179C299.356 180.78 298.733 182.867 298.74 185V195.81H329.07V125.43L326.78 128.48Z" fill="white" stroke="#263238" stroke-width="1.07731" stroke-linecap="round" stroke-linejoin="round"/>
<path d="M299 191.43H326.27" stroke="#263238" stroke-width="1.07731" stroke-linecap="round" stroke-linejoin="round"/>
<path d="M339.64 128.87C339.64 128.87 345.25 157.15 356.21 168.11C359.798 171.534 363.04 175.302 365.89 179.36C367.063 181.141 367.685 183.228 367.68 185.36V196.17H337.35V125.81L339.64 128.87Z" fill="white" stroke="#263238" stroke-width="1.07731" stroke-linecap="round" stroke-linejoin="round"/>
<path d="M340.03 191.43H367.29" stroke="#263238" stroke-width="1.07731" stroke-linecap="round" stroke-linejoin="round"/>
<path d="M333.86 108.39C333.478 108.35 333.092 108.35 332.71 108.39C331.575 108.541 330.522 109.066 329.72 109.883C328.917 110.7 328.41 111.762 328.28 112.9V113.15C327.28 118.05 326.04 124.41 326.04 129.97V197.4H340.64V130C340.64 124.44 339.4 118.08 338.39 113.18V112.93C338.261 111.772 337.743 110.692 336.92 109.867C336.097 109.042 335.018 108.521 333.86 108.39V108.39Z" fill="white" stroke="#263238" stroke-width="1.07731" stroke-linecap="round" stroke-linejoin="round"/>
<path d="M328 183.53H328.74C329.618 183.53 330.46 183.879 331.081 184.499C331.701 185.12 332.05 185.962 332.05 186.84V196.84H324.68V186.84C324.68 186.404 324.766 185.973 324.933 185.571C325.1 185.169 325.345 184.803 325.653 184.496C325.961 184.188 326.328 183.945 326.73 183.779C327.133 183.613 327.564 183.529 328 183.53Z" fill="white" stroke="#263238" stroke-width="1.07731" stroke-linecap="round" stroke-linejoin="round"/>
<path d="M333.15 196.17H323.5V202.68H333.15V196.17Z" fill="#263238" stroke="#263238" stroke-width="1.07731" stroke-linecap="round" stroke-linejoin="round"/>
<path d="M337.89 183.53H338.63C339.508 183.53 340.35 183.879 340.971 184.499C341.591 185.12 341.94 185.962 341.94 186.84V196.84H334.57V186.84C334.57 186.404 334.656 185.973 334.823 185.571C334.99 185.169 335.235 184.803 335.543 184.496C335.851 184.188 336.217 183.945 336.62 183.779C337.023 183.613 337.454 183.529 337.89 183.53V183.53Z" fill="white" stroke="#263238" stroke-width="1.07731" stroke-linecap="round" stroke-linejoin="round"/>
<path d="M343.09 196.17H333.44V202.68H343.09V196.17Z" fill="#263238" stroke="#263238" stroke-width="1.07731" stroke-linecap="round" stroke-linejoin="round"/>
<path d="M333.86 108.39C333.478 108.35 333.092 108.35 332.71 108.39C331.663 108.526 330.684 108.985 329.909 109.701C329.133 110.418 328.599 111.357 328.38 112.39H338.19C337.972 111.356 337.439 110.416 336.663 109.699C335.887 108.983 334.908 108.525 333.86 108.39Z" fill="#263238" stroke="#263238" stroke-width="1.07731" stroke-linecap="round" stroke-linejoin="round"/>
<path d="M330.34 120.47C329.281 121.192 328.42 122.168 327.836 123.309C327.253 124.45 326.965 125.719 327 127C327 127.17 327 127.34 327 127.51C327.04 126.322 327.358 125.16 327.929 124.118C328.501 123.075 329.31 122.182 330.29 121.51L330.34 120.47Z" fill="#263238"/>
<path d="M335.69 120.07C334.972 119.74 334.19 119.57 333.4 119.57C332.61 119.57 331.828 119.74 331.11 120.07V121.07C331.83 120.747 332.611 120.58 333.4 120.58C334.189 120.58 334.97 120.747 335.69 121.07V120.07Z" fill="#263238"/>
<path d="M336.46 120.47V121.47C337.442 122.14 338.252 123.033 338.824 124.076C339.395 125.119 339.713 126.281 339.75 127.47C339.75 127.3 339.75 127.13 339.75 126.96C339.784 125.69 339.5 124.432 338.926 123.299C338.352 122.166 337.504 121.194 336.46 120.47V120.47Z" fill="#263238"/>
<path d="M337.88 111.47C337.546 110.648 337 109.929 336.297 109.388C335.594 108.847 334.76 108.502 333.88 108.39C333.498 108.35 333.112 108.35 332.73 108.39C331.859 108.495 331.03 108.827 330.328 109.354C329.626 109.881 329.075 110.583 328.73 111.39" stroke="white" stroke-width="0.538656" stroke-linecap="round" stroke-linejoin="round"/>
<path d="M447.63 256.58C447.34 255.58 447.04 254.51 446.73 253.48C442.22 254.893 438.07 257.265 434.562 260.432C431.055 263.599 428.274 267.487 426.41 271.83C426.33 272.01 426.27 272.19 426.19 272.37C425.483 272.137 424.757 271.966 424.02 271.86C423.527 267.49 421.625 263.399 418.603 260.204C415.581 257.009 411.601 254.884 407.265 254.149C402.929 253.414 398.472 254.109 394.565 256.13C390.659 258.15 387.516 261.386 385.61 265.35C384.605 264.211 383.347 263.323 381.937 262.757C380.527 262.191 379.004 261.962 377.49 262.09C377.94 259.28 377.589 256.4 376.477 253.78C375.364 251.161 373.535 248.908 371.2 247.281C368.865 245.655 366.119 244.719 363.276 244.583C360.434 244.446 357.61 245.114 355.13 246.51C354.219 245.064 352.969 243.861 351.489 243.006C350.008 242.151 348.342 241.669 346.634 241.603C344.926 241.536 343.227 241.885 341.685 242.622C340.142 243.359 338.802 244.46 337.78 245.83C336.482 247.566 335.755 249.663 335.7 251.83C334.496 251.222 333.185 250.851 331.84 250.74C331.578 248.649 330.677 246.69 329.26 245.13C328.181 243.905 326.831 242.948 325.316 242.336C323.802 241.725 322.167 241.475 320.539 241.607C318.911 241.739 317.337 242.249 315.942 243.097C314.546 243.945 313.367 245.107 312.5 246.49C310.02 245.091 307.195 244.421 304.351 244.556C301.506 244.691 298.758 245.626 296.421 247.253C294.085 248.881 292.255 251.135 291.142 253.756C290.029 256.377 289.678 259.259 290.13 262.07C288.617 261.941 287.096 262.169 285.687 262.735C284.278 263.301 283.022 264.19 282.02 265.33C280.117 261.362 276.973 258.121 273.065 256.097C269.157 254.074 264.697 253.377 260.358 254.112C256.018 254.847 252.037 256.975 249.013 260.173C245.99 263.371 244.09 267.466 243.6 271.84C242.864 271.948 242.138 272.119 241.43 272.35L241.22 271.81C238.396 265.26 233.52 259.805 227.326 256.268C221.132 252.732 213.956 251.304 206.88 252.201C199.804 253.099 193.211 256.272 188.096 261.243C182.98 266.213 179.62 272.713 178.52 279.76C170.805 284.267 165.088 291.532 162.52 300.09C161.8 300.05 161.08 300.03 160.36 300.03C151.666 300.03 143.156 302.526 135.84 307.222C128.524 311.918 122.71 318.616 119.09 326.52C109.917 327.122 101.2 330.738 94.2934 336.805C87.3872 342.872 82.6787 351.051 80.9 360.07C85.3605 365.985 90.1902 371.613 95.36 376.92H341.36C374.27 376.92 406.19 364.74 430.12 342.15C436.98 335.68 442.49 328.91 445.07 321.87C449.066 311.058 451.262 299.663 451.57 288.14C451.818 277.483 450.49 266.849 447.63 256.58V256.58Z" fill="white"/>
<path opacity="0.5" d="M448.53 288C442.348 287.999 436.285 289.694 431 292.9C427.767 288.176 422.819 284.899 417.209 283.764C411.598 282.628 405.765 283.725 400.95 286.82C398.422 282.443 394.784 278.81 390.404 276.287C386.023 273.764 381.055 272.44 376 272.45C375.07 272.45 374.14 272.5 373.23 272.59C371.521 270.014 368.876 268.204 365.856 267.545C362.835 266.886 359.677 267.429 357.05 269.06C357.05 268.81 357.05 268.56 357.05 268.31C357.051 266.075 356.423 263.884 355.238 261.989C354.053 260.094 352.358 258.57 350.348 257.593C348.338 256.615 346.093 256.223 343.871 256.462C341.648 256.7 339.537 257.559 337.78 258.94C336.472 257.818 334.91 257.032 333.229 256.65C331.548 256.268 329.8 256.302 328.135 256.748C326.471 257.194 324.94 258.04 323.676 259.211C322.411 260.382 321.452 261.844 320.88 263.47C319.373 262.422 317.62 261.782 315.793 261.614C313.965 261.446 312.125 261.755 310.452 262.511C308.78 263.266 307.332 264.443 306.25 265.926C305.168 267.409 304.489 269.147 304.28 270.97C302.32 270.147 300.201 269.774 298.077 269.878C295.954 269.982 293.881 270.56 292.011 271.57C290.14 272.58 288.52 273.996 287.269 275.714C286.017 277.433 285.167 279.41 284.78 281.5C283.189 280.406 281.355 279.719 279.437 279.5C277.519 279.28 275.577 279.534 273.78 280.24H273.39C271.894 280.241 270.403 280.422 268.95 280.78C267.387 279.901 265.623 279.44 263.83 279.44C261.634 279.44 259.493 280.123 257.701 281.393C255.91 282.663 254.557 284.458 253.83 286.53C252.396 285.535 250.74 284.907 249.006 284.703C247.273 284.499 245.516 284.725 243.89 285.36C236.36 283.53 228.431 284.315 221.406 287.586C214.381 290.857 208.677 296.42 205.23 303.36C201.829 303.563 198.546 304.683 195.729 306.6C192.913 308.517 190.667 311.161 189.23 314.25C183.316 309.84 176.134 307.461 168.756 307.469C161.379 307.476 154.202 309.87 148.297 314.292C142.392 318.715 138.076 324.928 135.993 332.006C133.91 339.083 134.172 346.644 136.74 353.56C130.885 350.08 124.119 348.439 117.32 348.85C111.08 349.232 105.062 351.311 99.9163 354.862C94.7705 358.413 90.6918 363.301 88.12 369C106.086 389.865 128.633 406.292 154 417C177.23 426.66 203.55 431.56 232.22 431.56C278.86 431.56 323.77 418.56 353.22 407.56C405.02 388.35 450.22 343.21 451.62 288.08C450.59 288.05 449.57 288 448.53 288Z" fill="#263238"/>
<path d="M435.54 323.65C432.307 318.926 427.359 315.649 421.748 314.514C416.138 313.378 410.305 314.475 405.49 317.57C402.969 313.2 399.341 309.57 394.972 307.048C390.602 304.525 385.645 303.198 380.6 303.2C379.66 303.2 378.74 303.25 377.83 303.34C376.121 300.764 373.477 298.954 370.457 298.293C367.437 297.632 364.278 298.173 361.65 299.8C361.65 299.56 361.65 299.31 361.65 299.05C361.649 296.816 361.02 294.626 359.834 292.733C358.648 290.839 356.954 289.317 354.944 288.341C352.934 287.364 350.69 286.973 348.468 287.212C346.246 287.45 344.137 288.309 342.38 289.69C341.072 288.568 339.51 287.782 337.829 287.4C336.148 287.018 334.4 287.052 332.735 287.498C331.071 287.944 329.54 288.79 328.276 289.961C327.011 291.132 326.052 292.594 325.48 294.22C323.973 293.172 322.22 292.532 320.393 292.364C318.565 292.196 316.725 292.505 315.052 293.261C313.38 294.016 311.932 295.193 310.85 296.676C309.768 298.159 309.089 299.897 308.88 301.72C306.733 300.819 304.397 300.458 302.078 300.669C299.758 300.88 297.526 301.656 295.577 302.931C293.628 304.205 292.02 305.938 290.897 307.977C289.773 310.017 289.166 312.301 289.13 314.63C286.878 312.976 284.286 311.843 281.542 311.313C278.798 310.783 275.971 310.87 273.264 311.566C270.558 312.263 268.04 313.552 265.893 315.341C263.746 317.13 262.024 319.374 260.85 321.91C256.392 318.578 251.188 316.385 245.689 315.523C240.191 314.661 234.565 315.155 229.302 316.963C224.038 318.771 219.295 321.837 215.487 325.896C211.679 329.954 208.92 334.882 207.45 340.25C204.329 340.949 201.534 342.677 199.514 345.157C197.493 347.636 196.365 350.722 196.31 353.92C194.058 352.266 191.467 351.133 188.724 350.603C185.981 350.073 183.154 350.16 180.449 350.857C177.743 351.553 175.226 352.843 173.08 354.632C170.934 356.421 169.213 358.664 168.04 361.2C162.958 357.405 156.92 355.099 150.602 354.54C144.284 353.981 137.936 355.191 132.266 358.035C126.597 360.878 121.83 365.243 118.5 370.641C115.17 376.039 113.408 382.257 113.41 388.6C113.41 388.79 113.41 388.97 113.41 389.16H113.26V393.06C125.692 402.849 139.398 410.903 154 417C177.23 426.66 203.55 431.56 232.22 431.56C278.86 431.56 323.77 418.56 353.22 407.56C394.78 392.14 432.1 360.03 445.94 319.47C442.264 320.271 438.748 321.684 435.54 323.65V323.65Z" fill="#263238"/>
<path opacity="0.5" d="M239.29 199.75C230.861 194.232 221.015 191.273 210.94 191.23H210.78C198.399 191.227 186.21 194.296 175.307 200.162C164.404 206.029 155.128 214.509 148.309 224.843C141.49 235.178 137.342 247.042 136.237 259.374C135.133 271.706 137.106 284.119 141.979 295.501C146.853 306.882 154.474 316.877 164.161 324.588C173.848 332.299 185.297 337.485 197.481 339.682C209.666 341.88 222.205 341.019 233.975 337.177C245.745 333.335 256.378 326.633 264.92 317.67C277.028 298.598 281.128 275.52 276.33 253.445C271.532 231.369 258.223 212.075 239.29 199.75V199.75Z" fill="white" stroke="#263238" stroke-width="1.07731" stroke-miterlimit="10"/>
<path d="M232.9 199.75C232.77 199.66 232.64 199.59 232.52 199.5C252.19 216.89 264.81 243.65 264.81 273.67C264.874 291.244 260.396 308.536 251.81 323.87C254.167 321.938 256.408 319.867 258.52 317.67C270.629 298.599 274.731 275.522 269.935 253.447C265.138 231.371 251.831 212.077 232.9 199.75V199.75Z" fill="white"/>
<path d="M264.92 317.67C256.378 326.627 245.746 333.325 233.979 337.163C222.211 341.001 209.676 341.859 197.495 339.661C185.314 337.462 173.869 332.276 164.186 324.566C154.503 316.857 146.884 306.865 142.012 295.487C137.14 284.108 135.167 271.699 136.27 259.371C137.374 247.043 141.519 235.181 148.334 224.849C155.149 214.516 164.422 206.037 175.32 200.169C186.218 194.302 198.403 191.23 210.78 191.23H210.94C221.015 191.273 230.861 194.232 239.29 199.75C254.272 209.518 265.841 223.708 272.39 240.35C264.371 219.247 248.754 201.904 228.603 191.726C208.453 181.548 185.226 179.27 163.482 185.34C141.738 191.41 123.049 205.389 111.084 224.532C99.119 243.675 94.7423 266.6 98.8135 288.805C102.885 311.01 115.109 330.891 133.088 344.544C151.066 358.198 173.499 364.637 195.981 362.598C218.464 360.56 239.372 350.19 254.601 333.525C269.83 316.861 278.28 295.105 278.29 272.53C278.29 272.36 278.29 272.19 278.29 272.02C278.245 288.196 273.609 304.026 264.92 317.67V317.67Z" fill="#00D54B" stroke="#263238" stroke-width="1.07731" stroke-miterlimit="10"/>
<path d="M111 234.48C103.629 250.408 101.047 268.135 103.568 285.504C106.089 302.873 113.605 319.135 125.2 332.31" fill="#00D54B"/>
<path d="M111 234.48C103.629 250.408 101.047 268.135 103.568 285.504C106.089 302.873 113.605 319.135 125.2 332.31" stroke="#263238" stroke-width="2.15462" stroke-linecap="round" stroke-linejoin="round"/>
<path d="M122.26 216.24C119.91 219.196 117.745 222.295 115.78 225.52Z" fill="#00D54B"/>
<path d="M122.26 216.24C119.91 219.196 117.745 222.295 115.78 225.52" stroke="#263238" stroke-width="2.15462" stroke-linecap="round" stroke-linejoin="round"/>
<path d="M139.84 215.4C153.84 201.96 173.38 196.1 192.6 198.63C195.43 199 198.43 199.51 201.6 200.2C220.36 204.33 231.24 223.84 232.74 224.97C234.24 226.1 230.49 236.97 230.49 236.97C230.49 236.97 245.49 280.87 243.62 287.63C241.75 294.39 218.48 301.89 218.48 301.89L221.86 315.77L150.57 329.65C150.57 329.65 144.57 302.65 136.68 291.76C128.79 280.87 122.75 268.61 124.68 245.98C125.76 232.75 132.22 222.74 139.84 215.4Z" fill="white"/>
<path opacity="0.5" d="M220.4 298.57C209.09 299.25 187.51 288.29 179.29 271.16C174.232 260.803 165.937 252.378 155.66 247.16C145.639 244.305 135.162 243.402 124.8 244.5C124.74 244.98 124.68 245.5 124.64 245.95C122.71 268.58 128.76 280.84 136.64 291.73C144.52 302.62 150.53 329.62 150.53 329.62L221.82 315.74L218.44 301.86C224.445 299.888 230.278 297.426 235.88 294.5C231.14 296.44 225.46 298.26 220.4 298.57Z" fill="black"/>
<path d="M139.84 215.4C153.84 201.96 173.38 196.1 192.6 198.63C195.43 199 198.43 199.51 201.6 200.2C220.36 204.33 231.24 223.84 232.74 224.97C234.24 226.1 230.49 236.97 230.49 236.97C230.49 236.97 245.49 280.87 243.62 287.63C241.75 294.39 218.48 301.89 218.48 301.89L221.86 315.77L150.57 329.65C150.57 329.65 144.57 302.65 136.68 291.76C128.79 280.87 122.75 268.61 124.68 245.98C125.76 232.75 132.22 222.74 139.84 215.4Z" stroke="#263238" stroke-width="1.07731" stroke-miterlimit="10"/>
<path d="M212.81 219.71C212.81 219.71 213.56 220.46 206.81 220.46C200.06 220.46 188.42 219.34 184.67 222.72C180.92 226.1 174.91 235.85 177.17 235.85C179.43 235.85 182.42 232.47 184.67 232.47C186.441 232.395 188.199 232.144 189.92 231.72C189.92 231.72 180.54 237.35 183.92 237.72C187.3 238.09 202.31 235.85 206.43 233.22C210.55 230.59 213.56 228.72 213.94 226.47C214.32 224.22 215.44 222.72 212.81 219.71Z" fill="#263238" stroke="#263238" stroke-width="1.07731" stroke-miterlimit="10"/>
<path d="M228.51 219.46C228.22 220.05 226.74 222.67 224.07 222.34C222.347 222.158 220.749 221.359 219.57 220.09C219.882 221.443 220.006 222.833 219.94 224.22C219.94 227.22 220.32 229.47 222.19 231.72C224.06 233.97 230.45 236.97 230.45 236.97C230.45 236.97 232.7 230.22 232.7 224.97C232.22 224.61 230.81 222.42 228.51 219.46Z" fill="#263238" stroke="#263238" stroke-width="1.07731" stroke-miterlimit="10"/>
<path d="M218.44 230.6C218.44 230.6 233.44 237.72 234.2 239.98C234.96 242.24 230.45 250.86 230.45 250.86" fill="white"/>
<path d="M218.44 230.6C218.44 230.6 233.44 237.72 234.2 239.98C234.96 242.24 230.45 250.86 230.45 250.86" stroke="#263238" stroke-width="1.07731" stroke-miterlimit="10"/>
<path d="M234.2 240C234.2 240 211.69 253.88 214.69 255.75C217.69 257.62 225.94 254.63 228.2 252.75C230.46 250.87 234.57 244.85 234.2 240Z" fill="#263238" stroke="#263238" stroke-width="1.07731" stroke-miterlimit="10"/>
<path d="M231.11 259.9C231.11 259.9 222.98 262.06 220.34 262.34C217.7 262.62 212.69 266.18 214.94 266.26C217.19 266.34 225.59 262.54 227.84 262.62C230.09 262.7 233.84 262.8 234.08 261.84C234.56 260 231.11 259.9 231.11 259.9Z" fill="#263238" stroke="#263238" stroke-width="1.07731" stroke-miterlimit="10"/>
<path d="M218.76 303.19C217.85 303.27 217.02 303.33 216.29 303.36C208.07 303.71 197.29 303.09 186.83 297.88C182.084 295.281 177.854 291.834 174.35 287.71C185.249 281.785 196.907 277.377 209 274.61C210.459 274.267 211.721 273.358 212.51 272.083C213.298 270.809 213.548 269.274 213.205 267.815C212.862 266.356 211.953 265.094 210.678 264.305C209.404 263.517 207.869 263.267 206.41 263.61C192.784 266.718 179.677 271.769 167.49 278.61C159.25 265.37 154.6 247.71 162.49 231.13C173.38 208.22 196.34 202.4 204.49 201.03C203.54 200.73 202.57 200.46 201.58 200.24C198.45 199.55 195.45 199.04 192.58 198.67C173.36 196.14 153.79 202 139.82 215.44C132.2 222.78 125.74 232.79 124.62 246.02C122.69 268.65 128.74 280.91 136.62 291.8C144.5 302.69 150.51 329.69 150.51 329.69L221.8 315.81L218.76 303.19Z" fill="#263238"/>
<path d="M239.29 199.75C230.861 194.232 221.015 191.273 210.94 191.23H210.78C198.399 191.227 186.21 194.296 175.307 200.162C164.404 206.029 155.128 214.509 148.309 224.843C141.49 235.178 137.342 247.042 136.237 259.374C135.133 271.706 137.106 284.119 141.979 295.501C146.853 306.882 154.474 316.877 164.161 324.588C173.848 332.299 185.297 337.485 197.481 339.682C209.666 341.88 222.205 341.019 233.975 337.177C245.745 333.335 256.378 326.633 264.92 317.67C277.028 298.598 281.128 275.52 276.33 253.445C271.532 231.369 258.223 212.075 239.29 199.75V199.75Z" stroke="#263238" stroke-width="1.07731" stroke-miterlimit="10"/>
<path d="M126.78 288.451C134.155 288.226 139.874 279.536 139.554 269.042C139.233 258.548 132.994 250.224 125.619 250.449C118.244 250.675 112.525 259.364 112.846 269.858C113.167 280.352 119.405 288.677 126.78 288.451Z" fill="#263238"/>
<path d="M286 353.72C286 353.72 278.29 349.09 277.78 341.39C277.27 333.69 278.29 330.6 278.29 330.6C278.29 330.6 229.48 299.25 127.74 334.19C127.74 334.19 115.41 335.73 116.95 341.39C118.49 347.05 121.06 349.61 121.06 354.23C121.06 358.85 111.3 365 107.18 366.05C105.69 366.42 99.66 369.51 92.18 373.54C109.44 392.282 130.522 407.103 154 417C177.23 426.66 203.55 431.56 232.22 431.56C267.55 431.56 301.88 424.08 329.22 415.71L328.62 369.11L286 353.72Z" fill="#00D54B"/>
<path d="M138.37 409.55C126.45 384.55 111.08 362.26 96.91 361.94C95 361.94 90.91 363.34 85.36 365.73C100.052 383.606 118.05 398.483 138.37 409.55V409.55Z" fill="#00D54B"/>
<path d="M127.74 334.19C127.74 334.19 115.41 335.73 116.95 341.39C118.49 347.05 121.06 349.61 121.06 354.23C121.009 355.182 120.697 356.102 120.16 356.89C144.61 349.52 218.07 330.16 278 343C277.89 342.466 277.816 341.924 277.78 341.38C277.26 333.67 278.29 330.59 278.29 330.59C278.29 330.59 229.48 299.25 127.74 334.19Z" fill="#263238" stroke="#263238" stroke-width="1.07731" stroke-linejoin="round"/>
<path d="M116.37 350C114.63 350.003 112.934 349.454 111.525 348.432C110.117 347.41 109.07 345.967 108.534 344.312C107.998 342.656 108.001 340.873 108.543 339.219C109.085 337.566 110.138 336.127 111.55 335.11C125.79 324.82 157.72 316.11 194.87 312.38C231.55 308.7 264.38 310.79 280.54 317.85C282.354 318.828 283.734 320.452 284.407 322.4C285.08 324.347 284.997 326.477 284.174 328.366C283.352 330.256 281.849 331.767 279.965 332.601C278.081 333.435 275.952 333.531 274 332.87C262.92 328.03 234.68 324.87 196.56 328.69C157.98 332.57 130.92 341.38 121.21 348.39C119.81 349.429 118.114 349.993 116.37 350Z" fill="#00D54B" stroke="#263238" stroke-width="1.07731" stroke-miterlimit="10"/>
<path d="M179.55 326.93C182.55 326.65 185.66 326.45 188.77 326.37" stroke="#263238" stroke-width="2.15462" stroke-linecap="round" stroke-linejoin="round"/>
<path d="M113.86 346.53C131.763 337.381 151.001 331.124 170.86 327.99" stroke="#263238" stroke-width="2.15462" stroke-linecap="round" stroke-linejoin="round"/>
<path d="M117.32 360.11C114.469 362.651 111.16 364.627 107.57 365.93C118.47 373.47 129.4 390.76 138.37 409.55C143.448 412.301 148.665 414.788 154 417C154.32 417.14 154.65 417.26 155 417.39C141.62 384.71 124.85 366.93 117.32 360.11Z" fill="#263238"/>
<path d="M305.16 360.86C305.149 360.782 305.132 360.705 305.11 360.63L291.58 355.74C297.743 377.544 302.733 399.662 306.53 422C308.25 421.58 309.95 421.16 311.64 420.72L304.11 364.88C304.006 364.174 304.046 363.454 304.226 362.763C304.407 362.073 304.724 361.425 305.16 360.86V360.86Z" fill="#263238"/>
<path d="M364.94 386C358.47 381.19 340.58 369.16 311.27 359C310.395 358.697 309.457 358.623 308.546 358.785C307.634 358.946 306.779 359.338 306.061 359.923C305.344 360.509 304.788 361.267 304.447 362.128C304.105 362.989 303.989 363.922 304.11 364.84L311.64 420.68C325.71 417.032 339.584 412.669 353.21 407.61C357.063 406.19 360.867 404.623 364.62 402.91L367 391.45C367.211 390.44 367.13 389.39 366.765 388.425C366.4 387.459 365.767 386.618 364.94 386V386Z" fill="#00D54B"/>
<path d="M256.19 366.56L265.96 411.78L313.8 414.54L308.61 374.27L256.19 366.56Z" fill="#00D54B" stroke="#263238" stroke-width="1.07731" stroke-linecap="round" stroke-linejoin="round"/>
<path d="M256.19 366.56L250.03 375.81L259.28 421.54L265.96 411.78L256.19 366.56Z" fill="#263238" stroke="#263238" stroke-width="1.07731" stroke-linecap="round" stroke-linejoin="round"/>
<path d="M266 411.78L259.3 422.07L302.42 422.96C304.473 422.493 306.497 422.007 308.49 421.5L314.3 414.86L266 411.78Z" fill="#263238"/>
<path d="M170.88 400.35C177.69 400.35 183.21 395.443 183.21 389.39C183.21 383.337 177.69 378.43 170.88 378.43C164.07 378.43 158.55 383.337 158.55 389.39C158.55 395.443 164.07 400.35 170.88 400.35Z" fill="#263238"/>
<path d="M201.02 396.24C207.83 396.24 213.35 391.333 213.35 385.28C213.35 379.227 207.83 374.32 201.02 374.32C194.21 374.32 188.69 379.227 188.69 385.28C188.69 391.333 194.21 396.24 201.02 396.24Z" fill="#263238"/>
</svg>
