<svg width="400" height="400" viewBox="0 0 500 500" fill="none" xmlns="http://www.w3.org/2000/svg">
<path d="M402.07 401.33H437.23V390.14H402.07V401.33Z" fill="#EBEBEB"/>
<path d="M188.38 220.97H223.54V209.78H188.38V220.97Z" fill="#EBEBEB"/>
<path d="M421.68 415.45L439.38 415.15L448.13 415.03H456.84L456.38 415.49V404.3L456.88 404.8L439.3 404.73L430.51 404.64L421.72 404.53L421.96 404.3L421.68 415.45ZM421.68 415.45L421.45 404.26V404H421.69L430.48 403.89L439.27 403.8L456.85 403.74H457.35V404.25V415.44V415.89H456.9H448.03L439.2 415.77L421.68 415.45Z" fill="#EBEBEB"/>
<path d="M254.5 332L272.2 331.71L280.95 331.59L289.66 331.54L289.2 332V320.81L289.7 321.31L272.12 321.24L263.33 321.16L254.54 321.05L254.78 320.81L254.5 332ZM254.5 332L254.26 320.81V320.58H254.5L263.29 320.47L272.08 320.39L289.66 320.32H290.16V320.82L290.11 332V332.46H289.66L280.79 332.41L271.96 332.29L254.5 332Z" fill="#EBEBEB"/>
<path d="M274.11 346.14L291.81 345.85L300.56 345.73L309.27 345.68L308.81 346.14V334.95L309.31 335.45L291.73 335.38L282.94 335.3L274.15 335.19L274.39 334.95L274.11 346.14ZM274.11 346.14L273.87 335V334.77H274.11L282.9 334.66L291.69 334.58L309.27 334.51H309.77V335.01V346.2V346.66H309.32L300.45 346.61L291.62 346.49L274.11 346.14Z" fill="#EBEBEB"/>
<path d="M293.64 332.03H328.8V320.84H293.64V332.03Z" fill="#EBEBEB"/>
<path d="M43.16 415.44H78.32V404.25H43.16V415.44Z" fill="#EBEBEB"/>
<path d="M62.77 56.13L97.93 56.13V44.94H62.77V56.13Z" fill="#EBEBEB"/>
<path d="M43.16 70.23L60.86 69.94L69.61 69.82H78.32L77.86 70.27V59.08L78.36 59.58L60.78 59.51L52 59.39L43.21 59.28L43.4 59L43.16 70.23ZM43.16 70.23L42.92 59V58.77H43.16L52 58.7L60.79 58.61L78.37 58.54H78.87V59V70.19V70.65H78.42H69.55L60.72 70.53L43.16 70.23Z" fill="#EBEBEB"/>
<path d="M402.07 56.12L419.77 55.83L428.52 55.71H437.23L436.77 56.16V44.97L437.27 45.47L419.69 45.4L410.9 45.32L402.11 45.21L402.35 44.97L402.07 56.12ZM402.07 56.12L401.83 44.93V44.7H402.07L410.86 44.59L419.65 44.5L437.23 44.43H437.73V44.93L437.68 56.12V56.58H437.23H428.36L419.53 56.46L402.07 56.12Z" fill="#EBEBEB"/>
<path d="M332.04 441.43H448.8L452.56 367.34H328.28L332.04 441.43Z" fill="#EBEBEB"/>
<path d="M440.29 401.3H337.37L336 375.49H442L440.29 401.3ZM338.29 400.3H439.29L440.82 376.49H337L338.29 400.3Z" fill="#DBDBDB"/>
<path d="M438.89 430.89H340.32L339.17 407.59H440.35L438.89 430.89ZM341.28 429.89H438L439.33 408.59H340.22L341.28 429.89Z" fill="#DBDBDB"/>
<path d="M400.69 391.23H378.81L378 384.94H401.5L400.69 391.23ZM379.69 390.23H399.81L400.37 385.94H379.14L379.69 390.23Z" fill="#DBDBDB"/>
<path d="M400.69 422.39H378.81L378 416.09H401.5L400.69 422.39ZM379.69 421.39H399.81L400.37 417.09H379.14L379.69 421.39Z" fill="#DBDBDB"/>
<path d="M348.23 441.43L347.1 449.5L344.82 465.72H340.36V441.43H348.23Z" fill="#EBEBEB"/>
<path d="M348.23 441.43L347.1 449.5H340.36V441.43H348.23Z" fill="#DBDBDB"/>
<path d="M432.61 441.43L433.74 449.5L436.02 465.72H440.48V441.43H432.61Z" fill="#EBEBEB"/>
<path d="M432.61 441.43L433.74 449.5H440.48V441.43H432.61Z" fill="#DBDBDB"/>
<path d="M459.23 182.73H291.17V38.09H459.23V182.73ZM292.17 181.73H458.23V39.09H292.17V181.73Z" fill="#EBEBEB"/>
<path d="M299.55 43.63C299.54 44.0233 299.415 44.4049 299.189 44.7272C298.963 45.0494 298.648 45.298 298.281 45.4417C297.915 45.5854 297.515 45.618 297.13 45.5353C296.745 45.4525 296.394 45.2582 296.119 44.9766C295.844 44.695 295.659 44.3387 295.586 43.9521C295.512 43.5656 295.555 43.1661 295.707 42.8035C295.86 42.441 296.117 42.1315 296.444 41.9139C296.772 41.6963 297.157 41.5801 297.55 41.58C297.817 41.5799 298.081 41.6332 298.327 41.7369C298.573 41.8405 298.796 41.9923 298.982 42.1833C299.169 42.3744 299.315 42.6008 299.412 42.8493C299.51 43.0977 299.557 43.3632 299.55 43.63Z" fill="#A6A6A6"/>
<path d="M307.9 43.63C307.89 44.0233 307.765 44.4049 307.539 44.7272C307.313 45.0494 306.998 45.298 306.631 45.4417C306.265 45.5854 305.865 45.618 305.48 45.5353C305.095 45.4525 304.744 45.2582 304.469 44.9766C304.194 44.695 304.009 44.3387 303.936 43.9521C303.862 43.5656 303.905 43.1661 304.057 42.8035C304.21 42.441 304.466 42.1315 304.794 41.9139C305.122 41.6963 305.507 41.5801 305.9 41.58C306.167 41.5799 306.431 41.6332 306.677 41.7369C306.923 41.8405 307.146 41.9923 307.332 42.1833C307.519 42.3744 307.665 42.6008 307.762 42.8493C307.86 43.0977 307.907 43.3632 307.9 43.63Z" fill="#EBEBEB"/>
<path d="M316.25 43.63C316.24 44.0211 316.116 44.4007 315.892 44.7219C315.669 45.043 315.356 45.2915 314.993 45.4366C314.629 45.5818 314.231 45.6172 313.848 45.5384C313.465 45.4596 313.113 45.2702 312.836 44.9936C312.56 44.7169 312.37 44.3652 312.292 43.9819C312.213 43.5987 312.248 43.2008 312.393 42.8374C312.538 42.4741 312.787 42.1613 313.108 41.9378C313.429 41.7143 313.809 41.5899 314.2 41.58C314.471 41.5731 314.741 41.6215 314.993 41.722C315.244 41.8226 315.473 41.9734 315.665 42.1651C315.857 42.3569 316.007 42.5856 316.108 42.8374C316.209 43.0893 316.257 43.3589 316.25 43.63Z" fill="#00D54B"/>
<path d="M458.73 48.11H291.67V49.11H458.73V48.11Z" fill="#EBEBEB"/>
<path d="M401.83 354.74C402.651 360.361 402.369 366.087 401 371.6C400.352 374.152 399.489 376.644 398.42 379.05C397.08 382.14 395.68 385.15 396.01 388.52C396.34 388.74 395.22 388.71 395.18 388.38C386.18 383.24 374.6 382.3 367.66 373.9C364.37 369.9 362.71 364.9 361.92 359.9C361.07 354.41 360.83 348.33 362.25 342.9C363.44 338.33 366.12 333.9 370.41 331.67C374.85 329.36 380.66 329.56 385.34 331.01C395.4 334.11 400.41 345 401.83 354.74Z" fill="#00D54B"/>
<path d="M406.47 421.51C405.23 417.41 404 413.3 402.74 409.21C400.27 401.21 397.69 393.21 394.84 385.31C393.14 380.577 391.343 375.893 389.45 371.26C389.658 368.34 390.015 365.433 390.52 362.55C391.28 359.05 392.37 355.67 393.39 352.25C393.45 352.04 393.11 351.93 393.03 352.13C391.03 356.84 388.36 362.87 388.29 368.46C386.09 363.21 383.74 358.04 381.2 352.94C380.914 348.631 381.048 344.303 381.6 340.02C381.6 339.82 381.33 339.76 381.3 339.96C380.525 343.711 380.23 347.545 380.42 351.37C378.48 347.537 376.427 343.757 374.26 340.03C374.06 339.7 373.6 340.03 373.77 340.37C377.163 346.897 380.327 353.543 383.26 360.31C379.104 356.712 374.302 353.937 369.11 352.13C368.89 352.04 368.72 352.37 368.95 352.47C374.613 354.904 379.794 358.331 384.25 362.59C386.37 367.543 388.39 372.543 390.31 377.59C384.66 372.06 376.94 368.42 369.47 366.47C369.22 366.4 369.15 366.79 369.39 366.87C378.04 369.47 384.76 374.37 391.33 380.26C392.09 382.26 392.84 384.33 393.58 386.36C396.36 394.093 399.027 401.87 401.58 409.69C402.787 413.443 403.98 417.197 405.16 420.95C406.42 425 407.41 429.27 409.05 433.17C409.2 433.55 409.87 433.46 409.79 433.02C408.881 429.129 407.772 425.287 406.47 421.51Z" fill="#263238"/>
<path d="M391.5 346.84C389.902 349.304 388.798 352.055 388.25 354.94C388.25 355.01 388.36 355.06 388.38 354.94C389.39 352.222 390.569 349.57 391.91 347C392 346.77 391.66 346.61 391.5 346.84Z" fill="#263238"/>
<path d="M375.41 365.63C372.898 364.245 370.158 363.324 367.32 362.91C367.24 362.91 367.2 363.01 367.27 363.04C368.58 363.58 369.94 363.96 371.27 364.46C372.6 364.96 373.88 365.59 375.22 366.05C375.248 366.062 375.277 366.069 375.308 366.07C375.338 366.071 375.368 366.066 375.396 366.056C375.425 366.045 375.451 366.029 375.473 366.008C375.495 365.987 375.513 365.963 375.525 365.935C375.537 365.907 375.544 365.878 375.545 365.847C375.546 365.817 375.541 365.787 375.531 365.759C375.52 365.73 375.504 365.704 375.483 365.682C375.462 365.66 375.438 365.642 375.41 365.63V365.63Z" fill="#263238"/>
<path d="M370.88 343C370.066 342.377 369.192 341.838 368.27 341.39C368.24 341.378 368.207 341.377 368.176 341.386C368.145 341.396 368.118 341.416 368.101 341.443C368.083 341.471 368.075 341.503 368.079 341.535C368.082 341.567 368.097 341.597 368.12 341.62C368.922 342.254 369.783 342.809 370.69 343.28C370.86 343.41 371 343.13 370.88 343Z" fill="#263238"/>
<path d="M432.24 385.37C425.75 387.3 419.24 389.08 412.72 390.99C412.16 391.16 401.18 370.11 405.14 359.27C408.81 349.27 417.21 341.73 427.23 338.32C431.86 336.75 437.57 335.42 442.47 336.5C446.82 337.5 449.9 341.03 451.32 345.13C453.25 350.7 452.6 357.34 451.55 363.03C450.719 368.371 448.518 373.405 445.16 377.64C441.71 381.74 437.31 383.87 432.24 385.37Z" fill="#00D54B"/>
<path d="M441.66 365.37C437.553 367.372 433.292 369.043 428.92 370.37C426.005 371.153 423.162 372.18 420.42 373.44C423.16 367.33 426.18 361.34 429.37 355.44C433.57 354.22 437.98 352.33 441.15 349.36C441.168 349.344 441.183 349.325 441.194 349.303C441.205 349.282 441.212 349.258 441.214 349.234C441.216 349.21 441.213 349.186 441.205 349.163C441.198 349.14 441.186 349.118 441.17 349.1C441.154 349.082 441.135 349.067 441.113 349.056C441.092 349.045 441.068 349.038 441.044 349.036C441.02 349.034 440.996 349.037 440.973 349.045C440.95 349.052 440.928 349.064 440.91 349.08C437.45 351.53 433.63 353 429.8 354.65C430.67 353.06 431.54 351.46 432.43 349.87C432.67 349.43 432.06 348.99 431.77 349.42C428.353 354.377 425.27 359.555 422.54 364.92C421.836 360.222 421.612 355.464 421.87 350.72C421.863 350.7 421.851 350.683 421.834 350.67C421.817 350.658 421.796 350.651 421.775 350.651C421.754 350.651 421.733 350.658 421.716 350.67C421.699 350.683 421.687 350.7 421.68 350.72C420.868 355.896 420.922 361.171 421.84 366.33C419.56 370.88 417.48 375.54 415.62 380.25C414.88 377.42 413.92 374.63 413.27 371.77C412.288 367.681 411.974 363.46 412.34 359.27C412.333 359.25 412.321 359.233 412.304 359.22C412.287 359.208 412.266 359.201 412.245 359.201C412.224 359.201 412.203 359.208 412.186 359.22C412.169 359.233 412.157 359.25 412.15 359.27C410.993 367.043 411.935 374.984 414.88 382.27C413.79 385.11 412.76 387.96 411.81 390.81C406.916 405.379 404.016 420.543 403.19 435.89C403.19 435.962 403.218 436.03 403.269 436.081C403.32 436.132 403.388 436.16 403.46 436.16C403.532 436.16 403.6 436.132 403.651 436.081C403.702 436.03 403.73 435.962 403.73 435.89C405.435 420.749 408.682 405.822 413.42 391.34C415.3 385.68 417.47 380.18 419.85 374.78C423.68 373.65 427.51 372.11 431.28 370.78C435.05 369.45 438.72 368.03 441.81 365.61C441.93 365.5 441.8 365.3 441.66 365.37Z" fill="#263238"/>
<path d="M447.72 359.26C443.72 360.67 439.98 362.65 436.01 364.08C435.83 364.15 435.93 364.44 436.12 364.41C440.32 363.54 444.49 362.24 447.87 359.49C448 359.38 447.86 359.21 447.72 359.26Z" fill="#263238"/>
<path d="M415.28 350.69C415.33 350.48 415.02 350.36 414.95 350.57C413.86 354.23 413.11 358.12 414.17 361.86C414.17 362.01 414.44 362.02 414.45 361.86C414.64 358.07 414.43 354.4 415.28 350.69Z" fill="#263238"/>
<path d="M431.69 342.23C430.421 344.045 429.814 346.241 429.97 348.45C429.97 348.59 430.2 348.68 430.24 348.51C430.72 346.42 431.53 344.51 432.17 342.51C432.207 342.446 432.217 342.371 432.199 342.299C432.18 342.228 432.134 342.167 432.07 342.13C432.006 342.093 431.931 342.083 431.859 342.101C431.788 342.12 431.727 342.166 431.69 342.23V342.23Z" fill="#263238"/>
<path d="M355 394.65C356.91 400.7 361.43 409.05 368.6 409.12C373.24 409.12 377.92 408.61 382.6 408.55C387.6 408.47 392.6 408.48 397.6 408.78C398.01 408.78 397 393.85 385.02 386.56C381.66 384.56 377.55 383.88 373.74 383.05C369.378 382.019 364.901 381.552 360.42 381.66C357.67 381.77 355.42 382.36 354.42 385.18C353.42 388 354.06 391.78 355 394.65Z" fill="#00D54B"/>
<path d="M360.13 387.09C363.04 387.84 365.98 388.7 368.9 389.63C368.139 388.801 367.335 388.013 366.49 387.27C365.23 386.27 363.85 385.39 362.49 384.48C362.38 384.4 362.49 384.19 362.59 384.24C365.426 385.421 367.874 387.371 369.66 389.87C373.3 391.04 376.91 392.34 380.39 393.77C382.786 394.754 385.082 395.963 387.25 397.38C386.555 395.868 385.725 394.422 384.77 393.06C383.18 391 381.02 389.85 378.94 388.39C378.908 388.361 378.887 388.321 378.88 388.278C378.874 388.234 378.882 388.19 378.905 388.153C378.927 388.115 378.962 388.086 379.003 388.071C379.044 388.056 379.089 388.056 379.13 388.07C381.307 389.016 383.263 390.405 384.873 392.149C386.483 393.893 387.711 395.954 388.48 398.2C390.977 399.991 393.259 402.065 395.28 404.38C403.21 413.38 409.45 425.38 409.47 437.6C409.47 437.89 409.01 437.97 408.95 437.67C406.913 425.681 401.691 414.459 393.83 405.18C393.26 404.52 392.68 403.89 392.08 403.28C389.909 402.985 387.721 402.824 385.53 402.8C382.98 402.8 380.45 403.17 377.91 403.38C373.72 403.72 369.1 403.77 365.32 401.66C365.16 401.57 365.27 401.28 365.46 401.35C373.87 404.41 382.69 400.52 391.13 402.35C387.525 398.923 383.304 396.209 378.69 394.35L377.92 394.04C372.52 394.69 366.82 396.09 361.56 394.34C361.531 394.328 361.507 394.307 361.493 394.279C361.479 394.251 361.475 394.219 361.482 394.189C361.49 394.159 361.508 394.132 361.533 394.114C361.558 394.096 361.589 394.087 361.62 394.09C366.71 395.36 371.62 393.76 376.62 393.51C371.16 391.38 365.62 389.69 360.12 387.58C359.64 387.38 359.63 387 360.13 387.09Z" fill="#263238"/>
<path d="M357.74 392.41C360.348 392.746 362.971 392.943 365.6 393C365.66 393 365.68 393.1 365.6 393.11C362.956 393.595 360.232 393.424 357.67 392.61C357.657 392.605 357.645 392.598 357.634 392.589C357.624 392.58 357.616 392.569 357.61 392.556C357.604 392.543 357.6 392.53 357.599 392.516C357.598 392.502 357.6 392.488 357.605 392.475C357.61 392.462 357.617 392.45 357.626 392.439C357.635 392.429 357.647 392.421 357.659 392.415C357.672 392.409 357.685 392.405 357.699 392.404C357.713 392.403 357.727 392.405 357.74 392.41V392.41Z" fill="#263238"/>
<path d="M375.5 387.22C376.953 387.874 378.272 388.793 379.39 389.93C379.52 390.05 379.34 390.29 379.19 390.18C378.53 389.7 377.85 389.25 377.19 388.81C376.533 388.449 375.898 388.048 375.29 387.61C375.09 387.46 375.28 387.15 375.5 387.22Z" fill="#263238"/>
<path d="M417.82 406.68C417.73 406.88 418.02 407.07 418.13 406.86C418.152 406.892 418.18 406.919 418.213 406.939C418.246 406.96 418.282 406.974 418.32 406.98C423.156 408.131 428.059 408.979 433 409.52C437 409.88 441.53 410.1 445 407.8C449.7 404.68 452.79 396.35 450.25 391.05C447.25 384.76 438.18 388.18 433.64 390.41C426.626 393.817 421.029 399.574 417.82 406.68V406.68Z" fill="#00D54B"/>
<path d="M414.3 409.59C416.946 407.036 419.883 404.8 423.05 402.93C425.329 399.334 428.35 396.265 431.91 393.93C432.09 393.81 432.23 394.08 432.08 394.2C429.248 396.452 426.732 399.076 424.6 402C428.14 400.068 431.817 398.397 435.6 397C436.952 394.502 439.002 392.452 441.5 391.1C441.5 391.1 441.61 391.1 441.56 391.18C439.498 392.741 437.701 394.625 436.24 396.76C438.46 395.93 440.72 395.16 442.97 394.41C443.17 394.35 443.24 394.65 443.05 394.73C439.05 396.29 434.95 397.94 430.98 399.85C435.826 400.603 440.76 400.586 445.6 399.8C445.73 399.8 445.79 399.97 445.66 400.01C440.608 401.5 435.244 401.58 430.15 400.24C427.621 401.473 425.164 402.849 422.79 404.36C424.787 404.201 426.796 404.366 428.74 404.85C432.166 405.647 435.673 406.043 439.19 406.03C439.222 406.03 439.252 406.043 439.275 406.065C439.297 406.088 439.31 406.118 439.31 406.15C439.31 406.182 439.297 406.212 439.275 406.235C439.252 406.257 439.222 406.27 439.19 406.27C433.13 407.27 427.4 404.56 421.39 405.27C419.162 406.789 417.071 408.499 415.14 410.38C411.388 414.138 408.298 418.503 406 423.29C403.47 428.44 402.1 433.89 400.06 439.21C400.047 439.259 400.015 439.301 399.97 439.326C399.926 439.351 399.874 439.358 399.825 439.345C399.776 439.332 399.734 439.3 399.709 439.255C399.683 439.211 399.677 439.159 399.69 439.11C401.45 428.63 406.67 417.06 414.3 409.59Z" fill="#263238"/>
<path d="M432.58 395.21C432.98 394.495 433.505 393.859 434.13 393.33C434.639 392.777 435.246 392.323 435.92 391.99C435.933 391.986 435.947 391.986 435.959 391.991C435.972 391.996 435.982 392.005 435.989 392.016C435.996 392.028 435.999 392.041 435.997 392.055C435.996 392.068 435.99 392.081 435.98 392.09C435.48 392.66 434.79 393.09 434.26 393.61C433.73 394.13 433.26 394.79 432.72 395.32C432.65 395.4 432.54 395.3 432.58 395.21Z" fill="#263238"/>
<path d="M442.58 398.47C443.47 398.24 444.43 398.26 445.34 398.07C446.25 397.88 447.12 397.55 448.02 397.27C448.045 397.266 448.071 397.27 448.093 397.282C448.115 397.294 448.132 397.314 448.141 397.337C448.151 397.361 448.152 397.387 448.144 397.411C448.137 397.435 448.121 397.456 448.1 397.47C446.449 398.487 444.51 398.936 442.58 398.75C442.543 398.75 442.507 398.735 442.481 398.709C442.455 398.683 442.44 398.647 442.44 398.61C442.44 398.573 442.455 398.537 442.481 398.511C442.507 398.485 442.543 398.47 442.58 398.47V398.47Z" fill="#263238"/>
<path d="M389.33 426.19L390.13 435.22L392.83 465.72H416.71L420.09 435.22L421.08 426.19H389.33Z" fill="#37474F"/>
<path d="M389.33 426.19L390.13 435.22H420.09L421.08 426.19H389.33Z" fill="#263238"/>
<path d="M386.97 431.05H423.45V423.72H386.97V431.05Z" fill="#37474F"/>
<path d="M47.44 465.72L98.08 465.48L148.72 465.39L250 465.22L351.28 465.39L401.92 465.48L452.56 465.72L401.92 465.97L351.28 466.06L250 466.22L148.72 466.06L98.08 465.97L47.44 465.72Z" fill="#263238"/>
<path d="M434.13 56.63H65.86V289.61H434.13V56.63Z" fill="white"/>
<path d="M434.14 289.61L65.86 289.76H65.71V289.61L65.62 56.61V56.36H65.86L434.14 56.51H434.23V56.61L434.14 289.61ZM434.14 289.61L434.04 56.61L434.14 56.7L65.86 56.85L66.11 56.61L66.02 289.61L65.86 289.45L434.14 289.61Z" fill="#263238"/>
<path d="M434.13 56.63H65.86V65.59H434.13V56.63Z" fill="#263238"/>
<path d="M74.51 61.11C74.51 61.468 74.4038 61.8179 74.2049 62.1156C74.0061 62.4132 73.7234 62.6452 73.3926 62.7822C73.0619 62.9192 72.698 62.955 72.3469 62.8852C71.9958 62.8154 71.6733 62.643 71.4201 62.3898C71.167 62.1367 70.9946 61.8142 70.9248 61.4631C70.8549 61.112 70.8908 60.7481 71.0278 60.4173C71.1648 60.0866 71.3967 59.8039 71.6944 59.605C71.9921 59.4061 72.342 59.3 72.7 59.3C72.938 59.2987 73.174 59.3446 73.3942 59.4351C73.6144 59.5256 73.8145 59.6588 73.9828 59.8272C74.1511 59.9955 74.2844 60.1956 74.3749 60.4158C74.4654 60.636 74.5113 60.8719 74.51 61.11V61.11Z" fill="#00D54B"/>
<path d="M81.89 61.11C81.89 61.468 81.7838 61.8179 81.585 62.1156C81.3861 62.4132 81.1034 62.6452 80.7726 62.7822C80.4419 62.9192 80.078 62.955 79.7269 62.8852C79.3758 62.8154 79.0533 62.643 78.8001 62.3898C78.547 62.1367 78.3746 61.8142 78.3048 61.4631C78.2349 61.112 78.2708 60.7481 78.4078 60.4173C78.5448 60.0866 78.7768 59.8039 79.0744 59.605C79.3721 59.4061 79.722 59.3 80.08 59.3C80.3181 59.2987 80.554 59.3446 80.7742 59.4351C80.9944 59.5256 81.1945 59.6588 81.3628 59.8272C81.5312 59.9955 81.6644 60.1956 81.7549 60.4158C81.8454 60.636 81.8913 60.8719 81.89 61.11V61.11Z" fill="white"/>
<path d="M89.26 61.11C89.26 61.468 89.1538 61.8179 88.9549 62.1156C88.7561 62.4132 88.4734 62.6452 88.1426 62.7822C87.8119 62.9192 87.448 62.955 87.0969 62.8852C86.7458 62.8154 86.4233 62.643 86.1701 62.3898C85.917 62.1367 85.7446 61.8142 85.6748 61.4631C85.6049 61.112 85.6408 60.7481 85.7778 60.4173C85.9148 60.0866 86.1467 59.8039 86.4444 59.605C86.7421 59.4061 87.092 59.3 87.45 59.3C87.688 59.2987 87.924 59.3446 88.1442 59.4351C88.3644 59.5256 88.5645 59.6588 88.7328 59.8272C88.9011 59.9955 89.0344 60.1956 89.1249 60.4158C89.2154 60.636 89.2613 60.8719 89.26 61.11V61.11Z" fill="#455A64"/>
<path d="M177.35 178.34H139.29V228.25H177.35V178.34Z" fill="#EBEBEB"/>
<path d="M223.19 178.34H185.13V228.25H223.19V178.34Z" fill="#EBEBEB"/>
<path d="M269.03 178.34H230.97V228.25H269.03V178.34Z" fill="#EBEBEB"/>
<path d="M314.87 178.34H276.81V228.25H314.87V178.34Z" fill="#EBEBEB"/>
<path d="M360.71 178.34H322.65V228.25H360.71V178.34Z" fill="#EBEBEB"/>
<path d="M163.82 200.73C164.689 201.584 165.378 202.604 165.845 203.729C166.312 204.854 166.549 206.062 166.54 207.28C166.533 209.728 165.555 212.073 163.82 213.8C162.97 214.666 161.955 215.352 160.835 215.819C159.715 216.286 158.513 216.525 157.3 216.52H157.23C156.023 216.524 154.827 216.286 153.714 215.819C152.6 215.351 151.592 214.665 150.75 213.8C150.537 213.612 150.367 213.381 150.25 213.123C150.133 212.864 150.073 212.584 150.073 212.3C150.073 212.016 150.133 211.736 150.25 211.477C150.367 211.218 150.537 210.988 150.75 210.8C150.946 210.602 151.18 210.444 151.437 210.337C151.695 210.229 151.971 210.174 152.25 210.174C152.529 210.174 152.805 210.229 153.063 210.337C153.32 210.444 153.554 210.602 153.75 210.8C154.21 211.281 154.765 211.662 155.379 211.918C155.994 212.174 156.654 212.301 157.32 212.29C157.98 212.293 158.634 212.163 159.242 211.907C159.851 211.651 160.401 211.274 160.86 210.8C161.804 209.862 162.339 208.59 162.35 207.26C162.35 205.934 161.823 204.662 160.886 203.724C159.948 202.787 158.676 202.26 157.35 202.26C156.687 202.25 156.029 202.375 155.416 202.626C154.802 202.876 154.246 203.249 153.78 203.72C153.584 203.918 153.35 204.076 153.093 204.183C152.835 204.291 152.559 204.346 152.28 204.346C152.001 204.346 151.725 204.291 151.467 204.183C151.21 204.076 150.976 203.918 150.78 203.72C150.63 203.57 150.51 203.38 150.37 203.23C150.23 203.08 150.37 203.12 150.37 203.12C150.367 203.049 150.338 202.982 150.29 202.93C150.29 202.82 150.29 202.75 150.29 202.67C150.29 202.59 150.29 202.67 150.29 202.6C150.25 202.392 150.25 202.178 150.29 201.97L151.41 192.32C151.454 192.021 151.56 191.734 151.72 191.478C151.88 191.222 152.091 191.001 152.34 190.83C152.41 190.83 152.45 190.83 152.49 190.75C152.53 190.67 152.56 190.75 152.6 190.68C152.908 190.518 153.252 190.438 153.6 190.45H164.6C164.889 190.43 165.178 190.47 165.451 190.567C165.724 190.663 165.973 190.815 166.185 191.013C166.396 191.21 166.565 191.449 166.68 191.714C166.796 191.979 166.855 192.266 166.855 192.555C166.855 192.844 166.796 193.131 166.68 193.396C166.565 193.661 166.396 193.9 166.185 194.097C165.973 194.295 165.724 194.447 165.451 194.543C165.178 194.64 164.889 194.68 164.6 194.66H155.43L154.99 198.35C155.802 198.132 156.639 198.021 157.48 198.02C159.867 198.056 162.145 199.029 163.82 200.73Z" fill="#C7C7C7"/>
<path d="M209.65 200.69C210.514 201.542 211.199 202.557 211.666 203.676C212.133 204.796 212.372 205.997 212.37 207.21C212.376 209.043 211.837 210.836 210.821 212.363C209.806 213.889 208.36 215.079 206.667 215.781C204.974 216.484 203.11 216.668 201.313 216.31C199.515 215.952 197.864 215.068 196.57 213.77C196.172 213.372 195.949 212.833 195.949 212.27C195.949 211.707 196.172 211.168 196.57 210.77C196.968 210.372 197.507 210.149 198.07 210.149C198.633 210.149 199.172 210.372 199.57 210.77C200.511 211.703 201.784 212.225 203.11 212.22C204.446 212.217 205.729 211.698 206.69 210.77C207.164 210.303 207.54 209.745 207.796 209.13C208.052 208.516 208.183 207.856 208.18 207.19C208.184 206.53 208.054 205.876 207.798 205.267C207.542 204.659 207.165 204.109 206.69 203.65C206.227 203.181 205.676 202.807 205.069 202.552C204.461 202.296 203.809 202.163 203.15 202.16C202.86 202.179 202.57 202.127 202.304 202.011C202.037 201.894 201.803 201.716 201.62 201.49C201.62 201.49 201.62 201.49 201.62 201.49C201.418 201.298 201.256 201.068 201.144 200.813C201.031 200.558 200.969 200.283 200.963 200.005C200.956 199.726 201.005 199.449 201.106 199.189C201.206 198.929 201.357 198.691 201.55 198.49L205.35 194.62H199.35C198.817 194.583 198.317 194.345 197.953 193.955C197.588 193.564 197.385 193.049 197.385 192.515C197.385 191.981 197.588 191.466 197.953 191.075C198.317 190.685 198.817 190.447 199.35 190.41H210.35C210.627 190.405 210.902 190.454 211.16 190.557C211.417 190.659 211.652 190.811 211.85 191.004C212.048 191.198 212.206 191.429 212.314 191.684C212.422 191.939 212.479 192.213 212.48 192.49C212.472 192.839 212.383 193.181 212.22 193.49C212.113 193.677 211.986 193.851 211.84 194.01L207 198.86C207.99 199.298 208.889 199.919 209.65 200.69V200.69Z" fill="#C7C7C7"/>
<path d="M255.49 200.69C256.354 201.542 257.039 202.557 257.506 203.676C257.973 204.796 258.212 205.997 258.21 207.21C258.216 209.043 257.677 210.836 256.661 212.363C255.646 213.889 254.2 215.079 252.507 215.781C250.814 216.484 248.95 216.668 247.153 216.31C245.355 215.952 243.704 215.068 242.41 213.77C242.213 213.573 242.057 213.339 241.95 213.082C241.844 212.824 241.789 212.549 241.789 212.27C241.789 211.991 241.844 211.716 241.95 211.458C242.057 211.201 242.213 210.967 242.41 210.77C242.607 210.573 242.841 210.417 243.098 210.31C243.356 210.204 243.631 210.149 243.91 210.149C244.189 210.149 244.464 210.204 244.722 210.31C244.979 210.417 245.213 210.573 245.41 210.77C246.351 211.703 247.624 212.225 248.95 212.22C250.286 212.217 251.569 211.698 252.53 210.77C253.004 210.303 253.38 209.745 253.636 209.13C253.892 208.516 254.023 207.856 254.02 207.19C254.024 206.53 253.894 205.876 253.638 205.267C253.382 204.659 253.005 204.109 252.53 203.65C252.067 203.181 251.516 202.807 250.909 202.552C250.301 202.296 249.649 202.163 248.99 202.16C248.7 202.179 248.41 202.127 248.144 202.011C247.877 201.894 247.643 201.716 247.46 201.49C247.46 201.49 247.46 201.49 247.46 201.49C247.256 201.299 247.092 201.069 246.977 200.814C246.863 200.559 246.801 200.284 246.794 200.005C246.788 199.725 246.837 199.447 246.939 199.187C247.042 198.927 247.195 198.69 247.39 198.49L251.19 194.62H245.19C244.657 194.583 244.157 194.345 243.793 193.955C243.428 193.564 243.225 193.049 243.225 192.515C243.225 191.981 243.428 191.466 243.793 191.075C244.157 190.685 244.657 190.447 245.19 190.41H256.19C256.467 190.405 256.742 190.454 257 190.557C257.257 190.659 257.492 190.811 257.69 191.004C257.888 191.198 258.046 191.429 258.154 191.684C258.262 191.939 258.319 192.213 258.32 192.49C258.309 192.84 258.216 193.182 258.05 193.49C257.95 193.679 257.826 193.854 257.68 194.01L252.99 198.85C253.928 199.307 254.775 199.93 255.49 200.69Z" fill="#C7C7C7"/>
<path d="M304.74 207.66C304.743 209.202 304.345 210.718 303.586 212.061C302.827 213.403 301.733 214.525 300.41 215.318C299.087 216.11 297.582 216.546 296.04 216.583C294.498 216.619 292.974 216.255 291.615 215.525C290.257 214.796 289.111 213.726 288.289 212.421C287.468 211.116 286.999 209.62 286.929 208.08C286.859 206.539 287.19 205.007 287.89 203.633C288.589 202.259 289.633 201.09 290.92 200.24C290.112 199.181 289.679 197.882 289.69 196.55C289.69 194.919 290.338 193.355 291.491 192.201C292.645 191.048 294.209 190.4 295.84 190.4C297.471 190.4 299.035 191.048 300.189 192.201C301.342 193.355 301.99 194.919 301.99 196.55C302.001 197.882 301.568 199.181 300.76 200.24C301.982 201.055 302.984 202.158 303.678 203.452C304.372 204.746 304.737 206.191 304.74 207.66V207.66ZM300.68 207.66C300.68 206.382 300.176 205.156 299.277 204.248C298.378 203.34 297.158 202.823 295.88 202.81C295.228 202.78 294.577 202.883 293.965 203.112C293.354 203.341 292.796 203.692 292.324 204.143C291.852 204.594 291.476 205.136 291.219 205.736C290.963 206.336 290.83 206.982 290.83 207.635C290.83 208.288 290.963 208.934 291.219 209.534C291.476 210.134 291.852 210.676 292.324 211.127C292.796 211.578 293.354 211.929 293.965 212.158C294.577 212.387 295.228 212.49 295.88 212.46C297.152 212.457 298.372 211.951 299.271 211.051C300.171 210.152 300.677 208.932 300.68 207.66ZM293.75 196.55C293.75 197.104 293.97 197.636 294.362 198.028C294.754 198.42 295.286 198.64 295.84 198.64C296.394 198.64 296.926 198.42 297.318 198.028C297.71 197.636 297.93 197.104 297.93 196.55C297.93 195.996 297.71 195.464 297.318 195.072C296.926 194.68 296.394 194.46 295.84 194.46C295.286 194.46 294.754 194.68 294.362 195.072C293.97 195.464 293.75 195.996 293.75 196.55V196.55Z" fill="#C7C7C7"/>
<path d="M277.06 245.72H222.94V262.68H277.06V245.72Z" fill="#00D54B"/>
<path d="M234.47 255.51C234.507 255.465 234.552 255.428 234.603 255.401C234.654 255.374 234.71 255.357 234.768 255.351C234.825 255.346 234.883 255.352 234.939 255.369C234.994 255.385 235.045 255.413 235.09 255.45C235.54 255.832 236.101 256.06 236.69 256.1C237.046 256.096 237.394 255.988 237.69 255.79C237.794 255.724 237.881 255.634 237.943 255.528C238.006 255.422 238.042 255.303 238.05 255.18C238.053 255.085 238.028 254.992 237.98 254.91C237.912 254.812 237.828 254.728 237.73 254.66C237.373 254.462 236.984 254.33 236.58 254.27V254.27C236.208 254.202 235.846 254.091 235.5 253.94C235.184 253.801 234.914 253.576 234.72 253.29C234.596 253.081 234.53 252.843 234.53 252.6C234.537 252.358 234.602 252.121 234.718 251.909C234.835 251.697 235 251.516 235.2 251.38C235.623 251.079 236.131 250.921 236.65 250.93C237.313 250.968 237.949 251.201 238.48 251.6C238.527 251.632 238.567 251.673 238.598 251.721C238.628 251.768 238.65 251.821 238.66 251.877C238.67 251.933 238.669 251.99 238.657 252.046C238.645 252.101 238.622 252.153 238.59 252.2C238.56 252.248 238.522 252.29 238.476 252.322C238.43 252.355 238.378 252.378 238.323 252.39C238.268 252.402 238.211 252.403 238.155 252.393C238.1 252.383 238.047 252.361 238 252.33C237.616 252.015 237.145 251.827 236.65 251.79C236.316 251.786 235.988 251.884 235.71 252.07C235.618 252.126 235.541 252.204 235.485 252.296C235.429 252.388 235.397 252.492 235.39 252.6C235.387 252.684 235.408 252.767 235.45 252.84C235.512 252.924 235.59 252.996 235.68 253.05C235.986 253.237 236.326 253.363 236.68 253.42V253.42C237.079 253.492 237.468 253.609 237.84 253.77C238.178 253.923 238.468 254.165 238.68 254.47C238.809 254.685 238.878 254.93 238.88 255.18C238.871 255.438 238.801 255.69 238.676 255.916C238.551 256.142 238.374 256.335 238.16 256.48C237.706 256.797 237.164 256.965 236.61 256.96C235.821 256.923 235.065 256.628 234.46 256.12C234.385 256.036 234.344 255.926 234.346 255.813C234.348 255.7 234.392 255.592 234.47 255.51V255.51Z" fill="white"/>
<path d="M242.67 257C242.351 257 242.036 256.937 241.742 256.815C241.447 256.693 241.18 256.513 240.955 256.288C240.73 256.062 240.552 255.794 240.431 255.499C240.31 255.204 240.249 254.889 240.25 254.57V251.57C240.249 251.509 240.26 251.449 240.282 251.392C240.305 251.336 240.339 251.285 240.382 251.242C240.425 251.199 240.476 251.165 240.532 251.142C240.589 251.12 240.649 251.109 240.71 251.11C240.833 251.11 240.951 251.158 241.039 251.244C241.127 251.33 241.177 251.447 241.18 251.57V254.57C241.18 254.968 241.338 255.349 241.619 255.631C241.901 255.912 242.282 256.07 242.68 256.07C243.078 256.07 243.459 255.912 243.741 255.631C244.022 255.349 244.18 254.968 244.18 254.57V251.57C244.196 251.458 244.252 251.356 244.338 251.283C244.423 251.209 244.532 251.168 244.645 251.168C244.758 251.168 244.867 251.209 244.952 251.283C245.038 251.356 245.094 251.458 245.11 251.57V254.57C245.11 254.89 245.047 255.207 244.924 255.502C244.801 255.798 244.621 256.066 244.395 256.292C244.168 256.518 243.899 256.696 243.603 256.818C243.307 256.939 242.99 257.001 242.67 257V257Z" fill="white"/>
<path d="M247.06 256.51V251.56C247.06 251.438 247.108 251.321 247.195 251.235C247.281 251.148 247.398 251.1 247.52 251.1H248.71C249.132 251.1 249.536 251.267 249.834 251.566C250.132 251.864 250.3 252.268 250.3 252.69C250.314 253.05 250.201 253.404 249.98 253.69C250.313 253.897 250.569 254.207 250.708 254.574C250.848 254.94 250.863 255.343 250.752 255.718C250.64 256.094 250.409 256.423 250.092 256.655C249.776 256.886 249.392 257.008 249 257H247.52C247.457 256.999 247.396 256.985 247.339 256.959C247.281 256.934 247.23 256.897 247.187 256.852C247.144 256.806 247.111 256.752 247.089 256.694C247.067 256.635 247.057 256.573 247.06 256.51V256.51ZM247.99 253.37H248.71C248.798 253.369 248.885 253.35 248.966 253.315C249.046 253.28 249.12 253.23 249.181 253.167C249.242 253.104 249.29 253.029 249.323 252.947C249.355 252.865 249.371 252.778 249.37 252.69C249.37 252.515 249.3 252.347 249.177 252.223C249.053 252.1 248.885 252.03 248.71 252.03H248L247.99 253.37ZM247.99 256.04H248.99C249.221 256.04 249.442 255.948 249.605 255.785C249.768 255.622 249.86 255.401 249.86 255.17C249.86 254.939 249.768 254.718 249.605 254.555C249.442 254.392 249.221 254.3 248.99 254.3H247.99V256.04Z" fill="white"/>
<path d="M257.08 251.56V256.51C257.077 256.633 257.027 256.75 256.939 256.836C256.851 256.922 256.733 256.97 256.61 256.97C256.488 256.97 256.371 256.922 256.285 256.835C256.198 256.749 256.15 256.632 256.15 256.51V253L254.94 254.67C254.9 254.732 254.845 254.782 254.78 254.817C254.716 254.852 254.643 254.87 254.57 254.87V254.87C254.494 254.869 254.419 254.851 254.351 254.816C254.284 254.781 254.225 254.731 254.18 254.67L253 253V256.53C252.984 256.642 252.928 256.744 252.842 256.817C252.757 256.891 252.648 256.932 252.535 256.932C252.422 256.932 252.313 256.891 252.228 256.817C252.142 256.744 252.086 256.642 252.07 256.53V251.58C252.073 251.459 252.122 251.343 252.208 251.258C252.293 251.172 252.409 251.123 252.53 251.12V251.12C252.602 251.12 252.674 251.137 252.738 251.17C252.803 251.203 252.858 251.251 252.9 251.31L254.57 253.63L256.23 251.31C256.275 251.252 256.333 251.205 256.398 251.172C256.464 251.139 256.536 251.121 256.61 251.12V251.12C256.729 251.122 256.843 251.168 256.93 251.249C257.017 251.331 257.07 251.441 257.08 251.56V251.56Z" fill="white"/>
<path d="M259.16 251.56C259.159 251.499 259.17 251.439 259.192 251.382C259.215 251.326 259.249 251.275 259.292 251.232C259.335 251.189 259.386 251.155 259.442 251.132C259.499 251.11 259.559 251.099 259.62 251.1C259.743 251.1 259.861 251.148 259.949 251.234C260.037 251.32 260.087 251.437 260.09 251.56V256.51C260.087 256.633 260.037 256.75 259.949 256.836C259.861 256.922 259.743 256.97 259.62 256.97C259.559 256.971 259.499 256.96 259.442 256.938C259.386 256.915 259.335 256.881 259.292 256.838C259.249 256.795 259.215 256.744 259.192 256.688C259.17 256.631 259.159 256.571 259.16 256.51V251.56Z" fill="white"/>
<path d="M265.24 252H263.91V256.48C263.911 256.541 263.9 256.601 263.878 256.658C263.855 256.714 263.821 256.765 263.778 256.808C263.735 256.851 263.684 256.885 263.628 256.908C263.571 256.93 263.511 256.941 263.45 256.94C263.328 256.94 263.211 256.892 263.125 256.805C263.038 256.719 262.99 256.602 262.99 256.48V252H261.67C261.547 251.997 261.43 251.947 261.344 251.859C261.258 251.771 261.21 251.653 261.21 251.53C261.209 251.469 261.22 251.409 261.242 251.352C261.265 251.296 261.299 251.245 261.342 251.202C261.385 251.159 261.436 251.125 261.492 251.102C261.549 251.08 261.609 251.069 261.67 251.07H265.24C265.301 251.069 265.361 251.08 265.418 251.102C265.474 251.125 265.525 251.159 265.568 251.202C265.611 251.245 265.645 251.296 265.668 251.352C265.69 251.409 265.701 251.469 265.7 251.53C265.7 251.653 265.652 251.771 265.566 251.859C265.48 251.947 265.363 251.997 265.24 252V252Z" fill="white"/>
<path d="M256.87 107.446V115.056H254.71V107.446C254.753 106.776 254.658 106.105 254.431 105.473C254.204 104.841 253.85 104.263 253.391 103.773C252.932 103.284 252.377 102.894 251.761 102.627C251.145 102.36 250.481 102.223 249.81 102.223C249.139 102.223 248.475 102.36 247.859 102.627C247.243 102.894 246.688 103.284 246.229 103.773C245.77 104.263 245.416 104.841 245.189 105.473C244.962 106.105 244.867 106.776 244.91 107.446V115.056H242.75V107.446C242.699 106.487 242.844 105.528 243.175 104.627C243.507 103.726 244.019 102.902 244.68 102.205C245.34 101.509 246.136 100.954 247.018 100.575C247.9 100.196 248.85 100 249.81 100C250.77 100 251.72 100.196 252.602 100.575C253.484 100.954 254.28 101.509 254.94 102.205C255.601 102.902 256.113 103.726 256.445 104.627C256.776 105.528 256.921 106.487 256.87 107.446V107.446Z" fill="#EBEBEB"/>
<path d="M242.75 109.416L244.91 109.506V115.056H242.75V109.416Z" fill="#C7C7C7"/>
<path d="M256.87 109.996V115.056H254.71V109.906L256.87 109.996Z" fill="#C7C7C7"/>
<path d="M259.63 112.236H240V128.526H259.63V112.236Z" fill="#00D54B"/>
<path d="M250.64 120.276L251.46 124.166H247.97L248.8 120.276C248.478 120.077 248.229 119.778 248.092 119.424C247.956 119.071 247.938 118.682 248.042 118.318C248.146 117.953 248.366 117.633 248.669 117.405C248.972 117.177 249.341 117.055 249.72 117.056C250.099 117.055 250.468 117.177 250.771 117.405C251.074 117.633 251.294 117.953 251.398 118.318C251.502 118.682 251.484 119.071 251.348 119.424C251.211 119.778 250.962 120.077 250.64 120.276V120.276Z" fill="#263238"/>
<path d="M206.639 158.26L206.509 158.17C206.474 158.139 206.443 158.102 206.419 158.06V158.06C206.399 158.008 206.368 157.96 206.329 157.92L202.009 147.61C201.979 147.392 202.022 147.171 202.131 146.979C202.24 146.788 202.409 146.638 202.612 146.553C202.814 146.467 203.04 146.451 203.253 146.507C203.466 146.562 203.654 146.687 203.789 146.86L207.229 155.04L210.679 146.86C210.786 146.63 210.977 146.449 211.213 146.354C211.449 146.259 211.712 146.258 211.949 146.35C212.181 146.454 212.365 146.642 212.463 146.876C212.562 147.11 212.567 147.372 212.479 147.61L208.089 157.82C208.068 157.87 208.041 157.917 208.009 157.96V157.96C208.009 157.96 207.939 158.03 207.919 158.07C207.899 158.11 207.919 158.07 207.919 158.07C207.889 158.103 207.855 158.133 207.819 158.16V158.16C207.776 158.195 207.729 158.225 207.679 158.25C207.63 158.241 207.579 158.241 207.529 158.25V158.25C207.47 158.26 207.409 158.26 207.349 158.25C207.293 158.26 207.236 158.26 207.179 158.25C207.133 158.24 207.085 158.24 207.039 158.25V158.25L206.889 158.14L206.639 158.26Z" fill="#263238"/>
<path d="M213.809 154.02C213.799 152.865 214.246 151.752 215.054 150.925C215.862 150.099 216.964 149.626 218.119 149.61C219.223 149.602 220.286 150.027 221.081 150.793C221.875 151.56 222.338 152.607 222.369 153.71V153.82C222.379 153.87 222.379 153.921 222.369 153.97C222.337 154.182 222.225 154.374 222.056 154.506C221.886 154.638 221.673 154.701 221.459 154.68H215.839C215.937 155.11 216.151 155.505 216.459 155.82C216.915 156.275 217.517 156.555 218.159 156.61C218.801 156.669 219.444 156.514 219.989 156.17C220.166 156 220.4 155.901 220.645 155.892C220.89 155.883 221.13 155.964 221.319 156.12C221.395 156.195 221.455 156.283 221.496 156.381C221.537 156.479 221.558 156.584 221.558 156.69C221.558 156.796 221.537 156.901 221.496 156.999C221.455 157.097 221.395 157.186 221.319 157.26C220.46 158.049 219.325 158.47 218.159 158.43C216.998 158.42 215.889 157.95 215.074 157.123C214.259 156.297 213.804 155.181 213.809 154.02V154.02ZM215.729 153.16H220.729C220.529 152.625 220.174 152.161 219.709 151.828C219.244 151.495 218.691 151.308 218.119 151.29C217.571 151.295 217.039 151.481 216.607 151.819C216.174 152.157 215.866 152.629 215.729 153.16V153.16Z" fill="#263238"/>
<path d="M230.249 150.55C230.247 150.798 230.146 151.034 229.97 151.209C229.794 151.383 229.557 151.48 229.309 151.48C228.928 151.471 228.554 151.591 228.249 151.82C227.919 152.039 227.642 152.33 227.439 152.67C227.125 153.124 226.883 153.623 226.719 154.15V157.5C226.704 157.755 226.592 157.994 226.406 158.169C226.22 158.344 225.974 158.441 225.719 158.44C225.475 158.426 225.244 158.322 225.07 158.149C224.897 157.976 224.794 157.745 224.779 157.5V150.5C224.781 150.378 224.806 150.257 224.854 150.145C224.902 150.033 224.971 149.931 225.059 149.846C225.146 149.76 225.249 149.693 225.363 149.647C225.476 149.602 225.597 149.579 225.719 149.58C225.971 149.579 226.214 149.674 226.4 149.844C226.585 150.015 226.699 150.249 226.719 150.5V150.62C226.83 150.491 226.954 150.374 227.089 150.27C227.74 149.816 228.516 149.575 229.309 149.58C229.436 149.577 229.562 149.601 229.68 149.649C229.797 149.697 229.903 149.769 229.991 149.86C230.08 149.951 230.148 150.059 230.192 150.178C230.237 150.297 230.256 150.424 230.249 150.55Z" fill="#263238"/>
<path d="M234.459 147.41C234.46 147.667 234.361 147.914 234.184 148.1C234.007 148.286 233.766 148.397 233.509 148.41C233.244 148.41 232.99 148.305 232.802 148.117C232.615 147.93 232.509 147.675 232.509 147.41V147.03C232.509 146.765 232.615 146.511 232.802 146.323C232.99 146.136 233.244 146.03 233.509 146.03C233.639 146.029 233.767 146.054 233.887 146.104C234.006 146.154 234.113 146.229 234.203 146.323C234.292 146.417 234.361 146.528 234.405 146.65C234.449 146.771 234.468 146.901 234.459 147.03V147.41ZM234.459 150.6V157.48C234.46 157.737 234.361 157.984 234.184 158.17C234.007 158.356 233.766 158.467 233.509 158.48C233.244 158.48 232.99 158.375 232.802 158.187C232.615 158 232.509 157.746 232.509 157.48V150.6C232.509 150.335 232.615 150.081 232.802 149.893C232.99 149.706 233.244 149.6 233.509 149.6C233.639 149.599 233.767 149.624 233.887 149.674C234.006 149.724 234.113 149.799 234.203 149.893C234.292 149.987 234.361 150.098 234.405 150.22C234.449 150.341 234.468 150.471 234.459 150.6V150.6Z" fill="#263238"/>
<path d="M240.459 149.03V149.28H240.989C241.255 149.28 241.509 149.386 241.696 149.573C241.884 149.761 241.989 150.015 241.989 150.28C241.989 150.546 241.884 150.8 241.696 150.987C241.509 151.175 241.255 151.28 240.989 151.28H240.459V157.51C240.405 157.727 240.28 157.918 240.104 158.056C239.929 158.193 239.712 158.267 239.489 158.267C239.266 158.267 239.05 158.193 238.874 158.056C238.698 157.918 238.573 157.727 238.519 157.51V151.22H238.059C237.794 151.22 237.54 151.115 237.352 150.927C237.165 150.74 237.059 150.486 237.059 150.22C237.059 149.955 237.165 149.701 237.352 149.513C237.54 149.326 237.794 149.22 238.059 149.22H238.459V148.97C238.427 148.374 238.544 147.78 238.799 147.24C238.923 146.979 239.1 146.746 239.319 146.557C239.537 146.368 239.793 146.226 240.069 146.14C240.414 146.043 240.771 145.996 241.129 146C241.395 146 241.649 146.106 241.836 146.293C242.024 146.481 242.129 146.735 242.129 147C242.129 147.266 242.024 147.52 241.836 147.707C241.649 147.895 241.395 148 241.129 148C240.973 147.988 240.817 148.009 240.669 148.06C240.628 148.062 240.588 148.08 240.559 148.11C240.559 148.11 240.459 148.38 240.459 149.03Z" fill="#263238"/>
<path d="M245.839 147.41C245.84 147.667 245.741 147.914 245.564 148.1C245.387 148.286 245.146 148.397 244.889 148.41C244.624 148.41 244.37 148.305 244.182 148.117C243.995 147.93 243.889 147.675 243.889 147.41V147.03C243.889 146.765 243.995 146.511 244.182 146.323C244.37 146.136 244.624 146.03 244.889 146.03C245.019 146.029 245.147 146.054 245.267 146.104C245.386 146.154 245.494 146.229 245.583 146.323C245.672 146.417 245.741 146.528 245.785 146.65C245.829 146.771 245.848 146.901 245.839 147.03V147.41ZM245.839 150.6V157.48C245.848 157.61 245.829 157.739 245.785 157.861C245.741 157.983 245.672 158.094 245.583 158.188C245.494 158.282 245.386 158.356 245.267 158.406C245.147 158.457 245.019 158.482 244.889 158.48C244.624 158.48 244.37 158.375 244.182 158.187C243.995 158 243.889 157.746 243.889 157.48V150.6C243.88 150.467 243.9 150.333 243.947 150.207C243.995 150.082 244.068 149.968 244.163 149.874C244.257 149.779 244.371 149.706 244.496 149.658C244.622 149.611 244.756 149.591 244.889 149.6C245.019 149.597 245.148 149.621 245.268 149.671C245.388 149.721 245.497 149.795 245.586 149.889C245.676 149.984 245.744 150.096 245.788 150.218C245.832 150.34 245.849 150.471 245.839 150.6Z" fill="#263238"/>
<path d="M248.259 154.04C248.278 152.861 248.758 151.736 249.598 150.907C250.438 150.078 251.57 149.613 252.749 149.61C253.767 149.627 254.751 149.978 255.549 150.61C255.737 150.767 255.861 150.986 255.897 151.227C255.934 151.469 255.882 151.715 255.749 151.92C255.589 152.11 255.365 152.233 255.119 152.267C254.873 152.3 254.624 152.241 254.419 152.1C253.94 151.733 253.353 151.532 252.749 151.53C252.403 151.509 252.056 151.558 251.729 151.676C251.403 151.793 251.104 151.976 250.851 152.214C250.598 152.451 250.397 152.738 250.259 153.057C250.121 153.375 250.05 153.718 250.05 154.065C250.05 154.412 250.121 154.756 250.259 155.074C250.397 155.392 250.598 155.679 250.851 155.917C251.104 156.154 251.403 156.338 251.729 156.455C252.056 156.573 252.403 156.622 252.749 156.6C253.353 156.595 253.939 156.395 254.419 156.03C254.517 155.949 254.63 155.889 254.752 155.853C254.874 155.817 255.002 155.806 255.128 155.821C255.255 155.835 255.376 155.876 255.487 155.939C255.597 156.002 255.693 156.087 255.77 156.189C255.846 156.29 255.901 156.406 255.932 156.53C255.962 156.653 255.967 156.781 255.946 156.907C255.926 157.032 255.88 157.152 255.812 157.259C255.743 157.366 255.654 157.459 255.549 157.53C254.738 158.13 253.758 158.459 252.749 158.47C251.568 158.473 250.433 158.009 249.593 157.179C248.752 156.35 248.272 155.222 248.259 154.04V154.04Z" fill="#263238"/>
<path d="M266.459 154.04V157.5C266.459 157.748 266.362 157.985 266.187 158.161C266.013 158.337 265.777 158.438 265.529 158.44C265.315 158.429 265.109 158.349 264.944 158.213C264.778 158.076 264.661 157.889 264.609 157.68C263.926 158.175 263.103 158.441 262.259 158.44C261.698 158.441 261.142 158.327 260.626 158.105C260.11 157.883 259.645 157.558 259.259 157.15C258.478 156.304 258.048 155.192 258.059 154.04C258.041 152.89 258.471 151.778 259.259 150.94C259.923 150.2 260.839 149.734 261.828 149.632C262.817 149.53 263.809 149.801 264.609 150.39C264.657 150.178 264.772 149.987 264.938 149.846C265.104 149.705 265.312 149.622 265.529 149.61C265.782 149.628 266.019 149.741 266.192 149.927C266.364 150.112 266.46 150.357 266.459 150.61V154.04ZM264.589 154.04C264.605 153.367 264.357 152.714 263.899 152.22C263.692 151.991 263.439 151.809 263.156 151.685C262.874 151.561 262.568 151.498 262.259 151.5C261.95 151.496 261.644 151.558 261.361 151.682C261.078 151.807 260.825 151.99 260.619 152.22C260.171 152.719 259.932 153.37 259.949 154.04C259.936 154.71 260.175 155.36 260.619 155.86C260.831 156.081 261.086 156.256 261.368 156.375C261.65 156.494 261.953 156.553 262.259 156.55C262.565 156.552 262.868 156.491 263.15 156.373C263.432 156.254 263.686 156.08 263.899 155.86C264.343 155.36 264.579 154.709 264.559 154.04H264.589Z" fill="#263238"/>
<path d="M273.869 150.58C273.869 150.846 273.764 151.1 273.576 151.287C273.389 151.475 273.135 151.58 272.869 151.58H272.459V156.51C272.725 156.51 272.979 156.616 273.166 156.803C273.354 156.991 273.459 157.245 273.459 157.51C273.459 157.776 273.354 158.03 273.166 158.217C272.979 158.405 272.725 158.51 272.459 158.51C271.929 158.51 271.42 158.3 271.045 157.925C270.67 157.549 270.459 157.041 270.459 156.51V151.58H269.949C269.733 151.526 269.541 151.401 269.404 151.225C269.267 151.05 269.192 150.833 269.192 150.61C269.192 150.387 269.267 150.171 269.404 149.995C269.541 149.819 269.733 149.694 269.949 149.64H270.459V147.08C270.459 146.815 270.565 146.561 270.752 146.373C270.94 146.186 271.194 146.08 271.459 146.08C271.725 146.08 271.979 146.186 272.166 146.373C272.354 146.561 272.459 146.815 272.459 147.08V149.64H272.899C273.149 149.647 273.387 149.748 273.567 149.922C273.747 150.096 273.854 150.331 273.869 150.58V150.58Z" fill="#263238"/>
<path d="M278.879 147.41C278.88 147.667 278.781 147.914 278.604 148.1C278.427 148.286 278.186 148.397 277.929 148.41C277.664 148.41 277.41 148.305 277.222 148.117C277.035 147.93 276.929 147.675 276.929 147.41V147.03C276.929 146.765 277.035 146.511 277.222 146.323C277.41 146.136 277.664 146.03 277.929 146.03C278.059 146.029 278.187 146.054 278.307 146.104C278.426 146.154 278.534 146.229 278.623 146.323C278.712 146.417 278.781 146.528 278.825 146.65C278.869 146.771 278.888 146.901 278.879 147.03V147.41ZM278.879 150.6V157.48C278.888 157.61 278.869 157.739 278.825 157.861C278.781 157.983 278.712 158.094 278.623 158.188C278.534 158.282 278.426 158.356 278.307 158.406C278.187 158.457 278.059 158.482 277.929 158.48C277.664 158.48 277.41 158.375 277.222 158.187C277.035 158 276.929 157.746 276.929 157.48V150.6C276.92 150.467 276.94 150.333 276.987 150.207C277.035 150.082 277.108 149.968 277.203 149.874C277.297 149.779 277.411 149.706 277.536 149.658C277.662 149.611 277.796 149.591 277.929 149.6C278.059 149.597 278.188 149.621 278.308 149.671C278.428 149.721 278.537 149.795 278.626 149.889C278.716 149.984 278.784 150.096 278.828 150.218C278.872 150.34 278.889 150.471 278.879 150.6Z" fill="#263238"/>
<path d="M282.729 157.15C281.938 156.31 281.504 155.195 281.519 154.04C281.524 152.896 281.956 151.794 282.729 150.95C283.111 150.534 283.574 150.2 284.09 149.969C284.606 149.739 285.164 149.616 285.729 149.61C286.288 149.61 286.841 149.729 287.35 149.96C287.858 150.191 288.312 150.529 288.679 150.95C289.475 151.781 289.916 152.89 289.909 154.04C289.923 154.615 289.821 155.186 289.61 155.72C289.399 156.254 289.082 156.741 288.679 157.15C288.312 157.572 287.858 157.909 287.35 158.14C286.841 158.371 286.288 158.491 285.729 158.49C285.164 158.484 284.606 158.362 284.09 158.131C283.574 157.901 283.111 157.567 282.729 157.15V157.15ZM283.439 154.04C283.42 154.72 283.647 155.385 284.079 155.91C284.304 156.126 284.568 156.296 284.858 156.409C285.148 156.522 285.458 156.577 285.769 156.57C286.069 156.572 286.367 156.515 286.645 156.402C286.923 156.289 287.176 156.122 287.389 155.91C287.853 155.4 288.1 154.73 288.079 154.04C288.096 153.364 287.849 152.707 287.389 152.21C286.949 151.796 286.373 151.558 285.769 151.54C285.143 151.547 284.541 151.786 284.079 152.21C283.658 152.725 283.438 153.375 283.459 154.04H283.439Z" fill="#263238"/>
<path d="M300.319 153.28V157.5C300.321 157.622 300.298 157.744 300.252 157.857C300.207 157.97 300.139 158.074 300.054 158.161C299.969 158.248 299.867 158.318 299.754 158.366C299.642 158.414 299.521 158.439 299.399 158.44C299.156 158.424 298.928 158.319 298.757 158.146C298.586 157.973 298.483 157.743 298.469 157.5V153.28C298.465 153.043 298.415 152.808 298.32 152.59C298.226 152.372 298.089 152.174 297.918 152.009C297.747 151.844 297.545 151.714 297.324 151.627C297.103 151.539 296.867 151.496 296.629 151.5C296.396 151.499 296.165 151.544 295.949 151.633C295.734 151.723 295.539 151.854 295.375 152.02C295.211 152.186 295.082 152.383 294.995 152.599C294.908 152.816 294.865 153.047 294.869 153.28V157.5C294.886 157.559 294.886 157.621 294.869 157.68C294.817 157.891 294.699 158.078 294.531 158.215C294.363 158.353 294.156 158.431 293.939 158.44C293.69 158.44 293.451 158.341 293.275 158.165C293.098 157.989 292.999 157.75 292.999 157.5V150.5C292.997 150.284 293.069 150.073 293.204 149.904C293.339 149.734 293.529 149.617 293.74 149.571C293.952 149.525 294.173 149.554 294.366 149.652C294.559 149.75 294.712 149.912 294.799 150.11C295.357 149.753 296.006 149.562 296.669 149.56C297.645 149.573 298.577 149.972 299.26 150.669C299.944 151.365 300.325 152.304 300.319 153.28V153.28Z" fill="#263238"/>
<path d="M479.23 77.25C479.23 77.25 472.66 129.86 461.86 141.69C448.86 155.89 439.49 153.81 434.26 161.14C429.02 153.8 419.62 155.89 406.64 141.68C395.84 129.85 389.29 77.24 389.29 77.24C417.74 63.43 434.29 47.95 434.29 47.95C434.77 48.45 451.22 63.66 479.23 77.25Z" fill="#00D54B"/>
<path opacity="0.1" d="M434.26 48V161.14C429.02 153.8 419.62 155.89 406.64 141.68C395.84 129.85 389.29 77.24 389.29 77.24C417.74 63.43 434.29 47.95 434.29 47.95L434.26 48Z" fill="black"/>
<path d="M396.26 81.49C396.26 81.49 401.8 125.93 410.92 135.93C421.92 147.93 429.84 146.18 434.26 152.36C438.68 146.18 446.63 147.94 457.59 135.93C466.71 125.93 472.25 81.49 472.25 81.49C448.25 69.82 434.25 56.74 434.25 56.74C434.25 56.74 420.29 69.82 396.26 81.49Z" fill="#00D54B"/>
<path opacity="0.2" d="M472.24 81.49C472.24 81.49 466.69 125.92 457.57 135.93C446.62 147.93 438.67 146.18 434.25 152.35V56.76C434.67 57.16 448.58 70 472.24 81.49Z" fill="white"/>
<path d="M434.25 122.17C443.981 122.17 451.87 114.281 451.87 104.55C451.87 94.8188 443.981 86.93 434.25 86.93C424.519 86.93 416.63 94.8188 416.63 104.55C416.63 114.281 424.519 122.17 434.25 122.17Z" fill="#455A64"/>
<path d="M432.25 116L424.4 107.84L427.31 105.04L431.64 109.54L440.96 95.23L444.35 97.44L432.25 116Z" fill="white"/>
<path d="M472.24 153.41L469.75 153.88L469.19 156.5L468.63 153.88L466.14 153.41L468.62 152.81L469.19 150.33L469.76 152.81L472.24 153.41Z" fill="#00D54B"/>
<path d="M398.43 133.44L395.94 133.9L395.38 136.53L394.82 133.9L392.33 133.44L394.81 132.83L395.38 130.35L395.95 132.83L398.43 133.44Z" fill="#00D54B"/>
<path d="M409.8 64.2L407.31 64.66L406.75 67.28L406.2 64.66L403.7 64.19L406.19 63.59L406.75 61.11L407.32 63.59L409.8 64.2Z" fill="#00D54B"/>
<path d="M467.78 141.6L466.39 141.86L466.08 143.33L465.77 141.86L464.37 141.6L465.76 141.26L466.08 139.87L466.39 141.26L467.78 141.6Z" fill="#00D54B"/>
<path d="M477.41 112.37L476.02 112.63L475.71 114.1L475.4 112.63L474 112.37L475.39 112.03L475.71 110.65L476.03 112.03L477.41 112.37Z" fill="#00D54B"/>
<path d="M465.59 61.11L464.2 61.37L463.89 62.83L463.57 61.37L462.18 61.11L463.57 60.77L463.89 59.38L464.2 60.77L465.59 61.11Z" fill="#00D54B"/>
<path d="M430.02 167.46L428.63 167.72L428.31 169.18L428 167.72L426.61 167.46L428 167.12L428.31 165.73L428.63 167.12L430.02 167.46Z" fill="#00D54B"/>
<path d="M390.69 136.86L389.3 137.12L388.98 138.59L388.67 137.12L387.28 136.86L388.67 136.52L388.98 135.13L389.3 136.52L390.69 136.86Z" fill="#00D54B"/>
<path d="M392.86 96.16L391.46 96.42L391.15 97.89L390.84 96.42L389.45 96.16L390.83 95.82L391.15 94.43L391.47 95.82L392.86 96.16Z" fill="#00D54B"/>
<path d="M451.28 148.19C451.184 148.205 451.096 148.254 451.032 148.329C450.969 148.403 450.934 148.497 450.934 148.595C450.934 148.693 450.969 148.787 451.032 148.861C451.096 148.936 451.184 148.985 451.28 149C451.376 148.985 451.464 148.936 451.528 148.861C451.591 148.787 451.626 148.693 451.626 148.595C451.626 148.497 451.591 148.403 451.528 148.329C451.464 148.254 451.376 148.205 451.28 148.19V148.19Z" fill="#00D54B"/>
<path d="M387.08 75C386.984 75.0152 386.896 75.0644 386.832 75.1386C386.769 75.2129 386.734 75.3073 386.734 75.405C386.734 75.5027 386.769 75.5971 386.832 75.6714C386.896 75.7456 386.984 75.7948 387.08 75.81C387.176 75.7948 387.264 75.7456 387.328 75.6714C387.391 75.5971 387.426 75.5027 387.426 75.405C387.426 75.3073 387.391 75.2129 387.328 75.1386C387.264 75.0644 387.176 75.0152 387.08 75V75Z" fill="#00D54B"/>
<path d="M463.89 150.46C463.794 150.475 463.706 150.524 463.642 150.599C463.579 150.673 463.544 150.767 463.544 150.865C463.544 150.963 463.579 151.057 463.642 151.131C463.706 151.206 463.794 151.255 463.89 151.27C463.986 151.255 464.074 151.206 464.138 151.131C464.201 151.057 464.236 150.963 464.236 150.865C464.236 150.767 464.201 150.673 464.138 150.599C464.074 150.524 463.986 150.475 463.89 150.46V150.46Z" fill="#00D54B"/>
<path d="M423 87.41C422.894 87.41 422.792 87.4521 422.717 87.5272C422.642 87.6022 422.6 87.7039 422.6 87.81C422.6 87.9161 422.642 88.0178 422.717 88.0928C422.792 88.1679 422.894 88.21 423 88.21C423.106 88.21 423.208 88.1679 423.283 88.0928C423.358 88.0178 423.4 87.9161 423.4 87.81C423.4 87.7039 423.358 87.6022 423.283 87.5272C423.208 87.4521 423.106 87.41 423 87.41V87.41Z" fill="#00D54B"/>
<path d="M385.62 103.67C385.524 103.685 385.436 103.734 385.372 103.809C385.309 103.883 385.274 103.977 385.274 104.075C385.274 104.173 385.309 104.267 385.372 104.341C385.436 104.416 385.524 104.465 385.62 104.48C385.716 104.465 385.804 104.416 385.868 104.341C385.931 104.267 385.966 104.173 385.966 104.075C385.966 103.977 385.931 103.883 385.868 103.809C385.804 103.734 385.716 103.685 385.62 103.67V103.67Z" fill="#00D54B"/>
<path d="M376.21 99.27C376.144 99.2825 376.084 99.3178 376.04 99.3699C375.997 99.4219 375.974 99.4874 375.974 99.555C375.974 99.6226 375.997 99.6881 376.04 99.7402C376.084 99.7922 376.144 99.8275 376.21 99.84C376.276 99.8275 376.336 99.7922 376.38 99.7402C376.423 99.6881 376.446 99.6226 376.446 99.555C376.446 99.4874 376.423 99.4219 376.38 99.3699C376.336 99.3178 376.276 99.2825 376.21 99.27V99.27Z" fill="#00D54B"/>
<path d="M453.24 55.84C453.174 55.8525 453.114 55.8879 453.07 55.9399C453.027 55.9919 453.004 56.0574 453.004 56.125C453.004 56.1926 453.027 56.2581 453.07 56.3102C453.114 56.3622 453.174 56.3975 453.24 56.41C453.306 56.3975 453.366 56.3622 453.41 56.3102C453.453 56.2581 453.476 56.1926 453.476 56.125C453.476 56.0574 453.453 55.9919 453.41 55.9399C453.366 55.8879 453.306 55.8525 453.24 55.84V55.84Z" fill="#00D54B"/>
<path d="M413.38 153.61C413.314 153.623 413.254 153.658 413.21 153.71C413.167 153.762 413.144 153.827 413.144 153.895C413.144 153.963 413.167 154.028 413.21 154.08C413.254 154.132 413.314 154.168 413.38 154.18C413.446 154.168 413.506 154.132 413.55 154.08C413.593 154.028 413.616 153.963 413.616 153.895C413.616 153.827 413.593 153.762 413.55 153.71C413.506 153.658 413.446 153.623 413.38 153.61V153.61Z" fill="#00D54B"/>
<path d="M404.45 148.36C404.26 148.382 404.084 148.473 403.956 148.616C403.829 148.759 403.758 148.943 403.758 149.135C403.758 149.327 403.829 149.512 403.956 149.654C404.084 149.797 404.26 149.888 404.45 149.91C404.64 149.888 404.816 149.797 404.944 149.654C405.071 149.512 405.142 149.327 405.142 149.135C405.142 148.943 405.071 148.759 404.944 148.616C404.816 148.473 404.64 148.382 404.45 148.36V148.36Z" fill="#00D54B"/>
<path d="M212.21 216.01V232.83H216.64V240.5L224.31 232.83H276.38V216.01H212.21Z" fill="white"/>
<path d="M212.21 216C212.21 221.67 212.41 227.28 212.42 232.82L212.21 232.61H216.86V232.83V240.5L216.44 240.32L224.08 232.64L224.16 232.56H224.28L250.28 232.5H276.28L275.92 232.86V216.04L276.24 216.35L244.24 216.24L212.21 216ZM212.21 216L244.21 215.8L276.38 215.69H276.69V216L276.74 232.82V233.18H276.38H250.38L224.38 233.12L224.57 233.04L216.88 240.69L216.47 241.1V240.52V232.85L216.69 233.07H212V232.86C212 227.16 212.17 221.55 212.21 216Z" fill="#263238"/>
<path d="M223.43 222.09V224.35H222.79V222.09C222.807 221.889 222.781 221.686 222.716 221.495C222.65 221.304 222.546 221.129 222.409 220.98C222.272 220.832 222.106 220.713 221.921 220.632C221.737 220.551 221.537 220.509 221.335 220.509C221.133 220.509 220.933 220.551 220.748 220.632C220.564 220.713 220.398 220.832 220.261 220.98C220.124 221.129 220.02 221.304 219.954 221.495C219.889 221.686 219.863 221.889 219.88 222.09V224.35H219.24V222.09C219.22 221.803 219.26 221.514 219.356 221.243C219.452 220.972 219.603 220.723 219.8 220.512C219.996 220.302 220.234 220.134 220.498 220.019C220.762 219.904 221.047 219.845 221.335 219.845C221.623 219.845 221.908 219.904 222.172 220.019C222.436 220.134 222.674 220.302 222.87 220.512C223.067 220.723 223.218 220.972 223.314 221.243C223.41 221.514 223.45 221.803 223.43 222.09V222.09Z" fill="#263238"/>
<path d="M219.25 222.68L219.88 222.71V224.35H219.25V222.68Z" fill="#263238"/>
<path d="M223.43 222.85V224.35H222.79V222.82L223.43 222.85Z" fill="#263238"/>
<path d="M224.24 223.52H218.43V228.35H224.24V223.52Z" fill="#263238"/>
<path d="M233.52 222.43C233.125 223.195 232.612 223.894 232 224.5C231.385 225.109 230.676 225.616 229.9 226C230.301 225.231 230.824 224.531 231.45 223.93C232.052 223.319 232.752 222.812 233.52 222.43Z" fill="#263238"/>
<path d="M229.9 222.43C230.683 222.831 231.393 223.362 232 224C232.619 224.605 233.139 225.303 233.54 226.07C232.77 225.674 232.071 225.154 231.47 224.53C230.835 223.921 230.304 223.212 229.9 222.43Z" fill="#263238"/>
<path d="M234.26 224.23C233.436 224.493 232.575 224.621 231.71 224.61C230.845 224.626 229.983 224.498 229.16 224.23C229.983 223.965 230.845 223.84 231.71 223.86C232.574 223.845 233.436 223.97 234.26 224.23Z" fill="#263238"/>
<path d="M231.71 221.68C232.216 223.342 232.216 225.118 231.71 226.78C231.445 225.957 231.32 225.095 231.34 224.23C231.325 223.366 231.45 222.504 231.71 221.68V221.68Z" fill="#263238"/>
<path d="M242.32 222.43C241.926 223.201 241.405 223.901 240.78 224.5C240.178 225.122 239.479 225.642 238.71 226.04C239.111 225.273 239.631 224.575 240.25 223.97C240.849 223.345 241.549 222.824 242.32 222.43V222.43Z" fill="#263238"/>
<path d="M238.71 222.43C240.241 223.254 241.496 224.509 242.32 226.04C240.789 225.216 239.534 223.961 238.71 222.43V222.43Z" fill="#263238"/>
<path d="M243.07 224.23C242.246 224.493 241.385 224.621 240.52 224.61C239.655 224.626 238.793 224.498 237.97 224.23C238.793 223.965 239.655 223.84 240.52 223.86C241.384 223.845 242.246 223.97 243.07 224.23Z" fill="#263238"/>
<path d="M240.52 221.68C240.78 222.504 240.905 223.366 240.89 224.23C240.91 225.095 240.785 225.957 240.52 226.78C240.252 225.957 240.124 225.095 240.14 224.23C240.129 223.365 240.257 222.504 240.52 221.68V221.68Z" fill="#263238"/>
<path d="M251.13 222.43C250.736 223.201 250.215 223.901 249.59 224.5C248.985 225.119 248.287 225.639 247.52 226.04C247.918 225.271 248.438 224.572 249.06 223.97C249.659 223.345 250.359 222.824 251.13 222.43V222.43Z" fill="#263238"/>
<path d="M247.52 222.43C249.051 223.254 250.306 224.509 251.13 226.04C249.599 225.216 248.344 223.961 247.52 222.43V222.43Z" fill="#263238"/>
<path d="M251.88 224.23C251.056 224.493 250.195 224.621 249.33 224.61C248.462 224.625 247.597 224.497 246.77 224.23C247.597 223.966 248.462 223.841 249.33 223.86C250.194 223.845 251.056 223.97 251.88 224.23Z" fill="#263238"/>
<path d="M249.33 221.68C249.822 223.344 249.822 225.116 249.33 226.78C248.824 225.118 248.824 223.342 249.33 221.68V221.68Z" fill="#263238"/>
<path d="M259.94 222.43C259.542 223.199 259.022 223.898 258.4 224.5C257.795 225.119 257.097 225.639 256.33 226.04C256.728 225.271 257.248 224.572 257.87 223.97C258.469 223.345 259.169 222.824 259.94 222.43Z" fill="#263238"/>
<path d="M256.33 222.43C257.861 223.254 259.116 224.509 259.94 226.04C259.173 225.639 258.475 225.119 257.87 224.5C257.248 223.898 256.728 223.199 256.33 222.43V222.43Z" fill="#263238"/>
<path d="M260.69 224.23C259.866 224.493 259.005 224.621 258.14 224.61C257.272 224.626 256.406 224.498 255.58 224.23C256.407 223.965 257.272 223.84 258.14 223.86C259.004 223.845 259.866 223.97 260.69 224.23V224.23Z" fill="#263238"/>
<path d="M258.14 221.68C258.632 223.344 258.632 225.116 258.14 226.78C257.634 225.118 257.634 223.342 258.14 221.68V221.68Z" fill="#263238"/>
<path d="M268.75 222.43C268.352 223.199 267.832 223.898 267.21 224.5C266.605 225.119 265.907 225.639 265.14 226.04C265.538 225.271 266.058 224.572 266.68 223.97C267.279 223.345 267.979 222.824 268.75 222.43V222.43Z" fill="#263238"/>
<path d="M265.14 222.43C265.911 222.824 266.611 223.345 267.21 223.97C267.832 224.572 268.352 225.271 268.75 226.04C267.983 225.639 267.285 225.119 266.68 224.5C266.058 223.898 265.538 223.199 265.14 222.43V222.43Z" fill="#263238"/>
<path d="M269.5 224.23C268.673 224.494 267.808 224.622 266.94 224.61C266.075 224.626 265.213 224.498 264.39 224.23C265.213 223.965 266.075 223.84 266.94 223.86C267.808 223.845 268.672 223.97 269.5 224.23V224.23Z" fill="#263238"/>
<path d="M266.94 221.68C267.446 223.342 267.446 225.118 266.94 226.78C266.448 225.116 266.448 223.344 266.94 221.68V221.68Z" fill="#263238"/>
<path d="M141.91 419.16L84.16 465.72H87.42L154.11 419.16H141.91Z" fill="#C7C7C7"/>
<path d="M147.33 419.16L118.8 465.72H122.05L157.03 419.16H147.33Z" fill="#C7C7C7"/>
<path d="M161.32 419.16L189.85 465.72H186.6L151.63 419.16H161.32Z" fill="#C7C7C7"/>
<path d="M166.31 419.16L224.05 465.72H220.8L154.11 419.16H166.31Z" fill="#C7C7C7"/>
<path d="M262.68 402.08V388.46L183.39 385.21L141.5 273.38H45.53L79.49 402.08L160.61 424.86H165.7L262.68 402.08Z" fill="#455A64"/>
<path opacity="0.1" d="M45.53 273.38H56.51L91.89 390.7L163.66 411.03L262.68 388.46V402.08L165.7 424.86H160.61L79.49 402.08L45.53 273.38Z" fill="black"/>
<path d="M219.51 486.9C217.09 485.97 162.66 441.38 161.66 438.37C161.27 437.23 167.3 428.92 174.88 419.09C176.51 416.97 178.22 414.79 179.96 412.58C191.24 398.24 203.55 383.29 203.55 383.29L240.05 413L215.45 441.47L210.05 447.72C210.05 447.72 223.26 474.12 224 477.54C224.74 480.96 221.93 487.82 219.51 486.9Z" fill="#AD6359"/>
<path d="M219.51 486.9C217.09 485.97 162.66 441.38 161.66 438.37C161.19 436.97 170.2 425 179.96 412.58L215.45 441.49L210.05 447.74C210.05 447.74 223.26 474.14 224 477.56C224.74 480.98 221.93 487.82 219.51 486.9Z" fill="#EBEBEB"/>
<path d="M219.51 486.9C217.09 485.97 162.66 441.38 161.66 438.37C161.27 437.23 167.3 428.92 174.88 419.09L210.05 447.74C210.05 447.74 223.26 474.14 224 477.56C224.74 480.98 221.93 487.82 219.51 486.9Z" fill="#00D54B"/>
<path d="M220.52 484.08C211.52 476.38 174.79 446.17 165.36 439.24C165.29 439.18 165.25 439.24 165.36 439.29C174 447.12 211 477 220.39 484.23C220.59 484.38 220.7 484.24 220.52 484.08Z" fill="#263238"/>
<path d="M222.1 472.73C221.108 471.873 219.948 471.231 218.695 470.846C217.442 470.46 216.122 470.339 214.82 470.49C212.484 470.747 210.335 471.893 208.82 473.69C208.82 473.74 208.88 473.83 208.93 473.78C210.719 472.224 212.965 471.292 215.33 471.124C217.694 470.957 220.05 471.562 222.04 472.85C222.048 472.857 222.058 472.863 222.068 472.866C222.078 472.869 222.089 472.87 222.1 472.868C222.111 472.866 222.121 472.862 222.13 472.855C222.139 472.848 222.146 472.84 222.15 472.83C222.155 472.82 222.158 472.81 222.158 472.799C222.158 472.788 222.155 472.777 222.15 472.767C222.146 472.758 222.138 472.749 222.13 472.743C222.121 472.736 222.111 472.732 222.1 472.73V472.73Z" fill="#263238"/>
<path d="M212.85 451.55C209.24 448.5 203.95 446.32 199.23 447.45C199.05 447.5 199.12 447.75 199.23 447.79C203.794 448.727 208.243 450.155 212.5 452.05C212.566 452.096 212.648 452.115 212.728 452.101C212.808 452.086 212.879 452.041 212.925 451.975C212.971 451.909 212.99 451.827 212.976 451.747C212.961 451.667 212.916 451.596 212.85 451.55V451.55Z" fill="#263238"/>
<path d="M214.77 455C211.16 452 205.87 449.77 201.15 450.9C200.97 450.9 201.03 451.2 201.15 451.24C205.714 452.178 210.163 453.607 214.42 455.5C214.486 455.546 214.568 455.565 214.648 455.551C214.728 455.536 214.799 455.491 214.845 455.425C214.891 455.359 214.91 455.277 214.896 455.197C214.881 455.117 214.836 455.046 214.77 455Z" fill="#263238"/>
<path d="M216.69 458.37C213.08 455.32 207.79 453.14 203.07 454.27C202.89 454.27 202.95 454.57 203.07 454.61C207.634 455.548 212.083 456.977 216.34 458.87C216.406 458.916 216.488 458.935 216.568 458.921C216.648 458.906 216.719 458.861 216.765 458.795C216.811 458.729 216.83 458.647 216.816 458.567C216.801 458.487 216.756 458.416 216.69 458.37V458.37Z" fill="#263238"/>
<path d="M218.61 461.77C215 458.77 209.71 456.55 204.99 457.68C204.81 457.68 204.87 457.98 204.99 458.01C209.553 458.957 214.001 460.388 218.26 462.28C218.328 462.326 218.411 462.344 218.492 462.329C218.572 462.314 218.644 462.268 218.69 462.2C218.736 462.132 218.754 462.049 218.739 461.968C218.724 461.888 218.678 461.816 218.61 461.77V461.77Z" fill="#263238"/>
<path d="M174.79 432.47C170.68 429.13 165.48 435.47 169.59 438.86C173.7 442.25 178.9 435.82 174.79 432.47Z" fill="white"/>
<path d="M224.78 445C224.19 441.95 220.63 441.54 218.19 442.2C214.004 443.399 210.209 445.683 207.19 448.82C207.173 448.83 207.16 448.844 207.15 448.86C207.14 448.877 207.135 448.896 207.135 448.915C207.135 448.934 207.14 448.953 207.15 448.97C207.16 448.986 207.173 449 207.19 449.01C207.148 449.091 207.125 449.18 207.124 449.271C207.122 449.362 207.143 449.452 207.182 449.534C207.222 449.616 207.281 449.687 207.353 449.742C207.426 449.797 207.51 449.834 207.6 449.85C211.68 450.18 215.99 451.04 220.04 450.11C222.47 449.61 225.34 447.92 224.78 445ZM213.94 449.09C211.94 448.97 209.94 448.76 207.94 448.72C210.04 447.369 212.206 446.124 214.43 444.99C215.518 444.459 216.641 444.001 217.79 443.62C219.57 443.07 225.65 442.95 222.79 447.22C221.16 449.62 216.33 449.26 213.94 449.13V449.09Z" fill="#263238"/>
<path d="M197 442.78C199.78 445.87 203.8 447.65 207.32 449.78C207.402 449.818 207.492 449.837 207.582 449.835C207.672 449.832 207.761 449.809 207.841 449.766C207.92 449.723 207.989 449.662 208.041 449.588C208.093 449.515 208.127 449.429 208.14 449.34C208.22 449.34 208.29 449.29 208.27 449.19C207.615 444.895 205.838 440.849 203.12 437.46C201.5 435.46 198.36 433.8 196.12 435.95C193.88 438.1 195.41 441 197 442.78ZM196.49 438.89C196.59 433.73 201.49 437.33 202.63 438.81C203.363 439.785 204.031 440.807 204.63 441.87C205.87 444.05 206.77 446.36 207.79 448.65C206.12 447.52 204.37 446.55 202.66 445.49C200.63 444.22 196.48 441.73 196.53 438.89H196.49Z" fill="#263238"/>
<path d="M278 357.17C275.24 376.29 227.39 430.99 221.86 437.26C221.04 438.18 220.6 438.69 220.6 438.69L181.93 408.22L182.39 407.64L217.31 363.06L114.79 361.21L154.09 331.41C154.09 331.41 157.22 333.27 163.8 332.41C186.46 329.41 237.56 322.66 249.59 323.29C265.05 324.11 280.48 339.63 278 357.17Z" fill="#263238"/>
<path d="M229.8 346.48C228.507 347.903 227.305 349.406 226.2 350.98C224.97 352.56 223.71 354.12 222.48 355.7V355.75C222.7 355.28 222.91 354.82 223.14 354.36C223.93 352.78 224.56 351.15 225.48 349.64C225.486 349.631 225.49 349.621 225.492 349.61C225.494 349.599 225.494 349.588 225.491 349.577C225.489 349.567 225.485 349.557 225.478 349.548C225.472 349.539 225.464 349.531 225.455 349.525C225.446 349.519 225.436 349.515 225.425 349.513C225.414 349.511 225.403 349.511 225.392 349.514C225.382 349.516 225.372 349.52 225.363 349.527C225.354 349.533 225.346 349.541 225.34 349.55C224.39 351.05 223.34 352.47 222.48 354.04C222.1 354.78 221.73 355.53 221.39 356.29C221.21 356.71 221.02 357.13 220.85 357.56C220.757 357.757 220.68 357.961 220.62 358.17C220.06 358.9 219.52 359.64 218.99 360.39C217.81 362.05 216.77 363.81 215.57 365.46C215.51 365.54 215.65 365.63 215.72 365.55C216.92 364 218.27 362.55 219.49 361.02C220.71 359.49 221.92 357.84 223.09 356.22C224.26 354.6 225.35 353.04 226.49 351.45C227.739 349.894 228.888 348.261 229.93 346.56C229.941 346.543 229.944 346.522 229.939 346.502C229.935 346.483 229.922 346.466 229.905 346.455C229.888 346.444 229.867 346.441 229.847 346.446C229.828 346.45 229.811 346.463 229.8 346.48Z" fill="#37474F"/>
<path d="M225.88 429.71C223.68 427.79 221.32 426.02 219 424.24C216.68 422.46 214.34 420.67 212 418.91C207.31 415.38 202.63 411.82 197.89 408.36C195.29 406.45 192.67 404.58 189.96 402.81C189.84 402.74 189.71 402.93 189.82 403.02C194.28 406.83 199.02 410.3 203.7 413.82C208.38 417.34 213.11 420.82 217.86 424.32C220.46 426.21 223.05 428.16 225.76 429.89C225.87 430 226 429.79 225.88 429.71Z" fill="#37474F"/>
<path d="M142.66 280.92C153.3 301.17 165.92 322.66 177.88 325.77C189.25 328.77 216.32 300.39 220.88 290.97C222.47 287.73 201.04 273.52 198 275.9C192.29 280.41 179.77 294.67 178 294.31C176.23 293.95 161 280.43 147.33 269.06C139 262.17 135.3 266.89 142.66 280.92Z" fill="#AD6359"/>
<path d="M201.9 243L193.71 271.67C193.601 271.825 193.539 272.009 193.53 272.198C193.522 272.388 193.567 272.576 193.662 272.741C193.756 272.905 193.895 273.04 194.063 273.128C194.231 273.216 194.421 273.255 194.61 273.24L209.52 273.71C209.977 273.689 210.419 273.539 210.794 273.277C211.169 273.015 211.463 272.652 211.64 272.23L219.83 243.56C220.17 242.72 219.76 242.02 218.93 242L204 241.54C203.548 241.562 203.112 241.71 202.74 241.968C202.369 242.227 202.078 242.584 201.9 243V243Z" fill="#A6A6A6"/>
<path d="M203.67 243.05L195.48 271.72C195.15 272.56 195.55 273.26 196.38 273.29L211.3 273.76C211.755 273.737 212.195 273.586 212.568 273.324C212.942 273.062 213.233 272.7 213.41 272.28L221.6 243.61C221.94 242.77 221.53 242.07 220.7 242.05L205.79 241.58C205.334 241.6 204.893 241.749 204.518 242.009C204.143 242.269 203.849 242.63 203.67 243.05V243.05Z" fill="#DBDBDB"/>
<path d="M207.72 244.5C207.722 244.674 207.689 244.847 207.622 245.008C207.555 245.169 207.455 245.314 207.33 245.434C207.204 245.555 207.055 245.648 206.891 245.709C206.728 245.769 206.554 245.796 206.38 245.786C206.206 245.776 206.036 245.731 205.88 245.653C205.725 245.575 205.587 245.465 205.475 245.332C205.363 245.198 205.28 245.043 205.231 244.875C205.182 244.708 205.168 244.533 205.19 244.36C205.188 244.186 205.221 244.013 205.288 243.852C205.355 243.692 205.455 243.546 205.58 243.426C205.706 243.305 205.855 243.212 206.019 243.151C206.182 243.091 206.356 243.064 206.53 243.074C206.704 243.084 206.874 243.129 207.03 243.207C207.185 243.285 207.323 243.395 207.435 243.528C207.547 243.662 207.629 243.817 207.679 243.985C207.728 244.152 207.742 244.327 207.72 244.5Z" fill="#455A64"/>
<path d="M227.81 274.74C229.07 266.41 228.11 264.08 232.91 257.61C236.06 253.36 234.7 249.53 229.75 251.91C221.65 255.82 217.75 266.23 217.46 270.23L227.81 274.74Z" fill="#AD6359"/>
<path d="M217.06 296.58C217.06 296.58 224.84 287.5 227.06 278.75C228.59 272.7 230.46 259.17 217.24 246.05C214.1 242.94 207.43 240.73 210.7 247.67C213.03 252.6 216 255.03 216.83 258.14C216.83 258.14 208 256.34 205.01 259.6C202.391 262.455 199.978 265.493 197.79 268.69C198.285 269.222 198.813 269.723 199.37 270.19C199.37 270.19 196.86 273.51 197.37 279.81L217.06 296.58Z" fill="#AD6359"/>
<path d="M227.6 272.75C226.12 269.83 222.88 263.7 218.49 259.6C213.61 255.06 202.98 247.6 199.66 251.25C197.23 253.92 201.04 257.11 201.04 257.11C201.04 257.11 196.04 254.96 194.32 257.85C192.8 260.49 195.89 262.78 195.89 262.78C195.89 262.78 192.61 262.01 191.63 264.83C190.45 268.22 197.53 269.29 199.3 273.76C199.7 274.76 227.6 272.75 227.6 272.75Z" fill="#AD6359"/>
<path d="M214.54 265.56C211.051 261.436 206.387 258.474 201.17 257.07C201.03 257.07 200.94 257.13 201.05 257.18C205.861 259.429 210.378 262.26 214.5 265.61C214.5 265.61 214.56 265.59 214.54 265.56Z" fill="#263238"/>
<path d="M209.81 270.35C208 268.35 201.96 263.82 195.95 262.68C195.82 262.68 195.73 262.74 195.85 262.79C200.761 264.796 205.43 267.349 209.77 270.4C209.77 270.4 209.83 270.38 209.81 270.35Z" fill="#263238"/>
<path d="M190.65 279.59L213 303.26C213 303.26 189.43 329.69 178.36 326.93C167.29 324.17 146.36 294.2 139.65 275.18C135 262 142.3 264.13 150 270.58C157.7 277.03 177.8 293.05 178.68 292.82C179.56 292.59 190.65 279.59 190.65 279.59Z" fill="#00D54B"/>
<path opacity="0.1" d="M183.09 326.69C181.55 327.176 179.911 327.258 178.33 326.93C167.26 324.17 146.33 294.21 139.62 275.18C136.56 266.51 138.7 264.47 142.72 265.95C154.78 283.84 170.83 307.82 183.09 326.69Z" fill="black"/>
<path d="M205.73 307.2C202.5 303.93 189.73 290.09 187.21 286.92C187.03 286.7 187.13 286.53 187.34 286.74C197.26 296.29 202.85 303.74 205.86 307.07C205.93 307.15 205.81 307.28 205.73 307.2Z" fill="#263238"/>
<path d="M167.49 345C167.49 345 94.2 358.4 93.82 358C93.44 357.6 101.89 278.33 126.76 264.93C130.76 262.81 140.23 261.56 144.29 265.7C155.87 277.48 168.45 343.93 167.49 345Z" fill="#00D54B"/>
<path d="M166.72 338.43L94.55 350.81C94.82 348.63 95.18 346.03 95.63 343.1L165.39 331.1C165.93 333.9 166.37 336.37 166.72 338.43Z" fill="#EBEBEB"/>
<path d="M164.62 327.27L96.28 339C96.49 337.7 96.72 336.37 96.97 335L163.83 323.53C164.11 324.79 164.37 326.05 164.62 327.27Z" fill="#EBEBEB"/>
<path d="M141.05 277.73C136.96 277.73 131.75 270.19 130.29 264.73C130.19 264.36 131.53 261.02 132.97 256.88C133.83 254.37 134.73 251.55 135.36 248.88L150.9 256.88C149.175 259.945 147.832 263.209 146.9 266.6C146.812 266.964 146.762 267.336 146.75 267.71C146.75 267.76 146.75 267.82 146.75 267.89C146.54 270.09 145 277.74 141.05 277.73Z" fill="#AD6359"/>
<path d="M150.91 257C149.184 260.064 147.841 263.329 146.91 266.72C146.822 267.084 146.772 267.456 146.76 267.83C146.764 267.887 146.764 267.943 146.76 268C146.178 267.954 145.602 267.85 145.04 267.69C135.49 265.15 135.65 252.6 135.88 249.23L150.91 257Z" fill="#263238"/>
<path d="M134.7 230.83C132.21 236.61 133.46 254.25 137.29 258.58C142.85 264.85 152.9 266.49 158.46 259.58C163.86 252.9 161.82 229.94 157.46 225.91C151 220 138.37 222.28 134.7 230.83Z" fill="#AD6359"/>
<path d="M150.79 243.52C150.79 243.47 150.71 243.58 150.71 243.63C150.86 244.81 150.83 246.18 149.8 246.63C149.8 246.63 149.8 246.71 149.8 246.7C151.1 246.43 151.12 244.61 150.79 243.52Z" fill="#263238"/>
<path d="M149.63 242.39C147.72 242.39 147.92 246.23 149.69 246.2C151.46 246.17 151.23 242.36 149.63 242.39Z" fill="#263238"/>
<path d="M157.73 243.14C157.73 243.14 157.83 243.19 157.83 243.24C157.83 244.42 158.08 245.77 159.17 246.11V246.18C157.85 246.06 157.57 244.26 157.73 243.14Z" fill="#263238"/>
<path d="M158.72 241.85C160.61 241.61 160.96 245.41 159.21 245.63C157.46 245.85 157.14 242.06 158.72 241.85Z" fill="#263238"/>
<path d="M148 240.72C148.493 240.545 148.977 240.345 149.45 240.12C149.992 239.987 150.472 239.673 150.81 239.23C150.9 239.068 150.932 238.88 150.899 238.698C150.866 238.515 150.771 238.35 150.63 238.23C150.335 238.039 149.995 237.929 149.643 237.912C149.292 237.894 148.943 237.969 148.63 238.13C147.936 238.364 147.354 238.849 147 239.49C146.92 239.639 146.887 239.809 146.903 239.977C146.919 240.146 146.985 240.306 147.092 240.437C147.198 240.568 147.342 240.665 147.503 240.716C147.665 240.766 147.838 240.767 148 240.72Z" fill="#263238"/>
<path d="M160.09 239.85C159.56 239.79 159.09 239.65 158.56 239.54C158.003 239.502 157.473 239.285 157.05 238.92C156.936 238.778 156.874 238.602 156.874 238.42C156.874 238.238 156.936 238.062 157.05 237.92C157.308 237.665 157.63 237.484 157.982 237.398C158.334 237.312 158.704 237.323 159.05 237.43C159.767 237.529 160.424 237.884 160.9 238.43C161.022 238.564 161.098 238.734 161.118 238.914C161.137 239.094 161.1 239.276 161.01 239.434C160.92 239.591 160.783 239.716 160.617 239.791C160.452 239.866 160.268 239.886 160.09 239.85Z" fill="#263238"/>
<path d="M151.4 250.55C151.724 251.001 152.139 251.38 152.617 251.663C153.096 251.945 153.628 252.125 154.18 252.19C154.661 252.26 155.149 252.26 155.63 252.19C155.809 252.172 155.987 252.139 156.16 252.09C156.223 252.077 156.279 252.043 156.321 251.994C156.363 251.945 156.387 251.884 156.39 251.82V251.82L156.18 249.3C156.52 249.45 158.25 250.12 158.18 249.64C157.86 245.546 157.123 241.495 155.98 237.55C155.977 237.536 155.971 237.522 155.962 237.51C155.954 237.498 155.943 237.487 155.93 237.48C155.918 237.472 155.904 237.466 155.889 237.464C155.874 237.461 155.859 237.462 155.845 237.465C155.831 237.468 155.817 237.474 155.805 237.483C155.793 237.491 155.782 237.502 155.775 237.515C155.767 237.527 155.761 237.541 155.759 237.556C155.756 237.571 155.757 237.586 155.76 237.6C156.04 241.38 156.98 245.09 157.32 248.89C156.702 248.641 156.053 248.479 155.39 248.41C155.32 248.41 155.73 251.5 155.72 251.53C154.979 251.642 154.222 251.605 153.495 251.419C152.769 251.234 152.087 250.904 151.49 250.45C151.42 250.37 151.33 250.46 151.4 250.55Z" fill="#263238"/>
<path d="M155.25 252C154.731 252.686 154.041 253.223 153.25 253.56C152.811 253.735 152.328 253.767 151.87 253.65C150.87 253.4 150.87 252.49 151.03 251.71C151.13 251.295 151.278 250.892 151.47 250.51C152.54 251.395 153.864 251.917 155.25 252V252Z" fill="#263238"/>
<path d="M153.25 253.57C152.811 253.745 152.328 253.777 151.87 253.66C150.87 253.41 150.87 252.5 151.03 251.72C151.554 251.734 152.059 251.924 152.461 252.259C152.864 252.595 153.142 253.057 153.25 253.57V253.57Z" fill="#FF9CBD"/>
<path d="M133.07 246.76C137.67 247.12 140.07 241.65 139.07 237.23C139.07 237.23 151.28 238.94 151.94 229.13C152.912 230.486 154.175 231.607 155.638 232.41C157.1 233.213 158.724 233.678 160.39 233.77L161.2 237.22C162.46 236.87 163.82 233.31 160.77 230.49C160.77 230.49 160.6 225.6 157.01 222.63C156.041 221.78 154.847 221.228 153.571 221.04C152.296 220.852 150.993 221.036 149.82 221.57C147.702 220.016 145.063 219.345 142.46 219.7C141.102 219.907 139.813 220.436 138.701 221.243C137.589 222.05 136.687 223.112 136.07 224.34C136.07 224.34 130 225.45 128.94 229.75C128.611 230.963 128.543 232.231 128.739 233.472C128.936 234.713 129.393 235.898 130.08 236.95C130.08 236.95 128.54 238.63 129.29 242.31C129.77 244.67 131.69 246.65 133.07 246.76Z" fill="#263238"/>
<path d="M151.68 228.25C151.76 229.048 151.76 229.852 151.68 230.65C151.618 231.439 151.463 232.217 151.22 232.97C150.739 234.454 149.718 235.703 148.36 236.47C146.961 237.187 145.412 237.564 143.84 237.57C143.05 237.57 142.25 237.57 141.45 237.49C140.65 237.41 139.86 237.3 139.06 237.23C139.84 237.42 140.63 237.59 141.42 237.77C142.21 237.95 143.03 237.92 143.84 238C145.499 238.078 147.15 237.734 148.64 237C150.105 236.154 151.181 234.769 151.64 233.14C152.065 231.539 152.078 229.857 151.68 228.25V228.25Z" fill="#263238"/>
<path d="M157.94 234C156.607 233.545 155.359 232.869 154.25 232C153.709 231.562 153.228 231.054 152.82 230.49C152.418 229.909 152.083 229.285 151.82 228.63C151.883 229.369 152.104 230.085 152.47 230.73C152.827 231.39 153.313 231.972 153.9 232.44C154.475 232.906 155.12 233.281 155.81 233.55C156.49 233.816 157.21 233.968 157.94 234V234Z" fill="#263238"/>
<path d="M148.47 249.48C147.509 249.433 146.581 249.117 145.791 248.568C145.001 248.019 144.381 247.26 144.001 246.376C143.621 245.492 143.497 244.52 143.643 243.569C143.788 242.618 144.197 241.727 144.824 240.998C145.451 240.268 146.27 239.729 147.187 239.441C148.105 239.154 149.086 239.13 150.016 239.372C150.947 239.613 151.792 240.112 152.454 240.81C153.115 241.508 153.568 242.377 153.76 243.32C154.026 244.653 153.755 246.038 153.006 247.173C152.257 248.307 151.091 249.101 149.76 249.38C149.336 249.468 148.903 249.502 148.47 249.48ZM148.94 239.89C148.568 239.87 148.194 239.9 147.83 239.98C146.725 240.212 145.749 240.856 145.102 241.781C144.455 242.707 144.185 243.844 144.347 244.962C144.509 246.079 145.09 247.093 145.973 247.797C146.856 248.501 147.974 248.842 149.1 248.751C150.225 248.66 151.274 248.143 152.032 247.306C152.79 246.469 153.201 245.375 153.18 244.245C153.16 243.116 152.71 242.037 151.922 241.228C151.135 240.419 150.068 239.941 148.94 239.89V239.89Z" fill="#00D54B"/>
<path d="M160.24 248.61C158.24 248.51 156.59 246.41 156.41 243.74C156.291 242.462 156.586 241.179 157.25 240.08C157.503 239.591 157.878 239.175 158.338 238.873C158.798 238.57 159.329 238.392 159.878 238.353C160.428 238.315 160.978 238.419 161.475 238.655C161.973 238.891 162.402 239.251 162.72 239.7C163.513 240.706 163.977 241.931 164.05 243.21C164.24 246.04 162.68 248.46 160.58 248.61H160.24ZM160.18 239.03H159.92C159.484 239.081 159.067 239.236 158.704 239.481C158.34 239.727 158.041 240.055 157.83 240.44C157.25 241.419 156.991 242.556 157.09 243.69C157.26 246.14 158.8 248.04 160.53 247.92C162.26 247.8 163.53 245.71 163.36 243.26C163.305 242.123 162.896 241.033 162.19 240.14C161.954 239.819 161.654 239.551 161.307 239.355C160.961 239.158 160.577 239.037 160.18 239V239.03Z" fill="#00D54B"/>
<path d="M153.63 243.92L153.15 243.43C153.88 242.72 155.62 241.72 156.97 242.97L156.5 243.47C155.3 242.35 153.7 243.86 153.63 243.92Z" fill="#00D54B"/>
<path d="M131.88 246.93L131.25 246.65C131.38 246.36 132.54 243.77 134.06 243.41C135.58 243.05 143.7 243.2 144.06 243.21V243.9C140.769 243.783 137.474 243.843 134.19 244.08C133.21 244.32 132.19 246.21 131.88 246.93Z" fill="#00D54B"/>
<path d="M137.41 246.45C137.41 246.45 134 240.45 131.33 241.66C128.66 242.87 130.88 251.22 133.76 252.6C134.116 252.808 134.512 252.941 134.921 252.99C135.331 253.039 135.747 253.002 136.142 252.883C136.537 252.764 136.903 252.564 137.218 252.297C137.533 252.03 137.789 251.701 137.97 251.33L137.41 246.45Z" fill="#AD6359"/>
<path d="M132 244.05C132 244.05 131.94 244.11 132 244.13C134 245.13 134.94 247.2 135.53 249.28C135.428 249.059 135.28 248.863 135.095 248.706C134.909 248.548 134.692 248.433 134.458 248.369C134.224 248.304 133.978 248.291 133.738 248.331C133.499 248.371 133.271 248.463 133.07 248.6C133.06 248.606 133.051 248.615 133.045 248.626C133.039 248.636 133.036 248.648 133.036 248.66C133.036 248.672 133.039 248.684 133.045 248.694C133.051 248.705 133.06 248.714 133.07 248.72C133.448 248.635 133.843 248.67 134.201 248.818C134.56 248.967 134.863 249.222 135.07 249.55C135.41 250.106 135.691 250.696 135.91 251.31C135.99 251.5 136.33 251.43 136.28 251.21V251.16C136.6 248.5 134.86 244.58 132 244.05Z" fill="#263238"/>
<path d="M146.94 269.83H146.89C146.72 273.17 146.11 280.83 140.74 279.83C138.616 279.239 136.703 278.061 135.22 276.43C132.327 273.376 129.91 269.904 128.05 266.13C128 266.04 127.88 266.13 127.91 266.21C128.557 268.163 129.433 270.033 130.52 271.78C131.729 273.803 133.209 275.65 134.92 277.27C136.55 278.77 138.52 280.27 140.82 280.65C141.806 280.818 142.819 280.645 143.694 280.159C144.568 279.674 145.251 278.905 145.63 277.98C146.699 275.404 147.148 272.612 146.94 269.83Z" fill="#263238"/>
<path d="M118.54 271.22C107.1 281.22 77.77 320.72 84.97 329.17C92.17 337.62 137.44 331.76 150.45 327.09C154.33 325.7 142.59 301.25 138.31 300.28C134.73 299.46 115.4 306.07 114.97 304.95C114.54 303.83 118.31 295.11 124.37 279.49C131.36 261.49 123.6 266.79 118.54 271.22Z" fill="#AD6359"/>
<path d="M157.41 294.68C166.52 294.33 168.91 295.68 176.41 291.26C181.35 288.39 185.31 290.31 182.15 295.35C176.98 303.58 165.32 306.5 160.99 306.35L157.41 294.68Z" fill="#AD6359"/>
<path d="M132.69 300.93C132.69 300.93 143.34 296.34 153 295C159.69 294.08 174.46 293.69 187 309.48C190 313.23 191.54 320.67 184.47 316.31C179.47 313.22 177.2 309.74 173.95 308.47C173.95 308.47 174.83 318.17 170.95 321C167.565 323.471 164.009 325.7 160.31 327.67C159.798 327.073 159.324 326.445 158.89 325.79C158.89 325.79 155.03 328.09 148.32 326.79L132.69 300.93Z" fill="#AD6359"/>
<path d="M159.53 295.15C162.53 297.09 168.69 301.31 172.53 306.52C176.83 312.31 183.53 324.63 179.25 327.76C176.09 330.06 173.11 325.58 173.11 325.58C173.11 325.58 174.81 331.25 171.5 332.7C168.5 334.02 166.39 330.42 166.39 330.42C166.39 330.42 166.84 334.04 163.69 334.76C159.9 335.62 159.6 327.89 155.01 325.44C154 324.89 159.53 295.15 159.53 295.15Z" fill="#AD6359"/>
<path d="M165.68 310C169.693 314.25 172.317 319.622 173.2 325.4C173.2 325.55 173.11 325.64 173.07 325.51C171.222 320.072 168.724 314.878 165.63 310.04C165.63 310.04 165.66 310 165.68 310Z" fill="#263238"/>
<path d="M160 314.56C161.94 316.74 166.08 323.77 166.59 330.37C166.59 330.52 166.49 330.61 166.45 330.47C164.886 324.95 162.706 319.623 159.95 314.59C159.95 314.59 159.94 314.53 160 314.56Z" fill="#263238"/>
<path d="M173.94 308.42C176.78 309.58 178.54 311.2 180.84 313.17C181.963 314.156 183.142 315.078 184.37 315.93C185.5 316.7 187.16 317.85 188.53 316.93C188.856 316.644 189.1 316.277 189.237 315.866C189.375 315.455 189.4 315.014 189.31 314.59C189.068 313.367 188.637 312.189 188.03 311.1C188.03 311.1 188.08 311.02 188.1 311.1C188.698 312.093 189.191 313.145 189.57 314.24C189.797 314.993 189.797 315.797 189.57 316.55C188.98 318.12 187.05 318.14 185.75 317.55C184.976 317.179 184.242 316.73 183.56 316.21C182.89 315.73 182.24 315.21 181.56 314.69C180.26 313.61 179.03 312.46 177.75 311.36C176.481 310.322 175.145 309.37 173.75 308.51C173.738 308.485 173.737 308.456 173.746 308.43C173.755 308.403 173.775 308.382 173.8 308.37C173.825 308.358 173.854 308.357 173.88 308.366C173.907 308.375 173.928 308.395 173.94 308.42V308.42Z" fill="#263238"/>
<path d="M132.69 300.93L143.85 332.14C143.85 332.14 87.23 339 83.42 328.9C79.61 318.8 104.9 283.21 115.69 273.2C128.2 261.59 129.2 266.07 125.59 277.1C121.82 288.66 115.1 305.24 115.1 305.24L132.69 300.93Z" fill="#00D54B"/>
<path d="M97.48 311.48C100.233 309.969 103.09 308.655 106.03 307.55C108.953 306.479 111.951 305.627 115 305C116.73 304.61 118.47 304.31 120.22 304C120.22 304 120.28 304.07 120.22 304.08C117.174 304.741 114.169 305.579 111.22 306.59C108.267 307.557 105.343 308.58 102.45 309.66C100.8 310.28 99.19 310.96 97.57 311.66C97.5461 311.672 97.5185 311.674 97.4932 311.665C97.4679 311.657 97.4469 311.639 97.435 311.615C97.4231 311.591 97.4211 311.563 97.4295 311.538C97.438 311.513 97.4561 311.492 97.48 311.48V311.48Z" fill="#263238"/>
<path d="M132.55 300.83C132.26 300.88 116.62 304.36 116.1 304.54C116.18 304.32 119.71 296.54 120.23 295.4L120.38 295.06C120.71 294.56 121.04 294.06 121.38 293.55C121.72 293.04 122.17 292.24 122.56 291.55L121.3 293.46C121.11 293.76 120.92 294.06 120.74 294.37C121.09 293.56 121.43 292.75 121.74 291.94C122.28 290.64 122.74 289.33 123.28 288.02H123.21C122.21 290.29 121.06 292.52 120.02 294.79C118.98 297.06 115.02 305.38 115.02 305.38C115.02 305.38 132.29 301.17 132.63 301.06C132.66 301.049 132.686 301.027 132.7 300.998C132.714 300.969 132.716 300.935 132.705 300.905C132.694 300.874 132.672 300.849 132.643 300.835C132.614 300.821 132.58 300.819 132.55 300.83V300.83Z" fill="#263238"/>
<path d="M131.62 320.36C130.39 316.88 129.2 313.36 127.84 309.95C127.07 308 126.31 306.05 125.53 304.1C125.53 304.03 125.37 304.1 125.39 304.1C126.48 307.64 127.58 311.19 128.84 314.68C130.1 318.17 131.3 321.68 132.59 325.1C133.33 327.06 134.123 329 134.97 330.92C134.97 330.92 135.05 330.92 135.04 330.92C134.07 327.36 132.85 323.87 131.62 320.36Z" fill="#263238"/>
<path d="M144.52 332.67C144.06 331.67 143.52 330.31 142.99 329.36C142.86 329.1 142.67 329.14 142.77 329.36C143.11 330.23 143.36 331.2 143.7 332.1C142.9 332.17 142.11 332.23 141.32 332.32L138.57 332.61C136.77 332.797 134.97 332.967 133.17 333.12C129.53 333.42 125.883 333.643 122.23 333.79C114.899 334.129 107.556 334.082 100.23 333.65C98.23 333.52 96.14 333.35 94.1 333.12C92.06 332.89 89.8 332.61 88.1 332.23C88.05 332.23 88.03 332.3 88.1 332.32C89.7892 332.857 91.5178 333.262 93.27 333.53C95.11 333.8 96.95 334.03 98.8 334.19C102.49 334.52 106.19 334.65 109.89 334.68C117.223 334.74 124.557 334.493 131.89 333.94C133.94 333.79 135.98 333.61 138.03 333.41L141.12 333.08C142.14 333 144.6 332.84 144.52 332.67Z" fill="#263238"/>
<path d="M217.47 331.98H146.18V335.17H217.47V331.98Z" fill="#C7C7C7"/>
<path d="M217.47 331.98V335.17H169.01L171.45 331.98H217.47Z" fill="#A6A6A6"/>
<path d="M178.81 335.17H241.2L250.23 291.15H187.84L178.81 335.17Z" fill="#A6A6A6"/>
<path d="M181.73 335.17H244.12L253.15 291.15H190.76L181.73 335.17Z" fill="#C7C7C7"/>
<path d="M223.06 311.52C223.129 312.502 222.865 313.479 222.309 314.292C221.754 315.106 220.94 315.707 220 316C218.22 316.38 216.73 315 216.66 312.91C216.608 311.929 216.886 310.959 217.45 310.154C218.014 309.35 218.83 308.757 219.77 308.47C221.5 308.06 223 309.45 223.06 311.52Z" fill="white"/>
<path d="M362.76 426.55C361.83 428.97 317.06 483.25 314.04 484.25C312.9 484.63 304.61 478.57 294.81 470.96C292.69 469.32 290.51 467.61 288.31 465.86C274.01 454.53 259.1 442.18 259.1 442.18L289 405.78L317.38 430.46L323.62 435.88C323.62 435.88 350 422.76 353.43 422C356.86 421.24 363.69 424.13 362.76 426.55Z" fill="#AD6359"/>
<path d="M362.76 426.55C361.83 428.97 317.06 483.25 314.04 484.25C312.65 484.7 300.7 475.67 288.31 465.86L317.31 430.46L323.55 435.88C323.55 435.88 350 422.76 353.43 422C356.86 421.24 363.69 424.13 362.76 426.55Z" fill="#EBEBEB"/>
<path d="M362.76 426.55C361.83 428.97 317.06 483.25 314.04 484.25C312.9 484.63 304.61 478.57 294.81 470.96L323.57 435.88C323.57 435.88 350 422.76 353.43 422C356.86 421.24 363.69 424.13 362.76 426.55Z" fill="#00D54B"/>
<path d="M359.94 425.54C352.21 434.45 321.89 471.14 314.94 480.54C314.89 480.62 314.94 480.66 315 480.54C322.85 471.87 352.89 434.93 360.11 425.61C360.25 425.46 360.11 425.35 359.94 425.54Z" fill="#263238"/>
<path d="M348.6 423.91C347.739 424.901 347.093 426.059 346.702 427.312C346.312 428.565 346.185 429.886 346.33 431.19C346.586 433.522 347.724 435.669 349.51 437.19C349.57 437.19 349.65 437.13 349.6 437.08C348.058 435.281 347.139 433.032 346.979 430.668C346.818 428.304 347.425 425.951 348.71 423.96C348.77 423.93 348.66 423.84 348.6 423.91Z" fill="#263238"/>
<path d="M327.39 433.1C324.33 436.7 322.14 441.98 323.25 446.7C323.25 446.88 323.55 446.82 323.58 446.7C324.54 442.139 325.985 437.694 327.89 433.44C327.935 433.374 327.952 433.292 327.937 433.213C327.922 433.135 327.876 433.065 327.81 433.02C327.744 432.975 327.662 432.958 327.583 432.973C327.505 432.988 327.435 433.034 327.39 433.1V433.1Z" fill="#263238"/>
<path d="M330.8 431.19C327.75 434.79 325.55 440.07 326.66 444.79C326.66 444.97 326.97 444.91 327 444.79C327.954 440.229 329.395 435.783 331.3 431.53C331.345 431.464 331.362 431.382 331.347 431.303C331.332 431.225 331.286 431.155 331.22 431.11C331.154 431.065 331.072 431.048 330.993 431.063C330.915 431.078 330.845 431.124 330.8 431.19V431.19Z" fill="#263238"/>
<path d="M334.22 429.28C331.16 432.88 328.97 438.16 330.08 442.88C330.08 443.07 330.38 443 330.41 442.88C331.369 438.319 332.814 433.873 334.72 429.62C334.765 429.554 334.782 429.472 334.767 429.393C334.752 429.315 334.706 429.245 334.64 429.2C334.574 429.155 334.492 429.138 334.413 429.153C334.335 429.168 334.265 429.214 334.22 429.28V429.28Z" fill="#263238"/>
<path d="M337.63 427.37C334.58 430.97 332.38 436.26 333.49 440.98C333.54 441.16 333.8 441.1 333.83 440.98C334.787 436.419 336.228 431.974 338.13 427.72C338.176 427.654 338.195 427.572 338.181 427.492C338.166 427.412 338.121 427.341 338.055 427.295C337.989 427.249 337.907 427.23 337.827 427.244C337.747 427.259 337.676 427.304 337.63 427.37V427.37Z" fill="#263238"/>
<path d="M308.19 471.1C304.83 475.19 311.19 480.42 314.56 476.31C317.93 472.2 311.56 467 308.19 471.1Z" fill="white"/>
<path d="M320.91 421.14C317.91 421.73 317.44 425.28 318.09 427.73C319.287 431.91 321.559 435.703 324.68 438.73C324.75 438.8 324.83 438.73 324.88 438.73C324.96 438.772 325.049 438.795 325.139 438.797C325.23 438.798 325.319 438.778 325.4 438.738C325.481 438.698 325.552 438.639 325.606 438.566C325.659 438.494 325.695 438.409 325.71 438.32C326.06 434.25 326.93 429.93 326.01 425.88C325.48 423.47 323.8 420.59 320.91 421.14ZM325 432C324.88 434 324.66 436 324.61 438C323.268 435.897 322.033 433.728 320.91 431.5C320.376 430.414 319.922 429.291 319.55 428.14C319 426.36 318.9 420.27 323.17 423.14C325.48 424.78 325.11 429.6 325 432Z" fill="#263238"/>
<path d="M318.57 448.88C321.67 446.11 323.46 442.1 325.57 438.58C325.79 438.22 325.47 437.84 325.13 437.76C325.132 437.741 325.129 437.722 325.122 437.705C325.116 437.687 325.106 437.671 325.092 437.658C325.079 437.644 325.063 437.634 325.045 437.628C325.028 437.621 325.009 437.618 324.99 437.62C320.693 438.268 316.641 440.034 313.24 442.74C311.24 444.35 309.57 447.49 311.71 449.74C313.85 451.99 316.75 450.5 318.57 448.88ZM314.68 449.37C309.52 449.26 313.14 444.37 314.62 443.23C315.596 442.516 316.618 441.868 317.68 441.29C319.886 440.124 322.153 439.076 324.47 438.15C323.34 439.81 322.36 441.56 321.3 443.26C320 445.29 317.52 449.43 314.68 449.37Z" fill="#263238"/>
<path d="M315.87 424.9L282.64 464.28L182.42 392.92L172.54 385.92C172.54 385.92 169.7 387.79 165.43 390.08C159.5 393.27 150.81 397.29 143.16 398.32C130.32 400 111 399.58 100.37 385C91.37 372.72 94.48 356.89 94.48 356.89L108.63 351C108.63 351 142.27 323.66 163.85 323.09C173.01 322.83 186.27 329.94 198.53 337.34C210.79 344.74 315.87 424.9 315.87 424.9Z" fill="#263238"/>
<path d="M172.54 385.88C172.54 385.88 169.7 387.75 165.43 390.04C158.04 380.97 142.36 364.47 141.88 363.88L172.54 385.88Z" fill="#37474F"/>
<path d="M120.94 341.89C118.94 343.25 116.94 344.69 115.01 346.09C113.08 347.49 111.01 348.75 109.2 350.25C107.39 351.75 105.52 353.41 103.74 355.06C102.88 355.85 102.03 356.65 101.2 357.48C100.327 358.275 99.5146 359.134 98.77 360.05C98.71 360.14 98.83 360.24 98.92 360.19C99.8624 359.536 100.761 358.821 101.61 358.05L104.42 355.72C106.23 354.22 108.07 352.72 109.88 351.26C111.69 349.8 113.33 348.13 115.11 346.61C116.89 345.09 119 343.49 121 342C121 341.93 121 341.86 120.94 341.89Z" fill="#37474F"/>
<path d="M305.61 421.11C303.61 423.23 301.73 425.51 299.85 427.75C297.97 429.99 296.09 432.25 294.23 434.52C290.5 439.06 286.75 443.58 283.08 448.17C281.08 450.69 279.08 453.23 277.21 455.86C277.13 455.97 277.32 456.11 277.41 456.01C281.41 451.71 285.08 447.13 288.79 442.59C292.5 438.05 296.23 433.49 299.88 428.9C301.88 426.38 303.94 423.9 305.78 421.24C305.86 421.14 305.69 421 305.61 421.11Z" fill="#37474F"/>
<path d="M230.28 426.88C225.19 422.77 213.61 414.73 208.33 410.88C203.05 407.03 197.83 403.19 192.5 399.46C190.97 398.39 189.42 397.34 187.88 396.29C186.34 395.24 184.73 394.29 183.23 393.17C183.14 393.11 183.06 393.26 183.14 393.32C184.53 394.32 185.83 395.48 187.19 396.53C188.55 397.58 189.78 398.53 191.09 399.53C193.65 401.47 196.23 403.37 198.81 405.28C204.03 409.16 209.3 412.98 214.62 416.74C217.62 418.86 226.96 425.16 230.05 427.18C230.23 427.31 230.45 427 230.28 426.88Z" fill="#37474F"/>
<path d="M263.19 384.63C258.49 380.63 247.77 372.95 242.84 369.25C237.91 365.55 232.84 361.74 227.84 358.02L213 347C208.18 343.43 203.39 339.8 198.3 336.63C195.51 334.89 192.65 333.28 189.71 331.83C186.858 330.321 183.88 329.063 180.81 328.07C180.72 328.07 180.67 328.17 180.75 328.22C183.26 329.66 185.9 330.88 188.45 332.28C191 333.68 193.45 335.1 195.87 336.62C200.92 339.77 205.69 343.34 210.48 346.87C220.43 354.21 230.36 361.58 240.38 368.87C245.98 372.87 257.15 381.28 262.98 385.02C263.15 385.05 263.36 384.77 263.19 384.63Z" fill="#37474F"/>
</svg>
