<svg width="400" height="400" viewBox="0 0 500 500" fill="none" xmlns="http://www.w3.org/2000/svg">
<path d="M402.07 352.98H437.23V341.79H402.07V352.98Z" fill="#EBEBEB"/>
<path d="M421.68 159.99H456.84V148.8H421.68V159.99Z" fill="#EBEBEB"/>
<path d="M421.68 367.1L439.38 366.8L448.13 366.68H456.84L456.38 367.14V355.95L456.88 356.45L439.3 356.38L430.51 356.29L421.72 356.18L421.96 355.95L421.68 367.1ZM421.68 367.1L421.45 355.91V355.67H421.69L430.48 355.56L439.27 355.48L456.85 355.41H457.35V355.91V367.1V367.55H456.9H448.03L439.2 367.43L421.68 367.1Z" fill="#EBEBEB"/>
<path d="M129.85 339.15L147.55 338.86L156.3 338.74L165.01 338.69L164.55 339.15V327.96L165.05 328.46L147.47 328.39L138.68 328.31L129.89 328.2L130.13 327.96L129.85 339.15ZM129.85 339.15L129.61 328V327.76H129.85L138.64 327.65L147.43 327.57L165.01 327.5H165.51V328V339.19V339.65H165H156.13L147.3 339.53L129.85 339.15Z" fill="#EBEBEB"/>
<path d="M149.46 353.26L167.16 352.97L175.91 352.85L184.62 352.8L184.16 353.26V342.07L184.66 342.57L167 342.5L158.21 342.42L149.42 342.31L149.66 342.07L149.46 353.26ZM149.46 353.26L149.23 342.07V341.83H149.47L158.26 341.72L167.05 341.64L184.63 341.57H185.13V342.07V353.26V353.72H184.68H175.81L166.98 353.6L149.46 353.26Z" fill="#EBEBEB"/>
<path d="M168.99 339.15H204.15V327.96H168.99V339.15Z" fill="#EBEBEB"/>
<path d="M43.1601 367.09H78.3201V355.9H43.1601V367.09Z" fill="#EBEBEB"/>
<path d="M62.7701 56.13L97.9301 56.13V44.94H62.7701V56.13Z" fill="#EBEBEB"/>
<path d="M43.16 70.23L60.86 69.94L69.61 69.82H78.32L77.86 70.27V59.08L78.36 59.58L60.78 59.51L52 59.39L43.21 59.28L43.4 59L43.16 70.23ZM43.16 70.23L42.92 59V58.77H43.16L52 58.7L60.79 58.61L78.37 58.54H78.87V59V70.19V70.65H78.42H69.55L60.72 70.53L43.16 70.23Z" fill="#EBEBEB"/>
<path d="M402.07 56.12L419.77 55.83L428.52 55.71H437.23L436.77 56.16V44.97L437.27 45.47L419.69 45.4L410.9 45.32L402.11 45.21L402.35 44.97L402.07 56.12ZM402.07 56.12L401.83 44.93V44.7H402.07L410.86 44.59L419.65 44.5L437.23 44.43H437.73V44.93L437.68 56.12V56.58H437.23H428.36L419.53 56.46L402.07 56.12Z" fill="#EBEBEB"/>
<path d="M429.282 122.721C452.081 115.898 465.032 91.8848 458.209 69.0858C451.387 46.2868 427.374 33.3354 404.575 40.1581C381.776 46.9808 368.824 70.9939 375.647 93.7929C382.47 116.592 406.483 129.543 429.282 122.721Z" fill="#EBEBEB"/>
<path d="M455.052 102.01C465.861 82.0436 458.438 57.0951 438.471 46.2859C418.505 35.4767 393.557 42.8999 382.747 62.8662C371.938 82.8324 379.362 107.781 399.328 118.59C419.294 129.399 444.242 121.976 455.052 102.01Z" fill="#DBDBDB"/>
<path d="M430.995 119.031C451.193 112.351 462.152 90.5623 455.472 70.3642C448.792 50.1661 427.003 39.2074 406.805 45.8873C386.607 52.5672 375.648 74.3561 382.328 94.5542C389.008 114.752 410.797 125.711 430.995 119.031Z" fill="white"/>
<path opacity="0.5" d="M456.55 74.26C439.01 84.89 410.18 102.32 394.07 111.88C389.516 108.041 385.915 103.197 383.55 97.73L436.83 48.34C441.808 50.9618 446.152 54.6403 449.558 59.1177C452.965 63.5951 455.351 68.7633 456.55 74.26V74.26Z" fill="#EBEBEB"/>
<path opacity="0.5" d="M457.39 83.78C457.256 88.0668 456.397 92.2999 454.85 96.3L406.85 119.02C404.755 118.328 402.724 117.455 400.78 116.41C415.25 108 441.77 92.77 457.39 83.78Z" fill="#EBEBEB"/>
<path d="M419.27 46.72H418.53V52.56H419.27V46.72Z" fill="#C7C7C7"/>
<path d="M401.359 51.2925L400.71 51.6675L403.63 56.7251L404.279 56.3501L401.359 51.2925Z" fill="#C7C7C7"/>
<path d="M388.139 64.2367L387.769 64.8775L392.826 67.7975L393.196 67.1567L388.139 64.2367Z" fill="#C7C7C7"/>
<path d="M389.02 82.06H383.18V82.8H389.02V82.06Z" fill="#C7C7C7"/>
<path d="M394.42 97.4989L389.34 100.419L389.71 101.063L394.79 98.1427L394.42 97.4989Z" fill="#C7C7C7"/>
<path d="M403.648 108.134L400.732 113.194L401.373 113.563L404.289 108.504L403.648 108.134Z" fill="#C7C7C7"/>
<path d="M419.27 112.32H418.53V118.16H419.27V112.32Z" fill="#C7C7C7"/>
<path d="M434.161 108.126L433.521 108.496L436.441 113.554L437.081 113.184L434.161 108.126Z" fill="#C7C7C7"/>
<path d="M444.999 97.0813L444.628 97.7221L449.686 100.643L450.056 100.002L444.999 97.0813Z" fill="#C7C7C7"/>
<path d="M454.63 82.06H448.79V82.8H454.63V82.06Z" fill="#C7C7C7"/>
<path d="M449.661 64.2844L444.604 67.2053L444.974 67.8461L450.031 64.9252L449.661 64.2844Z" fill="#C7C7C7"/>
<path d="M436.431 51.3027L433.514 56.3618L434.155 56.7315L437.072 51.6723L436.431 51.3027Z" fill="#C7C7C7"/>
<path d="M419.46 49.36L420.73 85.04L417.08 84.99L418.47 49.35L419.46 49.36Z" fill="#C7C7C7"/>
<path d="M441.69 70L417.68 85.31L415.94 82.11L441.21 69.12L441.69 70Z" fill="#A6A6A6"/>
<path d="M420.15 82.44C420.15 82.6872 420.077 82.9289 419.939 83.1345C419.802 83.34 419.607 83.5002 419.378 83.5949C419.15 83.6895 418.899 83.7142 418.656 83.666C418.414 83.6178 418.191 83.4987 418.016 83.3239C417.841 83.1491 417.722 82.9263 417.674 82.6839C417.626 82.4414 417.651 82.1901 417.745 81.9617C417.84 81.7332 418 81.538 418.206 81.4007C418.411 81.2633 418.653 81.19 418.9 81.19C419.065 81.1887 419.228 81.2201 419.38 81.2825C419.532 81.3448 419.671 81.4368 419.787 81.5532C419.903 81.6695 419.995 81.8078 420.058 81.9601C420.12 82.1123 420.151 82.2755 420.15 82.44Z" fill="#C7C7C7"/>
<path d="M36.71 462.77L90.03 462.52L143.35 462.44L250 462.27L356.64 462.43L409.97 462.52L463.29 462.77L409.97 463.01L356.64 463.1L250 463.27L143.35 463.1L90.03 463.01L36.71 462.77Z" fill="#263238"/>
<path d="M71 335.65C71 335.65 71.92 335.65 73 339.65C73.57 341.84 70.21 360.41 70.54 380.13C70.79 394.93 71.54 411.13 72.65 420.38C72.65 420.38 73.73 422.55 77.28 421.89C74.4383 407.966 72.8884 393.809 72.65 379.6C72.5 365.73 75.31 349.89 75.23 339.1C75.2687 337.797 75.5787 336.516 76.14 335.34L71 335.65Z" fill="#455A64"/>
<path d="M74.28 330.51C74.28 330.51 70.13 327.42 70.28 322.7C70.43 317.98 72.08 314.32 74.39 312.09C76.7 309.86 77.51 310 77.51 310C77.51 310 80.1 309.66 81.67 315.09C83.24 320.52 84.79 325.09 82.92 327.89C79.33 333.16 74.28 330.51 74.28 330.51Z" fill="#00D54B"/>
<path opacity="0.3" d="M74.28 330.51C74.28 330.51 70.13 327.42 70.28 322.7C70.43 317.98 72.08 314.32 74.39 312.09C76.7 309.86 77.51 310 77.51 310C77.51 310 80.1 309.66 81.67 315.09C83.24 320.52 84.79 325.09 82.92 327.89C79.33 333.16 74.28 330.51 74.28 330.51Z" fill="black"/>
<path d="M67.37 323.45C67.37 323.45 65.59 318.85 67.19 315.36C68.79 311.87 69.98 311.86 70.33 311.77C70.68 311.68 72.95 312.34 73.79 315.69C74.63 319.04 74.61 321.41 74.07 322.8C73.53 324.19 71.33 325.22 71.33 325.22C70.5738 325.286 69.8133 325.159 69.1203 324.849C68.4273 324.539 67.8249 324.058 67.37 323.45V323.45Z" fill="#00D54B"/>
<path opacity="0.2" d="M67.37 323.45C67.37 323.45 65.59 318.85 67.19 315.36C68.79 311.87 69.98 311.86 70.33 311.77C70.68 311.68 72.95 312.34 73.79 315.69C74.63 319.04 74.61 321.41 74.07 322.8C73.53 324.19 71.33 325.22 71.33 325.22C70.5738 325.286 69.8133 325.159 69.1203 324.849C68.4273 324.539 67.8249 324.058 67.37 323.45V323.45Z" fill="black"/>
<path d="M67.5699 313.91C67.5699 313.91 65.6899 314.4 65.1399 317.62C64.8026 320.177 64.921 322.774 65.4899 325.29C65.6899 325.98 66.2299 332.59 69.6799 335.22C73.1299 337.85 73.7999 336.22 73.7999 336.22C74.6947 335.587 75.431 334.756 75.9514 333.792C76.4718 332.827 76.7622 331.755 76.7999 330.66C77.1114 327.326 76.7718 323.964 75.7999 320.76C74.8599 317.93 74.4899 316.34 72.5599 315.32C70.6299 314.3 68.2499 313.55 67.5699 313.91Z" fill="#00D54B"/>
<path opacity="0.1" d="M67.5699 313.91C67.5699 313.91 65.6899 314.4 65.1399 317.62C64.8026 320.177 64.921 322.774 65.4899 325.29C65.6899 325.98 66.2299 332.59 69.6799 335.22C73.1299 337.85 73.7999 336.22 73.7999 336.22C74.6947 335.587 75.431 334.756 75.9514 333.792C76.4718 332.827 76.7622 331.755 76.7999 330.66C77.1114 327.326 76.7718 323.964 75.7999 320.76C74.8599 317.93 74.4899 316.34 72.5599 315.32C70.6299 314.3 68.2499 313.55 67.5699 313.91Z" fill="black"/>
<path d="M76.28 337C76.28 337 72.12 337.66 70.92 331.7C69.72 325.74 71.14 323.78 71.42 322.94C71.7 322.1 71.35 321.17 72.01 320.15C72.67 319.13 73.09 319.35 73.92 317.98C74.75 316.61 75.01 314.59 75.69 313.98C75.9833 313.683 76.3393 313.455 76.7321 313.313C77.1249 313.171 77.5444 313.119 77.96 313.16C79.1782 313.552 80.3622 314.044 81.5 314.63C82.5 315.01 82.21 316.92 82.87 317.74C83.53 318.56 85.45 320.93 84.65 325.47C83.85 330.01 83.29 333.05 81.28 334.76C79.27 336.47 77.65 337 76.28 337Z" fill="#00D54B"/>
<path d="M70.39 336.7C69.67 336.81 67.94 336.87 65.84 334.31C63.27 331.18 63.53 326.69 63.36 325.54C63.1747 323.334 62.8102 321.147 62.27 319C61.64 317.29 61.8 316.31 61.99 316.19C62.18 316.07 63.74 316.65 64.57 318.67C65.4 320.69 67.17 322.56 67.46 325.53C67.75 328.5 67.61 332.76 69.25 334.53C70.89 336.3 72.68 335.86 72.25 336.68C71.6309 336.724 71.0098 336.73 70.39 336.7V336.7Z" fill="#00D54B"/>
<path d="M71.8199 383.8C71.8199 383.8 69.3399 375.8 77.0799 361.19C84.8199 346.58 91.8399 342.19 91.8399 342.19C91.8399 342.19 91.7699 350.32 84.9699 363.82C78.1699 377.32 72.8599 383.2 71.8199 383.8Z" fill="#455A64"/>
<path d="M88.0499 348.45C88.2799 348.03 88.3699 348.45 88.1499 348.85C85.3999 354.03 75.9099 369.65 72.8499 380.42C72.7199 380.87 72.3499 380.42 72.4999 379.96C78.4999 361.8 85.2599 353.72 88.0499 348.45Z" fill="#37474F"/>
<path d="M91.2999 370.58C91.2999 370.58 91.8199 360.39 89.0299 357.81C86.2399 355.23 85.6399 355.9 84.8199 355.7C83.8336 355.698 82.8561 355.885 81.9399 356.25C81.9399 356.25 86.1599 357.2 87.1199 360.07L91.2999 370.58Z" fill="#00D54B"/>
<path opacity="0.2" d="M91.2999 370.58C91.2999 370.58 91.8199 360.39 89.0299 357.81C86.2399 355.23 85.6399 355.9 84.8199 355.7C83.8336 355.698 82.8561 355.885 81.9399 356.25C81.9399 356.25 86.1599 357.2 87.1199 360.07L91.2999 370.58Z" fill="black"/>
<path d="M95.75 373.68C96.6021 375.063 96.922 376.709 96.65 378.31C94.38 400.31 88.78 412.01 79.6 426.31C79.6 426.31 77.79 430.93 80.05 429.89C80.05 429.89 94.53 414.59 98.3 379.36C98.3 379.36 98.47 375.36 101.08 373.66C101.08 373.67 96.18 372.5 95.75 373.68Z" fill="#455A64"/>
<path d="M94.9999 351.72C95.6181 351.687 96.2256 351.89 96.7005 352.287C97.1754 352.684 97.4825 353.246 97.5599 353.86C98.0999 356.22 102.37 369.02 100.56 372.7C98.7499 376.38 97.9999 374.8 96.3799 375C94.6099 375.26 90.7799 372.69 90.1299 370.6C89.4799 368.51 88.3599 364.22 88.6999 361.77C89.0399 359.32 88.3499 351.8 94.9999 351.72Z" fill="#00D54B"/>
<path opacity="0.1" d="M94.9999 351.72C95.6181 351.687 96.2256 351.89 96.7005 352.287C97.1754 352.684 97.4825 353.246 97.5599 353.86C98.0999 356.22 102.37 369.02 100.56 372.7C98.7499 376.38 97.9999 374.8 96.3799 375C94.6099 375.26 90.7799 372.69 90.1299 370.6C89.4799 368.51 88.3599 364.22 88.6999 361.77C89.0399 359.32 88.3499 351.8 94.9999 351.72Z" fill="black"/>
<path d="M106.17 350.47C106.17 350.47 108.28 352.25 108.36 354.27C108.44 356.29 109.51 365.27 107.19 369.68C104.87 374.09 102.93 375.31 99.6799 375.29C96.4299 375.27 102.15 352.69 102.15 352.69C102.15 352.69 105 349.21 106.17 350.47Z" fill="#00D54B"/>
<path opacity="0.2" d="M106.17 350.47C106.17 350.47 108.28 352.25 108.36 354.27C108.44 356.29 109.51 365.27 107.19 369.68C104.87 374.09 102.93 375.31 99.6799 375.29C96.4299 375.27 102.15 352.69 102.15 352.69C102.15 352.69 105 349.21 106.17 350.47Z" fill="black"/>
<path d="M101.6 351.75C101.6 351.75 104.79 351.9 105.96 354.27C107.437 357.44 108.021 360.953 107.65 364.43C107.11 367.86 106.38 376.26 99.0199 375.26C93.4599 374.5 92.2399 367 92.5099 360.8C92.6999 356.25 95.5099 355.55 97.0899 353.92C98.2744 352.666 99.8805 351.893 101.6 351.75V351.75Z" fill="#00D54B"/>
<path d="M98.9399 375.18C98.9399 375.18 92.8099 376.06 90.1199 372.33C87.4299 368.6 88.3299 365.95 87.8799 363.33C87.6128 361.746 87.1247 360.208 86.4299 358.76C86.4299 358.76 88.1099 359.57 89.4299 364.61C90.7499 369.65 94.9999 374.72 98.9399 375.18Z" fill="#00D54B"/>
<path d="M80.12 429.21C80.12 429.21 82.78 417.92 94.12 407.27C104.93 397.07 111.73 396.76 113.67 395.75L113.9 395.61C115.47 394.48 106.72 406.61 99.13 413.49C91.54 420.37 85.34 426.81 80.12 429.21Z" fill="#455A64"/>
<path d="M105.54 402.35C95.9999 408.47 89.1699 416.2 83.2899 424.84C83.0199 425.24 82.7399 426.06 83.0099 425.67C89.179 416.92 96.7074 409.213 105.31 402.84C105.69 402.55 105.94 402.1 105.54 402.35Z" fill="#37474F"/>
<path d="M57.81 355.54C57.81 355.54 62.68 353.81 63.93 349.25C65.18 344.69 64.67 340.71 63.12 337.89C61.57 335.07 60.77 334.94 60.77 334.94C60.77 334.94 58.4 333.85 55.3 338.58C52.2 343.31 49.37 347.23 50.3 350.44C52.2 356.58 57.81 355.54 57.81 355.54Z" fill="#00D54B"/>
<path opacity="0.3" d="M57.81 355.54C57.81 355.54 62.68 353.81 63.93 349.25C65.18 344.69 64.67 340.71 63.12 337.89C61.57 335.07 60.77 334.94 60.77 334.94C60.77 334.94 58.4 333.85 55.3 338.58C52.2 343.31 49.37 347.23 50.3 350.44C52.2 356.58 57.81 355.54 57.81 355.54Z" fill="black"/>
<path d="M59.5299 360.31C59.5299 360.31 58.6099 360.31 57.5299 364.31C56.5299 368.15 52.0999 395.09 62.3599 417.66C62.3599 417.66 63.2999 421.52 59.7499 420.87C59.7499 420.87 48.8199 394.59 55.2999 363.76C55.4511 362.438 55.1287 361.106 54.3899 360L59.5299 360.31Z" fill="#455A64"/>
<path d="M66.4899 350.83C66.4899 350.83 69.5499 347 68.9999 343.15C68.4499 339.3 67.3599 338.98 66.9999 338.79C66.6399 338.6 64.3299 338.56 62.5399 341.52C60.7499 344.48 60.0799 346.75 60.1799 348.23C60.2799 349.71 62.0899 351.35 62.0899 351.35C62.8059 351.65 63.5874 351.76 64.3584 351.669C65.1294 351.578 65.8637 351.289 66.4899 350.83V350.83Z" fill="#00D54B"/>
<path opacity="0.2" d="M66.4899 350.83C66.4899 350.83 69.5499 347 68.9999 343.15C68.4499 339.3 67.3599 338.98 66.9999 338.79C66.6399 338.6 64.3299 338.56 62.5399 341.52C60.7499 344.48 60.0799 346.75 60.1799 348.23C60.2799 349.71 62.0899 351.35 62.0899 351.35C62.8059 351.65 63.5874 351.76 64.3584 351.669C65.1294 351.578 65.8637 351.289 66.4899 350.83V350.83Z" fill="black"/>
<path d="M69.11 341.65C69.11 341.65 70.76 342.65 70.34 345.91C69.9066 348.451 69.0263 350.896 67.74 353.13C67.36 353.74 64.89 359.89 60.81 361.39C56.73 362.89 56.59 361.13 56.59 361.13C55.9131 360.263 55.4461 359.252 55.2258 358.174C55.0055 357.097 55.0377 355.983 55.32 354.92C56.0024 351.639 57.3205 348.524 59.2 345.75C60.93 343.32 61.76 341.91 63.9 341.51C66.04 341.11 68.57 341.1 69.11 341.65Z" fill="#00D54B"/>
<path opacity="0.1" d="M69.11 341.65C69.11 341.65 70.76 342.65 70.34 345.91C69.9066 348.451 69.0263 350.896 67.74 353.13C67.36 353.74 64.89 359.89 60.81 361.39C56.73 362.89 56.59 361.13 56.59 361.13C55.9131 360.263 55.4461 359.252 55.2258 358.174C55.0055 357.097 55.0377 355.983 55.32 354.92C56.0024 351.639 57.3205 348.524 59.2 345.75C60.93 343.32 61.76 341.91 63.9 341.51C66.04 341.11 68.57 341.1 69.11 341.65Z" fill="black"/>
<path d="M53.9999 361.14C53.9999 361.14 57.7799 363 60.6799 357.65C63.5799 352.3 62.7999 350.02 62.7899 349.13C62.7799 348.24 63.3699 347.47 63.0499 346.29C62.7299 345.11 62.2399 345.21 61.8499 343.66C61.4599 342.11 61.8499 340.09 61.3299 339.35C61.1385 338.977 60.8656 338.653 60.5314 338.4C60.1973 338.147 59.8106 337.973 59.3999 337.89C58.1215 337.902 56.8467 338.026 55.5899 338.26C54.5099 338.32 54.2399 340.26 53.3599 340.83C52.4799 341.4 49.9499 343.12 49.3599 347.68C48.7699 352.24 48.4299 355.33 49.8499 357.56C51.2699 359.79 52.6699 360.76 53.9999 361.14Z" fill="#00D54B"/>
<path d="M59.7099 362.59C60.3599 362.91 61.9899 363.48 64.7599 361.65C68.1399 359.42 69.2099 355.05 69.6999 354C70.5384 351.923 71.5416 349.917 72.6999 348C73.7999 346.55 73.9299 345.57 73.7899 345.4C73.6499 345.23 71.9799 345.32 70.5999 347.02C69.2199 348.72 66.9999 350 65.7999 352.74C64.5999 355.48 63.5299 359.61 61.4399 360.82C59.3499 362.03 57.7799 361.08 57.9399 361.99C58.5159 362.229 59.1072 362.43 59.7099 362.59V362.59Z" fill="#00D54B"/>
<path d="M56.74 406.2C56.74 406.2 59.22 398.2 51.47 383.59C43.72 368.98 36.71 364.59 36.71 364.59C36.71 364.59 36.79 372.72 43.59 386.22C50.39 399.72 55.7 405.6 56.74 406.2Z" fill="#455A64"/>
<path d="M40.4999 370.84C40.2799 370.43 40.1899 370.84 40.4099 371.25C43.1499 376.43 52.6399 392.04 55.6999 402.82C55.8299 403.27 56.1999 402.82 56.0599 402.36C50.0499 384.2 43.2899 376.11 40.4999 370.84Z" fill="#37474F"/>
<path d="M42.59 462.77H112.81L109.71 429.31L109.03 421.93H46.37L45.69 429.31L42.59 462.77Z" fill="#00D54B"/>
<path opacity="0.1" d="M45.8999 426.95L109.71 429.31L109.03 421.93H46.3699L45.8999 426.95Z" fill="black"/>
<path d="M42.3499 424.54H113.04V415.65H42.3499V424.54Z" fill="#00D54B"/>
<path d="M415.94 55.48H84.0601V298.42H415.94V55.48Z" fill="white"/>
<path d="M415.94 298.43L84.0601 298.58H83.9101V298.43L83.8101 55.48V55.23H84.0601L415.94 55.38H416.05V55.48L415.94 298.43ZM415.94 298.43L415.83 55.48L415.94 55.59L84.0601 55.73L84.3101 55.48L84.2101 298.48L84.0601 298.32L415.94 298.43Z" fill="#263238"/>
<path d="M415.94 55.48H84.0601V64.83H415.94V55.48Z" fill="#263238"/>
<path d="M93.08 60.16C93.08 60.5338 92.9692 60.8992 92.7615 61.21C92.5538 61.5209 92.2587 61.7631 91.9133 61.9062C91.568 62.0492 91.188 62.0866 90.8213 62.0137C90.4547 61.9408 90.1179 61.7608 89.8536 61.4965C89.5893 61.2321 89.4093 60.8954 89.3364 60.5287C89.2634 60.1621 89.3009 59.7821 89.4439 59.4367C89.587 59.0914 89.8292 58.7962 90.14 58.5885C90.4508 58.3809 90.8162 58.27 91.19 58.27C91.6913 58.27 92.172 58.4691 92.5265 58.8236C92.8809 59.178 93.08 59.6588 93.08 60.16V60.16Z" fill="#00D54B"/>
<path d="M100.77 60.16C100.77 60.5338 100.659 60.8992 100.452 61.21C100.244 61.5209 99.9487 61.7631 99.6034 61.9062C99.258 62.0492 98.878 62.0866 98.5114 62.0137C98.1448 61.9408 97.808 61.7608 97.5437 61.4965C97.2794 61.2321 97.0994 60.8954 97.0264 60.5287C96.9535 60.1621 96.9909 59.7821 97.134 59.4367C97.277 59.0914 97.5193 58.7962 97.8301 58.5885C98.1409 58.3809 98.5063 58.27 98.8801 58.27C99.3814 58.27 99.8621 58.4691 100.217 58.8236C100.571 59.178 100.77 59.6588 100.77 60.16V60.16Z" fill="white"/>
<path d="M108.46 60.16C108.46 60.5338 108.349 60.8992 108.142 61.21C107.934 61.5209 107.639 61.7631 107.293 61.9062C106.948 62.0492 106.568 62.0866 106.201 62.0137C105.835 61.9408 105.498 61.7608 105.234 61.4965C104.969 61.2321 104.789 60.8954 104.716 60.5287C104.643 60.1621 104.681 59.7821 104.824 59.4367C104.967 59.0914 105.209 58.7962 105.52 58.5885C105.831 58.3809 106.196 58.27 106.57 58.27C107.071 58.27 107.552 58.4691 107.906 58.8236C108.261 59.178 108.46 59.6588 108.46 60.16V60.16Z" fill="#455A64"/>
<path d="M263.25 178.57H116.27V194.65H263.25V178.57Z" fill="#EBEBEB"/>
<path d="M263.25 212.54H116.27V228.62H263.25V212.54Z" fill="#EBEBEB"/>
<path d="M351.07 154.23V181.09H343.47V154.23C343.47 144.01 335.71 135.7 326.17 135.7C316.63 135.7 308.86 144.01 308.86 154.23V181.09H301.27V154.23C301.27 139.6 312.44 127.7 326.17 127.7C339.9 127.7 351.07 139.6 351.07 154.23Z" fill="#DBDBDB"/>
<path d="M301.27 161.21L308.86 161.52V181.09H301.27V161.21Z" fill="#C7C7C7"/>
<path d="M351.06 163.24V181.09H343.47V162.93L351.06 163.24Z" fill="#C7C7C7"/>
<path d="M360.8 171.15H291.54V228.63H360.8V171.15Z" fill="#00D54B"/>
<path opacity="0.1" d="M326.17 171.15H291.54V228.63H326.17V171.15Z" fill="black"/>
<path d="M329.42 199.51L332.32 213.27H320L322.9 199.51C321.764 198.803 320.889 197.744 320.407 196.495C319.926 195.246 319.864 193.875 320.232 192.588C320.6 191.301 321.377 190.168 322.446 189.362C323.514 188.556 324.817 188.12 326.155 188.12C327.494 188.12 328.796 188.556 329.864 189.362C330.933 190.168 331.71 191.301 332.078 192.588C332.446 193.875 332.384 195.246 331.903 196.495C331.422 197.744 330.547 198.803 329.41 199.51H329.42Z" fill="#263238"/>
<path d="M387.17 175L384.07 174.5C384.921 169.103 383.86 163.578 381.071 158.879C378.281 154.18 373.939 150.603 368.793 148.766C363.647 146.928 358.021 146.945 352.887 148.813C347.752 150.682 343.431 154.285 340.67 159L337.89 157.54C340.999 152.167 345.89 148.051 351.716 145.906C357.541 143.76 363.933 143.721 369.785 145.794C375.636 147.867 380.578 151.922 383.753 157.257C386.928 162.591 388.137 168.868 387.17 175V175Z" fill="#37474F"/>
<path d="M383.24 175.09L383.36 174.38C384.178 169.15 383.145 163.798 380.438 159.249C377.732 154.699 373.523 151.237 368.537 149.459C363.55 147.681 358.1 147.699 353.126 149.51C348.152 151.322 343.966 154.812 341.29 159.38L340.94 159.97L336.89 157.84L337.27 157.19C340.464 151.662 345.494 147.428 351.486 145.223C357.478 143.018 364.053 142.982 370.068 145.122C376.084 147.261 381.159 151.441 384.413 156.934C387.667 162.427 388.894 168.886 387.88 175.19L387.76 175.9L383.24 175.09ZM366 147.17C371.924 148.449 377.151 151.906 380.646 156.857C384.141 161.807 385.648 167.89 384.87 173.9L386.55 174.17C387.328 168.299 386.067 162.338 382.978 157.285C379.889 152.232 375.16 148.392 369.579 146.408C363.999 144.423 357.907 144.414 352.321 146.382C346.735 148.35 341.994 152.176 338.89 157.22L340.39 158.01C343.02 153.783 346.893 150.472 351.477 148.532C356.062 146.591 361.135 146.115 366 147.17V147.17Z" fill="#37474F"/>
<path d="M380.44 172.22L381.88 171.09L385.28 175.65L389.57 172L390.62 173.43L384.88 178.3L380.44 172.22Z" fill="#37474F"/>
<path d="M384.76 179.35L379.45 172.09L382.01 170.09L385.4 174.62L389.68 170.98L391.6 173.56L384.76 179.35ZM381.43 172.35L385.01 177.24L389.65 173.3L389.45 173.04L385.16 176.68L381.74 172.1L381.43 172.35Z" fill="#37474F"/>
<path d="M334.42 167.26L337.52 167.76C336.659 173.161 337.713 178.692 340.499 183.398C343.285 188.104 347.628 191.688 352.777 193.531C357.926 195.373 363.557 195.358 368.696 193.488C373.835 191.618 378.159 188.011 380.92 183.29L383.7 184.75C380.591 190.129 375.697 194.249 369.867 196.396C364.037 198.543 357.64 198.58 351.785 196.503C345.93 194.425 340.988 190.362 337.816 185.021C334.644 179.679 333.442 173.395 334.42 167.26V167.26Z" fill="#37474F"/>
<path d="M354.92 198.14C348.09 196.669 342.084 192.634 338.14 186.867C334.195 181.099 332.614 174.039 333.72 167.14L333.83 166.43L338.35 167.15L338.23 167.86C337.392 173.096 338.411 178.461 341.11 183.025C343.81 187.59 348.021 191.066 353.014 192.854C358.006 194.641 363.467 194.626 368.45 192.812C373.433 190.998 377.625 187.499 380.3 182.92L380.65 182.32L384.7 184.45L384.32 185.1C381.439 190.114 377.037 194.08 371.751 196.424C366.465 198.769 360.57 199.37 354.92 198.14V198.14ZM335.03 168.14C334.286 174.001 335.57 179.941 338.67 184.971C341.77 190.001 346.498 193.818 352.068 195.788C357.638 197.759 363.715 197.763 369.288 195.8C374.861 193.837 379.594 190.026 382.7 185L381.19 184.21C378.271 188.89 373.84 192.431 368.631 194.245C363.422 196.059 357.75 196.037 352.555 194.182C347.361 192.328 342.957 188.752 340.075 184.05C337.192 179.347 336.005 173.8 336.71 168.33L335.03 168.14Z" fill="#37474F"/>
<path d="M341.15 170.03L339.71 171.16L336.31 166.6L332.03 170.25L330.97 168.82L336.71 163.95L341.15 170.03Z" fill="#37474F"/>
<path d="M331.91 171.29L330 168.71L336.84 162.9L342.15 170.16L339.59 172.16L336.21 167.63L331.91 171.29ZM331.91 168.94L332.11 169.2L336.39 165.56L339.81 170.14L340.12 169.89L336.58 165L331.91 168.94Z" fill="#37474F"/>
<path d="M127.43 184.46C126.501 186.322 124.992 187.831 123.13 188.76C123.566 187.823 124.173 186.975 124.92 186.26C125.64 185.512 126.491 184.902 127.43 184.46V184.46Z" fill="#263238"/>
<path d="M123.13 184.46C124.065 184.904 124.912 185.514 125.63 186.26C126.38 186.974 126.991 187.822 127.43 188.76C125.562 187.839 124.051 186.328 123.13 184.46V184.46Z" fill="#263238"/>
<path d="M128.32 186.61C127.357 186.95 126.342 187.119 125.32 187.11C124.298 187.126 123.282 186.956 122.32 186.61C123.28 186.259 124.298 186.09 125.32 186.11C126.342 186.096 127.358 186.265 128.32 186.61Z" fill="#263238"/>
<path d="M125.28 183.57C125.947 185.542 125.947 187.678 125.28 189.65C124.613 187.678 124.613 185.542 125.28 183.57Z" fill="#263238"/>
<path d="M137.91 184.46C137.468 185.396 136.858 186.244 136.11 186.96C135.396 187.71 134.548 188.321 133.61 188.76C134.539 186.898 136.048 185.389 137.91 184.46Z" fill="#263238"/>
<path d="M133.61 184.46C135.472 185.389 136.981 186.898 137.91 188.76C136.972 188.321 136.124 187.71 135.41 186.96C134.662 186.244 134.052 185.396 133.61 184.46V184.46Z" fill="#263238"/>
<path d="M138.8 186.61C137.837 186.951 136.822 187.12 135.8 187.11C134.778 187.125 133.762 186.955 132.8 186.61C133.761 186.26 134.778 186.09 135.8 186.11C136.822 186.095 137.838 186.265 138.8 186.61V186.61Z" fill="#263238"/>
<path d="M135.76 183.57C136.101 184.533 136.27 185.548 136.26 186.57C136.274 187.592 136.105 188.608 135.76 189.57C135.411 188.609 135.241 187.592 135.26 186.57C135.25 185.548 135.419 184.533 135.76 183.57V183.57Z" fill="#263238"/>
<path d="M148.39 184.46C147.948 185.394 147.342 186.241 146.6 186.96C145.88 187.708 145.03 188.318 144.09 188.76C144.529 187.822 145.14 186.974 145.89 186.26C146.608 185.514 147.455 184.904 148.39 184.46Z" fill="#263238"/>
<path d="M144.09 184.46C145.03 184.902 145.88 185.512 146.6 186.26C147.347 186.975 147.954 187.823 148.39 188.76C146.528 187.831 145.019 186.322 144.09 184.46V184.46Z" fill="#263238"/>
<path d="M149.28 186.61C148.317 186.952 147.302 187.121 146.28 187.11C145.258 187.124 144.242 186.955 143.28 186.61C144.241 186.261 145.258 186.091 146.28 186.11C147.302 186.094 148.318 186.264 149.28 186.61V186.61Z" fill="#263238"/>
<path d="M146.24 183.57C146.907 185.542 146.907 187.678 146.24 189.65C145.573 187.678 145.573 185.542 146.24 183.57V183.57Z" fill="#263238"/>
<path d="M158.88 184.46C157.951 186.322 156.442 187.831 154.58 188.76C155.016 187.823 155.623 186.975 156.37 186.26C157.09 185.512 157.941 184.902 158.88 184.46Z" fill="#263238"/>
<path d="M154.58 184.46C155.515 184.904 156.362 185.514 157.08 186.26C157.83 186.974 158.441 187.822 158.88 188.76C157.941 188.318 157.09 187.708 156.37 186.96C155.628 186.241 155.022 185.394 154.58 184.46V184.46Z" fill="#263238"/>
<path d="M159.77 186.61C158.807 186.95 157.792 187.119 156.77 187.11C155.748 187.126 154.732 186.956 153.77 186.61C154.73 186.259 155.748 186.09 156.77 186.11C157.792 186.096 158.808 186.265 159.77 186.61Z" fill="#263238"/>
<path d="M156.73 183.57C157.397 185.542 157.397 187.678 156.73 189.65C156.063 187.678 156.063 185.542 156.73 183.57V183.57Z" fill="#263238"/>
<path d="M169.36 184.46C168.918 185.396 168.308 186.244 167.56 186.96C166.846 187.71 165.998 188.321 165.06 188.76C165.499 187.822 166.11 186.974 166.86 186.26C167.576 185.512 168.424 184.902 169.36 184.46V184.46Z" fill="#263238"/>
<path d="M165.06 184.46C166.922 185.389 168.431 186.898 169.36 188.76C168.422 188.321 167.574 187.71 166.86 186.96C166.112 186.244 165.502 185.396 165.06 184.46V184.46Z" fill="#263238"/>
<path d="M170.25 186.61C169.287 186.951 168.272 187.12 167.25 187.11C166.228 187.125 165.212 186.955 164.25 186.61C165.211 186.26 166.228 186.09 167.25 186.11C168.272 186.095 169.288 186.265 170.25 186.61V186.61Z" fill="#263238"/>
<path d="M167.21 183.57C167.551 184.533 167.72 185.548 167.71 186.57C167.729 187.592 167.559 188.609 167.21 189.57C166.865 188.608 166.696 187.592 166.71 186.57C166.7 185.548 166.869 184.533 167.21 183.57V183.57Z" fill="#263238"/>
<path d="M179.84 184.46C179.402 185.396 178.795 186.243 178.05 186.96C177.332 187.706 176.485 188.316 175.55 188.76C175.982 187.821 176.59 186.972 177.34 186.26C178.058 185.514 178.905 184.904 179.84 184.46Z" fill="#263238"/>
<path d="M175.55 184.46C176.485 184.904 177.332 185.514 178.05 186.26C178.797 186.975 179.404 187.823 179.84 188.76C178.905 188.316 178.058 187.706 177.34 186.96C176.595 186.243 175.988 185.396 175.55 184.46Z" fill="#263238"/>
<path d="M180.73 186.61C179.767 186.952 178.752 187.121 177.73 187.11C176.708 187.126 175.692 186.957 174.73 186.61C175.69 186.259 176.708 186.089 177.73 186.11C178.752 186.094 179.768 186.264 180.73 186.61V186.61Z" fill="#263238"/>
<path d="M177.69 183.57C178.357 185.542 178.357 187.678 177.69 189.65C177.023 187.678 177.023 185.542 177.69 183.57Z" fill="#263238"/>
<path d="M190.33 184.46C189.401 186.322 187.892 187.831 186.03 188.76C186.466 187.823 187.073 186.975 187.82 186.26C188.54 185.512 189.391 184.902 190.33 184.46Z" fill="#263238"/>
<path d="M186 184.46C186.935 184.904 187.782 185.514 188.5 186.26C189.25 186.974 189.861 187.822 190.3 188.76C189.361 188.318 188.51 187.708 187.79 186.96C187.048 186.241 186.442 185.394 186 184.46V184.46Z" fill="#263238"/>
<path d="M191.22 186.61C190.257 186.95 189.242 187.119 188.22 187.11C187.198 187.126 186.182 186.956 185.22 186.61C186.181 186.259 187.198 186.09 188.22 186.11C189.242 186.096 190.258 186.265 191.22 186.61V186.61Z" fill="#263238"/>
<path d="M188.18 183.57C188.847 185.542 188.847 187.678 188.18 189.65C187.513 187.678 187.513 185.542 188.18 183.57Z" fill="#263238"/>
<path d="M127.43 218.44C126.982 219.373 126.373 220.219 125.63 220.94C124.912 221.686 124.065 222.296 123.13 222.74C123.568 221.801 124.175 220.95 124.92 220.23C125.643 219.488 126.493 218.882 127.43 218.44V218.44Z" fill="#263238"/>
<path d="M123.13 218.44C124.062 218.884 124.909 219.49 125.63 220.23C126.378 220.95 126.988 221.801 127.43 222.74C125.562 221.819 124.051 220.308 123.13 218.44V218.44Z" fill="#263238"/>
<path d="M128.32 220.59C126.348 221.257 124.212 221.257 122.24 220.59C124.212 219.923 126.348 219.923 128.32 220.59V220.59Z" fill="#263238"/>
<path d="M125.28 217.55C125.947 219.522 125.947 221.658 125.28 223.63C124.613 221.658 124.613 219.522 125.28 217.55V217.55Z" fill="#263238"/>
<path d="M137.91 218.44C137.466 219.375 136.856 220.222 136.11 220.94C135.396 221.69 134.548 222.301 133.61 222.74C134.531 220.872 136.043 219.361 137.91 218.44Z" fill="#263238"/>
<path d="M133.61 218.44C135.478 219.361 136.989 220.872 137.91 222.74C136.972 222.301 136.124 221.69 135.41 220.94C134.664 220.222 134.055 219.375 133.61 218.44V218.44Z" fill="#263238"/>
<path d="M138.8 220.59C136.828 221.257 134.692 221.257 132.72 220.59C134.692 219.923 136.828 219.923 138.8 220.59V220.59Z" fill="#263238"/>
<path d="M135.76 217.55C136.102 218.513 136.271 219.528 136.26 220.55C136.274 221.572 136.105 222.588 135.76 223.55C135.411 222.589 135.241 221.572 135.26 220.55C135.249 219.528 135.419 218.513 135.76 217.55Z" fill="#263238"/>
<path d="M148.39 218.44C147.946 219.372 147.34 220.219 146.6 220.94C145.88 221.688 145.03 222.298 144.09 222.74C144.532 221.801 145.142 220.95 145.89 220.23C146.611 219.49 147.458 218.884 148.39 218.44V218.44Z" fill="#263238"/>
<path d="M144.09 218.44C145.027 218.882 145.877 219.488 146.6 220.23C147.345 220.95 147.952 221.801 148.39 222.74C147.455 222.296 146.608 221.686 145.89 220.94C145.147 220.219 144.538 219.373 144.09 218.44V218.44Z" fill="#263238"/>
<path d="M149.28 220.59C147.308 221.257 145.172 221.257 143.2 220.59C145.172 219.923 147.308 219.923 149.28 220.59V220.59Z" fill="#263238"/>
<path d="M146.24 217.55C146.907 219.522 146.907 221.658 146.24 223.63C145.573 221.658 145.573 219.522 146.24 217.55V217.55Z" fill="#263238"/>
<path d="M158.88 218.44C158.432 219.373 157.823 220.219 157.08 220.94C156.362 221.686 155.515 222.296 154.58 222.74C155.018 221.801 155.625 220.95 156.37 220.23C157.093 219.488 157.943 218.882 158.88 218.44Z" fill="#263238"/>
<path d="M154.58 218.44C155.513 218.884 156.359 219.49 157.08 220.23C157.828 220.95 158.438 221.801 158.88 222.74C157.941 222.298 157.09 221.688 156.37 220.94C155.631 220.219 155.025 219.372 154.58 218.44V218.44Z" fill="#263238"/>
<path d="M159.77 220.59C157.798 221.257 155.662 221.257 153.69 220.59C155.662 219.923 157.798 219.923 159.77 220.59V220.59Z" fill="#263238"/>
<path d="M156.73 217.55C157.397 219.522 157.397 221.658 156.73 223.63C156.063 221.658 156.063 219.522 156.73 217.55V217.55Z" fill="#263238"/>
<path d="M160.1 215.39H159.44V225.79H160.1V215.39Z" fill="#263238"/>
<path d="M173.54 242.11H116.55V258.56H173.54V242.11Z" fill="#00D54B"/>
<path d="M122.67 250.86C122.683 250.039 123.019 249.255 123.604 248.679C124.19 248.103 124.979 247.78 125.8 247.78C126.524 247.768 127.229 248.005 127.8 248.45C127.899 248.531 127.963 248.646 127.98 248.772C127.997 248.899 127.965 249.027 127.89 249.13C127.811 249.23 127.696 249.297 127.57 249.315C127.443 249.334 127.315 249.303 127.21 249.23C126.819 248.917 126.331 248.75 125.83 248.76C125.258 248.759 124.707 248.977 124.29 249.37C123.896 249.766 123.673 250.301 123.67 250.86C123.67 251.136 123.724 251.408 123.831 251.663C123.937 251.917 124.093 252.147 124.29 252.34C124.706 252.735 125.256 252.957 125.83 252.96C126.331 252.968 126.818 252.802 127.21 252.49C127.314 252.421 127.44 252.395 127.563 252.416C127.686 252.437 127.796 252.504 127.871 252.603C127.946 252.703 127.981 252.827 127.967 252.951C127.954 253.074 127.894 253.189 127.8 253.27C127.228 253.712 126.523 253.945 125.8 253.93C124.979 253.935 124.188 253.616 123.602 253.04C123.016 252.465 122.681 251.681 122.67 250.86V250.86Z" fill="white"/>
<path d="M134.06 248.7C134.613 249.283 134.921 250.056 134.921 250.86C134.921 251.664 134.613 252.437 134.06 253.02C133.805 253.298 133.496 253.522 133.153 253.679C132.809 253.835 132.437 253.92 132.06 253.93C131.667 253.927 131.278 253.845 130.918 253.689C130.557 253.532 130.231 253.305 129.96 253.02C129.42 252.43 129.121 251.66 129.121 250.86C129.121 250.061 129.42 249.29 129.96 248.7C130.228 248.41 130.552 248.179 130.914 248.02C131.275 247.862 131.666 247.78 132.06 247.78C132.439 247.787 132.812 247.873 133.156 248.031C133.5 248.189 133.808 248.417 134.06 248.7V248.7ZM133.95 250.86C133.949 250.305 133.742 249.771 133.37 249.36C133.198 249.173 132.989 249.023 132.757 248.92C132.525 248.817 132.274 248.763 132.02 248.76C131.759 248.758 131.501 248.811 131.262 248.914C131.023 249.017 130.808 249.169 130.63 249.36C130.254 249.768 130.046 250.305 130.05 250.86C130.042 251.41 130.25 251.942 130.63 252.34C130.799 252.54 131.008 252.703 131.245 252.816C131.481 252.93 131.738 252.993 132 253C132.256 252.996 132.508 252.939 132.74 252.832C132.973 252.726 133.181 252.572 133.35 252.38C133.553 252.182 133.715 251.946 133.827 251.685C133.939 251.424 133.997 251.144 134 250.86H133.95Z" fill="white"/>
<path d="M137.32 253.46C137.33 253.527 137.325 253.595 137.306 253.66C137.287 253.725 137.255 253.785 137.211 253.836C137.167 253.887 137.112 253.928 137.051 253.956C136.989 253.984 136.923 253.998 136.855 253.998C136.788 253.998 136.721 253.984 136.659 253.956C136.598 253.928 136.543 253.887 136.499 253.836C136.455 253.785 136.423 253.725 136.404 253.66C136.385 253.595 136.38 253.527 136.39 253.46V248.46C136.386 248.384 136.402 248.309 136.435 248.241C136.468 248.172 136.518 248.114 136.58 248.07C136.678 247.999 136.801 247.97 136.921 247.988C137.04 248.007 137.148 248.072 137.22 248.17L140 252V248.5C140.003 248.377 140.053 248.26 140.141 248.174C140.229 248.088 140.347 248.04 140.47 248.04C140.593 248.04 140.711 248.088 140.799 248.174C140.887 248.26 140.937 248.377 140.94 248.5V253.5C140.937 253.624 140.887 253.742 140.8 253.83C140.712 253.917 140.594 253.967 140.47 253.97C140.402 253.971 140.335 253.956 140.275 253.927C140.214 253.897 140.161 253.854 140.12 253.8L137.39 250.01L137.32 253.46Z" fill="white"/>
<path d="M146.53 248.9H145.18V253.46C145.18 253.585 145.131 253.704 145.042 253.792C144.954 253.88 144.835 253.93 144.71 253.93C144.585 253.93 144.466 253.88 144.378 253.792C144.29 253.704 144.24 253.585 144.24 253.46V248.9H142.89C142.827 248.9 142.766 248.888 142.708 248.863C142.65 248.839 142.598 248.804 142.554 248.759C142.51 248.714 142.476 248.661 142.453 248.603C142.43 248.545 142.419 248.483 142.42 248.42C142.419 248.358 142.43 248.296 142.453 248.239C142.476 248.181 142.511 248.129 142.555 248.085C142.599 248.041 142.651 248.006 142.709 247.983C142.766 247.96 142.828 247.949 142.89 247.95H146.53C146.655 247.95 146.774 248 146.862 248.088C146.951 248.176 147 248.295 147 248.42C147 248.546 146.951 248.666 146.863 248.756C146.775 248.846 146.656 248.897 146.53 248.9V248.9Z" fill="white"/>
<path d="M148.47 248.42C148.469 248.358 148.48 248.296 148.503 248.239C148.526 248.181 148.561 248.129 148.605 248.085C148.649 248.041 148.701 248.006 148.759 247.983C148.816 247.96 148.878 247.949 148.94 247.95C149.066 247.95 149.186 247.999 149.276 248.087C149.366 248.175 149.417 248.294 149.42 248.42V253.42C149.42 253.483 149.408 253.545 149.383 253.602C149.359 253.66 149.324 253.712 149.279 253.756C149.234 253.8 149.181 253.834 149.123 253.857C149.065 253.88 149.003 253.891 148.94 253.89C148.878 253.891 148.816 253.88 148.759 253.857C148.701 253.834 148.649 253.799 148.605 253.755C148.561 253.711 148.526 253.659 148.503 253.601C148.48 253.544 148.469 253.482 148.47 253.42V248.42Z" fill="white"/>
<path d="M152 253.46C152.01 253.527 152.005 253.595 151.986 253.66C151.967 253.725 151.935 253.785 151.891 253.836C151.847 253.887 151.792 253.928 151.731 253.956C151.669 253.984 151.603 253.998 151.535 253.998C151.468 253.998 151.401 253.984 151.339 253.956C151.278 253.928 151.223 253.887 151.179 253.836C151.135 253.785 151.103 253.725 151.084 253.66C151.065 253.595 151.06 253.527 151.07 253.46V248.46C151.066 248.384 151.082 248.309 151.115 248.241C151.148 248.172 151.198 248.114 151.26 248.07C151.36 247.998 151.484 247.969 151.605 247.987C151.727 248.006 151.836 248.072 151.91 248.17L154.67 251.99V248.5C154.686 248.388 154.742 248.286 154.828 248.213C154.913 248.139 155.022 248.098 155.135 248.098C155.248 248.098 155.357 248.139 155.442 248.213C155.528 248.286 155.584 248.388 155.6 248.5V253.5C155.6 253.625 155.551 253.744 155.462 253.832C155.374 253.92 155.255 253.97 155.13 253.97C155.063 253.969 154.997 253.953 154.936 253.924C154.876 253.894 154.822 253.852 154.78 253.8L152 249.92V253.46Z" fill="white"/>
<path d="M159.65 253.93C159.325 253.931 159.004 253.868 158.703 253.745C158.403 253.621 158.13 253.439 157.901 253.21C157.671 252.98 157.489 252.707 157.365 252.407C157.242 252.107 157.179 251.785 157.18 251.46V248.46C157.179 248.398 157.19 248.336 157.213 248.279C157.236 248.221 157.271 248.169 157.315 248.125C157.359 248.081 157.411 248.046 157.469 248.023C157.526 248 157.588 247.989 157.65 247.99C157.776 247.99 157.896 248.039 157.986 248.127C158.076 248.215 158.127 248.334 158.13 248.46V251.46C158.094 251.678 158.107 251.9 158.165 252.113C158.224 252.325 158.329 252.522 158.472 252.69C158.614 252.858 158.792 252.993 158.992 253.085C159.192 253.178 159.41 253.226 159.63 253.226C159.85 253.226 160.068 253.178 160.268 253.085C160.468 252.993 160.646 252.858 160.788 252.69C160.931 252.522 161.036 252.325 161.095 252.113C161.154 251.9 161.166 251.678 161.13 251.46V248.46C161.13 248.327 161.183 248.2 161.276 248.106C161.37 248.013 161.497 247.96 161.63 247.96C161.763 247.96 161.89 248.013 161.984 248.106C162.077 248.2 162.13 248.327 162.13 248.46V251.46C162.13 251.785 162.066 252.107 161.941 252.408C161.816 252.708 161.633 252.981 161.403 253.21C161.173 253.44 160.899 253.621 160.598 253.745C160.298 253.868 159.975 253.931 159.65 253.93V253.93Z" fill="white"/>
<path d="M163.69 253.46V248.46C163.69 248.335 163.74 248.216 163.828 248.128C163.916 248.04 164.035 247.99 164.16 247.99H167C167.133 247.99 167.26 248.043 167.354 248.136C167.447 248.23 167.5 248.357 167.5 248.49C167.5 248.623 167.447 248.75 167.354 248.844C167.26 248.937 167.133 248.99 167 248.99H164.68V250.55H166.68C166.804 250.553 166.922 250.603 167.01 250.691C167.097 250.778 167.148 250.896 167.15 251.02C167.151 251.083 167.14 251.145 167.117 251.203C167.094 251.261 167.06 251.314 167.016 251.359C166.972 251.404 166.92 251.439 166.862 251.463C166.805 251.488 166.743 251.5 166.68 251.5H164.68V253H167C167.125 253 167.244 253.05 167.332 253.138C167.421 253.226 167.47 253.345 167.47 253.47C167.47 253.595 167.421 253.714 167.332 253.802C167.244 253.89 167.125 253.94 167 253.94H164.2C164.134 253.946 164.068 253.937 164.006 253.916C163.943 253.894 163.886 253.859 163.838 253.814C163.79 253.769 163.752 253.714 163.726 253.653C163.701 253.592 163.688 253.526 163.69 253.46V253.46Z" fill="white"/>
<path d="M193 250.86C193.013 250.039 193.349 249.255 193.934 248.679C194.52 248.103 195.308 247.78 196.13 247.78C196.854 247.768 197.559 248.005 198.13 248.45C198.229 248.531 198.293 248.646 198.31 248.772C198.327 248.899 198.295 249.027 198.22 249.13C198.141 249.23 198.026 249.297 197.9 249.315C197.773 249.334 197.645 249.303 197.54 249.23C197.149 248.917 196.661 248.75 196.16 248.76C195.588 248.759 195.037 248.977 194.62 249.37C194.226 249.766 194.003 250.301 194 250.86C194 251.136 194.054 251.408 194.161 251.663C194.267 251.917 194.423 252.147 194.62 252.34C195.036 252.735 195.586 252.957 196.16 252.96C196.661 252.968 197.148 252.802 197.54 252.49C197.644 252.421 197.77 252.395 197.893 252.416C198.016 252.437 198.126 252.504 198.201 252.603C198.276 252.703 198.311 252.827 198.297 252.951C198.284 253.074 198.224 253.189 198.13 253.27C197.558 253.712 196.853 253.945 196.13 253.93C195.309 253.935 194.518 253.616 193.932 253.04C193.346 252.465 193.011 251.681 193 250.86V250.86Z" fill="#EBEBEB"/>
<path d="M202.8 252.52H200.72L200.3 253.63C200.265 253.718 200.204 253.793 200.125 253.847C200.047 253.9 199.955 253.929 199.86 253.93C199.804 253.94 199.746 253.94 199.69 253.93C199.574 253.881 199.48 253.79 199.428 253.675C199.376 253.56 199.37 253.43 199.41 253.31L201.3 248.31C201.336 248.221 201.399 248.144 201.479 248.091C201.559 248.037 201.654 248.009 201.75 248.01C201.848 248.005 201.946 248.032 202.028 248.086C202.111 248.14 202.175 248.218 202.21 248.31L204.09 253.31C204.113 253.369 204.123 253.432 204.121 253.495C204.119 253.558 204.105 253.621 204.079 253.678C204.053 253.736 204.016 253.788 203.97 253.831C203.923 253.874 203.869 253.908 203.81 253.93C203.757 253.941 203.703 253.941 203.65 253.93C203.555 253.932 203.461 253.904 203.382 253.85C203.303 253.796 203.243 253.719 203.21 253.63L202.8 252.52ZM202.45 251.58L201.75 249.75L201.06 251.58H202.45Z" fill="#EBEBEB"/>
<path d="M206.2 253.46C206.21 253.527 206.205 253.595 206.186 253.66C206.167 253.725 206.135 253.785 206.091 253.836C206.047 253.887 205.992 253.928 205.931 253.956C205.869 253.984 205.803 253.998 205.735 253.998C205.668 253.998 205.601 253.984 205.539 253.956C205.478 253.928 205.423 253.887 205.379 253.836C205.335 253.785 205.303 253.725 205.284 253.66C205.265 253.595 205.26 253.527 205.27 253.46V248.46C205.266 248.384 205.282 248.309 205.315 248.241C205.348 248.172 205.398 248.114 205.46 248.07C205.56 247.998 205.684 247.969 205.805 247.987C205.927 248.006 206.036 248.072 206.11 248.17L208.87 251.99V248.5C208.87 248.44 208.882 248.38 208.905 248.324C208.928 248.268 208.962 248.217 209.005 248.175C209.047 248.132 209.098 248.098 209.154 248.075C209.21 248.052 209.27 248.04 209.33 248.04C209.453 248.04 209.571 248.088 209.659 248.174C209.747 248.26 209.797 248.377 209.8 248.5V253.5C209.8 253.625 209.75 253.744 209.662 253.832C209.574 253.92 209.455 253.97 209.33 253.97C209.262 253.971 209.195 253.956 209.135 253.927C209.074 253.897 209.021 253.854 208.98 253.8L206.24 250.01L206.2 253.46Z" fill="#EBEBEB"/>
<path d="M211.58 250.86C211.598 250.039 211.937 249.257 212.523 248.681C213.11 248.106 213.898 247.782 214.72 247.78C215.443 247.77 216.149 248.006 216.72 248.45C216.817 248.532 216.88 248.648 216.895 248.774C216.91 248.901 216.876 249.028 216.8 249.13C216.723 249.233 216.608 249.301 216.481 249.319C216.353 249.338 216.224 249.306 216.12 249.23C215.734 248.915 215.248 248.748 214.75 248.76C214.178 248.759 213.627 248.977 213.21 249.37C213.011 249.564 212.853 249.796 212.745 250.052C212.637 250.307 212.581 250.582 212.58 250.86C212.577 251.137 212.631 251.411 212.74 251.666C212.848 251.921 213.008 252.15 213.21 252.34C213.626 252.735 214.176 252.957 214.75 252.96C215.248 252.97 215.733 252.803 216.12 252.49C216.224 252.41 216.354 252.375 216.484 252.392C216.613 252.409 216.731 252.477 216.81 252.58C216.89 252.683 216.925 252.814 216.908 252.944C216.891 253.073 216.824 253.19 216.72 253.27C216.148 253.711 215.442 253.944 214.72 253.93C213.898 253.935 213.107 253.616 212.519 253.041C211.93 252.466 211.593 251.682 211.58 250.86V250.86Z" fill="#EBEBEB"/>
<path d="M218.43 253.46V248.46C218.429 248.398 218.44 248.336 218.463 248.279C218.486 248.221 218.521 248.169 218.565 248.125C218.609 248.081 218.661 248.046 218.719 248.023C218.776 248 218.838 247.989 218.9 247.99H221.69C221.823 247.99 221.95 248.043 222.044 248.136C222.137 248.23 222.19 248.357 222.19 248.49C222.19 248.623 222.137 248.75 222.044 248.844C221.95 248.937 221.823 248.99 221.69 248.99H219.38V250.55H221.38C221.503 250.555 221.62 250.606 221.707 250.693C221.794 250.78 221.845 250.897 221.85 251.02C221.85 251.146 221.801 251.266 221.713 251.356C221.625 251.446 221.506 251.497 221.38 251.5H219.38V253H221.69C221.815 253 221.934 253.05 222.022 253.138C222.11 253.226 222.16 253.345 222.16 253.47C222.16 253.595 222.11 253.714 222.022 253.802C221.934 253.891 221.815 253.94 221.69 253.94H218.9C218.837 253.941 218.774 253.93 218.716 253.906C218.658 253.882 218.605 253.847 218.561 253.802C218.517 253.757 218.482 253.703 218.46 253.645C218.437 253.586 218.427 253.523 218.43 253.46V253.46Z" fill="#EBEBEB"/>
<path d="M223.49 253.46V248.46C223.507 248.346 223.564 248.242 223.651 248.166C223.738 248.091 223.85 248.049 223.965 248.049C224.08 248.049 224.192 248.091 224.279 248.166C224.366 248.242 224.423 248.346 224.44 248.46V253H226.76C226.885 253 227.004 253.05 227.092 253.138C227.18 253.226 227.23 253.345 227.23 253.47C227.23 253.595 227.18 253.714 227.092 253.802C227.004 253.891 226.885 253.94 226.76 253.94H224C223.934 253.946 223.868 253.937 223.805 253.916C223.743 253.894 223.686 253.859 223.638 253.814C223.59 253.769 223.552 253.714 223.526 253.653C223.501 253.592 223.488 253.526 223.49 253.46V253.46Z" fill="#EBEBEB"/>
<path d="M359 331.71C356.39 363.24 336 431.93 321.77 443.65C312.59 451.19 273.24 459.56 252.62 459.59C244.16 459.59 237.88 401.64 250.62 400.81C272.51 399.39 288 397.39 293.83 394.38C298.37 392.03 309.77 370.17 340.65 328.51C352.05 313 360.44 314 359 331.71Z" fill="#D3766A"/>
<path d="M263.76 458.37C262.69 458.64 247.52 462.43 238.55 462.98C231.85 463.39 212.55 464.06 211.36 456.74C210.55 451.74 221.86 450.01 229.82 448.61C234.02 447.87 239.65 444.92 239.08 442.19C238.08 437.44 227.21 439.55 219.87 441.87C205.66 446.35 185.97 455.74 179.73 447.64C177.37 444.58 181.73 440.95 187.62 437.75C178.49 440.97 169.04 443.17 166.29 439.87C164.7 437.99 165.06 435.98 166.64 433.94C163.99 434.19 161.84 433.54 160.64 431.59C158.64 428.29 160.82 424.59 164.59 421.08C164.117 420.914 163.69 420.64 163.342 420.278C162.995 419.917 162.737 419.479 162.59 419C159 409.37 192 391.45 202 391.34C231.53 390.96 260.81 400.09 260.81 400.09C269.84 411.36 263.78 458.35 263.76 458.37Z" fill="#D3766A"/>
<path d="M228.32 423.3C221.414 422.85 214.491 423.873 208.01 426.3C199.85 429.39 193.9 433.82 186.69 438.02C186.658 438.046 186.637 438.082 186.63 438.122C186.622 438.162 186.63 438.203 186.65 438.238C186.671 438.273 186.703 438.3 186.742 438.313C186.78 438.326 186.822 438.325 186.86 438.31C190.29 436.31 204.28 429.08 207.86 427.52C214.29 424.613 221.297 423.208 228.35 423.41C228.4 423.43 228.4 423.31 228.32 423.3Z" fill="#263238"/>
<path d="M225.77 410.23C217.95 410.6 209.94 410.94 202.32 412.89C193.98 415.02 186.73 419.89 179.62 424.62C175.36 427.44 171.16 430.35 167.02 433.35C166.85 433.48 167.02 433.77 167.19 433.65C174.417 428.777 181.79 424.127 189.31 419.7C196.267 415.543 203.979 412.807 212 411.65C216.58 410.99 221.2 410.65 225.81 410.37C225.85 410.37 225.86 410.23 225.77 410.23Z" fill="#263238"/>
<path d="M220.23 398.06C212.74 397.93 206.23 397.78 199.01 400.2C189.48 403.39 179.46 410.13 175.94 412.53C172.04 415.17 168.24 417.95 164.48 420.78C164.33 420.9 164.53 421.17 164.69 421.05C173.217 414.904 182.132 409.316 191.38 404.32C195.751 401.877 200.474 400.123 205.38 399.12C210.296 398.362 215.267 398.028 220.24 398.12L220.23 398.06Z" fill="#263238"/>
<path d="M347.91 404.74L308.38 366C308.38 366 331.92 332.58 347.8 318C356.7 309.81 363.17 316.62 363.12 327.55C362.94 365.81 347.91 404.74 347.91 404.74Z" fill="#00D54B"/>
<path d="M347.91 404.74L308.38 366C308.38 366 331.92 332.58 347.8 318C356.7 309.81 363.17 316.62 363.12 327.55C362.94 365.81 347.91 404.74 347.91 404.74Z" fill="#00D54B"/>
<path opacity="0.1" d="M360.26 334.36C361.16 334.66 362.04 334.99 362.88 335.36C362.91 334.87 362.94 334.37 362.94 333.87C361.998 333.622 361.033 333.471 360.06 333.42C360.01 333.2 359.97 332.97 359.92 332.75C359.915 326.903 359.4 321.067 358.38 315.31C357.55 314.775 356.596 314.461 355.61 314.4C346.458 326.075 338.861 338.889 333.01 352.52C327.23 349.61 322.53 350.07 318.45 352.3C317.74 353.21 317.07 354.1 316.45 354.94C321.38 351.64 326.58 351.26 332.66 352.79L332.41 353C327.499 352.321 322.496 353.107 318.03 355.26C316.955 355.767 315.921 356.359 314.94 357.03L314.49 357.63C315.351 357 316.25 356.423 317.18 355.9C321.836 353.429 327.134 352.431 332.37 353.04C327.066 354.281 321.912 356.095 317 358.45C315.064 359.478 313.19 360.62 311.39 361.87L311.09 362.28C313.019 360.971 315.022 359.776 317.09 358.7C321.79 356.26 326.94 355.09 331.94 353.39C329.55 355.36 327.12 357.22 324.55 358.95V359C327.056 357.521 329.443 355.849 331.69 354C327.95 357.63 323.64 361.74 319.09 363.84C315.88 365.189 312.524 366.162 309.09 366.74L309.85 367.48C313.75 366.84 318.44 365.82 321.13 364.41C325.35 362.19 328.7 358.35 332.02 354.82C330.053 359.453 328.24 364.12 326.58 368.82L325.96 369.36C325.945 369.35 325.928 369.343 325.909 369.341C325.891 369.34 325.873 369.342 325.856 369.349C325.839 369.356 325.824 369.367 325.813 369.381C325.801 369.395 325.793 369.412 325.79 369.43C325.795 369.456 325.795 369.484 325.79 369.51C323.269 371.557 320.927 373.815 318.79 376.26L319.94 377.4C321.05 376.08 322.24 374.84 323.39 373.55C322.43 375.03 321.52 376.56 320.67 378.11L320.92 378.35C322.073 376.19 323.343 374.07 324.73 371.99C325.03 371.62 325.32 371.25 325.61 370.86L325.55 371.36C324.22 373.92 322.92 376.49 321.67 379.09L321.76 379.17C322.95 376.59 324.21 374.05 325.53 371.53C325.268 374.9 324.831 378.255 324.22 381.58L324.47 381.83C325.15 378.347 325.598 374.822 325.81 371.28C326.09 375.26 326.81 379.49 326.09 383.42L327.41 384.71C328.45 379.85 327.07 374.5 326.85 369.71V369.6C335.6 350.58 344 331.25 357.11 314.84C358.915 325.531 358.878 336.452 357 347.13C352.06 346.75 347.61 347.52 344 351.26C339.164 356.349 336.045 362.826 335.08 369.78C335.066 369.806 335.059 369.835 335.059 369.865C335.059 369.895 335.066 369.924 335.08 369.95C335.106 370.007 335.149 370.056 335.202 370.09C335.255 370.124 335.317 370.143 335.38 370.143C335.443 370.143 335.505 370.124 335.558 370.09C335.611 370.056 335.654 370.007 335.68 369.95C345.59 366.69 351.55 361.14 355.88 352.69C354.521 358.771 352.777 364.76 350.66 370.62C340.88 375.7 343.28 386.57 342.51 396.01C342.49 396.28 342.9 396.41 342.98 396.13C343.01 396.03 343.06 395.93 343.06 395.82C352.01 389.19 355.43 380.14 352.35 369.19C352.331 369.12 352.297 369.055 352.25 369C356.628 359.614 359.158 349.473 359.7 339.13C360.022 341.724 360.758 344.249 361.88 346.61C361.987 345.703 362.087 344.793 362.18 343.88C361.468 341.537 360.949 339.138 360.63 336.71C360.53 336.09 360.42 335.48 360.31 334.86C360.298 334.776 360.281 334.692 360.26 334.61C360.265 334.59 360.265 334.57 360.26 334.55V334.36Z" fill="black"/>
<path opacity="0.1" d="M312.18 369.72L347.91 404.72C347.91 404.72 362.91 365.79 363.12 327.54C363.12 323.45 362.25 319.94 360.66 317.54L312.18 369.72Z" fill="black"/>
<path d="M315.85 361.15C322.42 366.6 339.85 381.91 349.85 393.34C349.91 393.41 349.68 393.66 349.61 393.61C339.85 385.36 321.61 367.53 315.51 361.53C315.39 361.42 315.73 361 315.85 361.15Z" fill="#263238"/>
<path d="M453.32 463.57L317.32 463.22L325.55 412C325.55 412 313.79 397.71 316.01 382.2C318.45 365.2 349.01 322.2 351.62 319.73C362 310 372.86 307.4 382.73 312.5C416.66 330 453.32 463.57 453.32 463.57Z" fill="#00D54B"/>
<g opacity="0.1">
<path d="M410.88 463.47H412.54C411.114 462.321 409.548 461.356 407.88 460.6C403 458.38 398.43 458.97 393.27 459.89C393.709 461.185 394.387 462.386 395.27 463.43H396.7C396.04 462.73 395.4 461.99 394.7 461.24V461.18L394.16 460.61L395.06 460.56C399.87 460.27 403.82 459.48 408.75 462.13C409.488 462.53 410.2 462.978 410.88 463.47Z" fill="black"/>
<path d="M416.615 463.47H416.62V463.48C416.618 463.477 416.617 463.473 416.615 463.47H415.07C413.621 460.18 412.428 456.783 411.5 453.31H411.41C407.12 451.4 402.29 448.76 400.13 444.31C397.97 439.86 398.79 433.51 399.29 428.72C399.293 428.655 399.32 428.594 399.367 428.55C399.413 428.505 399.475 428.48 399.54 428.48C399.579 428.478 399.618 428.487 399.653 428.504C399.688 428.522 399.718 428.548 399.74 428.58C407.23 434.87 413.49 441.85 411.91 451.99C413.156 455.941 414.73 459.781 416.615 463.47Z" fill="black"/>
<path d="M413.55 376.27C413.68 371.07 415.5 366.48 417.17 361.77V361.73C417.06 361.51 417 361.3 416.87 361.12C415.13 366.04 413.55 371.18 413.55 376.27Z" fill="black"/>
<path d="M443.23 441.48C444.31 441.22 445.4 440.93 446.48 440.59V440.55C446.37 440.22 446.27 439.88 446.25 439.71C445.46 440 444.66 440.26 443.84 440.52L443.7 440.57C443.83 440.27 443.96 439.97 444.08 439.66V439.61C444.5 438.57 444.86 437.53 445.2 436.48C445.08 436.09 444.96 435.69 444.83 435.29C444.41 436.81 444.02 438.28 443.57 439.81C443.93 437.877 444.21 435.93 444.41 433.97C444 432.56 443.49 431.11 443 429.63C441.951 440.4 438.991 450.898 434.26 460.63C434.55 435.71 426.09 411.05 413.55 388.63C420.45 385.22 422.64 380.16 422.7 374.46C422.34 373.58 421.97 372.72 421.6 371.85C421.87 378.85 418.98 383.8 413.53 388.19V387.87C417.045 384.353 419.442 379.875 420.42 375C420.742 373.42 420.907 371.812 420.91 370.2C420.82 369.98 420.72 369.76 420.63 369.55C420.685 371.007 420.615 372.465 420.42 373.91C419.587 379.116 417.191 383.947 413.55 387.76C415.757 382.775 417.414 377.564 418.49 372.22C418.822 370.195 419.029 368.151 419.11 366.1L418.96 365.76C418.831 367.912 418.584 370.055 418.22 372.18C417.33 377.4 415.16 382.23 413.51 387.23C413.36 384.14 413.34 381.07 413.51 377.98H413.45C413.132 380.882 413.038 383.804 413.17 386.72C412.53 381.54 411.84 375.62 412.9 370.72C413.775 367.283 415.051 363.96 416.7 360.82L416.25 359.82C414.31 363.48 411.8 368.61 411.25 371.99C410.48 376.69 411.53 381.67 412.35 386.46C409.85 382.107 407.22 377.85 404.46 373.69C404.41 373.42 404.41 373.15 404.41 372.88V372.88C404.425 372.87 404.436 372.856 404.444 372.841C404.453 372.825 404.457 372.808 404.457 372.79C404.457 372.772 404.453 372.755 404.444 372.739C404.436 372.724 404.425 372.71 404.41 372.7L404.35 372.64C404 367.27 403.63 361.91 400.9 357.11C397.75 351.57 392.39 347.3 387.39 343.47C387.38 343.4 387.09 343.57 387.09 343.57C387.05 349.68 386.56 357.28 389.76 362.77C392.72 367.84 398.9 370.21 403.53 373.36C403.56 373.41 403.63 373.41 403.63 373.41C413.55 391.85 423.94 410.18 429.15 430.53C419.526 425.534 410.827 418.929 403.43 411C406.72 407.25 408.79 403.24 407.98 398.1C406.834 391.188 403.55 384.809 398.59 379.86C398.543 379.819 398.482 379.797 398.42 379.8C398.359 379.789 398.296 379.795 398.239 379.818C398.181 379.841 398.131 379.88 398.095 379.93C398.058 379.98 398.036 380.04 398.032 380.102C398.028 380.163 398.041 380.225 398.07 380.28C394.69 390.13 395.55 398.25 399.69 406.8C395.653 402.039 391.919 397.029 388.51 391.8C390.35 380.92 380.23 376.3 373.15 370C372.95 369.82 372.6 370.07 372.77 370.31L372.97 370.56C372.87 381.69 378.04 389.87 388.64 394.01C388.709 394.024 388.781 394.024 388.85 394.01C393.696 403.158 400.255 411.289 408.17 417.96C405.567 416.43 402.695 415.412 399.71 414.96C393.84 414.19 389.14 417.1 383.94 419.33L383.8 419.39H383.73C383.643 419.423 383.568 419.482 383.515 419.559C383.462 419.636 383.433 419.727 383.433 419.82C383.433 419.913 383.462 420.004 383.515 420.081C383.568 420.158 383.643 420.217 383.73 420.25C392.46 424.78 404.56 430.83 412.46 421.55L413.08 421.85C418.127 425.647 423.517 428.965 429.18 431.76C429.271 431.803 429.37 431.823 429.47 431.82C429.9 433.61 430.31 435.41 430.66 437.23C432.308 445.903 432.879 454.747 432.36 463.56H434.11C434.17 463.01 434.17 462.53 434.17 462.01C438.629 455.903 441.7 448.897 443.17 441.48H443.23Z" fill="black"/>
</g>
<path d="M349.09 408.09C355.175 408.648 361.211 409.651 367.15 411.09C370.09 411.85 372.98 412.74 375.86 413.69C377.3 414.16 378.75 414.59 380.2 415C381.708 415.482 383.27 415.778 384.85 415.88C384.879 415.88 384.907 415.892 384.928 415.912C384.948 415.933 384.96 415.961 384.96 415.99C384.96 416.019 384.948 416.047 384.928 416.068C384.907 416.088 384.879 416.1 384.85 416.1C383.357 416.173 381.86 416.147 380.37 416.02C378.93 415.846 377.504 415.575 376.1 415.21C373.1 414.47 370.1 413.6 367.17 412.83C361.17 411.28 355.17 409.73 349.02 408.62C348.985 408.615 348.952 408.604 348.921 408.586C348.891 408.569 348.864 408.546 348.843 408.518C348.822 408.49 348.806 408.458 348.797 408.424C348.788 408.39 348.785 408.355 348.79 408.32C348.795 408.285 348.806 408.252 348.824 408.221C348.841 408.191 348.865 408.164 348.892 408.143C348.92 408.122 348.952 408.106 348.986 408.097C349.02 408.088 349.055 408.085 349.09 408.09V408.09Z" fill="#263238"/>
<path d="M334.06 413.49C339.069 412.962 344.104 412.718 349.14 412.76C351.67 412.76 354.14 412.97 356.68 413.21C357.88 413.33 359.07 413.46 360.27 413.62C361.47 413.78 362.87 414.13 364.19 414.28C364.33 414.28 364.33 414.51 364.19 414.5C362.94 414.39 361.67 414.5 360.42 414.5L356.66 414.4C354.15 414.34 351.66 414.3 349.12 414.22C344.12 414.05 339.12 413.93 334.05 413.93C333.78 413.9 333.8 413.51 334.06 413.49Z" fill="#263238"/>
<path d="M399.24 327.11C433.15 370.32 471.64 450.64 460.79 466.2C448.7 483.53 400.57 429.2 402.54 426.69C404.21 424.54 389.81 372.56 379.66 334.82C369.51 297.08 390.86 316.42 399.24 327.11Z" fill="#D3766A"/>
<path d="M440.89 379L385.8 383.54C385.8 383.54 375.97 343.82 375.34 322.24C374.99 310.14 382.05 310.32 390.27 317.52C419 342.75 440.89 379 440.89 379Z" fill="#00D54B"/>
<path opacity="0.1" d="M419 355.85C419 355.85 418.87 355.36 418.84 355.23C418.84 355.17 418.84 355.15 418.74 355.23C418.64 355.31 412.08 366.07 411.14 371.84C410.73 375.055 410.824 378.314 411.42 381.5L412.53 381.41C412.099 377.788 412.2 374.123 412.83 370.53C413.99 365.2 416.71 361 418.58 356.16V356.4C416.25 362.69 413.58 369.54 413.51 376.29C413.68 369.36 416.85 363.52 418.66 357.06C419.152 362.039 418.96 367.063 418.09 371.99C417.489 375.118 416.612 378.187 415.47 381.16H415.9C416.976 378.202 417.799 375.157 418.36 372.06C418.768 369.479 419.002 366.873 419.06 364.26C419.13 362.6 419.23 360.88 419.18 359.18C420.03 364 420.97 368.92 420.29 373.75C419.932 376.267 419.165 378.709 418.02 380.98H418.21C419.141 379.025 419.839 376.968 420.29 374.85C420.935 371.324 420.955 367.713 420.35 364.18C420.873 366.347 421.237 368.55 421.44 370.77C421.798 374.241 421.157 377.742 419.59 380.86L421.36 380.72C424.45 373.49 421.19 364.27 419 355.85ZM413.37 377.72C413.24 378.91 413.15 380.1 413.1 381.3H413.32C413.32 380.12 413.37 378.94 413.43 377.75C413.44 377.69 413.38 377.68 413.38 377.72H413.37ZM404.37 373.48C404.37 373.21 404.37 372.94 404.32 372.67C404.334 372.66 404.346 372.646 404.354 372.631C404.363 372.615 404.367 372.598 404.367 372.58C404.367 372.562 404.363 372.545 404.354 372.529C404.346 372.514 404.334 372.5 404.32 372.49L404.26 372.43C403.91 367.06 403.54 361.7 400.81 356.9C397.66 351.36 392.29 347.09 387.3 343.26C387.3 343.19 386.98 343.34 387 343.36C387 349.47 386.47 357.07 389.67 362.56C392.67 367.63 398.81 370 403.44 373.15C403.44 373.15 403.51 373.15 403.54 373.2L408.13 381.71L409.47 381.6C407.823 378.853 406.117 376.147 404.35 373.48H404.37ZM399.18 356.66C401.3 360.35 401.74 364.23 402.51 368.1C399.363 359.316 394.51 351.241 388.23 344.34C392.35 348.07 396.31 351.71 399.16 356.66H399.18ZM391.1 361.66C388.44 356.91 387.95 349.17 387.39 343.72C388.63 349.05 389.73 354.91 392.34 359.72C394.81 364.27 399.01 367.85 402.86 371.34C398.62 368.63 393.61 366.22 391.08 361.71L391.1 361.66ZM387.63 344.02C393.23 352.699 398.3 361.708 402.81 371C398.98 367.4 394.81 363.89 392.35 359.22C389.89 354.55 389 349.13 387.61 344.07L387.63 344.02ZM402.96 371.09C398.709 361.919 393.768 353.084 388.18 344.66C394.625 352.145 399.632 360.756 402.95 370.06C403.06 370.52 403.19 370.98 403.32 371.43L402.96 371.09ZM400.96 382.25C400.213 381.311 399.401 380.425 398.53 379.6V379.6C398.483 379.559 398.422 379.537 398.36 379.54C398.299 379.529 398.236 379.535 398.179 379.558C398.121 379.581 398.071 379.62 398.035 379.67C397.998 379.72 397.976 379.78 397.972 379.842C397.968 379.903 397.981 379.965 398.01 380.02C397.71 380.88 397.45 381.73 397.22 382.57L398.22 382.49C398.28 382.09 398.33 381.7 398.38 381.3C398.38 381.38 398.43 381.46 398.45 381.54C398.45 381.85 398.45 382.16 398.4 382.47H398.61C398.61 382.32 398.61 382.17 398.61 382.02C398.61 382.17 398.7 382.31 398.74 382.46H399.01C398.87 382.04 398.72 381.62 398.56 381.21C398.56 381.14 398.56 381.07 398.56 381C398.76 381.49 398.97 382 399.2 382.45H399.41C399.25 382.14 399.1 381.83 398.95 381.52L399.56 382.44L400.96 382.25ZM384.96 379.86C385.28 381.23 385.53 382.26 385.68 382.86C385.8 383.06 385.91 383.26 386.01 383.47L387.35 383.36C386.695 382.111 385.882 380.951 384.93 379.91L384.96 379.86ZM386.1 315.07C386.102 315.04 386.102 315.01 386.1 314.98C386.21 314.84 386.33 314.69 386.43 314.54C386.2 314.39 385.96 314.25 385.73 314.12L384.81 315.44C380.467 317.738 377.176 321.62 375.62 326.28C375.69 327.28 375.77 328.28 375.87 329.28C376.03 328.62 376.19 327.97 376.37 327.28C377.81 321.9 380.9 319.21 384.91 316.03C384.985 316.055 385.065 316.055 385.14 316.03C385.178 316.024 385.215 316.011 385.248 315.99C385.28 315.969 385.308 315.942 385.33 315.91C385.33 316.02 385.38 316.12 385.4 316.23C386.45 320.97 386.64 326.23 383.61 330.23C381.595 332.626 379.271 334.744 376.7 336.53C376.75 336.91 376.8 337.29 376.86 337.68C380.35 335.51 384.03 332.88 385.77 329.45C387.93 325.14 387.13 319.69 386.07 315.12L386.1 315.07ZM385.95 315.58C386.04 315.5 385.95 315.35 385.81 315.43L385.37 315.83C385.37 315.59 385.37 315.35 385.42 315.11C385.414 315.095 385.404 315.081 385.391 315.072C385.377 315.063 385.361 315.058 385.345 315.058C385.329 315.058 385.313 315.063 385.299 315.072C385.286 315.081 385.276 315.095 385.27 315.11C385.27 315.4 385.22 315.69 385.19 315.99L385.1 316.08C380.812 320.041 377.657 325.074 375.96 330.66C375.96 330.79 375.96 330.92 375.96 331.05C376.492 329.248 377.185 327.498 378.03 325.82C379.851 322.28 382.247 319.066 385.12 316.31C385.12 316.36 385.12 316.42 385.12 316.47C383.046 319.272 381.279 322.29 379.85 325.47C381.31 322.329 383.068 319.335 385.1 316.53C384.72 320.79 384.17 324.98 382.02 328.8C380.49 331.354 378.646 333.705 376.53 335.8C376.525 335.89 376.525 335.98 376.53 336.07C378.981 333.812 381.036 331.158 382.61 328.22C384.47 324.53 384.99 320.34 385.26 316.22L385.38 316.06C385.38 316.06 385.38 315.99 385.32 316.06L385.25 316.17V316.11L385.95 315.58ZM378.36 328.47C377.63 329.93 376.9 331.38 376.2 332.85C376.2 332.97 376.2 333.08 376.2 333.2C376.89 331.62 377.59 330.04 378.36 328.49C378.38 328.52 378.34 328.49 378.33 328.52L378.36 328.47Z" fill="black"/>
<path d="M387 374.71C395.42 373.31 418.36 370.16 433.53 370.07C433.62 370.07 433.66 370.42 433.53 370.43C420.92 372.43 395.53 374.56 387.02 375.22C386.91 375.24 386.85 374.73 387 374.71Z" fill="#263238"/>
<path d="M392.51 383C390.263 383 388.017 383.047 385.77 383.14L386.2 383.46C385.2 377.39 383.93 371.38 382.57 365.39C381.21 359.4 379.71 353.39 377.92 347.53C378.76 353.63 379.92 359.67 381.15 365.69C382.38 371.71 383.81 377.69 385.4 383.64L385.49 384.01L385.83 383.96C388.06 383.68 390.29 383.37 392.51 383Z" fill="#263238"/>
<path d="M380.38 359.56C380.015 358.305 379.505 357.097 378.86 355.96C378.232 354.811 377.513 353.714 376.71 352.68C376.771 353.342 376.926 353.992 377.17 354.61C377.392 355.226 377.666 355.821 377.99 356.39C378.613 357.567 379.42 358.637 380.38 359.56V359.56Z" fill="#263238"/>
<path d="M377.24 318.15C376.95 320.76 366.79 338.67 355.14 339.5C351.34 339.76 348.98 319.08 348.98 319.08L348.45 317.59L341.14 296.77L364.33 277.69L367.7 275.12C367.7 275.12 369.32 280.95 371.27 288.23C371.37 288.57 371.46 288.9 371.55 289.23C371.64 289.56 371.79 290.02 371.89 290.41C372.19 291.49 372.5 292.6 372.78 293.71C373 294.55 373.22 295.37 373.41 296.26C373.6 297.15 373.83 298.03 374.05 298.92C376 307.8 377.35 317.05 377.24 318.15Z" fill="#D3766A"/>
<path d="M371.27 288.23C369.828 294.488 367.039 300.356 363.098 305.427C359.157 310.497 354.158 314.648 348.45 317.59L341.14 296.77L364.33 277.69L367.7 275.12C367.7 275.12 369.32 281 371.27 288.23Z" fill="#263238"/>
<path d="M373.47 279C374.161 279.817 374.684 280.761 375.01 281.78C376.48 286.41 374.41 291.17 371.81 294.94C369.02 298.94 365.1 302.61 363.75 307.43C363.122 309.311 363.207 311.358 363.99 313.18C364.99 315.18 366.99 316.18 369.04 316.77C371.09 317.36 373.91 317.65 375.39 319.58C375.934 320.413 376.273 321.362 376.381 322.351C376.489 323.34 376.362 324.34 376.01 325.27C374.53 330.06 369.37 332.56 366.3 336.27C362.999 340.185 360.957 345.005 360.44 350.1C359.997 354.873 360.952 359.671 363.19 363.91C364.26 365.985 365.624 367.895 367.24 369.58C369.05 371.44 371.24 372.88 373.13 374.65C375.02 376.42 376.54 378.52 376.47 381.05C376.47 383 372.47 389.05 364.18 392.05C363.59 392.26 364.01 393.32 364.69 393.32C365.996 393.343 367.301 393.287 368.6 393.15C373.962 392.599 379.115 390.78 383.636 387.846C388.156 384.911 391.914 380.943 394.6 376.27C397.433 371.222 398.985 365.557 399.12 359.77C399.2 356.56 399.02 353.31 399.64 350.14C400.244 347.367 401.503 344.778 403.31 342.59C406.68 338.34 411.04 334.94 413.67 330.11C415.969 325.75 417.151 320.889 417.11 315.96C417.056 310.898 415.911 305.907 413.754 301.327C411.597 296.747 408.478 292.686 404.61 289.42C396.93 282.79 373.09 278.54 373.47 279Z" fill="#263238"/>
<path d="M373.68 279.26C374.915 280.973 375.74 282.947 376.09 285.03C376.291 286.936 376.009 288.862 375.27 290.63C373.69 294.63 370.65 297.63 367.74 300.63C365.01 303.48 362.26 306.63 361.63 310.68C361.32 312.413 361.508 314.199 362.17 315.83C363.001 317.565 364.486 318.899 366.3 319.54C369.58 320.87 374.15 321.54 375.41 325.41C376.67 329.28 373.49 332.82 371.24 335.46C365.75 341.91 357.67 349.46 359.85 358.89C360.96 363.66 364.09 368.13 367.28 371.75C369.58 374.37 372.52 377.65 371.9 381.42C371.9 381.56 371.67 381.49 371.69 381.36C372.28 377.36 368.77 374.58 366.3 372.01C363.318 368.989 360.942 365.425 359.3 361.51C357.775 357.555 357.865 353.159 359.55 349.27C361.19 345.22 363.93 341.83 366.81 338.6C368.29 336.94 369.81 335.31 371.23 333.6C372.632 332.128 373.687 330.362 374.32 328.43C374.588 327.459 374.539 326.427 374.179 325.486C373.819 324.545 373.168 323.744 372.32 323.2C370.59 322.01 368.54 321.56 366.6 320.83C364.842 320.27 363.285 319.211 362.12 317.78C361.238 316.561 360.687 315.135 360.52 313.64C360.213 310.237 361.186 306.843 363.25 304.12C366.03 300.22 370.03 297.35 372.74 293.4C374.221 291.404 375.133 289.043 375.38 286.57C375.53 283.96 374.38 281.77 373.26 279.51C373.25 279.458 373.256 279.403 373.278 279.355C373.3 279.306 373.337 279.265 373.382 279.238C373.428 279.211 373.481 279.198 373.535 279.202C373.588 279.206 373.639 279.226 373.68 279.26Z" fill="#263238"/>
<path d="M409.05 289.3C416.97 295.85 420.05 306.69 418.25 316.6C417.172 322.132 414.793 327.329 411.31 331.76C408.12 335.92 404.31 339.76 402.03 344.55C399.54 349.87 400.41 355.61 400.42 361.28C400.438 365.858 399.462 370.386 397.56 374.55C393.825 382.65 387.038 388.945 378.68 392.06C377.63 392.453 376.558 392.787 375.47 393.06C375.455 393.067 375.439 393.07 375.423 393.07C375.407 393.07 375.391 393.066 375.376 393.059C375.361 393.052 375.349 393.041 375.338 393.029C375.328 393.016 375.321 393.001 375.317 392.985C375.314 392.97 375.313 392.953 375.317 392.937C375.32 392.921 375.327 392.906 375.337 392.893C375.346 392.881 375.359 392.87 375.373 392.862C375.388 392.855 375.404 392.851 375.42 392.85C383.99 390.57 391.15 384.26 395.26 376.49C397.298 372.661 398.53 368.454 398.88 364.13C399.29 358.79 398.12 353.4 399.23 348.13C400.23 343.13 403.5 339.08 406.68 335.28C410.16 331.13 413.56 327.02 415.49 321.89C419.08 312.37 417.84 301.21 411.23 293.28C403.85 284.43 392.16 281.79 381.23 280.68L376.84 280.25C376.68 280.25 376.67 279.98 376.84 279.99C388 280.56 400.1 281.9 409.05 289.3Z" fill="#263238"/>
<path d="M375.64 273.3C377.34 273.68 379.2 275.43 379.23 276.6C379.26 277.77 373.76 284.98 371.51 285.16C369.26 285.34 368.33 281.27 368.33 281.27L375.64 273.3Z" fill="#00D54B"/>
<path d="M306.52 269C310.59 307.51 334.1 309.44 342.39 308.56C349.92 307.76 375.46 304.09 375.39 265.36C375.32 226.63 356.15 216.36 338.83 217.26C321.51 218.16 302.45 230.5 306.52 269Z" fill="#D3766A"/>
<path d="M310.76 264.86C311.607 264.593 312.438 264.279 313.25 263.92C314.171 263.718 314.998 263.215 315.6 262.49C315.746 262.226 315.8 261.921 315.755 261.623C315.71 261.324 315.568 261.049 315.35 260.84C314.855 260.491 314.276 260.282 313.673 260.232C313.07 260.183 312.465 260.296 311.92 260.56C310.736 260.921 309.727 261.708 309.09 262.77C308.958 263.021 308.902 263.306 308.929 263.588C308.956 263.871 309.064 264.139 309.242 264.361C309.419 264.583 309.657 264.748 309.926 264.837C310.196 264.925 310.486 264.933 310.76 264.86V264.86Z" fill="#263238"/>
<path d="M336.84 260.8C335.951 260.795 335.064 260.745 334.18 260.65C333.238 260.725 332.296 260.49 331.5 259.98C331.283 259.768 331.142 259.491 331.099 259.191C331.056 258.891 331.112 258.585 331.26 258.32C331.628 257.842 332.117 257.471 332.675 257.244C333.234 257.018 333.843 256.944 334.44 257.03C335.68 257.025 336.877 257.481 337.8 258.31C338 258.51 338.137 258.763 338.196 259.04C338.254 259.316 338.231 259.603 338.129 259.867C338.028 260.131 337.852 260.359 337.623 260.525C337.394 260.69 337.122 260.786 336.84 260.8Z" fill="#263238"/>
<path d="M332.23 271.05C332.23 270.95 332.45 271.15 332.46 271.26C332.71 273.87 333.46 276.81 335.9 277.37C335.98 277.37 335.99 277.52 335.9 277.52C333 277.49 332.05 273.57 332.23 271.05Z" fill="#263238"/>
<path d="M334.2 268C338.34 267.14 339.75 275.48 335.91 276.28C332.07 277.08 330.73 268.76 334.2 268Z" fill="#263238"/>
<path d="M335.91 268.2C336.72 268.55 337.58 269.27 338.47 269.2C339.36 269.13 340.12 268.13 340.65 267.2C340.7 267.1 340.78 267.2 340.8 267.27C341.1 268.87 340.8 270.61 339.09 271.14C337.38 271.67 336.2 270.39 335.53 268.85C335.41 268.55 335.59 268.06 335.91 268.2Z" fill="#263238"/>
<path d="M317.78 272.93C317.78 272.84 317.6 273.09 317.62 273.19C318.16 275.76 318.34 278.79 316.16 280.06C316.09 280.06 316.16 280.23 316.16 280.2C319 279.29 318.7 275.28 317.78 272.93Z" fill="#263238"/>
<path d="M315 270.64C310.79 271.06 311.94 279.44 315.83 279.06C319.72 278.68 318.52 270.29 315 270.64Z" fill="#263238"/>
<path d="M313.33 271.43C312.72 271.97 312.18 272.86 311.39 273.03C310.6 273.2 309.68 272.4 308.98 271.61C308.91 271.53 308.85 271.61 308.86 271.72C309.04 273.32 309.8 274.92 311.38 275.02C312.96 275.12 313.66 273.59 313.82 271.94C313.86 271.64 313.57 271.22 313.33 271.43Z" fill="#263238"/>
<path d="M338.09 290C337.67 290.77 337.32 291.77 336.44 292.13C335.501 292.397 334.517 292.466 333.55 292.33C333.47 292.33 333.41 292.44 333.49 292.49C333.998 292.872 334.601 293.108 335.233 293.175C335.865 293.242 336.503 293.137 337.08 292.87C337.55 292.578 337.922 292.153 338.15 291.65C338.378 291.146 338.451 290.585 338.36 290.04C338.36 289.9 338.15 289.91 338.09 290Z" fill="#263238"/>
<path d="M325.25 284.23C325.25 284.23 325.67 288.16 326.12 289.95C326.12 290.12 326.61 290.09 327.23 289.95C327.23 289.95 327.23 289.95 327.3 289.95C328.908 289.845 330.457 289.299 331.776 288.373C333.095 287.448 334.134 286.177 334.78 284.7C334.86 284.49 334.58 284.37 334.45 284.52C332.553 286.649 330.022 288.111 327.23 288.69C326.98 288.22 326.73 281.94 326.44 281.99C325.079 282.458 323.788 283.108 322.6 283.92C321.48 275.77 321.68 267.5 320.45 259.39C320.45 259.324 320.424 259.26 320.377 259.213C320.33 259.166 320.266 259.14 320.2 259.14C320.134 259.14 320.07 259.166 320.023 259.213C319.976 259.26 319.95 259.324 319.95 259.39C319.13 268.04 320.21 277.46 321.15 285.91C321.26 287 324.61 284.71 325.25 284.23Z" fill="#263238"/>
<path d="M321.53 231.36C321.53 231.36 321.65 237.45 324.75 240.99C331.13 248.27 340.6 243.2 344.99 245.55C349.1 247.75 349.8 254.55 353.61 256.83C358.89 260 363.93 256.76 365.42 259.48C366.91 262.2 371.34 268.31 375.37 268.48C379.4 268.65 380.54 204.03 330.94 217.48C324.977 218.696 319.45 221.494 314.94 225.58C305.39 234.69 305.85 256.81 305.85 256.81C305.85 256.81 306.01 256.48 307.25 254.55C309 251.83 309.36 249.67 310.68 247.85C312.77 244.99 314.47 245.37 316.68 242.53C320 238.13 321.53 231.36 321.53 231.36Z" fill="#263238"/>
<path d="M321.51 228.47C321.438 231.091 321.67 233.712 322.2 236.28C322.571 238.819 323.629 241.209 325.26 243.19C327.092 244.913 329.487 245.912 332 246C334.53 246.2 337.13 245.73 339.88 246C341.301 246.137 342.658 246.663 343.8 247.52C344.835 248.456 345.674 249.588 346.27 250.85C347.48 253.19 348.7 255.49 350.84 256.8C351.909 257.467 353.111 257.893 354.361 258.047C355.612 258.2 356.881 258.079 358.08 257.69C360.51 257.01 363 255.56 365.68 255.96C362.98 255.78 360.74 257.36 358.26 258.27C356.976 258.745 355.603 258.933 354.238 258.82C352.873 258.708 351.55 258.298 350.36 257.62C347.84 256.27 346.51 253.62 345.29 251.39C344.748 250.272 343.99 249.273 343.06 248.45C342.082 247.748 340.93 247.326 339.73 247.23C337.25 246.92 334.61 247.35 331.91 247.11C330.537 247.01 329.188 246.7 327.91 246.19C326.594 245.721 325.42 244.922 324.5 243.87C322.851 241.701 321.831 239.12 321.55 236.41C321.224 233.774 321.211 231.109 321.51 228.47V228.47Z" fill="#263238"/>
<path d="M321.21 230.94C321.389 233.396 321.238 235.865 320.76 238.28C320.34 240.797 319.181 243.133 317.43 244.99C316.511 245.842 315.506 246.597 314.43 247.24C313.507 247.855 312.776 248.718 312.32 249.73C312.003 250.922 311.571 252.081 311.03 253.19C310.391 254.261 309.516 255.171 308.47 255.85C309.324 255.016 310.004 254.02 310.47 252.92C310.895 251.794 311.207 250.628 311.4 249.44C311.823 248.178 312.635 247.082 313.72 246.31C314.71 245.664 315.644 244.935 316.51 244.13C318.086 242.407 319.198 240.311 319.74 238.04C320.39 235.709 320.881 233.337 321.21 230.94V230.94Z" fill="#263238"/>
<path d="M368.79 269C368.79 269 374.79 255.53 380.73 257.45C386.67 259.37 383.79 277.77 377.93 281.35C377.21 281.861 376.393 282.221 375.53 282.408C374.667 282.594 373.775 282.605 372.908 282.437C372.04 282.27 371.216 281.929 370.484 281.434C369.753 280.94 369.129 280.302 368.65 279.56L368.79 269Z" fill="#D3766A"/>
<path d="M379.77 262.68C379.87 262.68 379.91 262.79 379.83 262.84C375.75 265.49 374.22 270.05 373.42 274.63C374.42 272.73 376.03 271.49 378.53 272.63C378.66 272.69 378.59 272.89 378.46 272.89C377.633 272.789 376.796 272.949 376.065 273.347C375.333 273.745 374.744 274.361 374.38 275.11C373.783 276.354 373.32 277.658 373 279C372.87 279.43 372.11 279.36 372.18 278.87C372.18 278.87 372.18 278.8 372.18 278.77C371 273.18 373.82 264.42 379.77 262.68Z" fill="#263238"/>
<path d="M460.06 467.6C447.06 475.44 403.31 470.34 344.78 457.03C336.68 455.19 356 399.03 364.78 400.58C375.78 402.5 418.15 412.33 421.16 413.44C446.49 422.8 468.85 462.28 460.06 467.6Z" fill="#D3766A"/>
<path d="M379.7 406.06C379.7 406.06 376.18 404.76 358.7 394.87C346.62 388.03 312.81 379.1 282.54 403.71C270.94 413.15 272.49 425.4 286.28 417.71C295.99 412.31 302.28 407.71 305.92 406.87C305.92 406.87 299.43 422.59 304.68 430.93C309.289 438.236 314.408 445.206 320 451.79C321.434 451.041 322.82 450.203 324.15 449.28C326.516 452.375 329.706 454.741 333.355 456.107C337.004 457.472 340.963 457.782 344.78 457L379.7 406.06Z" fill="#D3766A"/>
<path d="M346.13 390.19C339 391.65 324 395 312.59 402C299.97 409.8 277.77 428.25 283.59 437.5C287.88 444.29 296.98 437.99 296.98 437.99C296.98 437.99 289.41 447.55 294.63 452.83C299.39 457.65 306.14 452.35 306.14 452.35C306.14 452.35 302.54 458.94 308.02 462.69C314.6 467.21 321.02 452.69 331.68 451.47C334.11 451.24 346.13 390.19 346.13 390.19Z" fill="#D3766A"/>
<path d="M323.06 414C316.59 416.48 303.32 425.88 297 437.74C296.86 438 297 438.26 297.17 438.04C304.834 429.041 313.565 421.009 323.17 414.12C323.2 414.07 323.14 414 323.06 414Z" fill="#263238"/>
<path d="M330.58 427C325.21 429.71 311.96 440 305.98 452.24C305.84 452.52 305.98 452.76 306.16 452.54C313.333 443.162 321.553 434.634 330.66 427.12C330.72 427 330.64 426.93 330.58 427Z" fill="#263238"/>
<path d="M306.16 452.5C304.182 453.908 301.844 454.723 299.42 454.85C298.188 454.873 296.974 454.56 295.906 453.945C294.839 453.33 293.958 452.437 293.36 451.36C292.818 450.244 292.57 449.008 292.64 447.77C292.732 446.548 292.988 445.344 293.4 444.19C294.23 441.894 295.429 439.749 296.95 437.84L297.34 438.27C295.431 439.595 293.275 440.524 291 441C289.847 441.25 288.653 441.25 287.5 441C286.33 440.705 285.267 440.089 284.43 439.22C283.599 438.354 282.988 437.301 282.65 436.15C282.344 434.999 282.276 433.798 282.45 432.62C282.863 430.33 283.733 428.146 285.01 426.2C286.243 424.265 287.685 422.47 289.31 420.85C290.88 419.22 292.5 417.63 294.14 416.07C297.394 412.886 300.819 409.881 304.4 407.07L304.89 407.92C301.568 409.408 298.329 411.077 295.19 412.92C293.62 413.84 292.12 414.83 290.65 415.92C289.149 417.015 287.556 417.978 285.89 418.8C284.219 419.647 282.433 420.246 280.59 420.58C279.634 420.745 278.656 420.745 277.7 420.58C276.694 420.388 275.791 419.837 275.16 419.03C274.552 418.222 274.219 417.241 274.21 416.23C274.194 415.263 274.353 414.3 274.68 413.39C275.331 411.633 276.259 409.992 277.43 408.53C279.761 405.66 282.5 403.146 285.56 401.07C288.55 398.948 291.684 397.036 294.94 395.35C301.431 391.926 308.458 389.637 315.72 388.58C308.513 389.797 301.567 392.236 295.18 395.79C291.966 397.506 288.875 399.444 285.93 401.59C282.96 403.664 280.309 406.16 278.06 409C276.957 410.404 276.089 411.978 275.49 413.66C274.91 415.29 274.82 417.2 275.85 418.49C276.88 419.78 278.75 419.99 280.45 419.72C282.192 419.396 283.877 418.816 285.45 418C287.062 417.199 288.601 416.259 290.05 415.19C291.534 414.095 293.072 413.077 294.66 412.14C297.821 410.274 301.094 408.604 304.46 407.14L308.46 405.37L305 407.84C301.448 410.603 298.043 413.55 294.8 416.67C293.16 418.217 291.553 419.797 289.98 421.41C288.387 422.977 286.975 424.718 285.77 426.6C284.549 428.437 283.712 430.501 283.31 432.67C283.142 433.732 283.189 434.817 283.45 435.86C283.734 436.892 284.266 437.84 285 438.62C285.73 439.396 286.661 439.954 287.69 440.23C288.746 440.483 289.844 440.507 290.91 440.3C293.09 439.877 295.164 439.023 297.01 437.79L298.56 436.79L297.4 438.21C295.906 440.057 294.715 442.13 293.87 444.35C293.451 445.456 293.179 446.613 293.06 447.79C292.969 448.96 293.179 450.134 293.67 451.2C294.225 452.247 295.055 453.123 296.069 453.736C297.083 454.349 298.245 454.675 299.43 454.68C301.834 454.605 304.168 453.849 306.16 452.5V452.5Z" fill="#263238"/>
<path d="M441.59 428.86C439.59 426.61 433.8 419.49 424.59 414.86C416.53 410.86 405.06 408.69 399.08 407.97C398.93 407.97 398.86 408.12 399.01 408.17C404.17 409.93 414.68 412.17 423.31 416.33C429.935 419.648 436.039 423.917 441.43 429C441.53 429.09 441.68 429 441.59 428.86Z" fill="#263238"/>
<path d="M224.57 243.39C224.567 250.117 226.433 256.712 229.961 262.44C233.489 268.167 238.539 272.802 244.548 275.825C250.557 278.849 257.288 280.143 263.99 279.563C270.691 278.983 277.1 276.551 282.5 272.54L300.28 277.08L292.88 260.52C295.482 255.654 296.941 250.26 297.145 244.746C297.349 239.232 296.294 233.744 294.059 228.699C291.825 223.654 288.469 219.185 284.248 215.632C280.027 212.078 275.051 209.534 269.699 208.192C264.347 206.849 258.76 206.745 253.362 207.886C247.963 209.028 242.896 211.385 238.545 214.778C234.194 218.171 230.674 222.512 228.253 227.47C225.831 232.428 224.572 237.872 224.57 243.39V243.39Z" fill="white"/>
<path d="M224.57 243.39C224.613 250.106 226.506 256.68 230.04 262.39C230.918 263.806 231.883 265.165 232.93 266.46C234.015 267.727 235.177 268.926 236.41 270.05C237.05 270.59 237.61 271.21 238.3 271.69L240.3 273.17C240.97 273.67 241.72 274.05 242.42 274.49L243.49 275.13C243.86 275.34 244.24 275.5 244.62 275.68C245.37 276.03 246.12 276.4 246.88 276.74L249.22 277.59C250.003 277.875 250.805 278.105 251.62 278.28C252.43 278.47 253.22 278.73 254.04 278.84C255.675 279.139 257.329 279.319 258.99 279.38C260.656 279.498 262.328 279.474 263.99 279.31C267.298 279.008 270.549 278.251 273.65 277.06C276.737 275.85 279.647 274.228 282.3 272.24L282.43 272.14H282.6L300.4 276.6L299.89 277.21L292.45 260.66L292.35 260.45L292.47 260.24C295.035 255.437 296.475 250.113 296.681 244.672C296.887 239.231 295.854 233.814 293.66 228.83C291.431 223.844 288.137 219.407 284.01 215.83C279.849 212.288 274.934 209.743 269.64 208.39C264.332 207.023 258.783 206.876 253.41 207.96C245.278 209.647 237.975 214.08 232.725 220.515C227.476 226.95 224.6 234.995 224.58 243.3L224.57 243.39ZM224.57 243.39C224.581 237.866 225.848 232.417 228.273 227.454C230.698 222.491 234.219 218.143 238.57 214.74C242.907 211.306 247.974 208.913 253.382 207.745C258.789 206.576 264.392 206.663 269.76 208C275.167 209.312 280.202 211.843 284.48 215.4C288.769 218.977 292.184 223.488 294.463 228.587C296.742 233.686 297.825 239.238 297.63 244.82C297.448 250.417 295.965 255.895 293.3 260.82V260.39L300.66 276.97L301.03 277.8L300.15 277.57L282.39 272.95L282.69 272.89C277.236 276.923 270.761 279.348 264 279.89C262.336 280.018 260.664 280.018 259 279.89C257.321 279.802 255.651 279.598 254 279.28C253.17 279.16 252.37 278.88 251.55 278.69C250.736 278.497 249.934 278.253 249.15 277.96L246.79 277.08C246.03 276.73 245.28 276.34 244.53 275.98C244.16 275.79 243.77 275.62 243.41 275.42L242.34 274.76C241.63 274.3 240.89 273.91 240.22 273.41L238.22 271.89C237.56 271.379 236.929 270.831 236.33 270.25C235.097 269.116 233.935 267.907 232.85 266.63C231.809 265.319 230.847 263.946 229.97 262.52C226.434 256.766 224.564 250.144 224.57 243.39Z" fill="#263238"/>
<path d="M244.12 226.87C242.451 228.538 241.315 230.664 240.854 232.978C240.394 235.293 240.63 237.691 241.533 239.871C242.436 242.052 243.965 243.915 245.927 245.226C247.889 246.537 250.195 247.237 252.555 247.237C254.915 247.237 257.221 246.537 259.183 245.226C261.145 243.915 262.674 242.052 263.577 239.871C264.48 237.691 264.716 235.293 264.256 232.978C263.795 230.664 262.659 228.538 260.99 226.87C259.883 225.761 258.568 224.882 257.121 224.281C255.673 223.681 254.122 223.372 252.555 223.372C250.988 223.372 249.437 223.681 247.989 224.281C246.542 224.882 245.227 225.761 244.12 226.87V226.87ZM246.54 229.3C246.852 228.989 247.25 228.778 247.682 228.692C248.114 228.607 248.562 228.652 248.969 228.821C249.376 228.99 249.724 229.276 249.968 229.642C250.213 230.009 250.344 230.439 250.344 230.88C250.344 231.321 250.213 231.751 249.968 232.118C249.724 232.485 249.376 232.77 248.969 232.939C248.562 233.108 248.114 233.153 247.682 233.068C247.25 232.982 246.852 232.771 246.54 232.46C246.332 232.253 246.167 232.007 246.054 231.735C245.942 231.464 245.884 231.174 245.884 230.88C245.884 230.586 245.942 230.296 246.054 230.025C246.167 229.753 246.332 229.507 246.54 229.3Z" fill="#00D54B"/>
<path d="M254.872 245.385L257.424 247.937L265.167 240.195L262.614 237.642L254.872 245.385Z" fill="#00D54B"/>
<path d="M263.94 241.42L258.69 246.67L259.98 247.96L262.15 247.29L261.48 249.46L263.61 251.59L266.5 251L265.9 253.88L266.38 254.36L268.55 253.69L267.88 255.86L270.06 255.19L269.38 257.37L271.08 259.06L273.96 258.46L273.36 261.34L274.84 262.82L280.69 263.41L280.09 257.57L263.94 241.42Z" fill="#EBEBEB"/>
<path d="M262.019 244.797L277.066 259.844L277.426 259.483L262.379 244.436L262.019 244.797Z" fill="#DBDBDB"/>
<path opacity="0.1" d="M242.18 235.31C242.197 238.055 243.297 240.681 245.24 242.62C247.18 244.525 249.796 245.583 252.515 245.56C255.234 245.538 257.832 244.437 259.74 242.5C261.619 240.581 262.672 238.001 262.672 235.315C262.672 232.629 261.619 230.049 259.74 228.13C257.832 226.194 255.235 225.093 252.517 225.069C249.799 225.044 247.182 226.098 245.24 228C243.297 229.939 242.197 232.565 242.18 235.31V235.31ZM242.18 235.31C242.177 232.548 243.265 229.896 245.207 227.932C247.149 225.967 249.788 224.849 252.55 224.82C254.63 224.796 256.669 225.391 258.41 226.529C260.151 227.667 261.514 229.297 262.327 231.212C263.139 233.126 263.364 235.239 262.973 237.282C262.582 239.325 261.592 241.205 260.13 242.684C258.668 244.163 256.799 245.174 254.761 245.589C252.723 246.003 250.608 245.803 248.684 245.012C246.76 244.222 245.115 242.878 243.957 241.15C242.798 239.423 242.18 237.39 242.18 235.31V235.31Z" fill="black"/>
<path d="M368.4 459.24H234.13V465.26H368.4V459.24Z" fill="#455A64"/>
<path d="M301.71 459.24H234.13V465.26H301.71V459.24Z" fill="#37474F"/>
<path d="M297.61 465.25H166.75L149.65 376.38H280.5L297.61 465.25Z" fill="#37474F"/>
<path d="M292.29 465.25H161.43L144.32 376.38H275.18L292.29 465.25Z" fill="#455A64"/>
<path d="M226.27 420.82C226.386 421.837 226.283 422.866 225.968 423.84C225.654 424.814 225.135 425.709 224.447 426.467C223.759 427.224 222.917 427.826 221.978 428.231C221.038 428.637 220.023 428.838 219 428.82C216.827 428.781 214.743 427.945 213.146 426.469C211.55 424.994 210.551 422.984 210.34 420.82C210.223 419.803 210.325 418.773 210.638 417.798C210.952 416.824 211.471 415.928 212.159 415.17C212.848 414.412 213.69 413.811 214.631 413.405C215.571 413 216.587 412.8 217.61 412.82C219.783 412.861 221.865 413.698 223.462 415.173C225.058 416.648 226.057 418.657 226.27 420.82V420.82Z" fill="white"/>
</svg>
