<svg width="332" height="336" viewBox="0 0 332 336" fill="none" xmlns="http://www.w3.org/2000/svg">
<path d="M166 306.47C243.579 306.47 306.47 243.579 306.47 166C306.47 88.4206 243.579 25.53 166 25.53C88.4206 25.53 25.53 88.4206 25.53 166C25.53 243.579 88.4206 306.47 166 306.47Z" fill="#00D54B" stroke="#263238" stroke-linecap="round" stroke-linejoin="round"/>
<path d="M318.82 140.49L312.65 141.49L312.96 143.2L313.18 144.91L313.62 148.34L326.4 146.83L325.73 141.6L324.82 136.4L307.74 139.56C308.56 143.76 309.08 148.01 309.53 152.27L325.46 150.76L325.91 156.76C326.06 158.76 326.04 160.76 326.11 162.76L311.62 163.05L311.51 158.91C311.46 157.54 311.32 156.16 311.22 154.79L320.22 154.1C320.32 155.64 320.49 157.18 320.53 158.72L315.48 158.96V160.42L322.04 160.19C322.04 157.6 321.73 155.04 321.57 152.46L309.57 153.46C309.7 155.29 309.87 157.12 309.97 158.95L310.1 164.46L327.6 164.28C327.52 161.73 327.52 159.18 327.36 156.64C327.2 154.1 326.99 151.54 326.76 149L310.84 150.66C310.38 147.32 310.08 143.96 309.41 140.66L323.57 138.18L324.2 141.78L324.67 145.41L314.87 146.67C314.69 145.33 314.55 143.99 314.34 142.67L319.03 141.94L318.82 140.49Z" fill="#263238"/>
<path d="M328.73 133.64C324.49 112.261 316.065 91.9313 303.94 73.82C291.834 55.7142 276.286 40.1658 258.18 28.06C240.069 15.9349 219.739 7.51002 198.36 3.26999C176.994 -0.956776 155.006 -0.956776 133.64 3.26999C112.261 7.51002 91.9313 15.9349 73.82 28.06C55.7142 40.1658 40.1658 55.7142 28.06 73.82C15.9349 91.9313 7.51004 112.261 3.27 133.64C-0.956761 155.006 -0.956761 176.994 3.27 198.36C7.51004 219.739 15.9349 240.069 28.06 258.18C40.1658 276.286 55.7142 291.834 73.82 303.94C91.9313 316.065 112.261 324.49 133.64 328.73C155.006 332.957 176.994 332.957 198.36 328.73C219.739 324.49 240.069 316.065 258.18 303.94C276.286 291.834 291.834 276.286 303.94 258.18C316.065 240.069 324.49 219.739 328.73 198.36C332.957 176.994 332.957 155.006 328.73 133.64V133.64ZM326.27 197.87C322.101 218.928 313.805 238.953 301.86 256.79C283.9 283.658 258.388 304.608 228.54 317C218.65 321.105 208.376 324.217 197.87 326.29C176.828 330.463 155.172 330.463 134.13 326.29C113.072 322.121 93.047 313.825 75.21 301.88C48.3391 283.914 27.3886 258.395 15 228.54C10.8952 218.65 7.7833 208.376 5.71 197.87C1.53675 176.828 1.53675 155.172 5.71 134.13C9.87923 113.072 18.1753 93.047 30.12 75.21C48.0857 48.3391 73.6048 27.3886 103.46 15C113.35 10.8952 123.624 7.78328 134.13 5.70999C155.172 1.53674 176.828 1.53674 197.87 5.70999C218.928 9.87921 238.953 18.1753 256.79 30.12C283.661 48.0857 304.611 73.6048 317 103.46C321.105 113.35 324.217 123.624 326.29 134.13C330.463 155.172 330.463 176.828 326.29 197.87H326.27Z" fill="#263238"/>
<path d="M302.13 118.45L303.13 121.45L303.65 122.97L304.09 124.51L319.44 120L321.09 125.79L322.45 131.65L308.29 134.75C307.66 132.07 307.1 129.37 306.29 126.75L315.01 124.31C315.42 125.8 315.89 127.31 316.21 128.78L311.29 130L311.62 131.43L318.01 129.91C317.48 127.39 316.75 124.91 316.01 122.43L304.43 125.79C304.9 127.56 305.48 129.3 305.87 131.1L307.11 136.45L324.24 132.88L322.51 125.42L320.45 118L305.17 122.75L303.55 118C303.27 117.2 303.03 116.4 302.72 115.61L301.79 113.26L315.19 108.05C315.63 109.19 316.11 110.31 316.51 111.46L317.68 114.93L308.33 118L307 114.21L311.46 112.57L310.9 111.16L305.06 113.37L305.69 114.98L306.24 116.62L307.35 119.9L319.59 115.9L317.9 110.9C317.3 109.25 316.62 107.62 315.99 105.98L299.86 112.44C300.65 114.44 301.49 116.41 302.13 118.45Z" fill="#263238"/>
<path d="M293.38 98.42L307.5 90.9L310.25 96.26C311.1 98.07 311.91 99.91 312.74 101.74L299.46 107.56C298.33 105.05 297.23 102.56 295.92 100.1L304 96C304.69 97.38 305.45 98.73 306.05 100.15L301.47 102.31L302.08 103.65L308.08 100.91C307.08 98.54 305.86 96.26 304.68 93.91L293.98 99.48C294.8 101.12 295.7 102.72 296.45 104.4L298.71 109.4L314.81 102.53C313.75 100.2 312.72 97.87 311.64 95.53L308.14 88.71L294.09 96.36C292.38 93.46 290.8 90.48 288.91 87.68L301 80L303 83.08L304.82 86.25L296.27 91.18C295.58 90.02 294.94 88.83 294.27 87.68L298.32 85.2L297.5 83.92L292.2 87.24C293.5 89.15 294.56 91.24 295.73 93.19L306.95 86.88L304.32 82.3L301.48 77.86L286.93 87.35C289.21 90.94 291.35 94.65 293.38 98.42Z" fill="#263238"/>
<path d="M271.39 67.63C272.13 68.41 272.87 69.17 273.56 70C274.94 71.63 276.39 73.21 277.73 74.87L290.12 64.75L293.84 69.48C295.07 71.07 296.19 72.73 297.36 74.36L285.48 82.66L283.08 79.3C282.28 78.18 281.39 77.12 280.55 76.03L287.67 70.43C288.61 71.65 289.61 72.83 290.5 74.1L286.43 77.1L287.28 78.29L292.6 74.44C291.14 72.31 289.48 70.33 287.9 68.29L278.5 75.84C279.62 77.29 280.79 78.71 281.88 80.18L285.07 84.67L299.51 74.78C298.02 72.71 296.58 70.6 295.04 68.57C293.5 66.54 291.91 64.57 290.28 62.57L278 72.82L274.67 69L273.85 68L272.97 67.09L271.23 65.26L281.61 55.32L284.14 57.97C284.97 58.86 285.74 59.8 286.55 60.71L279.11 67.21C278.22 66.21 277.38 65.14 276.43 64.21L279.92 60.99L278.87 59.89L274.32 64.17C275.95 65.81 277.43 67.58 278.94 69.32L288.72 60.94C287.56 59.62 286.43 58.27 285.24 56.94L281.6 53.13L269.17 65.26L271.39 67.63Z" fill="#263238"/>
<path d="M252.76 50.84L257.76 54.84L268 42.47L272.55 46.41L273.68 47.41L274.77 48.41L276.95 50.49L266.9 61L263.9 58.15L260.78 55.45L266.68 48.57L270.17 51.57L266.76 55.31L267.82 56.31L272.29 51.51C271.37 50.6 270.4 49.75 269.42 48.91L266.5 46.38L258.73 55.61L262.89 59.21L266.89 63.01L279.13 50.51L276.36 47.87C275.44 46.98 274.52 46.1 273.54 45.28L270.65 42.78C269.65 41.94 268.73 41.09 267.71 40.32L257.64 52.75L253.64 49.63C252.31 48.63 250.91 47.63 249.54 46.68L257.8 34.91C259.8 36.33 261.8 37.7 263.69 39.24L257.69 47.06C256.63 46.22 255.57 45.39 254.45 44.63L257.26 40.79L256.02 39.91L252.37 45C253.31 45.68 254.26 46.33 255.19 47L257.91 49.14L265.91 39.02C264.52 37.96 263.18 36.81 261.73 35.81L257.43 32.75L247.59 47.07C249.28 48.35 251.05 49.55 252.76 50.84Z" fill="#263238"/>
<path d="M228.64 36.09L234.35 39.01L241.95 24.93C245.44 26.93 248.95 28.84 252.3 31.07L244.47 43.28C243.31 42.55 242.17 41.76 240.98 41.07L237.4 39L241.85 31.11L245.85 33.42L243.24 37.75C243.67 37.99 244.07 38.27 244.48 38.53L247.93 32.94C245.75 31.57 243.47 30.34 241.25 29.04L235.43 39.61L240.2 42.35C241.77 43.28 243.29 44.35 244.84 45.29L254.43 30.65C250.17 27.84 245.76 25.26 241.24 22.88L233.79 37L229.3 34.7L224.69 32.61L230.49 19.46L233.83 20.97L235.49 21.73L237.12 22.56L232.73 31.4C232.12 31.1 231.53 30.78 230.92 30.49L229.08 29.66L231.08 25.35L229.69 24.72L227.12 30.42L230.27 31.84L233.36 33.41L239.2 22C236.1 20.33 232.85 19 229.65 17.49L222.8 33.49L228.64 36.09Z" fill="#263238"/>
<path d="M202.11 26.36L208.28 28.12L212.97 12.82C214.89 13.4 216.77 14.08 218.68 14.71C219.63 15.05 220.59 15.34 221.52 15.71L224.32 16.81L219 30.31C217.71 29.82 216.45 29.25 215.14 28.84L211.23 27.51L214.04 18.9L218.43 20.39L216.71 25.15C217.18 25.3 217.64 25.46 218.09 25.65L220.38 19.5C217.96 18.6 215.5 17.82 213.06 16.98L209.43 28.49L214.63 30.25C216.37 30.83 218.05 31.57 219.77 32.25L226.34 16C223.96 15.07 221.61 14.08 219.17 13.31C216.73 12.54 214.35 11.61 211.88 10.96L207.35 26.3L202.49 24.92L197.56 23.78L200.66 9.78L204.23 10.6L206 11L207.76 11.5L205.2 21C203.91 20.6 202.6 20.3 201.28 20L202.39 15.39L200.91 15.04L199.51 21.14L202.88 21.91C204 22.2 205.1 22.54 206.21 22.84L209.69 10.45C206.32 9.45 202.87 8.72 199.44 7.91L195.86 24.91L202.11 26.36Z" fill="#263238"/>
<path d="M180.58 22.54L182.17 6.62C186.17 7.13 190.17 7.51999 194.08 8.30999L191.56 22.59C190.2 22.36 188.85 22.07 187.49 21.9L183.39 21.38L184.46 12.38L189.05 12.96L188.3 17.96C188.79 18.01 189.3 18.11 189.75 18.19L190.75 11.71C188.2 11.29 185.63 11.03 183.07 10.71L181.77 22.71L187.23 23.4C189.04 23.65 190.84 24.03 192.65 24.33L195.87 7.12999C190.87 6.12999 185.78 5.49999 180.7 5.01999L179.26 20.96L174.26 20.57C172.58 20.45 170.89 20.47 169.2 20.41L169.51 6.03999C171.95 6.10999 174.39 6.11999 176.82 6.34999L176.16 16.21C174.82 16.1 173.47 15.99 172.16 15.98L172.35 11.24H170.83L170.64 17.48C171.8 17.48 172.95 17.48 174.1 17.59L177.55 17.85L178.55 5.01999C176.79 4.90999 175.04 4.69999 173.29 4.66999L168.01 4.53999L167.81 21.91C169.95 21.99 172.09 21.98 174.22 22.11L180.58 22.54Z" fill="#263238"/>
<path d="M152.29 22.47L150.78 6.53999L156.78 6.08999C158.78 5.93999 160.78 5.95999 162.78 5.88999L163.07 20.38L158.93 20.49C157.56 20.49 156.18 20.68 154.81 20.78L154.12 11.78C155.66 11.68 157.2 11.51 158.74 11.47L158.98 16.47H160.44L160.21 9.91C157.62 9.91 155.06 10.22 152.48 10.38L153.48 22.38C155.31 22.25 157.14 22.08 158.97 21.98L164.48 21.85L164.3 4.34999C161.75 4.42999 159.2 4.42999 156.66 4.58999C154.12 4.74999 151.56 4.95999 149.03 5.18999L150.68 21.11C147.34 21.57 143.98 21.87 140.68 22.54L138.2 8.37999L141.8 7.74999L145.43 7.27999L146.69 17.08C145.35 17.26 144.01 17.4 142.69 17.61L141.96 12.92L140.46 13.18L141.46 19.35L143.17 19.04L144.88 18.82L148.31 18.38L146.8 5.59999L141.57 6.26999L136.37 7.17999L139.53 24.26C143.78 23.44 148 22.92 152.29 22.47Z" fill="#263238"/>
<path d="M118.45 29.87L121.45 28.87L122.97 28.35L124.51 27.91L120 12.56L125.79 10.91L131.65 9.55L134.75 23.71C132.07 24.34 129.37 24.9 126.75 25.71L124.26 17C125.75 16.59 127.26 16.12 128.73 15.8L129.95 20.72L131.38 20.39L129.86 14C127.34 14.53 124.86 15.26 122.38 16L125.74 27.58C127.51 27.11 129.25 26.58 131.05 26.14L136.4 24.9L132.83 7.76999L125.37 9.49999L118 11.55L122.75 26.83L118 28.45C117.2 28.73 116.4 28.97 115.61 29.28L113.26 30.21L108 16.81C109.14 16.37 110.26 15.89 111.41 15.49L114.88 14.32L118.03 23.67L114.21 25L112.57 20.54L111.16 21.1L113.37 26.94L114.98 26.31L116.62 25.76L119.9 24.65L115.9 12.41L110.9 14.1C109.25 14.7 107.62 15.38 105.98 16.01L112.44 32.14C114.44 31.35 116.41 30.51 118.45 29.87Z" fill="#263238"/>
<path d="M98.42 38.62L90.9 24.49L96.26 21.75C98.07 20.9 99.91 20.09 101.74 19.26L107.56 32.54C105.05 33.67 102.56 34.77 100.1 36.08L96 28C97.38 27.31 98.73 26.55 100.15 25.95L102.31 30.53L103.65 29.92L100.91 23.92C98.54 24.92 96.26 26.14 93.91 27.32L99.48 38.02C101.12 37.2 102.72 36.3 104.4 35.55L109.4 33.29L102.53 17.19C100.2 18.25 97.87 19.28 95.53 20.36L88.71 23.86L96.36 37.86C93.46 39.57 90.48 41.15 87.68 43.04L80 31L83.08 29L86.25 27.18L91.18 35.73C90.02 36.42 88.83 37.06 87.68 37.73L85.2 33.68L83.92 34.5L87.24 39.8C89.15 38.5 91.24 37.44 93.19 36.27L86.88 25.05L82.3 27.68L77.86 30.52L87.35 45.07C90.94 42.79 94.65 40.65 98.42 38.62Z" fill="#263238"/>
<path d="M67.63 60.61C68.41 59.87 69.17 59.13 70 58.44C71.63 57.06 73.21 55.61 74.87 54.27L64.75 41.88L69.48 38.16C71.07 36.93 72.73 35.81 74.36 34.64L82.66 46.52L79.3 48.92C78.18 49.72 77.12 50.61 76.03 51.45L70.43 44.33C71.65 43.39 72.83 42.39 74.1 41.5L77.1 45.57L78.29 44.72L74.44 39.4C72.31 40.86 70.33 42.52 68.29 44.1L75.84 53.5C77.29 52.38 78.71 51.21 80.18 50.12L84.67 46.93L74.78 32.49C72.71 33.98 70.6 35.42 68.57 36.96C66.54 38.5 64.57 40.09 62.57 41.72L72.82 54L69 57.33L68 58.15L67.09 59.03L65.26 60.77L55.32 50.39L57.97 47.86C58.86 47.03 59.8 46.26 60.71 45.45L67.21 52.89C66.21 53.78 65.14 54.62 64.21 55.57L61 52.08L59.9 53.08L64.18 57.63C65.82 56 67.59 54.52 69.33 53.01L61 43.28C59.68 44.44 58.33 45.57 57 46.76L53.19 50.4L65.32 62.83L67.63 60.61Z" fill="#263238"/>
<path d="M50.84 79.24L54.84 74.24L42.47 64L46.41 59.45L47.41 58.32L48.41 57.23L50.49 55.05L60.94 65.05L58.09 68.05L55.39 71.17L48.51 65.27L51.51 61.78L55.25 65.19L56.25 64.13L51.45 59.66C50.54 60.58 49.69 61.55 48.85 62.53L46.32 65.45L55.55 73.22L59.15 69.06L62.95 65.06L50.45 52.82L47.81 55.59C46.92 56.51 46.04 57.43 45.22 58.41L42.72 61.3C41.88 62.3 41.03 63.22 40.26 64.24L52.69 74.31L49.57 78.31C48.57 79.64 47.57 81.04 46.62 82.41L34.85 74.15C36.27 72.15 37.64 70.15 39.18 68.26L47 74.26C46.16 75.32 45.33 76.38 44.57 77.5L40.73 74.69L39.85 75.93L44.93 79.57C45.61 78.63 46.26 77.68 46.93 76.75L49.07 74.03L38.95 66.03C37.89 67.42 36.74 68.76 35.74 70.21L32.68 74.51L47 84.35C48.35 82.72 49.55 81 50.84 79.24Z" fill="#263238"/>
<path d="M36.09 103.36L39.01 97.65L24.93 90.05C26.93 86.56 28.84 83.05 31.07 79.7L43.28 87.53C42.55 88.69 41.76 89.83 41.07 91.02L39 94.6L31.11 90.15L33.42 86.15L37.75 88.76C37.99 88.33 38.27 87.93 38.53 87.52L33 84.06C31.63 86.24 30.4 88.52 29.1 90.74L39.67 96.56L42.41 91.79C43.34 90.22 44.41 88.7 45.35 87.15L30.71 77.56C27.9 81.82 25.32 86.23 22.94 90.75L37 98.21L34.7 102.7L32.61 107.31L19.46 101.51L20.97 98.17L21.73 96.51L22.56 94.88L31.4 99.27C31.1 99.88 30.78 100.47 30.49 101.08L29.66 102.92L25.35 100.92L24.72 102.31L30.42 104.88L31.84 101.73L33.41 98.64L22 92.8C20.33 95.9 19 99.15 17.49 102.35L33.49 109.2L36.09 103.36Z" fill="#263238"/>
<path d="M26.37 129.89L28.12 123.72L12.82 119C13.4 117.08 14.08 115.2 14.71 113.29C15.05 112.34 15.34 111.38 15.71 110.45L16.81 107.65L30.31 113C29.82 114.29 29.25 115.55 28.84 116.86L27.51 120.77L18.9 117.96L20.39 113.57L25.15 115.29C25.3 114.82 25.46 114.36 25.65 113.91L19.5 111.62C18.6 114.04 17.82 116.5 16.98 118.94L28.49 122.57L30.25 117.37C30.83 115.63 31.57 113.95 32.25 112.23L16 105.66C15.07 108.04 14.08 110.39 13.31 112.83C12.54 115.27 11.61 117.65 10.96 120.12L26.3 124.65L24.92 129.51L23.78 134.44L9.78 131.34L10.6 127.77L11 126L11.49 124.24L21 126.8C20.6 128.09 20.3 129.4 20 130.72L15.39 129.61L15.04 131.09L21.14 132.49L21.91 129.12C22.2 128 22.54 126.9 22.84 125.79L10.45 122.31C9.45 125.68 8.72 129.13 7.91 132.56L24.91 136.14L26.37 129.89Z" fill="#263238"/>
<path d="M22.05 157.83L22.54 151.42L6.62 149.83C7.13 145.83 7.52 141.83 8.31 137.92L22.59 140.44C22.36 141.8 22.07 143.15 21.9 144.51L21.38 148.61L12.38 147.54L13 143L18 143.75C18.05 143.26 18.15 142.75 18.23 142.3L11.75 141.3C11.33 143.85 11.07 146.42 10.75 148.98L22.75 150.28L23.44 144.82C23.69 143.01 24.07 141.21 24.37 139.4L7.17 136.18C6.17 141.18 5.54 146.27 5.06 151.35L21 152.79L20.61 157.79C20.49 159.47 20.51 161.16 20.45 162.85L6 162.49C6.07 160.05 6.08 157.61 6.31 155.18L16.17 155.84C16.06 157.18 15.95 158.53 15.94 159.84L11.2 159.65V161.17L17.44 161.36C17.44 160.2 17.44 159.05 17.55 157.9L17.81 154.45L4.98 153.45C4.87 155.21 4.66 156.96 4.63 158.71L4.5 163.99L21.87 164.19C21.93 162.1 21.92 160 22.05 157.83Z" fill="#263238"/>
<path d="M22.47 179.71L6.53999 181.22L6.09 175.22C5.94 173.22 5.96 171.22 5.89 169.22L20.38 168.93L20.49 173.07C20.49 174.44 20.68 175.82 20.78 177.19L11.78 177.88C11.68 176.34 11.51 174.8 11.47 173.26L16.47 173.02V171.56L9.91 171.79C9.91 174.38 10.22 176.94 10.38 179.52L22.38 178.52C22.25 176.69 22.08 174.86 21.98 173.03L21.85 167.52L4.35001 167.7C4.43001 170.25 4.43 172.8 4.59 175.34C4.75 177.88 4.96 180.44 5.19 182.97L21.11 181.32C21.57 184.66 21.87 188.02 22.54 191.32L8.38 193.8L7.75 190.2L7.28 186.57L17.08 185.31C17.26 186.65 17.4 187.99 17.61 189.31L12.92 190.04L13.18 191.54L19.35 190.54L19.04 188.83L18.82 187.12L18.38 183.69L5.60001 185.2L6.27 190.43L7.17999 195.63L24.26 192.47C23.44 188.22 22.92 184 22.47 179.71Z" fill="#263238"/>
<path d="M29.87 213.55L28.87 210.55L28.35 209.03L27.91 207.49L12.56 212L10.91 206.21L9.55 200.35L23.71 197.25C24.34 199.93 24.9 202.63 25.71 205.25L17 207.74C16.59 206.25 16.12 204.74 15.8 203.27L20.72 202.05L20.39 200.62L14 202.14C14.53 204.66 15.26 207.14 16 209.62L27.58 206.26C27.11 204.49 26.58 202.75 26.14 200.95L24.9 195.6L7.77 199.17L9.5 206.63L11.59 214L26.87 209.25L28.49 214.04C28.77 214.84 29.01 215.64 29.32 216.43L30.25 218.78L16.81 224C16.37 222.86 15.89 221.74 15.49 220.59L14.32 217.12L23.67 213.97L24.98 217.8L20.52 219.44L21.08 220.85L26.92 218.64L26.29 217.03L25.74 215.39L24.63 212.11L12.39 216.11L14.08 221.11C14.68 222.76 15.36 224.39 15.99 226.03L32.12 219.57C31.35 217.56 30.51 215.59 29.87 213.55Z" fill="#263238"/>
<path d="M38.62 233.58L24.49 241.1L21.75 235.74C20.9 233.93 20.09 232.09 19.26 230.26L32.54 224.44C33.67 226.95 34.77 229.44 36.08 231.9L28 236C27.31 234.62 26.55 233.27 25.95 231.85L30.53 229.69L29.92 228.35L23.92 231.09C24.92 233.46 26.14 235.74 27.32 238.04L38.02 232.47C37.2 230.83 36.3 229.23 35.55 227.55L33.29 222.55L17.19 229.42C18.25 231.75 19.28 234.08 20.36 236.42L23.86 243.24L37.86 235.59C39.57 238.49 41.15 241.47 43.04 244.27L31 252L29 248.92L27.18 245.75L35.73 240.82C36.42 241.98 37.06 243.17 37.73 244.32L33.68 246.8L34.5 248.08L39.8 244.76C38.5 242.85 37.44 240.76 36.27 238.76L25.05 245.07L27.68 249.65L30.52 254.09L45.07 244.6C42.79 241.06 40.65 237.35 38.62 233.58Z" fill="#263238"/>
<path d="M60.61 264.37C59.87 263.59 59.13 262.83 58.44 262C57.06 260.37 55.61 258.79 54.27 257.13L41.88 267.25L38.16 262.52C36.93 260.93 35.81 259.27 34.64 257.64L46.52 249.33L48.92 252.7C49.72 253.82 50.61 254.88 51.45 255.97L44.33 261.57C43.39 260.34 42.39 259.17 41.5 257.9L45.57 254.9L44.72 253.71L39.4 257.56C40.86 259.69 42.52 261.67 44.1 263.71L53.5 256.16C52.38 254.71 51.21 253.29 50.12 251.82L46.93 247.33L32.49 257.22C33.98 259.29 35.42 261.4 36.96 263.43C38.5 265.46 40.09 267.43 41.72 269.43L54 259.18L57.32 263L58.14 264L59.02 264.91L60.76 266.74L50.38 276.68L47.86 274C47.03 273.11 46.26 272.17 45.45 271.26L52.89 264.76C53.78 265.76 54.62 266.83 55.57 267.76L52.08 271L53.08 272.1L57.63 267.82C56 266.18 54.52 264.41 53.01 262.67L43.28 271C44.44 272.32 45.57 273.67 46.76 275L50.4 278.81L62.83 266.68L60.61 264.37Z" fill="#263238"/>
<path d="M79.24 281.16L74.24 277.16L64 289.53L59.45 285.59L58.32 284.59L57.23 283.59L55.05 281.51L65.05 271.06L68.05 273.91L71.17 276.61L65.27 283.49L61.78 280.49L65.19 276.75L64.13 275.75L59.66 280.55C60.58 281.46 61.55 282.31 62.53 283.15L65.45 285.68L73.22 276.45L69.06 272.85L65.06 269.05L52.82 281.55L55.59 284.19C56.51 285.08 57.43 285.96 58.41 286.78L61.3 289.28C62.3 290.12 63.22 290.97 64.24 291.74L74.31 279.31L78.31 282.43C79.64 283.43 81.04 284.43 82.41 285.38L74.15 297.15C72.15 295.73 70.15 294.36 68.26 292.82L74.26 285C75.32 285.84 76.38 286.67 77.5 287.43L74.69 291.27L75.93 292.15L79.57 287.07C78.63 286.39 77.68 285.74 76.75 285.07L74.03 282.93L66.03 293.05C67.42 294.11 68.76 295.26 70.21 296.26L74.51 299.32L84.35 285C82.72 283.65 81 282.45 79.24 281.16Z" fill="#263238"/>
<path d="M103.36 295.91L97.65 293L90.05 307.08C86.56 305.08 83.05 303.17 79.7 300.94L87.53 288.73C88.69 289.46 89.83 290.25 91.02 290.94L94.6 293L90.15 300.89L86.15 298.58L88.76 294.25C88.33 294.01 87.93 293.73 87.52 293.47L84.07 299.06C86.25 300.43 88.53 301.66 90.75 302.96L96.57 292.39L91.8 289.65C90.23 288.72 88.71 287.65 87.16 286.71L77.57 301.35C81.83 304.16 86.24 306.74 90.76 309.12L98.21 295L102.7 297.3L107.31 299.39L101.51 312.54L98.17 311L96.51 310.24L94.88 309.41L99.27 300.57C99.88 300.87 100.47 301.19 101.08 301.48L102.92 302.31L100.92 306.62L102.31 307.25L104.88 301.55L101.73 300.13L98.64 298.56L92.8 310C95.9 311.67 99.15 313 102.35 314.51L109.2 298.51L103.36 295.91Z" fill="#263238"/>
<path d="M129.89 305.63L123.72 303.88L119 319.18C117.08 318.6 115.2 317.92 113.29 317.29C112.34 316.95 111.38 316.66 110.45 316.29L107.65 315.19L113 301.69C114.29 302.18 115.55 302.75 116.86 303.16L120.77 304.49L117.96 313.1L113.57 311.61L115.29 306.85C114.82 306.7 114.36 306.54 113.91 306.35L111.62 312.5C114.04 313.4 116.5 314.17 118.94 315.02L122.57 303.51L117.37 301.75C115.63 301.17 113.95 300.43 112.23 299.75L105.66 316C108.04 316.93 110.39 317.92 112.83 318.69C115.27 319.46 117.65 320.39 120.12 321.04L124.65 305.7L129.51 307.08L134.44 308.22L131.34 322.22L127.77 321.4L126 321L124.24 320.51L126.8 311C128.09 311.4 129.4 311.7 130.72 312L129.61 316.61L131.09 316.96L132.49 310.86L129.12 310.09C128 309.8 126.9 309.46 125.79 309.16L122.31 321.55C125.68 322.55 129.13 323.28 132.56 324.09L136.14 307.09L129.89 305.63Z" fill="#263238"/>
<path d="M151.42 309.46L149.83 325.38C145.83 324.87 141.83 324.48 137.92 323.69L140.44 309.41C141.8 309.64 143.15 309.93 144.51 310.1L148.61 310.62L147.54 319.62L143 319L143.75 314C143.26 314 142.75 313.85 142.3 313.77L141.3 320.25C143.85 320.67 146.42 320.93 148.98 321.25L150.28 309.25L144.82 308.56C143.01 308.31 141.21 307.93 139.4 307.63L136.18 324.83C141.18 325.83 146.27 326.46 151.35 326.94L152.79 311L157.79 311.39C159.47 311.51 161.16 311.49 162.85 311.55L162.49 326C160.05 325.93 157.61 325.92 155.18 325.69L155.84 315.83C157.18 315.94 158.53 316.05 159.84 316.06L159.65 320.8H161.17L161.36 314.56C160.2 314.56 159.05 314.56 157.9 314.45L154.45 314.19L153.45 327.02C155.21 327.13 156.96 327.34 158.71 327.37L163.99 327.5L164.19 310.13C162.05 310.05 159.91 310.06 157.78 309.93L151.42 309.46Z" fill="#263238"/>
<path d="M179.71 309.53L181.22 325.46L175.22 325.91C173.22 326.06 171.22 326.04 169.22 326.11L168.93 311.62L173.07 311.51C174.44 311.46 175.82 311.32 177.19 311.22L177.88 320.22C176.34 320.32 174.8 320.49 173.26 320.53L173.02 315.48H171.56L171.79 322.04C174.38 322.04 176.94 321.73 179.52 321.57L178.52 309.57C176.69 309.7 174.86 309.87 173.03 309.97L167.52 310.1L167.7 327.6C170.25 327.52 172.8 327.52 175.34 327.36C177.88 327.2 180.44 326.99 182.98 326.76L181.32 310.84C184.66 310.38 188.02 310.08 191.32 309.41L193.8 323.57L190.2 324.2L186.57 324.67L185.31 314.87C186.65 314.69 187.99 314.55 189.31 314.34L190.04 319.03L191.54 318.77L190.54 312.6L188.83 312.91L187.12 313.13L183.69 313.57L185.2 326.35L190.43 325.68L195.63 324.77L192.47 307.69C188.22 308.56 184 309.08 179.71 309.53Z" fill="#263238"/>
<path d="M213.55 302.13L210.55 303.13L209.03 303.65L207.49 304.09L212 319.44L206.21 321.09L200.35 322.45L197.25 308.29C199.93 307.66 202.63 307.1 205.25 306.29L207.69 315.01C206.2 315.42 204.69 315.89 203.22 316.21L202 311.29L200.57 311.62L202.09 318.01C204.61 317.48 207.09 316.75 209.57 316.01L206.21 304.43C204.44 304.9 202.7 305.48 200.9 305.87L195.55 307.11L199.12 324.24L206.58 322.51L213.95 320.42L209.2 305.14L213.99 303.52C214.79 303.24 215.59 303 216.38 302.69L218.73 301.76L223.94 315.16C222.8 315.6 221.68 316.08 220.53 316.48L217.06 317.65L214 308.33L217.83 307.02L219.47 311.48L220.88 310.92L218.67 305.08L217.06 305.71L215.42 306.26L212.14 307.37L216.14 319.61L221.14 317.92C222.79 317.32 224.42 316.64 226.06 316.01L219.6 299.88C217.56 300.65 215.59 301.49 213.55 302.13Z" fill="#263238"/>
<path d="M220.57 297.76C242.241 288.793 261.364 274.616 276.242 256.486C291.121 238.356 301.294 216.834 305.86 193.83C309.513 175.456 309.513 156.543 305.86 138.17C302.224 119.806 294.988 102.344 284.57 86.79C268.89 63.3417 246.621 45.0575 220.57 34.24C211.945 30.6656 202.988 27.9524 193.83 26.14C175.457 22.4866 156.544 22.4866 138.17 26.14C119.806 29.776 102.344 37.0118 86.79 47.43C63.3417 63.1104 45.0575 85.3785 34.24 111.43C30.6656 120.055 27.9525 129.012 26.14 138.17C22.4866 156.543 22.4866 175.456 26.14 193.83C29.776 212.194 37.0118 229.656 47.43 245.21C63.1104 268.658 85.3785 286.943 111.43 297.76C120.055 301.334 129.012 304.048 138.17 305.86C156.544 309.513 175.457 309.513 193.83 305.86C202.988 304.048 211.945 301.334 220.57 297.76ZM166 306.1C156.818 306.087 147.659 305.186 138.65 303.41C111.473 298.015 86.5076 284.677 66.9154 265.085C47.3232 245.492 33.9851 220.527 28.59 193.35C25.0033 175.293 25.0033 156.707 28.59 138.65C33.9851 111.473 47.3232 86.5076 66.9154 66.9154C86.5076 47.3232 111.473 33.9851 138.65 28.59C156.707 25.0033 175.293 25.0033 193.35 28.59C220.527 33.9851 245.492 47.3232 265.085 66.9154C284.677 86.5076 298.015 111.473 303.41 138.65C306.997 156.707 306.997 175.293 303.41 193.35C298.015 220.527 284.677 245.492 265.085 265.085C245.492 284.677 220.527 298.015 193.35 303.41C184.341 305.186 175.182 306.087 166 306.1V306.1Z" fill="#263238"/>
<path d="M233.58 293.38L241.1 307.5L235.74 310.25C233.93 311.1 232.09 311.91 230.26 312.74L224.44 299.46C226.95 298.33 229.44 297.23 231.9 295.92L236 304C234.62 304.69 233.27 305.45 231.85 306.05L229.69 301.47L228.35 302.08L231.09 308.08C233.46 307.08 235.74 305.86 238.04 304.68L232.47 293.98C230.83 294.8 229.23 295.7 227.55 296.45L222.55 298.71L229.42 314.81C231.75 313.75 234.08 312.72 236.42 311.64L243.24 308.14L235.59 294.09C238.49 292.38 241.47 290.8 244.27 288.91L252 301L248.92 303L245.75 304.82L240.82 296.27C241.98 295.58 243.17 294.94 244.32 294.27L246.8 298.32L248.08 297.5L244.76 292.2C242.85 293.5 240.76 294.56 238.76 295.73L245.07 306.95L249.65 304.32L254.09 301.48L244.6 286.93C241.06 289.21 237.35 291.35 233.58 293.38Z" fill="#263238"/>
<path d="M264.37 271.39C263.59 272.13 262.83 272.87 262 273.56C260.37 274.94 258.79 276.39 257.13 277.73L267.25 290.12L262.52 293.84C260.93 295.07 259.27 296.19 257.64 297.36L249.33 285.48L252.7 283.08C253.82 282.28 254.88 281.39 255.97 280.55L261.57 287.67C260.34 288.61 259.17 289.61 257.9 290.5L254.9 286.43L253.71 287.28L257.56 292.6C259.69 291.14 261.67 289.48 263.71 287.9L256.16 278.5C254.71 279.62 253.29 280.79 251.82 281.88L247.33 285.07L257.22 299.51C259.29 298.02 261.4 296.58 263.43 295.04C265.46 293.5 267.43 291.91 269.43 290.28L259.18 278L263 274.68L264 273.86L264.91 272.98L266.74 271.24L276.68 281.62L274 284.14C273.11 284.97 272.17 285.74 271.26 286.55L264.76 279.11C265.76 278.22 266.83 277.38 267.76 276.43L270.98 279.92L272.08 278.87L267.8 274.32C266.16 275.95 264.39 277.43 262.65 278.94L271.03 288.72C272.35 287.56 273.7 286.43 275.03 285.24L278.84 281.6L266.71 269.17L264.37 271.39Z" fill="#263238"/>
<path d="M281.16 252.76L277.16 257.76L289.53 268L285.59 272.55L284.59 273.68L283.59 274.77L281.49 277L271 266.9L273.85 263.9L276.55 260.78L283.43 266.68L280.43 270.17L276.69 266.76L275.69 267.82L280.49 272.29C281.4 271.37 282.25 270.4 283.09 269.42L285.62 266.5L276.39 258.73L272.79 262.89L268.99 266.89L281.49 279.13L284.13 276.36C285.02 275.44 285.9 274.52 286.72 273.54L289.22 270.65C290.06 269.65 290.91 268.73 291.68 267.71L279.25 257.64L282.37 253.64C283.37 252.31 284.37 250.91 285.32 249.54L297.09 257.8C295.67 259.8 294.3 261.8 292.76 263.69L284.94 257.69C285.78 256.63 286.61 255.57 287.37 254.45L291.21 257.26L292.09 256.02L287 252.37C286.32 253.31 285.67 254.26 285 255.19L282.86 257.91L292.98 265.91C294.04 264.52 295.19 263.18 296.19 261.73L299.25 257.43L284.93 247.59C283.65 249.28 282.45 251.05 281.16 252.76Z" fill="#263238"/>
<path d="M295.91 228.64L293 234.35L307.08 241.95C305.08 245.44 303.17 248.95 300.94 252.3L288.73 244.47C289.46 243.31 290.25 242.17 290.94 240.98L293 237.4L300.89 241.85L298.58 245.85L294.25 243.24C294.01 243.67 293.73 244.07 293.47 244.48L299.06 247.93C300.43 245.75 301.66 243.47 302.96 241.25L292.39 235.43L289.65 240.2C288.72 241.77 287.65 243.29 286.71 244.84L301.35 254.43C304.16 250.17 306.74 245.76 309.12 241.24L295 233.79L297.3 229.3L299.39 224.69L312.54 230.49L311 233.83L310.24 235.49L309.41 237.12L300.57 232.73C300.87 232.12 301.19 231.53 301.48 230.92L302.31 229.08L306.62 231.08L307.25 229.69L301.55 227.12L300.13 230.27L298.56 233.36L310 239.2C311.67 236.1 313 232.85 314.51 229.65L298.51 222.8L295.91 228.64Z" fill="#263238"/>
<path d="M305.64 202.11L303.88 208.28L319.18 212.97C318.6 214.89 317.92 216.77 317.29 218.68C316.95 219.63 316.66 220.59 316.29 221.52L315.19 224.32L301.69 219C302.18 217.71 302.75 216.45 303.16 215.14L304.49 211.23L313.1 214.04L311.61 218.43L306.85 216.71C306.7 217.18 306.54 217.64 306.35 218.09L312.5 220.38C313.4 217.96 314.17 215.5 315.02 213.06L303.51 209.43L301.75 214.63C301.17 216.37 300.43 218.05 299.75 219.77L316 226.34C316.93 223.96 317.92 221.61 318.69 219.17C319.46 216.73 320.39 214.35 321.04 211.88L305.7 207.35L307.08 202.49L308.22 197.56L322.22 200.66L321.4 204.23L321 206L320.5 207.76L311 205.2C311.4 203.91 311.7 202.6 312 201.28L316.61 202.39L316.96 200.91L310.86 199.51L310.09 202.88C309.8 204 309.46 205.1 309.16 206.21L321.55 209.69C322.55 206.32 323.28 202.87 324.09 199.44L307.09 195.86L305.64 202.11Z" fill="#263238"/>
<path d="M310 174.17L309.51 180.58L325.43 182.17C324.92 186.17 324.53 190.17 323.74 194.08L309.46 191.56C309.69 190.2 309.98 188.85 310.15 187.49L310.67 183.39L319.67 184.46L319.09 189.05L314.09 188.3C314.09 188.79 313.94 189.3 313.86 189.75L320.34 190.75C320.76 188.2 321.02 185.63 321.34 183.07L309.34 181.77L308.65 187.23C308.4 189.04 308.02 190.84 307.72 192.65L324.92 195.87C325.92 190.87 326.55 185.78 327.03 180.7L311.09 179.26L311.48 174.26C311.6 172.58 311.58 170.89 311.64 169.2L326.01 169.51C325.94 171.95 325.93 174.39 325.7 176.82L315.84 176.16C315.95 174.82 316.06 173.47 316.07 172.16L320.81 172.35V170.83L314.57 170.64C314.57 171.8 314.57 172.95 314.46 174.1L314.2 177.55L327.03 178.55C327.14 176.79 327.35 175.04 327.38 173.29L327.51 168.01L310.14 167.81C310.07 169.9 310.08 172 310 174.17Z" fill="#263238"/>
<path d="M119.44 161.65C119.44 161.65 107.33 185.35 96.8 192.72C86.27 200.09 55.73 219.58 40.46 230.63C25.19 241.68 22.55 242.22 22.55 249.63C22.55 257.04 24.66 264.9 29.4 269.63C34.14 274.36 46.78 277 46.78 277C46.78 277 81.31 306.7 91.61 312.52C101.91 318.34 109.18 312.52 109.18 312.52C109.18 312.52 130.56 312.03 141.92 307.36C153.28 302.69 146.99 298.55 146.99 298.55C146.99 298.55 155.99 295.64 153.54 290.49C151.09 285.34 127.6 275.37 121.54 273.38C115.48 271.39 104.88 288.38 104.88 288.38C102.274 287.956 99.6934 287.389 97.15 286.68C93.06 285.53 88.22 285.86 85.78 284.42C83.34 282.98 65.24 259.58 65.24 259.58C65.24 259.58 133.69 237.99 152.12 231.14C170.55 224.29 178.45 220.08 181.12 211.66C183.79 203.24 184.28 185.86 184.28 185.86" fill="white"/>
<path d="M119.44 161.65C119.44 161.65 107.33 185.35 96.8 192.72C86.27 200.09 55.73 219.58 40.46 230.63C25.19 241.68 22.55 242.22 22.55 249.63C22.55 257.04 24.66 264.9 29.4 269.63C34.14 274.36 46.78 277 46.78 277C46.78 277 81.31 306.7 91.61 312.52C101.91 318.34 109.18 312.52 109.18 312.52C109.18 312.52 130.56 312.03 141.92 307.36C153.28 302.69 146.99 298.55 146.99 298.55C146.99 298.55 155.99 295.64 153.54 290.49C151.09 285.34 127.6 275.37 121.54 273.38C115.48 271.39 104.88 288.38 104.88 288.38C102.274 287.956 99.6934 287.389 97.15 286.68C93.06 285.53 88.22 285.86 85.78 284.42C83.34 282.98 65.24 259.58 65.24 259.58C65.24 259.58 133.69 237.99 152.12 231.14C170.55 224.29 178.45 220.08 181.12 211.66C183.79 203.24 184.28 185.86 184.28 185.86" stroke="#263238" stroke-linecap="round" stroke-linejoin="round"/>
<path d="M121.51 273.36C115.42 271.36 104.85 288.36 104.85 288.36C104.85 288.36 119.07 301.05 109.18 312.46C109.18 312.46 130.56 311.97 141.92 307.3C153.28 302.63 146.99 298.49 146.99 298.49C146.99 298.49 155.99 295.58 153.54 290.43C151.09 285.28 127.6 275.35 121.51 273.36Z" fill="#263238" stroke="#263238" stroke-linecap="round" stroke-linejoin="round"/>
<path d="M118.47 163.48C115.41 169.17 105.56 186.59 96.8 192.72C86.27 200.09 55.73 219.58 40.46 230.63C25.19 241.68 22.55 242.22 22.55 249.63C22.55 250.26 22.55 250.89 22.61 251.53L66.27 259.3C74.98 256.55 135.01 237.54 152.09 231.2L157.29 228.05C157.29 228.05 135.18 177.05 127.29 169.38C124.628 167.026 121.662 165.042 118.47 163.48V163.48Z" fill="#263238" stroke="#263238" stroke-linecap="round" stroke-linejoin="round"/>
<path d="M66.27 259.26C66.27 259.26 55.05 264.9 51.85 264.9C48.65 264.9 38.38 264.26 38.38 264.26C38.38 264.26 50.57 268.11 53.77 268.11C56.97 268.11 70.32 266.52 70.32 266.52L66.27 259.26Z" fill="#263238" stroke="#263238" stroke-linecap="round" stroke-linejoin="round"/>
<path d="M306.28 166C306.281 139.133 298.566 112.831 284.053 90.2213C269.539 67.6117 248.838 49.6458 224.41 38.46C211.732 36.8558 198.853 38.2921 186.84 42.65C158.41 53.18 115.76 83.2 115.76 83.2C115.76 83.2 122.6 90.57 137.35 103.2C152.1 115.83 154.2 143.2 144.72 161.64C135.24 180.08 109.44 196.4 109.44 196.4C109.44 196.4 123.65 209.56 138.92 231.15C154.19 252.74 173.68 278.02 191.05 279.07C200.9 279.67 229.34 278.07 252.81 276.18C269.489 263.067 282.969 246.334 292.232 227.247C301.495 208.159 306.299 187.216 306.28 166V166Z" fill="white" stroke="#263238" stroke-linecap="round" stroke-linejoin="round"/>
<path d="M109.75 196.71C119.142 205.912 127.765 215.869 135.53 226.48L160 178.18L158 172.23C148.421 173.366 139.071 175.952 130.27 179.9C124.07 185.791 117.379 191.144 110.27 195.9C110.06 196.17 109.9 196.44 109.75 196.71Z" fill="#263238" stroke="#263238" stroke-linecap="round" stroke-linejoin="round"/>
<path d="M117.33 206L133.33 224.67" stroke="#8A8A8A" stroke-linecap="round" stroke-linejoin="round"/>
<path d="M224.41 38.46C214.502 37.239 204.455 37.832 194.76 40.21C219.63 50.28 292.2 89.21 301.29 203.21C310.087 171.095 307.186 136.899 293.104 106.725C279.022 76.5517 254.675 52.3642 224.41 38.48V38.46Z" fill="#263238"/>
<path d="M186.19 278.19C187.772 278.666 189.402 278.965 191.05 279.08C196.16 279.39 206.27 279.08 218.05 278.5L264.63 251.33L241.29 245.33L186.19 278.19Z" fill="#263238" stroke="#263238" stroke-linecap="round" stroke-linejoin="round"/>
<path d="M69.42 94.78C69.42 94.78 45.72 105.84 33.09 109C20.46 112.16 14.66 112.68 13.09 114.26C11.52 115.84 23.09 129.53 37.31 131.11C51.53 132.69 58.37 134.27 66.31 127.43C74.25 120.59 81.05 111.63 82.63 104.79C84.21 97.95 81.05 91.09 78.95 91.09C76.85 91.09 69.42 94.78 69.42 94.78Z" fill="white" stroke="#263238" stroke-linecap="round" stroke-linejoin="round"/>
<path d="M37.3 131.11C51.52 132.69 58.36 134.27 66.3 127.43C74.24 120.59 81.04 111.63 82.62 104.79C82.9202 103.478 83.0612 102.135 83.04 100.79C75.99 105.11 64.98 110.99 54.19 113.21C36.28 116.9 13.12 114.21 13.12 114.21L13 114.47C12.45 116.94 23.66 129.6 37.3 131.11Z" fill="#263238" stroke="#263238" stroke-linecap="round" stroke-linejoin="round"/>
<path d="M60 68.47C60 68.47 84.08 75.76 90.38 78.92C96.68 82.08 96.74 89.74 90.58 95.78C84.42 101.82 70.97 96.78 52.97 91.6C34.97 86.42 25.47 79.86 28.32 68.89C31.17 57.92 44.41 48.12 57.14 42.27C66.64 37.9 80.21 29.93 82.42 23.38C84.63 16.83 83.64 8.92999 86.83 12.31C90.02 15.69 88.19 32.52 82.99 38.81C77.79 45.1 64.08 54.81 60.68 59.99C57.28 65.17 60 68.47 60 68.47Z" fill="#263238" stroke="#263238" stroke-linecap="round" stroke-linejoin="round"/>
<path d="M44 222.84C44 222.84 56 237.75 64.67 240.15C73.34 242.55 85.34 244.48 93.52 240.63C101.7 236.78 102.65 232.94 102.65 224.77C102.65 216.6 99.77 223.77 94.48 227.17C89.19 230.57 44 222.84 44 222.84Z" fill="white" stroke="#263238" stroke-linecap="round" stroke-linejoin="round"/>
<path d="M158.93 85.3C158.93 85.3 96.8 76.88 91.53 75.82C86.26 74.76 83.64 72.67 79.42 73.72C75.2 74.77 67.31 83.72 67.31 91.62C67.2659 93.8252 67.8038 96.0031 68.8694 97.9342C69.9351 99.8654 71.4908 101.482 73.38 102.62C73.38 102.62 68.38 123.69 63.63 132.12C58.88 140.55 59.41 143.17 60.47 148.97C61.53 154.77 64.15 167.4 62.57 171.08C60.99 174.76 52.04 193.73 44.14 201.08C36.24 208.43 37.82 217.93 39.93 220.08C42.04 222.23 48.36 233.77 65.21 236.93C82.06 240.09 97.33 236.41 100.49 232.19C103.65 227.97 102.07 221.19 103.12 217.98C104.17 214.77 112.07 206.39 112.07 206.39L115.23 203.76C115.23 203.76 131.03 194.28 138.92 190.6C146.81 186.92 163.15 184.28 172.1 171.11C185.5 151.4 186.84 142.11 183.68 118.46C180.52 94.81 158.93 85.3 158.93 85.3Z" fill="white" stroke="#263238" stroke-linecap="round" stroke-linejoin="round"/>
<path d="M82.32 229.06C86.5395 229.06 89.96 227.645 89.96 225.9C89.96 224.155 86.5395 222.74 82.32 222.74C78.1006 222.74 74.68 224.155 74.68 225.9C74.68 227.645 78.1006 229.06 82.32 229.06Z" fill="#263238" stroke="#263238" stroke-linecap="round" stroke-linejoin="round"/>
<path d="M43.47 211.31C42.3 212.61 43.9 215.94 47.03 218.77C50.16 221.6 53.65 222.82 54.82 221.53C55.99 220.24 54.39 216.89 51.26 214.07C48.13 211.25 44.64 210 43.47 211.31Z" fill="#263238" stroke="#263238" stroke-linecap="round" stroke-linejoin="round"/>
<path d="M140.5 140.59C140.5 140.59 134.71 138.49 127.87 142.7C121.03 146.91 122.07 159.02 122.07 159.02C122.07 159.02 140.5 158.5 140.5 140.59Z" fill="#263238" stroke="#263238" stroke-linecap="round" stroke-linejoin="round"/>
<path d="M93.4 213.06C94.4 213.78 95.32 214.55 96.27 215.36" stroke="#263238" stroke-linecap="round" stroke-linejoin="round"/>
<path d="M75.4 203.72C80.2433 205.293 84.8747 207.456 89.19 210.16" stroke="#263238" stroke-linecap="round" stroke-linejoin="round"/>
<path d="M48.36 200.62C53.2537 200.115 58.191 200.216 63.06 200.92" stroke="#263238" stroke-linecap="round" stroke-linejoin="round"/>
<path d="M110.54 177.46C111.353 176.58 112.213 175.7 113.12 174.82" stroke="#263238" stroke-linecap="round" stroke-linejoin="round"/>
<path d="M96.27 205.89C96.27 205.89 97.09 193.66 108.04 180.33" stroke="#263238" stroke-linecap="round" stroke-linejoin="round"/>
<path d="M88.85 104.45C103.2 106.45 134.47 110.68 138.73 110.99L140.73 111.13C141.775 111.205 142.82 110.968 143.73 110.448C144.64 109.928 145.374 109.149 145.84 108.21V108.21" fill="white"/>
<path d="M88.85 104.45C103.2 106.45 134.47 110.68 138.73 110.99L140.73 111.13C141.775 111.205 142.82 110.968 143.73 110.448C144.64 109.928 145.374 109.149 145.84 108.21V108.21" stroke="#263238" stroke-linecap="round" stroke-linejoin="round"/>
<path d="M81.7 103.46L85.25 103.95Z" fill="white"/>
<path d="M81.7 103.46L85.25 103.95" stroke="#263238" stroke-linecap="round" stroke-linejoin="round"/>
<path d="M165.78 106.89C165.78 106.89 185.26 120.06 197.9 125.32C210.54 130.58 224.23 138.49 224.23 140.07C224.23 141.65 191.58 151.65 184.23 152.7C176.88 153.75 153.69 131.11 150.53 122.7C147.37 114.29 151.58 112.17 151.58 112.17" fill="white"/>
<path d="M165.78 106.89C165.78 106.89 185.26 120.06 197.9 125.32C210.54 130.58 224.23 138.49 224.23 140.07C224.23 141.65 191.58 151.65 184.23 152.7C176.88 153.75 153.69 131.11 150.53 122.7C147.37 114.29 151.58 112.17 151.58 112.17" stroke="#263238" stroke-linecap="round" stroke-linejoin="round"/>
<path d="M151.28 124.33C156.36 133.72 177.28 153.69 184.21 152.7C191.58 151.65 224.21 141.7 224.21 140.07C215.21 136.38 173.66 123.22 159.44 123.22C156.677 123.136 153.92 123.511 151.28 124.33Z" fill="#263238" stroke="#263238" stroke-linecap="round" stroke-linejoin="round"/>
<path d="M185.79 81.09C185.79 81.09 158.93 82.09 151.56 83.72C144.19 85.35 142.08 93.2 146.82 101.1C151.56 109 166.82 107.42 186.82 106.89C206.82 106.36 218.42 102.15 218.42 90.04C218.42 77.93 207.36 64.24 195.77 54.76C187.13 47.69 175.24 35.81 174.71 28.43C174.18 21.05 177.34 13.16 173.13 15.8C168.92 18.44 166.29 36.33 169.97 44.23C173.65 52.13 185.24 65.82 187.35 72.14C189.46 78.46 185.79 81.09 185.79 81.09Z" fill="#263238" stroke="#263238" stroke-linecap="round" stroke-linejoin="round"/>
<path d="M219 189.56C219 189.56 206.89 213.26 196.36 220.63C185.83 228 155.25 247.48 140 258.54C124.75 269.6 122.09 270.13 122.09 277.54C122.09 284.95 124.2 292.81 128.94 297.54C133.68 302.27 147.94 302.8 147.94 302.8C147.94 302.8 186.94 329.66 197.94 333.87C208.94 338.08 215.32 331.24 215.32 331.24C215.32 331.24 236.38 327.55 246.91 321.24C257.44 314.93 250.6 311.77 250.6 311.77C250.6 311.77 259.02 307.55 255.86 302.77C252.7 297.99 227.95 291.77 221.64 290.66C215.33 289.55 207.38 308 207.38 308C204.739 307.97 202.101 307.793 199.48 307.47C195.27 306.95 190.48 308 187.9 306.95C185.32 305.9 164.73 287.46 164.73 287.46C164.73 287.46 233.18 265.87 251.61 259.03C270.04 252.19 277.94 247.97 280.61 239.55C283.28 231.13 283.77 213.74 283.77 213.74" fill="white"/>
<path d="M219 189.56C219 189.56 206.89 213.26 196.36 220.63C185.83 228 155.25 247.48 140 258.54C124.75 269.6 122.09 270.13 122.09 277.54C122.09 284.95 124.2 292.81 128.94 297.54C133.68 302.27 147.94 302.8 147.94 302.8C147.94 302.8 186.94 329.66 197.94 333.87C208.94 338.08 215.32 331.24 215.32 331.24C215.32 331.24 236.38 327.55 246.91 321.24C257.44 314.93 250.6 311.77 250.6 311.77C250.6 311.77 259.02 307.55 255.86 302.77C252.7 297.99 227.95 291.77 221.64 290.66C215.33 289.55 207.38 308 207.38 308C204.739 307.97 202.101 307.793 199.48 307.47C195.27 306.95 190.48 308 187.9 306.95C185.32 305.9 164.73 287.46 164.73 287.46C164.73 287.46 233.18 265.87 251.61 259.03C270.04 252.19 277.94 247.97 280.61 239.55C283.28 231.13 283.77 213.74 283.77 213.74" stroke="#263238" stroke-linecap="round" stroke-linejoin="round"/>
<path d="M283.2 208.52V197.46" stroke="#263238" stroke-linecap="round" stroke-linejoin="round"/>
<path d="M201.06 215.89C201.06 215.89 194.74 202.73 199.48 184.3" stroke="#263238" stroke-linecap="round" stroke-linejoin="round"/>
<path d="M200.53 180.61L202.64 174.29" stroke="#263238" stroke-linecap="round" stroke-linejoin="round"/>
<path d="M164.73 287.5C161.234 287.944 157.847 289.015 154.73 290.66C149.99 293.3 136.3 287.5 136.3 287.5C136.3 287.5 149.3 293.76 151.25 295.04C153.2 296.32 173.69 295.68 173.69 295.68L164.73 287.5Z" fill="#263238" stroke="#263238" stroke-linecap="round" stroke-linejoin="round"/>
<path d="M255.82 302.77C252.66 298.03 227.91 291.77 221.6 290.66C215.29 289.55 207.38 308 207.38 308C207.38 308 223.53 319.24 215.28 331.17C215.28 331.17 236.34 327.48 246.87 321.17C257.4 314.86 250.56 311.7 250.56 311.7C250.56 311.7 259 307.51 255.82 302.77Z" fill="#263238" stroke="#263238" stroke-linecap="round" stroke-linejoin="round"/>
</svg>
