<svg width="500" height="500" viewBox="0 0 500 500" fill="none" xmlns="http://www.w3.org/2000/svg">
<path d="M451.17 244.28C467.81 137.86 379 30.6 262.46 17.27C261.01 17.11 259.55 16.95 258.1 16.81C176.65 8.72 102.2 70.93 80.91 118.39C59.62 165.85 3.91 211 24.56 298.94C45.21 386.88 101.31 433.76 232.84 447.63C364.37 461.5 388.63 423.88 423.54 341.71C436.643 310.465 445.92 277.751 451.17 244.28V244.28Z" fill="#00D54B"/>
<path opacity="0.8" d="M451.17 244.28C467.81 137.86 379 30.6 262.46 17.27C261.01 17.11 259.55 16.95 258.1 16.81C176.65 8.72 102.2 70.93 80.91 118.39C59.62 165.85 3.91 211 24.56 298.94C45.21 386.88 101.31 433.76 232.84 447.63C364.37 461.5 388.63 423.88 423.54 341.71C436.643 310.465 445.92 277.751 451.17 244.28V244.28Z" fill="white"/>
<path d="M347.58 282.72C347.485 282.717 347.392 282.689 347.31 282.64C264.31 230.73 191.1 227.64 144.31 234.25C93.56 241.37 62.02 261.02 61.71 261.25C61.6546 261.286 61.5925 261.311 61.5273 261.323C61.4621 261.334 61.3953 261.332 61.3308 261.317C61.2663 261.302 61.2055 261.275 61.1521 261.236C61.0987 261.196 61.0538 261.147 61.02 261.09C60.9486 260.979 60.9243 260.843 60.9524 260.714C60.9805 260.585 61.0588 260.472 61.17 260.4C61.49 260.21 93.17 240.4 144.17 233.29C174.439 229.099 205.196 229.995 235.17 235.94C273.24 243.39 311.17 258.83 347.93 281.82C347.987 281.854 348.036 281.899 348.076 281.952C348.115 282.006 348.142 282.066 348.157 282.131C348.172 282.195 348.174 282.262 348.163 282.327C348.151 282.392 348.126 282.455 348.09 282.51C348.035 282.591 347.957 282.654 347.867 282.692C347.776 282.729 347.676 282.739 347.58 282.72Z" fill="#263238"/>
<path d="M211.47 269.78C202.88 262.72 228.47 235.52 228.47 235.52C217.27 233.52 218.79 233.92 218.79 233.92C218.79 233.92 189.67 262 189.37 278C189.07 294 233.76 308.9 233.76 308.9L250.53 301.54L265.18 296.11C265.18 296.11 220.07 276.84 211.47 269.78Z" fill="#00D54B"/>
<path d="M233.76 309.38H233.6C231.76 308.77 188.6 294.14 188.87 278C189.16 262.54 215.4 236.53 218.22 233.79C218.27 233.58 218.32 233.45 218.89 233.47C219.89 233.47 222.29 233.95 228.52 235.06C228.607 235.079 228.688 235.121 228.754 235.181C228.82 235.241 228.87 235.317 228.897 235.402C228.924 235.487 228.929 235.578 228.91 235.665C228.891 235.753 228.85 235.834 228.79 235.9C228.6 236.1 209.58 256.45 210.2 266.12C210.211 266.75 210.357 267.371 210.628 267.94C210.899 268.509 211.288 269.014 211.77 269.42C220.21 276.36 264.9 295.42 265.35 295.66C265.443 295.698 265.522 295.763 265.577 295.847C265.633 295.931 265.661 296.03 265.66 296.13C265.654 296.23 265.62 296.326 265.562 296.408C265.503 296.489 265.423 296.552 265.33 296.59L250.71 302L234 309.34C233.925 309.375 233.842 309.389 233.76 309.38V309.38ZM218.98 234.38C216.82 236.5 190.16 262.94 189.87 277.96C189.58 292.98 230.64 307.25 233.74 308.31L250.33 301.03L263.83 296.03C256.58 292.92 219.04 276.62 211.16 270.15C210.572 269.659 210.096 269.048 209.763 268.358C209.43 267.669 209.248 266.916 209.23 266.15C208.63 256.96 224.08 239.55 227.46 235.86C221.47 234.79 219.58 234.49 219 234.41L218.98 234.38Z" fill="#263238"/>
<path d="M187.65 339.63C187.583 339.631 187.516 339.618 187.454 339.592C187.393 339.567 187.337 339.528 187.29 339.48C187.243 339.434 187.206 339.378 187.181 339.317C187.155 339.256 187.142 339.191 187.142 339.125C187.142 339.059 187.155 338.994 187.181 338.933C187.206 338.872 187.243 338.816 187.29 338.77C187.56 338.52 214.8 312.98 263.38 296.04C292.252 286.036 322.594 280.933 353.15 280.94H353.88C392.45 280.94 432.42 288.7 472.69 304.01C472.815 304.056 472.916 304.15 472.971 304.271C473.026 304.392 473.031 304.53 472.985 304.655C472.939 304.78 472.845 304.881 472.724 304.936C472.603 304.991 472.465 304.996 472.34 304.95C380.85 270.17 308.42 281.42 263.76 296.95C215.36 313.81 188.25 339.22 187.98 339.48C187.894 339.571 187.775 339.625 187.65 339.63V339.63Z" fill="#263238"/>
<path d="M477 435C476.865 435 476.735 434.946 476.64 434.85C476.13 434.32 424.28 381.41 339.26 351.73C249.98 320.58 106.5 345.2 47.26 386.36C47.1499 386.436 47.0144 386.464 46.8831 386.44C46.7518 386.416 46.6356 386.34 46.56 386.23C46.4844 386.12 46.4556 385.984 46.48 385.853C46.5044 385.722 46.5799 385.606 46.69 385.53C76.87 364.53 128.3 347.77 184.27 340.58C242.84 333.05 299.47 336.78 339.62 350.79C424.88 380.54 476.87 433.62 477.39 434.15C477.437 434.196 477.474 434.252 477.499 434.313C477.525 434.374 477.538 434.439 477.538 434.505C477.538 434.571 477.525 434.636 477.499 434.697C477.474 434.758 477.437 434.814 477.39 434.86C477.338 434.909 477.277 434.946 477.21 434.971C477.142 434.995 477.071 435.005 477 435V435Z" fill="#263238"/>
<path d="M146.57 410C136.11 413.68 126.83 416.85 118.57 419.59C148.19 433.44 185.67 442.66 232.87 447.64C243.29 448.74 253.03 449.51 262.16 449.97C322.4 405.97 349.97 354.97 349.97 354.97C352.02 355.64 316.42 339.97 276.26 338.59C276.23 338.6 226 382.09 146.57 410Z" fill="#00D54B"/>
<path d="M183.07 492.94C182.968 492.942 182.868 492.912 182.784 492.855C182.7 492.798 182.635 492.716 182.6 492.62C182.576 492.558 182.564 492.492 182.566 492.426C182.567 492.36 182.582 492.295 182.609 492.234C182.636 492.174 182.675 492.119 182.723 492.074C182.771 492.029 182.828 491.993 182.89 491.97C242.5 469.97 284.63 433.86 309.47 407.41C334.31 380.96 347.33 358.6 349.25 355.19C344.95 353.36 312.93 340.41 276.41 339.11C273.29 341.75 223.23 383.6 146.74 410.47C68.94 437.8 55.85 437.47 39.29 436.97C37.1 436.91 34.84 436.85 32.36 436.85C32.2274 436.85 32.1002 436.797 32.0064 436.704C31.9127 436.61 31.86 436.483 31.86 436.35C31.86 436.217 31.9127 436.09 32.0064 435.996C32.1002 435.903 32.2274 435.85 32.36 435.85C34.85 435.85 37.12 435.91 39.36 435.97C55.83 436.43 68.83 436.79 146.46 409.52C224.89 381.97 275.46 338.66 275.95 338.23C276.047 338.146 276.171 338.099 276.3 338.1C312.94 339.37 345.44 352.21 349.99 354.48H350.14C350.39 354.61 350.53 354.7 350.54 354.74C350.578 354.827 350.59 354.924 350.574 355.018C350.558 355.113 350.515 355.2 350.45 355.27C350.416 355.311 350.371 355.342 350.32 355.36C348.97 357.78 335.92 380.7 310.26 408.02C285.34 434.56 243.09 470.82 183.26 492.84L183.07 492.94Z" fill="#263238"/>
<path d="M374.68 365.27C393.4 372.84 414.45 354.48 412.95 334.92C411.5 315.92 387.7 305.63 372.76 299.35C333.13 282.7 307.29 285.57 307.29 285.57C307.29 285.57 347.48 278.11 389.41 283.27C425.7 287.74 463.47 309.7 478.83 344C487.09 362.44 487.42 382.92 485.83 402.73C484.05 425.14 476.99 434.47 476.99 434.47C476.99 434.47 426.43 393.79 374.68 365.27Z" fill="#00D54B"/>
<path d="M477 435C476.887 434.999 476.778 434.96 476.69 434.89C476.18 434.48 425.56 393.89 374.44 365.74C374.33 365.677 374.248 365.576 374.21 365.455C374.172 365.334 374.182 365.204 374.236 365.09C374.291 364.976 374.386 364.887 374.504 364.84C374.622 364.794 374.752 364.794 374.87 364.84C382.87 368.08 391.87 366.68 399.67 361.01C408.3 354.69 413.2 344.72 412.46 335.01C411 316 387 305.86 372.57 299.82C333.57 283.41 307.57 286.04 307.34 286.07C307.211 286.082 307.082 286.044 306.98 285.964C306.878 285.884 306.81 285.768 306.79 285.64C306.773 285.512 306.806 285.382 306.882 285.277C306.959 285.173 307.073 285.102 307.2 285.08C307.6 285 347.95 277.66 389.47 282.78C408.273 285.173 426.302 291.74 442.24 302C459.17 313 471.98 327.44 479.29 343.76C488.13 363.51 487.7 385.65 486.29 402.76C484.51 425.06 477.64 434.38 477.35 434.76C477.31 434.815 477.259 434.861 477.201 434.895C477.142 434.929 477.077 434.951 477.01 434.96L477 435ZM378.9 367.09C426.24 393.76 472.02 429.9 476.9 433.77C478.24 431.71 483.81 422.11 485.35 402.72C486.71 385.72 487.14 363.77 478.35 344.23C464.35 312.92 428.54 288.63 389.35 283.8C358.43 279.99 328.14 283.12 314.67 284.97C325.11 285.28 345.94 287.56 372.97 298.92C387.55 305.05 411.97 315.32 413.46 334.92C414.23 345 409.18 355.31 400.27 361.82C393.61 366.65 386 368.47 378.9 367.06V367.09Z" fill="#263238"/>
<path d="M308 292.89C307.607 292.89 307.23 292.736 306.95 292.461C306.669 292.186 306.508 291.813 306.5 291.42L302.64 99.32C302.632 98.9222 302.782 98.5375 303.058 98.2506C303.334 97.9636 303.712 97.798 304.11 97.79C304.508 97.782 304.893 97.9325 305.179 98.2081C305.466 98.4838 305.632 98.8622 305.64 99.26L309.5 291.36C309.505 291.557 309.471 291.754 309.4 291.938C309.329 292.122 309.222 292.29 309.085 292.432C308.948 292.575 308.785 292.689 308.603 292.767C308.422 292.846 308.227 292.887 308.03 292.89H308Z" fill="#263238"/>
<path d="M329.69 123.68L347.64 133.88L341.52 142.62L345.99 153.94L322.1 146.45L329.69 123.68Z" fill="#00D54B"/>
<path d="M346 154.44C345.95 154.45 345.9 154.45 345.85 154.44L322 146.93C321.937 146.91 321.879 146.878 321.829 146.835C321.779 146.792 321.739 146.739 321.71 146.68C321.681 146.619 321.666 146.553 321.666 146.485C321.666 146.417 321.681 146.351 321.71 146.29L329.3 123.52C329.324 123.451 329.362 123.387 329.412 123.334C329.462 123.281 329.523 123.238 329.59 123.21C329.658 123.181 329.731 123.165 329.805 123.165C329.879 123.165 329.952 123.181 330.02 123.21L347.97 133.41C348.031 133.446 348.083 133.493 348.124 133.55C348.166 133.607 348.195 133.671 348.21 133.74C348.225 133.807 348.225 133.876 348.211 133.943C348.198 134.011 348.17 134.074 348.13 134.13L342.13 142.65L346.5 153.73C346.534 153.817 346.542 153.912 346.524 154.004C346.507 154.096 346.464 154.181 346.4 154.25C346.353 154.311 346.292 154.36 346.223 154.393C346.153 154.426 346.077 154.442 346 154.44ZM322.75 146.13L345.15 153.13L341.07 142.78C341.041 142.703 341.03 142.621 341.039 142.539C341.047 142.457 341.075 142.379 341.12 142.31L346.93 134.02L330 124.41L322.75 146.13Z" fill="#263238"/>
<path d="M328.79 143.94L322.1 146.45L329.69 123.68L328.79 143.94Z" fill="#263238"/>
<path d="M322.1 147C322.02 147.002 321.941 146.984 321.87 146.948C321.798 146.912 321.737 146.859 321.69 146.794C321.644 146.729 321.614 146.654 321.604 146.575C321.593 146.495 321.602 146.415 321.63 146.34L329.22 123.57C329.232 123.504 329.256 123.442 329.293 123.386C329.329 123.329 329.375 123.281 329.43 123.243C329.485 123.205 329.547 123.178 329.612 123.164C329.677 123.149 329.744 123.148 329.81 123.16C329.876 123.172 329.938 123.196 329.994 123.232C330.051 123.269 330.099 123.315 330.137 123.37C330.175 123.425 330.202 123.487 330.216 123.552C330.231 123.617 330.232 123.684 330.22 123.75L329.32 144.02C329.316 144.117 329.284 144.21 329.227 144.288C329.17 144.367 329.091 144.426 329 144.46L322.31 146.97C322.242 146.993 322.171 147.003 322.1 147V147ZM329 127.23L322.88 145.62L328.28 143.62L329 127.23Z" fill="#263238"/>
<path d="M304.85 102.36L330.95 113.47L328.79 143.94L305.5 135.51L304.85 102.36Z" fill="#00D54B"/>
<path d="M328.79 144.44H328.62L305.32 136C305.226 135.963 305.145 135.9 305.087 135.819C305.028 135.737 304.995 135.64 304.99 135.54L304.35 102.39C304.349 102.307 304.369 102.226 304.407 102.152C304.445 102.079 304.501 102.016 304.57 101.97C304.644 101.931 304.726 101.91 304.81 101.91C304.894 101.91 304.976 101.931 305.05 101.97L331.15 113C331.248 113.039 331.33 113.109 331.385 113.199C331.439 113.29 331.462 113.395 331.45 113.5L329.29 144C329.287 144.076 329.265 144.151 329.227 144.217C329.189 144.283 329.135 144.339 329.07 144.38C328.985 144.428 328.887 144.449 328.79 144.44ZM306 135.15L328.35 143.25L330.44 113.79L305.37 103.13L306 135.15Z" fill="#263238"/>
<path d="M210.26 238.43C209.995 238.43 209.74 238.325 209.553 238.137C209.365 237.95 209.26 237.695 209.26 237.43L207 156.82C206.992 156.555 207.09 156.297 207.272 156.104C207.454 155.911 207.705 155.798 207.97 155.79C208.235 155.782 208.493 155.88 208.686 156.062C208.879 156.244 208.992 156.495 209 156.76L211.24 237.4C211.24 237.665 211.135 237.92 210.947 238.107C210.76 238.295 210.505 238.4 210.24 238.4L210.26 238.43Z" fill="#263238"/>
<path d="M218.84 166.95L226.61 172.14L223.87 174.86L226.72 179.15L215.73 176.53L218.84 166.95Z" fill="#00D54B"/>
<path d="M226.73 179.65H226.61L215.61 177.04C215.543 177.024 215.48 176.994 215.425 176.953C215.37 176.911 215.324 176.859 215.29 176.799C215.256 176.739 215.235 176.672 215.228 176.604C215.221 176.535 215.229 176.466 215.25 176.4L218.36 166.81C218.383 166.737 218.424 166.671 218.478 166.618C218.531 166.564 218.597 166.523 218.67 166.5C218.742 166.475 218.82 166.467 218.896 166.476C218.972 166.484 219.045 166.51 219.11 166.55L226.87 171.74C226.93 171.782 226.981 171.836 227.019 171.9C227.056 171.963 227.079 172.033 227.087 172.107C227.095 172.18 227.086 172.254 227.063 172.323C227.039 172.393 227.001 172.457 226.95 172.51L224.51 174.94L227.13 178.94C227.186 179.023 227.216 179.12 227.216 179.22C227.216 179.32 227.186 179.417 227.13 179.5C227.079 179.553 227.016 179.594 226.947 179.62C226.878 179.646 226.804 179.656 226.73 179.65ZM216.38 176.17L225.61 178.37L223.46 175.14C223.393 175.043 223.363 174.926 223.374 174.809C223.384 174.692 223.436 174.583 223.52 174.5L225.82 172.21L219.12 167.73L216.38 176.17Z" fill="#263238"/>
<path d="M218.53 175.46L215.73 176.53L218.84 166.95L218.53 175.46Z" fill="#263238"/>
<path d="M215.73 177C215.604 177.003 215.482 176.956 215.39 176.87C215.322 176.804 215.274 176.72 215.251 176.628C215.228 176.537 215.231 176.44 215.26 176.35L218.37 166.76C218.409 166.647 218.486 166.552 218.589 166.492C218.692 166.431 218.813 166.409 218.93 166.43C219.049 166.45 219.157 166.512 219.233 166.607C219.308 166.701 219.347 166.819 219.34 166.94L219.03 175.45C219.028 175.548 218.997 175.644 218.939 175.724C218.882 175.805 218.802 175.866 218.71 175.9L215.91 176.97C215.852 176.99 215.791 177 215.73 177ZM218.21 170.48L216.53 175.66L218.05 175.08L218.21 170.48Z" fill="#263238"/>
<path d="M208.35 158.08L219.43 162.89L218.53 175.46L208.72 171.99L208.35 158.08Z" fill="#00D54B"/>
<path d="M218.53 176C218.477 176.01 218.423 176.01 218.37 176L208.56 172.53C208.465 172.499 208.382 172.439 208.323 172.358C208.264 172.277 208.231 172.18 208.23 172.08L207.85 158.16C207.846 158.077 207.864 157.994 207.903 157.92C207.942 157.846 207.999 157.784 208.07 157.74C208.143 157.699 208.226 157.677 208.31 157.677C208.394 157.677 208.477 157.699 208.55 157.74L219.63 162.55C219.726 162.588 219.807 162.657 219.861 162.745C219.915 162.833 219.94 162.937 219.93 163.04L219.03 175.61C219.025 175.687 219.003 175.763 218.965 175.83C218.927 175.898 218.874 175.956 218.81 176C218.718 176.025 218.622 176.025 218.53 176V176ZM209.22 171.68L218.08 174.81L218.91 163.25L208.91 158.89L209.22 171.68Z" fill="#263238"/>
<path d="M277.61 248.61C277.48 248.608 277.356 248.555 277.263 248.464C277.17 248.373 277.115 248.25 277.11 248.12L275.46 195.84C275.457 195.709 275.506 195.582 275.596 195.487C275.686 195.392 275.809 195.335 275.94 195.33C276.006 195.324 276.073 195.333 276.136 195.354C276.199 195.376 276.257 195.41 276.306 195.456C276.354 195.501 276.393 195.556 276.42 195.617C276.447 195.678 276.46 195.743 276.46 195.81L278.11 248.09C278.113 248.156 278.102 248.221 278.08 248.283C278.057 248.345 278.022 248.401 277.978 248.45C277.933 248.498 277.88 248.537 277.82 248.564C277.76 248.592 277.696 248.607 277.63 248.61H277.61Z" fill="#263238"/>
<path d="M283.93 203.31L289.64 207.13L287.63 209.13L289.73 212.28L281.64 210.36L283.93 203.31Z" fill="#00D54B"/>
<path d="M289.73 212.79H289.62L281.52 210.87C281.387 210.833 281.273 210.747 281.2 210.63C281.173 210.567 281.159 210.499 281.159 210.43C281.159 210.361 281.173 210.293 281.2 210.23L283.49 203.17C283.515 203.096 283.557 203.028 283.613 202.973C283.668 202.917 283.736 202.875 283.81 202.85C283.883 202.825 283.961 202.818 284.037 202.828C284.113 202.839 284.186 202.867 284.25 202.91L289.96 206.73C290.023 206.77 290.077 206.824 290.115 206.888C290.153 206.953 290.175 207.025 290.18 207.1C290.185 207.173 290.176 207.246 290.152 207.315C290.128 207.383 290.09 207.447 290.04 207.5L288.32 209.21L290.19 212.03C290.246 212.113 290.276 212.21 290.276 212.31C290.276 212.41 290.246 212.507 290.19 212.59C290.138 212.662 290.068 212.718 289.988 212.753C289.907 212.789 289.818 212.801 289.73 212.79V212.79ZM282.28 210L288.61 211.5L287.21 209.41C287.146 209.312 287.119 209.194 287.131 209.078C287.144 208.961 287.197 208.852 287.28 208.77L288.86 207.2L284.2 204.09L282.28 210Z" fill="#263238"/>
<path d="M283.7 209.57L281.64 210.36L283.93 203.31L283.7 209.57Z" fill="#00D54B"/>
<path d="M281.64 210.86C281.51 210.859 281.385 210.809 281.29 210.72C281.222 210.656 281.174 210.574 281.151 210.484C281.128 210.394 281.131 210.299 281.16 210.21L283.45 203.15C283.473 203.017 283.547 202.899 283.657 202.821C283.766 202.744 283.902 202.712 284.035 202.735C284.168 202.758 284.286 202.832 284.364 202.942C284.441 203.051 284.473 203.187 284.45 203.32L284.22 209.59C284.215 209.688 284.183 209.782 284.126 209.862C284.069 209.942 283.991 210.004 283.9 210.04L281.84 210.83L281.64 210.86ZM283.3 206.87L282.44 209.52L283.21 209.22L283.3 206.87Z" fill="#263238"/>
<path d="M276.2 196.78L284.36 200.32L283.7 209.57L276.48 207.02L276.2 196.78Z" fill="#00D54B"/>
<path d="M283.7 210.07H283.53L276.31 207.52C276.21 207.478 276.125 207.405 276.069 207.311C276.014 207.217 275.989 207.108 276 207L275.72 196.76C275.72 196.676 275.74 196.593 275.778 196.518C275.816 196.444 275.872 196.379 275.94 196.33C276.014 196.291 276.096 196.27 276.18 196.27C276.264 196.27 276.346 196.291 276.42 196.33L284.58 199.87C284.676 199.908 284.757 199.977 284.811 200.065C284.865 200.153 284.89 200.257 284.88 200.36L284.22 209.62C284.215 209.696 284.192 209.77 284.154 209.835C284.116 209.901 284.063 209.958 284 210C283.908 210.05 283.805 210.075 283.7 210.07ZM277 206.66L283.28 208.88L283.87 200.63L276.75 197.55L277 206.66Z" fill="#263238"/>
<path d="M354.82 371.71C354.29 371.71 353.781 371.499 353.406 371.124C353.031 370.749 352.82 370.24 352.82 369.71L355.06 49.76C355.06 49.2296 355.271 48.7209 355.646 48.3458C356.021 47.9707 356.53 47.76 357.06 47.76C357.59 47.76 358.099 47.9707 358.474 48.3458C358.849 48.7209 359.06 49.2296 359.06 49.76L356.82 369.76C356.807 370.282 356.59 370.778 356.217 371.142C355.843 371.506 355.342 371.71 354.82 371.71Z" fill="#263238"/>
<path d="M390.6 83.43L414.86 100.87L405.82 109.28L414.48 123.31L383.69 119.32L390.6 83.43Z" fill="#00D54B"/>
<path d="M414.48 123.8H414.42L383.63 119.8C383.562 119.793 383.497 119.772 383.438 119.737C383.379 119.703 383.329 119.656 383.29 119.6C383.21 119.487 383.178 119.347 383.2 119.21L390.1 83.32C390.117 83.2375 390.154 83.1606 390.208 83.096C390.263 83.0314 390.332 82.9813 390.41 82.95C390.489 82.9195 390.574 82.909 390.658 82.9195C390.741 82.9299 390.821 82.9611 390.89 83.01L415.15 100.46C415.211 100.502 415.261 100.557 415.297 100.621C415.334 100.685 415.355 100.757 415.36 100.83C415.365 100.904 415.353 100.979 415.325 101.048C415.298 101.117 415.255 101.179 415.2 101.23L406.46 109.36L414.91 123C414.962 123.081 414.989 123.174 414.989 123.27C414.989 123.366 414.962 123.459 414.91 123.54C414.868 123.617 414.806 123.682 414.73 123.728C414.655 123.774 414.568 123.798 414.48 123.8ZM384.29 118.89L413.51 122.67L405.4 109.54C405.338 109.442 405.313 109.326 405.327 109.211C405.342 109.096 405.396 108.989 405.48 108.91L414.07 100.91L390.94 84.29L384.29 118.89Z" fill="#263238"/>
<path d="M400.96 117.73L383.69 119.32L390.6 83.43L400.96 117.73Z" fill="#263238"/>
<path d="M383.69 119.82C383.62 119.819 383.551 119.804 383.487 119.774C383.423 119.745 383.366 119.703 383.32 119.65C383.268 119.593 383.23 119.524 383.209 119.449C383.189 119.375 383.185 119.296 383.2 119.22L390.1 83.33C390.124 83.2211 390.183 83.1231 390.268 83.0508C390.353 82.9786 390.459 82.9362 390.57 82.93C390.68 82.9249 390.789 82.9565 390.88 83.0199C390.97 83.0832 391.037 83.1746 391.07 83.28L401.44 117.58C401.461 117.652 401.465 117.728 401.453 117.803C401.441 117.877 401.413 117.948 401.37 118.01C401.327 118.071 401.272 118.121 401.208 118.159C401.145 118.197 401.074 118.221 401 118.23L383.74 119.82H383.69ZM390.69 85.51L384.3 118.76L400.3 117.29L390.69 85.51Z" fill="#263238"/>
<path d="M357.97 53.92L404.16 77.06L400.96 117.73L357.67 98.47L357.97 53.92Z" fill="#00D54B"/>
<path d="M401 118.23C400.931 118.244 400.859 118.244 400.79 118.23L357.47 98.92C357.381 98.8799 357.306 98.8153 357.253 98.7338C357.2 98.6523 357.171 98.5573 357.17 98.46L357.47 53.92C357.469 53.8337 357.491 53.7488 357.533 53.6734C357.575 53.5981 357.636 53.5349 357.71 53.49C357.784 53.4506 357.866 53.43 357.95 53.43C358.034 53.43 358.116 53.4506 358.19 53.49L404.39 76.63C404.48 76.6744 404.554 76.7451 404.602 76.8327C404.65 76.9203 404.67 77.0205 404.66 77.12L401.46 117.79C401.45 117.869 401.422 117.946 401.379 118.013C401.336 118.081 401.278 118.138 401.21 118.18C401.144 118.21 401.073 118.227 401 118.23V118.23ZM358.18 98.14L400.51 117L403.64 77.37L358.46 54.73L358.18 98.14Z" fill="#263238"/>
<path d="M235.78 62.94H145.59C145.502 62.9416 145.416 62.9191 145.34 62.875C145.264 62.831 145.202 62.767 145.16 62.69C145.118 62.6152 145.096 62.5308 145.096 62.445C145.096 62.3592 145.118 62.2748 145.16 62.2C145.33 61.9 149.25 54.92 154.85 51.72C158.3 49.72 163.92 51.23 168.42 52.42C171.08 53.12 173.83 53.84 174.61 53.32C175.285 52.6127 175.792 51.7613 176.09 50.83C177.57 47.51 180.09 41.95 189.76 39.11C194.91 37.61 198.85 39.28 202.01 40.62C205.17 41.96 207.24 42.83 209.36 40.72C210.338 39.6764 211.257 38.578 212.11 37.43C213.702 35.2972 215.457 33.2912 217.36 31.43C217.408 31.3847 217.464 31.3493 217.526 31.3258C217.588 31.3022 217.653 31.2911 217.719 31.293C217.785 31.2948 217.85 31.3096 217.91 31.3366C217.97 31.3635 218.025 31.4021 218.07 31.45C218.115 31.4979 218.151 31.5543 218.174 31.6159C218.198 31.6776 218.209 31.7432 218.207 31.8091C218.205 31.8751 218.19 31.94 218.163 32.0002C218.136 32.0604 218.098 32.1147 218.05 32.16C216.181 33.9887 214.459 35.9615 212.9 38.06C212.021 39.2416 211.072 40.3702 210.06 41.44C207.48 44.02 204.76 42.88 201.62 41.55C198.48 40.22 194.85 38.68 190.04 40.08C180.77 42.79 178.51 47.88 177.04 51.25C176.688 52.3648 176.05 53.368 175.19 54.16C174.04 54.93 171.59 54.29 168.19 53.39C163.86 52.25 158.46 50.82 155.37 52.6C151.06 55.06 147.67 60.06 146.5 61.95H235.81C235.943 61.95 236.07 62.0027 236.164 62.0964C236.257 62.1902 236.31 62.3174 236.31 62.45C236.309 62.5174 236.294 62.5839 236.266 62.6454C236.239 62.707 236.199 62.7623 236.15 62.808C236.1 62.8538 236.042 62.8891 235.978 62.9118C235.915 62.9345 235.847 62.9441 235.78 62.94V62.94Z" fill="#263238"/>
<path d="M301.51 62.94H245.92C245.787 62.94 245.66 62.8873 245.566 62.7936C245.473 62.6998 245.42 62.5726 245.42 62.44C245.42 62.3074 245.473 62.1802 245.566 62.0864C245.66 61.9927 245.787 61.94 245.92 61.94H300.86C300.11 59.3 296.77 48.94 289.46 46.29C283.53 44.13 280.46 47.52 278.17 50C277.463 50.935 276.563 51.706 275.53 52.26C275.118 52.4629 274.664 52.5685 274.205 52.5685C273.746 52.5685 273.292 52.4629 272.88 52.26C272.589 52.0865 272.336 51.8549 272.139 51.5796C271.941 51.3044 271.802 50.9913 271.73 50.66C271.64 50.47 259.73 21.83 239.81 23.37C234.301 23.6481 228.921 25.1331 224.05 27.72C223.935 27.7848 223.798 27.8011 223.671 27.7655C223.543 27.7299 223.435 27.6452 223.37 27.53C223.337 27.4732 223.315 27.4102 223.306 27.3449C223.298 27.2795 223.303 27.2131 223.32 27.1496C223.338 27.0861 223.368 27.0268 223.41 26.9754C223.451 26.9239 223.502 26.8812 223.56 26.85C228.557 24.1912 234.077 22.6619 239.73 22.37C260.45 20.79 272.57 50.09 272.73 50.37C272.773 50.5742 272.856 50.7678 272.974 50.9394C273.093 51.1111 273.244 51.2575 273.42 51.37C273.708 51.4866 274.017 51.5407 274.328 51.5286C274.638 51.5166 274.942 51.4386 275.22 51.3C276.093 50.7827 276.86 50.104 277.48 49.3C279.79 46.77 283.28 42.94 289.85 45.3C298.7 48.52 301.9 61.72 302.03 62.3C302.048 62.3722 302.049 62.4476 302.033 62.5204C302.018 62.5932 301.986 62.6614 301.94 62.72C301.892 62.7893 301.828 62.8457 301.753 62.8841C301.678 62.9225 301.594 62.9417 301.51 62.94V62.94Z" fill="#263238"/>
<path d="M435.82 187.49H377.88C377.793 187.489 377.707 187.466 377.632 187.422C377.556 187.378 377.494 187.316 377.45 187.24C377.408 187.165 377.386 187.081 377.386 186.995C377.386 186.909 377.408 186.825 377.45 186.75C377.55 186.58 379.74 182.67 382.89 180.87C384.89 179.74 388.02 180.57 390.56 181.24C391.84 181.58 393.44 182 393.79 181.77C394.119 181.397 394.371 180.962 394.53 180.49C395.36 178.62 396.76 175.49 402.22 173.89C405.14 173.04 407.36 173.98 409.14 174.73C410.92 175.48 411.94 175.85 412.95 174.83C413.485 174.264 413.986 173.666 414.45 173.04C415.497 171.613 416.69 170.299 418.01 169.12C418.105 169.028 418.232 168.976 418.365 168.976C418.498 168.976 418.625 169.028 418.72 169.12C418.767 169.166 418.804 169.22 418.829 169.28C418.854 169.34 418.867 169.405 418.867 169.47C418.867 169.535 418.854 169.6 418.829 169.66C418.804 169.72 418.767 169.774 418.72 169.82C417.451 170.96 416.301 172.226 415.29 173.6C414.8 174.26 414.273 174.891 413.71 175.49C412.17 177.03 410.53 176.33 408.8 175.6C407.07 174.87 405.13 174.05 402.55 174.8C397.55 176.26 396.3 179.02 395.49 180.8C395.29 181.462 394.909 182.054 394.39 182.51C393.67 182.99 392.28 182.62 390.39 182.11C388.04 181.49 385.11 180.72 383.48 181.65C381.616 182.875 380.045 184.497 378.88 186.4H435.88C436.013 186.4 436.14 186.453 436.234 186.546C436.327 186.64 436.38 186.767 436.38 186.9C436.38 187.033 436.327 187.16 436.234 187.254C436.14 187.347 436.013 187.4 435.88 187.4L435.82 187.49Z" fill="#263238"/>
<path d="M464 187.49H440.55C440.417 187.49 440.29 187.437 440.196 187.344C440.103 187.25 440.05 187.123 440.05 186.99C440.05 186.857 440.103 186.73 440.196 186.636C440.29 186.543 440.417 186.49 440.55 186.49H463.35C462.81 184.72 460.99 179.63 457.28 178.28C454.13 177.14 452.55 178.87 451.28 180.28C450.867 180.826 450.337 181.273 449.73 181.59C449.473 181.715 449.191 181.78 448.905 181.78C448.619 181.78 448.337 181.715 448.08 181.59C447.895 181.482 447.735 181.338 447.607 181.166C447.48 180.994 447.389 180.798 447.34 180.59C447.34 180.52 440.84 164.83 429.94 165.69C427.617 165.84 425.33 166.346 423.16 167.19C423.1 167.216 423.035 167.23 422.969 167.23C422.904 167.231 422.838 167.218 422.778 167.193C422.717 167.167 422.662 167.13 422.616 167.084C422.57 167.037 422.534 166.981 422.51 166.92C422.484 166.86 422.47 166.795 422.47 166.729C422.469 166.664 422.482 166.598 422.507 166.538C422.533 166.477 422.57 166.422 422.616 166.376C422.663 166.33 422.719 166.294 422.78 166.27C425.049 165.384 427.44 164.851 429.87 164.69C441.43 163.8 448.02 179.63 448.29 180.31C448.326 180.491 448.43 180.652 448.58 180.76C448.844 180.844 449.131 180.823 449.38 180.7C449.826 180.442 450.219 180.103 450.54 179.7C451.86 178.26 453.85 176.08 457.62 177.45C462.62 179.27 464.42 186.67 464.49 186.99C464.508 187.062 464.509 187.138 464.493 187.21C464.478 187.283 464.446 187.351 464.4 187.41C464.342 187.45 464.277 187.478 464.208 187.492C464.14 187.505 464.069 187.505 464 187.49V187.49Z" fill="#263238"/>
<path d="M268.45 213.51H218C217.911 213.509 217.825 213.486 217.748 213.442C217.671 213.398 217.606 213.336 217.56 213.26C217.516 213.184 217.493 213.098 217.493 213.01C217.493 212.922 217.516 212.836 217.56 212.76C218.355 211.347 219.472 210.141 220.82 209.24C222.06 208.53 223.95 209.03 225.47 209.43C226.034 209.624 226.624 209.735 227.22 209.76C227.359 209.558 227.474 209.34 227.56 209.11C227.937 208.108 228.56 207.218 229.37 206.519C230.181 205.82 231.154 205.336 232.2 205.11C233.61 204.741 235.107 204.919 236.39 205.61C237.49 206.07 237.92 206.19 238.39 205.71C238.698 205.396 238.985 205.062 239.25 204.71C240.275 203.207 241.643 201.97 243.241 201.1C244.839 200.231 246.621 199.754 248.44 199.71C255.44 199.18 259.29 208.59 259.44 208.99V209.08C259.52 209.17 259.61 209.18 259.79 209.08C260.016 208.924 260.218 208.735 260.39 208.52C261.15 207.69 262.39 206.29 264.76 207.14C267.76 208.25 268.87 212.69 268.92 212.88C268.937 212.955 268.936 213.032 268.919 213.106C268.902 213.181 268.868 213.25 268.82 213.31C268.777 213.369 268.722 213.417 268.658 213.452C268.594 213.486 268.523 213.506 268.45 213.51ZM218.88 212.51H267.78C267.4 211.33 266.36 208.8 264.44 208.09C262.73 207.47 261.89 208.39 261.15 209.2C260.881 209.546 260.54 209.83 260.15 210.03C259.972 210.115 259.777 210.158 259.58 210.158C259.383 210.158 259.188 210.115 259.01 210.03C258.754 209.874 258.565 209.628 258.48 209.34C258.25 208.78 254.48 200.26 248.48 200.71C246.799 200.741 245.151 201.177 243.674 201.982C242.198 202.786 240.938 203.935 240 205.33C239.711 205.726 239.397 206.104 239.06 206.46C238.06 207.46 236.99 207.01 235.95 206.57C234.876 205.981 233.62 205.817 232.43 206.11C231.528 206.299 230.689 206.712 229.99 207.312C229.291 207.911 228.754 208.678 228.43 209.54C228.301 209.963 228.05 210.338 227.71 210.62C227.21 210.96 226.4 210.74 225.18 210.42C223.96 210.1 222.18 209.63 221.28 210.13C220.321 210.746 219.504 211.557 218.88 212.51Z" fill="#263238"/>
<path d="M93.65 138.12H43.16C43.0731 138.118 42.9883 138.093 42.9132 138.05C42.8381 138.006 42.7751 137.944 42.73 137.87C42.6861 137.794 42.663 137.708 42.663 137.62C42.663 137.532 42.6861 137.446 42.73 137.37C43.5276 135.956 44.648 134.749 46 133.85C47.24 133.14 49.13 133.64 50.65 134.04C51.2142 134.234 51.8037 134.345 52.4 134.37C52.5395 134.168 52.6537 133.95 52.74 133.72C53.1173 132.718 53.7397 131.828 54.5503 131.129C55.3609 130.43 56.3338 129.946 57.38 129.72C58.7896 129.351 60.2869 129.529 61.57 130.22C62.67 130.68 63.1 130.8 63.57 130.32C63.8777 130.005 64.1649 129.671 64.43 129.32C65.455 127.817 66.8231 126.58 68.4211 125.71C70.0192 124.841 71.8013 124.364 73.62 124.32C80.62 123.79 84.47 133.2 84.62 133.6C84.6247 133.63 84.6247 133.66 84.62 133.69C84.7 133.78 84.8 133.79 84.97 133.69C85.2005 133.539 85.4035 133.35 85.57 133.13C86.33 132.3 87.57 130.9 89.95 131.76C92.95 132.86 94.06 137.3 94.11 137.49C94.1266 137.565 94.1262 137.642 94.1089 137.716C94.0916 137.791 94.0578 137.86 94.01 137.92C93.9681 137.977 93.9142 138.025 93.852 138.06C93.7899 138.094 93.7209 138.115 93.65 138.12V138.12ZM44.08 137.12H93C92.62 135.94 91.58 133.41 89.65 132.7C87.94 132.08 87.1 133 86.36 133.81C86.0953 134.16 85.753 134.444 85.36 134.64C85.18 134.724 84.9837 134.768 84.785 134.768C84.5863 134.768 84.39 134.724 84.21 134.64C83.9528 134.487 83.7661 134.239 83.69 133.95C83.45 133.39 79.77 124.87 73.69 125.32C72.0088 125.35 70.3597 125.785 68.8831 126.589C67.4066 127.394 66.1464 128.543 65.21 129.94C64.9018 130.338 64.5677 130.716 64.21 131.07C63.21 132.07 62.15 131.62 61.11 131.18C60.0354 130.592 58.7796 130.428 57.59 130.72C56.6884 130.909 55.849 131.322 55.1498 131.922C54.4505 132.521 53.914 133.288 53.59 134.15C53.4608 134.573 53.2104 134.948 52.87 135.23C52.37 135.57 51.56 135.35 50.33 135.03C49.1 134.71 47.33 134.23 46.44 134.74C45.4958 135.36 44.6919 136.171 44.08 137.12V137.12Z" fill="#263238"/>
<path d="M152.78 106C153.918 108.971 154.834 112.023 155.52 115.13C155.97 118.21 157.26 119.88 156.91 120.79C156.56 121.7 155.43 123.79 155.43 124.44C156.207 127.177 157.19 129.851 158.37 132.44C159.28 134.38 156.66 134.95 155.86 136.09C155.06 137.23 154.86 139.86 154.49 143.17C154.12 146.48 155.17 148.31 154.38 150.02C153.59 151.73 148.44 151.96 146.27 151.39C145.089 151.125 143.99 150.576 143.07 149.79L142.39 152.65C139.03 150.045 135.395 147.815 131.55 146C126.817 144.113 121.975 142.51 117.05 141.2L117.62 134.81C117.62 134.81 111.57 125.81 109.17 118.26C106.77 110.71 111.11 102.16 113.62 98.85C116.13 95.54 128.62 93.03 134.97 92.92C141.32 92.81 151.52 97.71 151.97 97.82C152.42 97.93 156.31 96.91 156.42 98.4C156.378 99.594 156.067 100.763 155.51 101.82C155.51 101.82 160.42 99.54 159.96 102.16C159.5 104.78 153.8 106.29 152.78 106Z" fill="white"/>
<path d="M142.39 153.14C142.277 153.139 142.168 153.1 142.08 153.03C138.745 150.465 135.145 148.266 131.34 146.47C126.632 144.598 121.817 143.009 116.92 141.71C116.807 141.678 116.708 141.608 116.64 141.511C116.573 141.414 116.541 141.297 116.55 141.18L117.11 134.96C116.31 133.75 110.92 125.42 108.69 118.43C106.23 110.69 110.58 102.05 113.23 98.57C115.88 95.09 128.86 92.57 134.96 92.44C140.5 92.33 148.71 95.89 151.4 97.06C151.78 97.23 152.03 97.34 152.11 97.36L152.81 97.27C154.33 97.07 155.75 96.94 156.49 97.54C156.617 97.642 156.722 97.7693 156.798 97.9139C156.874 98.0584 156.919 98.2172 156.93 98.38C156.945 99.2496 156.785 100.113 156.46 100.92C157.59 100.52 159.19 100.13 159.99 100.75C160.21 100.928 160.372 101.168 160.456 101.439C160.54 101.709 160.541 101.999 160.46 102.27C160.303 102.846 160.023 103.38 159.64 103.838C159.257 104.295 158.779 104.664 158.24 104.92C156.787 105.759 155.177 106.291 153.51 106.48C154.559 109.251 155.391 112.1 156 115C156.208 116.212 156.543 117.398 157 118.54C157.401 119.261 157.542 120.098 157.4 120.91C157.28 121.23 157.06 121.7 156.83 122.19C156.456 122.888 156.161 123.626 155.95 124.39C156.734 127.059 157.7 129.672 158.84 132.21C159.64 133.9 158.31 134.82 157.33 135.49C156.956 135.73 156.619 136.023 156.33 136.36C155.65 137.36 155.4 139.79 155.11 142.64L155.05 143.2C154.941 144.413 154.967 145.633 155.13 146.84C155.374 147.963 155.291 149.133 154.89 150.21C153.89 152.35 148.3 152.41 146.2 151.85C145.219 151.605 144.285 151.196 143.44 150.64L142.94 152.74C142.919 152.822 142.877 152.898 142.82 152.961C142.762 153.024 142.69 153.072 142.61 153.1C142.541 153.132 142.466 153.145 142.39 153.14ZM117.58 140.85C122.394 142.133 127.126 143.706 131.75 145.56C135.402 147.265 138.864 149.35 142.08 151.78L142.59 149.67C142.609 149.582 142.651 149.501 142.713 149.436C142.775 149.371 142.853 149.324 142.94 149.3C143.026 149.276 143.117 149.275 143.203 149.298C143.289 149.321 143.367 149.367 143.43 149.43C144.3 150.149 145.328 150.653 146.43 150.9C148.61 151.47 153.33 151.13 153.95 149.8C154.264 148.886 154.32 147.903 154.11 146.96C153.937 145.684 153.907 144.393 154.02 143.11L154.08 142.54C154.41 139.31 154.65 136.98 155.48 135.8C155.842 135.351 156.282 134.971 156.78 134.68C157.89 133.91 158.34 133.48 157.95 132.68C157.1 130.88 154.95 125.29 154.95 124.43C155.128 123.505 155.467 122.618 155.95 121.81C156.17 121.34 156.38 120.9 156.49 120.6C156.499 120.015 156.362 119.438 156.09 118.92C155.628 117.711 155.292 116.458 155.09 115.18C154.41 112.117 153.504 109.109 152.38 106.18C152.346 106.09 152.338 105.993 152.357 105.899C152.377 105.805 152.423 105.718 152.49 105.65C152.557 105.583 152.64 105.536 152.732 105.513C152.824 105.49 152.92 105.492 153.01 105.52C154.704 105.484 156.357 104.997 157.8 104.11C158.21 103.91 158.576 103.63 158.877 103.286C159.177 102.943 159.406 102.543 159.55 102.11C159.6 101.82 159.55 101.64 159.46 101.55C158.98 101.19 157.19 101.66 155.8 102.3C155.706 102.345 155.599 102.359 155.496 102.341C155.393 102.322 155.299 102.272 155.226 102.197C155.153 102.122 155.105 102.026 155.09 101.922C155.075 101.819 155.092 101.713 155.14 101.62C155.657 100.643 155.951 99.564 156 98.46C156.001 98.4326 155.996 98.4054 155.983 98.3809C155.971 98.3563 155.953 98.3354 155.93 98.32C155.47 97.95 153.81 98.17 153.01 98.32C152.656 98.398 152.291 98.4183 151.93 98.38C151.613 98.2724 151.302 98.1455 151 98C148.36 96.85 140.32 93.33 135 93.46C128.35 93.57 116.32 96.19 114 99.19C112 101.88 107.2 110.52 109.63 118.19C112 125.5 118 134.46 118 134.55C118.067 134.643 118.099 134.756 118.09 134.87L117.58 140.85Z" fill="#263238"/>
<path d="M153.95 126.41C154.309 126.41 154.6 125.537 154.6 124.46C154.6 123.383 154.309 122.51 153.95 122.51C153.591 122.51 153.3 123.383 153.3 124.46C153.3 125.537 153.591 126.41 153.95 126.41Z" fill="#263238"/>
<path d="M153.22 121.12C153.094 121.123 152.972 121.076 152.88 120.99C152.833 120.944 152.796 120.888 152.771 120.827C152.745 120.766 152.732 120.701 152.732 120.635C152.732 120.569 152.745 120.504 152.771 120.443C152.796 120.382 152.833 120.326 152.88 120.28C153.127 119.948 153.448 119.678 153.818 119.492C154.188 119.306 154.596 119.21 155.01 119.21C155.262 119.235 155.506 119.315 155.723 119.445C155.941 119.575 156.128 119.75 156.27 119.96C156.341 120.071 156.366 120.207 156.338 120.336C156.309 120.465 156.231 120.578 156.12 120.65C156.009 120.72 155.875 120.744 155.747 120.718C155.618 120.692 155.505 120.618 155.43 120.51C155.371 120.424 155.294 120.351 155.204 120.298C155.114 120.244 155.014 120.211 154.91 120.2C154.653 120.23 154.404 120.313 154.181 120.444C153.957 120.575 153.763 120.751 153.61 120.96C153.562 121.016 153.502 121.059 153.434 121.087C153.367 121.115 153.293 121.126 153.22 121.12Z" fill="#263238"/>
<path d="M154.38 150C155.17 148.29 154.15 146.46 154.49 143.15C154.83 139.84 155.06 137.22 155.86 136.07C153.58 135.28 148.86 138.7 148.33 137.9C147.8 137.1 147.33 122.83 147.64 120.66C147.95 118.49 150.95 118.5 152.21 115.76C153.47 113.02 149.21 109.93 149.01 108.11C148.81 106.29 152.78 105.94 152.78 105.94C153.78 106.28 159.51 104.8 159.97 102.17C160.43 99.54 155.52 101.83 155.52 101.83C156.077 100.773 156.388 99.604 156.43 98.41C156.32 96.92 152.43 97.95 151.98 97.83C151.53 97.71 141.36 92.83 134.98 92.93C128.6 93.03 116.14 95.55 113.63 98.86C111.12 102.17 106.78 110.73 109.18 118.27C111.18 124.69 115.91 132.17 117.25 134.27C117.647 134.554 118.081 134.782 118.54 134.95C122.571 136.163 126.827 136.436 130.98 135.75C136.69 134.75 141.26 132.67 140.46 131.07C139.66 129.47 139.2 122.85 141.03 119.77C142.86 116.69 144.91 121.37 144.45 126.96C143.99 132.55 142.74 136.09 142.4 139.63C142.06 143.17 143.08 149.79 143.08 149.79C144 150.576 145.099 151.125 146.28 151.39C148.44 152 153.58 151.72 154.38 150Z" fill="#263238"/>
<path d="M149 152.16C148.028 152.174 147.058 152.074 146.11 151.86C144.848 151.572 143.674 150.982 142.69 150.14C142.62 150.06 142.572 149.964 142.55 149.86C142.55 149.59 141.55 143.14 141.86 139.58C142.047 137.984 142.317 136.398 142.67 134.83C143.263 132.221 143.681 129.575 143.92 126.91C144.26 122.75 143.16 119.57 142.29 119.3C141.95 119.19 141.57 119.76 141.42 120.02C139.72 122.88 140.12 129.34 140.87 130.84C140.973 131.036 141.027 131.254 141.027 131.475C141.027 131.696 140.973 131.914 140.87 132.11C139.87 134.02 134.99 135.53 131.06 136.23C126.882 136.923 122.601 136.66 118.54 135.46H118.4C117.891 135.272 117.41 135.017 116.97 134.7C116.909 134.667 116.857 134.619 116.82 134.56C115.44 132.41 110.75 124.91 108.69 118.46C106.23 110.72 110.58 102.08 113.23 98.6C115.88 95.12 128.86 92.6 134.96 92.47C140.54 92.39 148.71 95.92 151.4 97.09C151.78 97.26 152.03 97.37 152.11 97.39L152.81 97.3C154.33 97.1 155.75 96.97 156.49 97.57C156.617 97.672 156.722 97.7993 156.798 97.9439C156.874 98.0884 156.919 98.2472 156.93 98.41C156.945 99.2796 156.785 100.143 156.46 100.95C157.59 100.55 159.19 100.16 159.99 100.78C160.21 100.958 160.372 101.198 160.456 101.469C160.54 101.739 160.541 102.029 160.46 102.3C160.303 102.876 160.023 103.41 159.64 103.868C159.257 104.325 158.779 104.694 158.24 104.95C156.4 106.05 153.73 106.69 152.74 106.49C152 106.56 150.23 106.88 149.66 107.59C149.598 107.656 149.552 107.735 149.526 107.822C149.5 107.909 149.494 108.001 149.51 108.09C149.795 108.909 150.241 109.664 150.82 110.31C152.05 111.96 153.58 114.01 152.66 116C152.033 117.217 151.059 118.219 149.86 118.88C148.97 119.46 148.27 119.88 148.13 120.78C147.79 122.99 148.24 135.86 148.71 137.56C149.379 137.38 150.028 137.135 150.65 136.83C152.38 136.07 154.55 135.12 156.02 135.64C156.094 135.665 156.162 135.707 156.217 135.763C156.273 135.818 156.315 135.886 156.34 135.96C156.361 136.034 156.366 136.112 156.353 136.188C156.341 136.264 156.313 136.336 156.27 136.4C155.59 137.4 155.34 139.83 155.05 142.68L154.99 143.24C154.881 144.453 154.907 145.673 155.07 146.88C155.314 148.003 155.231 149.173 154.83 150.25V150.25C154.16 151.67 151.39 152.16 149 152.16ZM143.51 149.53C144.354 150.187 145.329 150.654 146.37 150.9C148.55 151.47 153.27 151.13 153.89 149.8C154.204 148.886 154.26 147.903 154.05 146.96C153.877 145.684 153.847 144.393 153.96 143.11L154.02 142.54C154.098 140.48 154.434 138.437 155.02 136.46C153.619 136.625 152.262 137.052 151.02 137.72C149.37 138.44 148.37 138.88 147.89 138.2C147.13 137.2 146.81 122.55 147.12 120.6C147.32 119.29 148.32 118.6 149.29 118.01C150.33 117.459 151.177 116.604 151.72 115.56C152.39 114.1 151.12 112.39 149.99 110.87C149.286 110.102 148.769 109.181 148.48 108.18C148.453 107.957 148.472 107.732 148.535 107.517C148.599 107.302 148.706 107.102 148.85 106.93C149.85 105.73 152.41 105.48 152.7 105.45C152.769 105.435 152.841 105.435 152.91 105.45C154.604 105.414 156.257 104.927 157.7 104.04C158.11 103.84 158.476 103.56 158.777 103.216C159.077 102.873 159.306 102.473 159.45 102.04C159.5 101.75 159.45 101.57 159.36 101.48C158.88 101.12 157.09 101.59 155.7 102.23C155.606 102.275 155.499 102.289 155.396 102.271C155.293 102.252 155.199 102.202 155.126 102.127C155.053 102.052 155.005 101.956 154.99 101.852C154.975 101.749 154.992 101.643 155.04 101.55C155.557 100.573 155.851 99.494 155.9 98.39C155.901 98.3626 155.896 98.3354 155.883 98.3109C155.871 98.2863 155.853 98.2654 155.83 98.25C155.37 97.88 153.71 98.1 152.91 98.25C152.556 98.328 152.191 98.3483 151.83 98.31C151.548 98.2217 151.271 98.1182 151 98C148.36 96.85 140.32 93.33 135 93.46C128.35 93.57 116.32 96.19 114 99.19C112 101.88 107.2 110.52 109.63 118.19C111.63 124.43 116.15 131.72 117.63 133.95C117.936 134.185 118.272 134.377 118.63 134.52H118.76C122.684 135.687 126.821 135.947 130.86 135.28C136.06 134.34 139.43 132.73 139.95 131.69C139.982 131.634 140 131.57 140 131.505C140 131.44 139.982 131.376 139.95 131.32C139.13 129.67 138.58 122.84 140.54 119.54C141.33 118.21 142.15 118.24 142.54 118.37C144.17 118.89 145.21 122.77 144.86 127.02C144.618 129.712 144.197 132.384 143.6 135.02C143.252 136.551 142.988 138.1 142.81 139.66C142.749 142.965 142.993 146.27 143.54 149.53H143.51Z" fill="#263238"/>
<path d="M143.85 151.58C143.85 151.58 144.37 149.24 135.27 144.95C126.17 140.66 116.54 138.83 115.37 139.35C114.2 139.87 112.9 142.35 112.9 142.35C118.976 143.429 124.881 145.313 130.46 147.95C138.39 151.95 145.15 155.49 145.15 155.49L143.85 151.58Z" fill="white"/>
<path d="M145.15 156C145.074 156.014 144.996 156.014 144.92 156C144.86 156 138.07 152.44 130.23 148.45C124.697 145.843 118.842 143.98 112.82 142.91C112.742 142.896 112.668 142.865 112.604 142.818C112.54 142.771 112.487 142.71 112.45 142.64C112.415 142.568 112.397 142.49 112.397 142.41C112.397 142.33 112.415 142.252 112.45 142.18C112.59 141.91 113.87 139.54 115.16 138.97C116.62 138.32 126.42 140.29 135.48 144.56C143.7 148.44 144.38 150.85 144.36 151.56L145.63 155.36C145.66 155.455 145.662 155.556 145.636 155.652C145.609 155.748 145.555 155.834 145.48 155.9C145.385 155.971 145.268 156.007 145.15 156ZM113.68 142C119.561 143.096 125.275 144.948 130.68 147.51C136.68 150.51 142.06 153.34 144.29 154.51L143.38 151.78C143.361 151.705 143.361 151.625 143.38 151.55C143.38 151.44 143.23 149.28 135.07 145.44C125.9 141.11 116.61 139.44 115.59 139.85C114.794 140.407 114.139 141.144 113.68 142V142Z" fill="#263238"/>
<path d="M148.93 158C147.785 155.747 145.9 153.956 143.59 152.93C139.43 150.85 135.06 146.28 118.1 142.52C114.88 141.81 113.81 142 112.9 142.39C111.053 143.641 109.461 145.233 108.21 147.08L107 148.85C107 148.85 118.06 148.72 125.73 151.06C133.4 153.4 151.23 160.29 151.23 160.29L148.93 158Z" fill="#00D54B"/>
<path d="M151.27 160.79C151.21 160.8 151.15 160.8 151.09 160.79C150.91 160.72 133.2 153.88 125.63 151.57C118.06 149.26 107.15 149.38 107.05 149.38C106.961 149.376 106.874 149.351 106.797 149.305C106.721 149.26 106.656 149.196 106.61 149.12C106.563 149.043 106.538 148.955 106.538 148.865C106.538 148.775 106.563 148.687 106.61 148.61L107.78 146.79C109.075 144.855 110.744 143.199 112.69 141.92C113.78 141.45 115.03 141.32 118.2 142.02C131.61 145.02 137.27 148.5 141.02 150.83C142.02 151.47 142.93 152.03 143.81 152.46C146.189 153.536 148.137 155.382 149.34 157.7L151.61 159.97C151.691 160.052 151.742 160.158 151.755 160.273C151.767 160.387 151.741 160.502 151.68 160.6C151.63 160.66 151.568 160.709 151.497 160.742C151.426 160.775 151.348 160.791 151.27 160.79V160.79ZM108 148.35C110.83 148.35 119.59 148.64 126 150.58C132 152.41 144.31 157.07 149.33 158.99L148.65 158.31C148.604 158.26 148.567 158.202 148.54 158.14C147.44 156.004 145.644 154.308 143.45 153.33C142.53 152.87 141.63 152.33 140.58 151.65C136.89 149.36 131.31 145.89 118.07 142.96C114.86 142.25 113.92 142.48 113.17 142.8C111.425 144.02 109.914 145.544 108.71 147.3L108 148.35Z" fill="#263238"/>
<path d="M186 286.66C186 286.66 182 290.05 183.07 292.66C184.075 294.877 185.207 297.033 186.46 299.12L188.15 297.27C188.15 297.27 185.84 292.04 186.3 291.27C186.76 290.5 197.84 284.04 197.84 284.04L201.08 290.81L202.77 289.42C202.77 289.42 200 282.35 198.92 281.73C197.84 281.11 188.72 283.59 186 286.66Z" fill="#263238"/>
<path d="M186.41 299.63C186.333 299.621 186.259 299.595 186.193 299.553C186.127 299.512 186.071 299.456 186.03 299.39C184.761 297.284 183.619 295.103 182.61 292.86C181.44 290.03 185.26 286.64 185.61 286.31C188.51 283.11 197.78 280.53 199.13 281.31C200.27 281.96 202.53 287.55 203.19 289.25C203.228 289.348 203.235 289.455 203.21 289.557C203.185 289.659 203.129 289.751 203.05 289.82L201.35 291.21C201.292 291.257 201.223 291.289 201.151 291.306C201.078 291.323 201.002 291.323 200.929 291.307C200.856 291.291 200.788 291.258 200.729 291.212C200.671 291.166 200.623 291.107 200.59 291.04L197.59 284.75C192.54 287.75 187.12 291.02 186.68 291.56C186.57 292.01 187.56 294.8 188.57 297.08C188.608 297.169 188.62 297.267 188.604 297.363C188.588 297.459 188.545 297.548 188.48 297.62L186.79 299.47C186.741 299.521 186.682 299.562 186.617 299.589C186.551 299.617 186.481 299.631 186.41 299.63V299.63ZM198.31 282.13C196.52 282.13 188.85 284.19 186.31 287V287.05C185.31 287.92 182.76 290.61 183.52 292.48C184.41 294.471 185.412 296.411 186.52 298.29L187.52 297.18C186.46 294.74 185.36 291.81 185.84 291.02C186.32 290.23 194.19 285.58 197.55 283.62C197.61 283.585 197.676 283.562 197.745 283.554C197.814 283.545 197.883 283.551 197.95 283.57C198.017 283.59 198.079 283.623 198.132 283.668C198.185 283.713 198.229 283.768 198.26 283.83L201.21 290.03L202.13 289.28C200.85 286.05 199.19 282.5 198.63 282.17C198.526 282.139 198.418 282.126 198.31 282.13Z" fill="#263238"/>
<path d="M188.41 269.89L199.18 280.51C199.563 281.122 199.816 281.806 199.923 282.52C200.029 283.234 199.988 283.963 199.8 284.66C199.33 285.9 190.72 292.66 189.02 293.44C187.32 294.22 186.41 291.9 186.25 291.28C186.09 290.66 185.33 288.97 185.18 288.51C185.03 288.05 180.87 283.43 179.64 279.89C179.025 278.297 178.56 276.649 178.25 274.97L188.41 269.89Z" fill="white"/>
<path d="M188.36 294.09C188.076 294.091 187.795 294.026 187.54 293.9C186.655 293.321 186.022 292.427 185.77 291.4C185.68 291.06 185.34 290.24 185.09 289.64C184.92 289.22 184.76 288.85 184.7 288.64C184.64 288.43 184.29 288.08 183.93 287.64C182.59 285.92 180.09 282.72 179.17 280.05C178.536 278.434 178.064 276.759 177.76 275.05C177.747 274.947 177.766 274.843 177.814 274.752C177.862 274.661 177.938 274.587 178.03 274.54L188.18 269.46C188.275 269.416 188.382 269.402 188.486 269.42C188.589 269.438 188.685 269.487 188.76 269.56C188.76 269.56 198.92 279.56 199.53 280.18C199.985 280.86 200.286 281.631 200.412 282.439C200.538 283.248 200.486 284.074 200.26 284.86C199.69 286.39 190.71 293.24 189.26 293.91C188.976 294.034 188.669 294.095 188.36 294.09V294.09ZM178.81 275.25C179.136 276.772 179.571 278.27 180.11 279.73C180.98 282.24 183.41 285.36 184.72 287.04C185.083 287.437 185.395 287.877 185.65 288.35C185.71 288.52 185.85 288.86 186.01 289.25C186.285 289.874 186.529 290.511 186.74 291.16C186.926 291.905 187.373 292.558 188 293C188.132 293.067 188.277 293.102 188.425 293.102C188.573 293.102 188.718 293.067 188.85 293C190.72 292.15 198.97 285.48 199.36 284.51C199.671 283.281 199.492 281.979 198.86 280.88L188.31 270.5L178.81 275.25Z" fill="#263238"/>
<path d="M67.11 277C67.8614 278.814 68.7161 280.584 69.67 282.3C70.16 282.78 74.81 287.76 75.29 289.04C75.77 290.32 75.29 294.66 77.06 297.87C78.83 301.08 77.7 302.36 75.77 301.72C73.84 301.08 72.4 297.23 72.4 297.23C72.4 297.23 74.17 303.65 74.49 304.77C74.81 305.89 79.63 307.18 78.82 308.3C78.01 309.42 69.51 309.91 67.59 309.75C65.67 309.59 62.13 305.09 61.01 304.45C59.89 303.81 57.01 291.61 56.19 289.36C55.37 287.11 54.1 277.36 54.1 277.36L67.11 277Z" fill="white"/>
<path d="M68.4 310.31H67.55C66.21 310.19 64.55 308.61 62.55 306.56C62.0118 305.973 61.4266 305.431 60.8 304.94C59.98 304.48 58.96 301.15 56.98 293.87C56.46 291.94 55.98 290.27 55.76 289.59C54.95 287.32 53.7 277.85 53.65 277.45C53.6401 277.381 53.6448 277.311 53.6637 277.243C53.6827 277.176 53.7155 277.114 53.76 277.06C53.8554 276.954 53.988 276.89 54.13 276.88L67.13 276.56C67.2295 276.556 67.3279 276.583 67.4118 276.637C67.4958 276.69 67.5614 276.768 67.6 276.86C68.2992 278.619 69.1006 280.335 70 282C70 282.05 75.17 287.42 75.73 288.92C75.9288 289.671 76.0329 290.443 76.04 291.22C76.0566 293.45 76.5439 295.651 77.47 297.68C78.78 300.08 78.47 301.27 78 301.85C77.6863 302.157 77.2859 302.36 76.853 302.431C76.4201 302.503 75.9757 302.439 75.58 302.25C74.958 301.971 74.4151 301.541 74 301C74.44 302.58 74.87 304.17 75 304.67C75.09 304.97 76.24 305.56 76.93 305.92C78.17 306.56 79.24 307.12 79.42 307.86C79.4512 307.992 79.453 308.13 79.4254 308.263C79.3978 308.396 79.3413 308.521 79.26 308.63C78.29 310 71.08 310.31 68.4 310.31ZM54.67 277.85C54.96 279.94 55.99 287.37 56.67 289.23C56.93 289.95 57.36 291.56 57.92 293.59C58.86 297.05 60.6 303.48 61.29 304.07C61.9927 304.592 62.6395 305.185 63.22 305.84C64.55 307.18 66.56 309.2 67.64 309.29C69.96 309.48 77.75 308.87 78.43 308.05C77.8319 307.535 77.1572 307.117 76.43 306.81C75.23 306.19 74.2 305.65 74 304.95C73.68 303.82 71.91 297.4 71.91 297.4C71.8689 297.267 71.8821 297.124 71.9468 297.001C72.0115 296.878 72.1224 296.786 72.255 296.745C72.3876 296.704 72.5311 296.717 72.654 296.782C72.7768 296.847 72.8689 296.957 72.91 297.09C73.29 298.09 74.58 300.82 75.97 301.29C76.59 301.49 77.09 301.46 77.3 301.2C77.51 300.94 77.59 299.85 76.66 298.15C75.6582 295.997 75.1297 293.654 75.11 291.28C75.0998 290.606 75.016 289.936 74.86 289.28C74.46 288.19 70.12 283.48 69.36 282.71C68.3823 281.065 67.5331 279.346 66.82 277.57L54.67 277.85Z" fill="#263238"/>
<path d="M73 307.88C72.9181 307.88 72.8376 307.859 72.7655 307.82C72.6934 307.781 72.6319 307.725 72.5865 307.657C72.541 307.589 72.513 307.511 72.5049 307.429C72.4968 307.348 72.5089 307.266 72.54 307.19C71.304 306.767 70.027 306.476 68.73 306.32C67.8307 306.259 66.9483 306.046 66.12 305.69C65.44 305.18 64.12 301.89 63.55 300.5C63.5395 300.447 63.5395 300.393 63.55 300.34C63.474 298.418 63.7555 296.499 64.38 294.68C65.29 292.25 64.84 287.41 64.83 287.36C64.8241 287.294 64.8312 287.228 64.8508 287.165C64.8705 287.102 64.9024 287.044 64.9446 286.993C64.9869 286.943 65.0387 286.901 65.0971 286.87C65.1555 286.84 65.2193 286.821 65.285 286.815C65.3507 286.809 65.4168 286.816 65.4798 286.836C65.5427 286.856 65.6011 286.887 65.6517 286.93C65.7023 286.972 65.7441 287.024 65.7747 287.082C65.8053 287.14 65.8241 287.204 65.83 287.27C65.83 287.48 66.31 292.39 65.32 295.04C64.7581 296.704 64.4941 298.454 64.54 300.21C65.1192 301.845 65.863 303.416 66.76 304.9C67.4737 305.088 68.1984 305.232 68.93 305.33C71.93 305.83 73.38 306.15 73.62 306.92C73.6619 307.063 73.6626 307.215 73.6219 307.358C73.5812 307.502 73.5008 307.63 73.39 307.73C73.3393 307.781 73.2783 307.821 73.2111 307.847C73.1438 307.873 73.0719 307.884 73 307.88Z" fill="#263238"/>
<path d="M145.1 446.26C145.1 446.26 149.26 449.42 151.24 450.61C153.22 451.8 161.72 452.61 162.32 454.17C162.92 455.73 161.42 457.24 160.59 457.98C159.76 458.72 153.81 460.98 149.26 460.5C147.666 460.421 146.068 460.555 144.51 460.9C143.13 461.1 133.43 462.28 129.28 462.68C125.13 463.08 124.13 459.68 123.93 455.56C123.73 451.44 123.93 446.65 123.93 446.65L140.55 444.28L145.1 446.26Z" fill="white"/>
<path d="M128.64 463.21C127.551 463.258 126.482 462.902 125.64 462.21C124.3 461.05 123.64 459.02 123.46 455.61C123.27 451.48 123.46 446.71 123.46 446.66C123.466 446.544 123.512 446.433 123.59 446.348C123.669 446.262 123.775 446.206 123.89 446.19L140.51 443.81C140.598 443.785 140.692 443.785 140.78 443.81L145.33 445.81L145.44 445.87C145.44 445.87 149.59 449.03 151.53 450.19C153.046 450.803 154.626 451.242 156.24 451.5C160.06 452.33 162.4 452.91 162.82 454.01C163.57 456.01 161.6 457.79 160.95 458.37C159.95 459.26 153.95 461.51 149.24 461.01C147.991 460.916 146.735 461.001 145.51 461.26L144.61 461.4C143.13 461.62 133.41 462.8 129.35 463.19L128.64 463.21ZM124.42 447.09C124.42 448.33 124.27 452.15 124.42 455.53C124.57 458.6 125.15 460.47 126.25 461.43C126.668 461.762 127.151 462 127.669 462.13C128.186 462.259 128.725 462.276 129.25 462.18C133.3 461.8 142.99 460.61 144.46 460.4C144.74 460.4 145.03 460.32 145.33 460.26C146.645 459.987 147.992 459.902 149.33 460.01C153.86 460.49 159.56 458.25 160.28 457.61C161.7 456.34 162.22 455.28 161.87 454.35C161.62 453.68 158.11 452.93 156.02 452.47C154.302 452.197 152.623 451.717 151.02 451.04C149.13 449.91 145.38 447.04 144.89 446.69L140.52 444.79L124.42 447.09Z" fill="#263238"/>
<path d="M150.67 457.87C147.1 457.64 144.56 458.56 134.76 459.02C131.278 459.282 127.778 459.168 124.32 458.68C124.9 461.25 126.24 462.97 129.32 462.68C133.47 462.28 143.17 461.1 144.55 460.9C146.108 460.555 147.706 460.421 149.3 460.5C153.85 460.99 159.72 458.8 160.63 457.98C161.542 457.279 162.187 456.287 162.46 455.17C159.34 457.21 153.52 458.05 150.67 457.87Z" fill="white"/>
<path d="M128.62 463.21C126.07 463.21 124.5 461.76 123.83 458.79C123.81 458.71 123.812 458.627 123.835 458.548C123.858 458.469 123.901 458.397 123.96 458.34C124.015 458.281 124.084 458.236 124.161 458.209C124.238 458.183 124.32 458.177 124.4 458.19C127.825 458.67 131.291 458.78 134.74 458.52C139.64 458.29 142.74 457.94 145.02 457.68C146.903 457.4 148.808 457.296 150.71 457.37V457.37C153.49 457.54 159.17 456.72 162.15 454.76C162.229 454.709 162.321 454.681 162.415 454.679C162.51 454.678 162.603 454.703 162.683 454.752C162.764 454.802 162.829 454.872 162.871 454.957C162.912 455.041 162.93 455.136 162.92 455.23C162.656 456.482 161.945 457.595 160.92 458.36C159.92 459.25 153.92 461.5 149.21 461C147.961 460.906 146.705 460.991 145.48 461.25L144.58 461.39C143.1 461.61 133.38 462.79 129.32 463.18L128.62 463.21ZM125 459.3C125.69 461.5 127 462.4 129.23 462.18C133.28 461.8 142.97 460.61 144.44 460.4C144.72 460.4 145.01 460.32 145.31 460.26C146.625 459.986 147.972 459.902 149.31 460.01C153.84 460.49 159.54 458.25 160.26 457.61C160.709 457.22 161.109 456.777 161.45 456.29C158.038 457.751 154.351 458.461 150.64 458.37C148.798 458.298 146.953 458.401 145.13 458.68C142.85 458.94 139.72 459.29 134.79 459.52C131.527 459.736 128.25 459.663 125 459.3V459.3Z" fill="#263238"/>
<path d="M80.4 283.49C80.4 283.49 84.75 299.32 90.1 313.17C95.45 327.02 102.36 347.79 102.36 347.79L107.36 377.87C107.36 377.87 108.15 392.87 110.92 403.98C113.69 415.09 124.38 448.63 124.38 448.63C127.135 449.651 130.064 450.117 133 450C137.94 449.8 145.06 446.24 145.06 446.24C145.06 446.24 145.66 441.69 145.26 439.71C144.86 437.73 142.49 436.71 141.9 435.16C141.31 433.61 133.78 387.34 133.78 387.34C133.78 387.34 131.41 354.5 130.62 348.17C129.83 341.84 127.85 288.42 127.85 288.42L80.4 283.49Z" fill="#263238"/>
<path d="M132.17 450.54C129.437 450.555 126.724 450.063 124.17 449.09C124.102 449.063 124.041 449.021 123.99 448.967C123.94 448.914 123.903 448.85 123.88 448.78C123.78 448.45 113.16 415.07 110.42 404.11C107.68 393.15 106.85 378.04 106.84 377.89L101.9 347.89C101.85 347.75 94.9 327.04 89.66 313.36C84.42 299.68 80 283.78 79.92 283.62C79.8985 283.543 79.8963 283.461 79.9138 283.383C79.9312 283.304 79.9677 283.231 80.02 283.17C80.0716 283.108 80.138 283.06 80.2132 283.03C80.2883 283 80.3698 282.99 80.45 283L127.94 287.94C128.06 287.952 128.172 288.007 128.255 288.096C128.338 288.184 128.386 288.299 128.39 288.42C128.39 288.95 130.39 341.89 131.15 348.13C131.91 354.37 134.3 387 134.32 387.33C137.32 405.83 141.98 433.85 142.41 435C142.746 435.663 143.22 436.246 143.8 436.71C144.754 437.452 145.453 438.472 145.8 439.63C146.21 441.63 145.63 446.13 145.61 446.32C145.601 446.402 145.571 446.481 145.524 446.549C145.477 446.617 145.414 446.672 145.34 446.71C145.04 446.85 138.06 450.32 133.07 450.52L132.17 450.54ZM124.73 448.25C127.388 449.196 130.201 449.627 133.02 449.52C137.3 449.35 143.37 446.52 144.64 445.93C144.926 443.91 144.983 441.863 144.81 439.83C144.497 438.878 143.904 438.041 143.11 437.43C142.413 436.87 141.852 436.158 141.47 435.35C140.88 433.77 134.1 392.18 133.33 387.45C133.33 387.07 130.94 354.5 130.16 348.25C129.4 342.2 127.61 294.34 127.4 288.89L81.08 284.07C82 287.29 85.93 301 90.56 313C95.85 326.7 102.77 347.44 102.84 347.65L107.84 377.8C107.84 378 108.67 392.97 111.4 403.87C114 414.32 123.79 445.28 124.73 448.25V448.25Z" fill="#263238"/>
<path d="M46.22 421.23C46.22 421.23 31.13 424.15 27.36 425.35C23.59 426.55 23.59 428.77 24.45 432.89C25.31 437.01 27.02 439.06 27.71 439.57C28.4 440.08 28.91 446.57 30.79 450.71C32.67 454.85 37 463.06 40.9 465.11C44.8 467.16 49.13 467.17 49.65 466.48C50.17 465.79 48.65 461 48.65 461L44.71 448.31C44.71 448.31 49.3 435.8 50 435.12C50.7 434.44 54.11 430.83 54.11 430.83L46.22 421.23Z" fill="white"/>
<path d="M47.7 467.39C45.2586 467.315 42.8657 466.69 40.7 465.56C36.28 463.25 31.7 453.77 30.37 450.92C29.3427 448.342 28.5983 445.659 28.15 442.92C28.0009 441.897 27.7496 440.892 27.4 439.92C26.56 439.29 24.85 437.08 23.99 432.97C23.18 429.08 22.94 426.22 27.24 424.85C31 423.65 45.54 420.85 46.15 420.72C46.2379 420.703 46.3288 420.709 46.4133 420.739C46.4977 420.769 46.5726 420.821 46.63 420.89L54.52 430.49C54.6002 430.581 54.6444 430.699 54.6444 430.82C54.6444 430.941 54.6002 431.059 54.52 431.15C54.37 431.3 51.08 434.77 50.39 435.45C49.89 436.06 47 443.59 45.25 448.31L49.15 460.83C49.88 463.13 50.65 466.03 50.1 466.76C49.7618 467.019 49.3754 467.208 48.9633 467.316C48.5513 467.424 48.1218 467.45 47.7 467.39V467.39ZM46 421.78C43.88 422.19 30.91 424.78 27.49 425.78C24.26 426.78 24.02 428.42 24.92 432.78C25.72 436.61 27.27 438.63 27.99 439.16C28.4 439.47 28.59 440.29 29.08 442.73C29.5184 445.389 30.2392 447.994 31.23 450.5C33.85 456.22 37.82 462.94 41.12 464.66C45.02 466.66 48.82 466.52 49.24 466.16C49.39 465.75 48.79 463.22 48.12 461.16L44.2 448.46C44.1649 448.356 44.1649 448.244 44.2 448.14C45.29 445.14 48.92 435.47 49.63 434.76C50.18 434.21 52.57 431.7 53.43 430.81L46 421.78Z" fill="#263238"/>
<path d="M40.9 465.11C44.9 467.17 49.13 467.17 49.65 466.48C49.7902 466.017 49.7902 465.523 49.65 465.06C46.15 464.89 40.24 464.06 37.81 460.31C34.72 455.51 31.64 445.23 30.27 439.57C29.2 435.17 28.03 428.17 27.56 425.28L27.35 425.35C23.58 426.55 23.58 428.77 24.44 432.89C25.3 437.01 27.01 439.06 27.7 439.57C28.39 440.08 28.9 446.57 30.78 450.71C32.66 454.85 37 463.06 40.9 465.11Z" fill="white"/>
<path d="M47.7 467.39C45.2586 467.315 42.8657 466.69 40.7 465.56C36.28 463.25 31.7 453.77 30.37 450.92C29.3427 448.342 28.5983 445.659 28.15 442.92C28.0009 441.897 27.7496 440.892 27.4 439.92C26.56 439.29 24.85 437.08 23.99 432.97C23.18 429.08 22.94 426.22 27.24 424.85L27.46 424.78C27.5286 424.759 27.6008 424.754 27.6717 424.765C27.7425 424.775 27.8102 424.801 27.87 424.84C27.9884 424.919 28.0711 425.041 28.1 425.18C28.55 428 29.73 435.04 30.79 439.43C32 444.43 35.11 455.11 38.27 460.02C40.44 463.4 45.69 464.34 49.71 464.54C49.8246 464.545 49.9339 464.59 50.0195 464.667C50.1051 464.743 50.1618 464.847 50.18 464.96C50.34 465.96 50.31 466.45 50.08 466.76C49.85 467.07 48.89 467.39 47.7 467.39ZM27.17 425.94C24.27 426.94 24.07 428.62 24.94 432.79C25.74 436.62 27.29 438.64 28.01 439.17C28.42 439.48 28.61 440.3 29.1 442.74C29.5385 445.399 30.2592 448.004 31.25 450.51C33.87 456.23 37.84 462.95 41.14 464.67C45.02 466.67 48.8 466.53 49.26 466.17C49.26 466.17 49.26 466.01 49.26 465.54C45.06 465.28 39.76 464.2 37.44 460.54C34.21 455.54 31.05 444.68 29.83 439.65C28.78 435.54 27.68 429.06 27.17 425.94Z" fill="#263238"/>
<path d="M95.83 287.84C95.83 287.84 101.57 295.36 102.17 296.35C102.77 297.34 106.91 334.93 107.31 338.69C107.531 341.719 107.531 344.761 107.31 347.79C107.31 347.79 93.4 361.67 84.3 373C75.2 384.33 45.58 420.72 45.58 420.72L58.58 440.96C58.58 440.96 74.83 427.96 86.48 416.83C104.92 399.26 122.27 380.68 123.48 379.69C124.69 378.7 132.67 370.22 133.26 367.85C133.85 365.48 140.2 332.21 142.38 321.53C144.56 310.85 147.52 281.96 147.52 281.96L93.11 283.34" fill="#263238"/>
<path d="M58.55 441.41H58.47C58.3308 441.381 58.2086 441.298 58.13 441.18L45.13 420.94C45.0667 420.857 45.0325 420.755 45.0325 420.65C45.0325 420.545 45.0667 420.443 45.13 420.36C45.43 419.99 74.85 383.78 83.85 372.63C92.39 362.05 105.31 349.03 106.76 347.57C106.977 344.634 106.977 341.686 106.76 338.75C106.08 332.26 102.25 298.07 101.67 296.57C101.23 295.85 97.37 290.74 95.39 288.15C95.345 288.099 95.3111 288.039 95.2902 287.974C95.2693 287.909 95.2619 287.84 95.2685 287.772C95.2751 287.704 95.2956 287.638 95.3286 287.579C95.3616 287.519 95.4066 287.467 95.4606 287.425C95.5146 287.383 95.5766 287.353 95.6427 287.336C95.7089 287.319 95.7778 287.316 95.8452 287.327C95.9126 287.338 95.9771 287.362 96.0346 287.399C96.0922 287.435 96.1417 287.484 96.18 287.54C96.42 287.85 101.94 295.09 102.54 296.1C103.26 297.29 107.71 338.23 107.76 338.64C107.978 341.699 107.978 344.771 107.76 347.83C107.751 347.951 107.697 348.065 107.61 348.15C107.47 348.29 93.61 362.15 84.61 373.26C76.03 383.89 48.89 417.26 46.11 420.71L58.59 440.17C61.25 438.02 75.59 426.36 86.02 416.41C99.23 403.84 111.71 390.91 118.42 383.96C121.16 381.12 122.67 379.56 123.03 379.26C124.43 378.09 132.11 369.81 132.65 367.68C132.96 366.42 134.93 356.29 137.01 345.56C138.85 336.12 140.75 326.35 141.76 321.38C143.76 311.67 146.41 286.52 146.84 282.38L93 283.75C92.9343 283.753 92.8688 283.742 92.8071 283.72C92.7454 283.697 92.6888 283.662 92.6405 283.618C92.5922 283.573 92.5531 283.52 92.5256 283.46C92.4981 283.4 92.4826 283.336 92.48 283.27C92.4798 283.137 92.5304 283.009 92.6216 282.913C92.7127 282.816 92.8374 282.758 92.97 282.75L147.38 281.37C147.451 281.365 147.523 281.377 147.589 281.405C147.655 281.433 147.713 281.476 147.76 281.53C147.81 281.581 147.847 281.642 147.87 281.71C147.892 281.778 147.899 281.849 147.89 281.92C147.89 282.21 144.89 310.92 142.74 321.54C141.74 326.54 139.83 336.27 138 345.71C135.91 356.45 133.94 366.6 133.61 367.88C132.96 370.49 124.61 379.19 123.67 379.99C123.35 380.25 121.58 382.08 119.14 384.61C112.43 391.61 99.93 404.51 86.71 417.1C75.18 428.1 58.95 441.1 58.78 441.26C58.7213 441.333 58.6407 441.386 58.55 441.41Z" fill="#263238"/>
<path d="M108.21 147C108.21 147 98.59 152.07 93.52 154.54C88.45 157.01 71.52 162.09 69.84 164.82C68.16 167.55 68.41 171.82 68.41 171.82C68.41 171.82 51.81 217.52 51.41 225.49C51.01 233.46 52.63 278.81 52.63 278.81C52.63 278.81 53.86 280.64 60.4 280.44C66.94 280.24 69.59 279.01 69.59 279.01C69.59 279.01 72.86 233.25 73.47 230.59C73.8684 228.911 74.4173 227.271 75.11 225.69L82.25 211.39C82.25 211.39 84.71 226.1 84.71 226.71C84.71 227.32 71.22 282.48 71.22 282.48C71.22 282.48 71.22 286.16 95.12 289.48C119.02 292.8 139.86 294.79 140.88 294.79C141.9 294.79 147.42 285.6 147.42 285.6C147.42 285.6 148.85 290.7 148.42 291.32C147.99 291.94 152.51 290.32 153.53 289.48L157.61 286.21C157.61 286.21 151.28 251.07 151.28 248.42C151.28 245.77 152.92 236.16 152.92 236.16L176.61 279.47C176.61 279.47 176.61 280.08 182.33 276.81C185.502 275.077 188.395 272.876 190.91 270.28L171.71 223.09C171.71 223.09 167.22 170.99 166.81 168.34C166.4 165.69 167.42 165.07 164.97 163.84C162.52 162.61 151.26 160.29 151.26 160.29C151.26 160.29 132.72 153.19 125.76 151.06C118.8 148.93 108.21 147 108.21 147Z" fill="#00D54B"/>
<path d="M140.87 295.29C139.68 295.29 118.3 293.15 95.05 289.97C71.8 286.79 70.71 283.22 70.71 282.53C70.7052 282.49 70.7052 282.45 70.71 282.41C75.3 263.62 84.03 227.78 84.18 226.72C84.18 226.26 82.94 218.77 81.98 213.04L75.54 226C74.89 227.539 74.3747 229.132 74 230.76C73.4 233.34 70.16 278.64 70.13 279.09C70.1249 279.18 70.0952 279.267 70.044 279.341C69.9928 279.415 69.9223 279.473 69.84 279.51C69.73 279.57 67.02 280.78 60.45 280.99C53.88 281.2 52.45 279.34 52.26 279.13C52.2081 279.053 52.177 278.963 52.17 278.87C52.17 278.42 50.54 233.41 50.95 225.51C51.36 217.61 66.9 174.71 67.95 171.8C67.95 171.09 67.83 167.21 69.46 164.58C70.56 162.8 76.55 160.5 84.88 157.44C88.33 156.17 91.59 154.97 93.34 154.12C98.34 151.68 107.92 146.64 108.02 146.58C108.123 146.541 108.237 146.541 108.34 146.58C108.45 146.58 119.05 148.51 125.96 150.58C132.87 152.65 151.3 159.76 151.49 159.83C151.87 159.9 162.76 162.16 165.24 163.4C167.16 164.4 167.24 165.11 167.24 166.47C167.229 167.069 167.266 167.667 167.35 168.26C167.75 170.88 171.99 219.95 172.25 222.97L191.43 270.09C191.463 270.175 191.472 270.268 191.456 270.358C191.44 270.447 191.4 270.531 191.34 270.6C188.793 273.248 185.856 275.491 182.63 277.25C177.18 280.36 176.71 280.09 176.43 279.93C176.346 279.874 176.278 279.799 176.23 279.71L153.23 237.71C152.78 240.48 151.84 246.48 151.84 248.46C151.84 250.44 155.98 274.02 158.17 286.16C158.184 286.249 158.175 286.34 158.143 286.424C158.112 286.508 158.059 286.582 157.99 286.64L153.9 289.91C153.31 290.38 148.9 292.49 148.13 291.83C148.064 291.786 148.008 291.729 147.966 291.663C147.923 291.596 147.895 291.522 147.883 291.444C147.87 291.366 147.874 291.286 147.895 291.209C147.915 291.133 147.951 291.062 148 291C147.888 289.582 147.623 288.181 147.21 286.82C143.83 292.46 141.69 295.29 140.87 295.29ZM71.72 282.55C71.87 282.83 73.91 286.07 95.18 288.98C119.29 292.28 139.95 294.29 140.87 294.29C141.48 293.99 144.49 289.5 146.98 285.29C147.031 285.206 147.106 285.139 147.195 285.096C147.283 285.054 147.382 285.037 147.48 285.05C147.576 285.063 147.667 285.104 147.74 285.168C147.813 285.232 147.865 285.316 147.89 285.41C148.463 287.169 148.832 288.987 148.99 290.83C150.476 290.421 151.901 289.819 153.23 289.04L157.08 285.95C156.43 282.33 150.79 250.95 150.79 248.37C150.79 245.79 152.37 236.42 152.43 236.03C152.447 235.928 152.496 235.833 152.57 235.76C152.643 235.686 152.738 235.637 152.84 235.62C152.942 235.6 153.048 235.613 153.142 235.658C153.236 235.703 153.312 235.778 153.36 235.87L176.92 279C178.724 278.304 180.455 277.433 182.09 276.4C185.113 274.72 187.889 272.63 190.34 270.19L171.26 223.29C171.254 223.244 171.254 223.196 171.26 223.15C171.26 222.63 166.76 171.04 166.36 168.44C166.267 167.778 166.227 167.109 166.24 166.44C166.24 165.3 166.24 165 164.8 164.27C162.43 163.09 151.32 160.79 151.21 160.76C150.94 160.67 132.53 153.62 125.67 151.52C119.29 149.57 109.72 147.78 108.33 147.52C107.08 148.18 98.45 152.71 93.77 154.99C91.98 155.87 88.7 157.07 85.22 158.35C79.35 160.5 71.32 163.45 70.31 165.08C68.72 167.65 68.95 171.77 68.95 171.81C68.9605 171.876 68.9605 171.944 68.95 172.01C68.79 172.47 52.37 217.73 51.95 225.53C51.56 233.13 53.06 275.48 53.17 278.63C53.52 278.94 55.17 280.13 60.42 279.96C63.3777 279.973 66.3206 279.542 69.15 278.68C69.47 274.3 72.43 233.08 73.02 230.5C73.4267 228.787 73.9856 227.114 74.69 225.5L81.85 211.18C81.8973 211.086 81.9729 211.009 82.0663 210.961C82.1597 210.912 82.2659 210.895 82.37 210.91C82.4737 210.927 82.5697 210.975 82.6449 211.049C82.7201 211.122 82.7707 211.217 82.79 211.32C83.2 213.78 85.25 226.1 85.25 226.72C85.25 227.34 74.92 269.48 71.72 282.55Z" fill="#263238"/>
<path d="M82.25 211.44L75.5 175.28L78.36 218.39L82.25 211.44Z" fill="#263238"/>
<path d="M78.36 218.89H78.25C78.1452 218.863 78.0514 218.805 77.9815 218.722C77.9116 218.64 77.8691 218.538 77.86 218.43L75 175.32C74.9938 175.193 75.0356 175.068 75.117 174.969C75.1984 174.871 75.3137 174.807 75.44 174.79C75.5664 174.775 75.694 174.807 75.7976 174.881C75.9013 174.955 75.9735 175.065 76 175.19L82.74 211.35C82.7601 211.467 82.7389 211.587 82.68 211.69L78.8 218.63C78.756 218.708 78.6922 218.773 78.6149 218.819C78.5377 218.865 78.4497 218.889 78.36 218.89V218.89ZM76.56 183.69L78.75 216.69L81.75 211.38L76.56 183.69Z" fill="#263238"/>
<path d="M116.56 201.32C116.487 201.32 116.415 201.304 116.35 201.273C116.284 201.242 116.226 201.196 116.18 201.14C115.104 199.845 114.171 198.437 113.4 196.94C113.357 196.826 113.357 196.699 113.4 196.585C113.443 196.47 113.527 196.376 113.636 196.319C113.744 196.263 113.87 196.248 113.988 196.277C114.107 196.307 114.211 196.379 114.28 196.48C115.021 197.905 115.913 199.246 116.94 200.48C116.987 200.526 117.024 200.58 117.049 200.64C117.074 200.7 117.087 200.765 117.087 200.83C117.087 200.895 117.074 200.96 117.049 201.02C117.024 201.08 116.987 201.134 116.94 201.18C116.889 201.228 116.829 201.264 116.764 201.289C116.699 201.313 116.629 201.323 116.56 201.32V201.32Z" fill="#263238"/>
<path d="M112.88 195.21C112.782 195.21 112.687 195.182 112.605 195.129C112.523 195.076 112.459 194.999 112.42 194.91C107.75 184.36 107.28 169.52 107.28 169.37C107.279 169.304 107.29 169.239 107.314 169.178C107.338 169.117 107.374 169.061 107.419 169.013C107.465 168.966 107.519 168.928 107.579 168.902C107.64 168.876 107.704 168.861 107.77 168.86C107.901 168.862 108.027 168.914 108.121 169.005C108.216 169.096 108.272 169.219 108.28 169.35C108.28 169.49 108.75 184.13 113.28 194.51C113.308 194.57 113.324 194.634 113.327 194.7C113.329 194.766 113.319 194.832 113.295 194.893C113.272 194.955 113.236 195.011 113.191 195.059C113.145 195.106 113.091 195.144 113.03 195.17C112.982 195.191 112.932 195.204 112.88 195.21V195.21Z" fill="#263238"/>
<path d="M109.82 194.58C109.733 194.579 109.647 194.556 109.572 194.512C109.496 194.468 109.434 194.406 109.39 194.33C107.084 190.253 105.348 185.879 104.23 181.33C104.215 181.266 104.213 181.199 104.225 181.134C104.236 181.069 104.26 181.007 104.295 180.951C104.33 180.895 104.376 180.847 104.43 180.809C104.484 180.771 104.546 180.744 104.61 180.73C104.674 180.715 104.74 180.714 104.804 180.725C104.869 180.736 104.93 180.76 104.985 180.796C105.04 180.831 105.087 180.877 105.124 180.931C105.161 180.985 105.187 181.046 105.2 181.11C106.298 185.564 108.001 189.847 110.26 193.84C110.322 193.956 110.337 194.091 110.302 194.218C110.266 194.345 110.183 194.453 110.07 194.52C109.994 194.564 109.907 194.585 109.82 194.58V194.58Z" fill="#263238"/>
<path d="M104.87 243.05C104.758 243.048 104.65 243.009 104.562 242.941C104.474 242.873 104.41 242.778 104.38 242.67C104.35 242.54 104.371 242.404 104.441 242.29C104.51 242.175 104.621 242.093 104.75 242.06C112.68 240.06 122.83 237.6 128.35 236.41C125.78 236.53 122.19 236.79 118.85 237.07C118.717 237.081 118.586 237.038 118.485 236.952C118.383 236.866 118.321 236.743 118.31 236.61C118.299 236.477 118.342 236.346 118.428 236.245C118.514 236.143 118.637 236.081 118.77 236.07C132.41 234.92 132.47 235.36 132.55 235.91C132.63 236.46 132.14 236.66 130.15 237.06C125.25 238.06 113.76 240.85 104.99 243.06L104.87 243.05Z" fill="#263238"/>
<path d="M95.32 245.44C95.2543 245.448 95.1878 245.443 95.1241 245.425C95.0604 245.407 95.0009 245.377 94.9489 245.336C94.8969 245.295 94.8534 245.244 94.821 245.187C94.7886 245.129 94.7679 245.066 94.76 245C94.7521 244.934 94.7573 244.868 94.7751 244.804C94.7929 244.74 94.8232 244.681 94.864 244.629C94.9049 244.577 94.9556 244.533 95.0132 244.501C95.0709 244.469 95.1343 244.448 95.2 244.44L99.51 243.35C99.6386 243.32 99.7739 243.342 99.8863 243.411C99.9987 243.481 100.079 243.592 100.11 243.72C100.126 243.783 100.13 243.849 100.121 243.913C100.112 243.978 100.09 244.04 100.056 244.096C100.022 244.151 99.9781 244.2 99.9256 244.239C99.8731 244.277 99.8134 244.305 99.75 244.32L95.44 245.41L95.32 245.44Z" fill="#263238"/>
<path d="M152.93 236.16C152.93 236.16 148.23 228.4 147.82 226.56C147.41 224.72 144.14 204.7 144.14 204.7C144.14 204.7 146.39 236.57 147.21 240.86C147.876 243.697 149.284 246.306 151.29 248.42L152.93 236.16Z" fill="#263238"/>
<path d="M151.29 248.92C151.224 248.921 151.159 248.908 151.099 248.882C151.039 248.856 150.985 248.818 150.94 248.77C148.857 246.59 147.399 243.888 146.72 240.95C145.9 236.68 143.72 206.04 143.64 204.74C143.632 204.674 143.637 204.608 143.655 204.544C143.673 204.48 143.703 204.421 143.744 204.369C143.785 204.317 143.836 204.273 143.893 204.241C143.951 204.209 144.014 204.188 144.08 204.18C144.146 204.172 144.212 204.177 144.276 204.195C144.34 204.213 144.399 204.243 144.451 204.284C144.503 204.325 144.547 204.376 144.579 204.433C144.611 204.491 144.632 204.554 144.64 204.62C144.64 204.82 147.91 224.62 148.31 226.45C148.63 227.89 152.06 233.76 153.31 235.9C153.372 235.998 153.397 236.115 153.38 236.23L151.75 248.48C151.737 248.573 151.698 248.661 151.638 248.733C151.578 248.805 151.499 248.86 151.41 248.89C151.372 248.906 151.331 248.916 151.29 248.92V248.92ZM145.45 215.74C146.18 225.38 147.21 238.19 147.7 240.74C148.243 243.132 149.354 245.358 150.94 247.23L152.41 236.23C151.73 235.1 147.73 228.4 147.33 226.63C147.13 225.78 146.29 220.75 145.45 215.74V215.74Z" fill="#263238"/>
<path d="M142.92 200.71C142.806 200.711 142.695 200.672 142.606 200.601C142.517 200.53 142.455 200.431 142.43 200.32C142.43 200.32 142.04 198.63 141.6 196.08C141.589 196.014 141.591 195.947 141.606 195.882C141.62 195.817 141.648 195.756 141.686 195.702C141.725 195.647 141.774 195.601 141.83 195.566C141.887 195.53 141.949 195.506 142.015 195.495C142.081 195.484 142.148 195.486 142.213 195.501C142.278 195.515 142.339 195.543 142.393 195.581C142.448 195.62 142.494 195.669 142.529 195.725C142.565 195.782 142.589 195.844 142.6 195.91C143.04 198.43 143.42 200.08 143.42 200.09C143.436 200.154 143.44 200.22 143.43 200.285C143.42 200.35 143.397 200.413 143.362 200.469C143.328 200.525 143.282 200.573 143.229 200.611C143.175 200.649 143.114 200.676 143.05 200.69L142.92 200.71Z" fill="#263238"/>
<path d="M141.61 193.48C141.489 193.479 141.373 193.435 141.281 193.357C141.19 193.278 141.129 193.169 141.11 193.05C140.244 187.703 139.999 182.273 140.38 176.87C141.38 166.63 149.65 164.4 149.74 164.38C149.804 164.363 149.87 164.36 149.935 164.369C150 164.378 150.063 164.4 150.12 164.433C150.176 164.467 150.226 164.511 150.265 164.564C150.305 164.616 150.334 164.676 150.35 164.74C150.381 164.869 150.36 165.004 150.293 165.118C150.226 165.231 150.117 165.315 149.99 165.35C149.68 165.43 142.34 167.44 141.37 176.97C141.005 182.294 141.25 187.642 142.1 192.91C142.117 193.041 142.083 193.173 142.005 193.28C141.927 193.386 141.81 193.458 141.68 193.48H141.61Z" fill="#263238"/>
<path d="M140.46 191.31C140.362 191.308 140.266 191.278 140.184 191.223C140.103 191.168 140.039 191.091 140 191C138.798 186.278 138.108 181.44 137.94 176.57C137.94 176.437 137.993 176.31 138.086 176.216C138.18 176.123 138.307 176.07 138.44 176.07C138.573 176.07 138.7 176.123 138.794 176.216C138.887 176.31 138.94 176.437 138.94 176.57C139.1 181.351 139.771 186.101 140.94 190.74C140.96 190.803 140.967 190.869 140.96 190.935C140.954 191.001 140.934 191.065 140.902 191.122C140.87 191.18 140.827 191.231 140.775 191.272C140.723 191.313 140.664 191.343 140.6 191.36L140.46 191.31Z" fill="#263238"/>
<path d="M214.57 282.66C214.57 282.66 174.25 303.75 173 305.28C171.75 306.81 172.54 309.28 172.85 310.36C173.16 311.44 182.85 350.99 184.08 351.6C185.31 352.21 189.16 350.22 189.16 350.22C189.16 350.22 193.47 352.83 194.54 352.37C195.61 351.91 232.09 329.29 234.09 327.44C236.09 325.59 235.94 324.21 235.32 322.83C234.7 321.45 225.32 300.36 225.32 300.36C225.612 299.909 225.805 299.401 225.884 298.87C225.963 298.339 225.928 297.796 225.78 297.28C225.17 295.9 220.09 285.74 219.01 284.2C217.93 282.66 218.57 281 214.57 282.66Z" fill="#969696"/>
<path d="M194.27 352.92C192.92 352.92 190.45 351.56 189.16 350.79C188.16 351.31 185.16 352.68 183.88 352.05C183.25 351.73 181.88 348.5 173.16 313.58C172.72 311.8 172.43 310.67 172.39 310.5V310.38C172.04 309.17 171.32 306.66 172.67 304.97C174.02 303.28 210.24 284.38 214.38 282.22C217.45 280.93 218.24 281.39 218.96 283C219.091 283.329 219.256 283.644 219.45 283.94C220.56 285.52 225.64 295.69 226.27 297.1C226.451 297.645 226.513 298.223 226.451 298.794C226.389 299.365 226.204 299.917 225.91 300.41L235.81 322.64C236.42 324.02 236.74 325.72 234.46 327.83C232.46 329.65 196.19 352.24 194.77 352.83C194.611 352.894 194.441 352.924 194.27 352.92V352.92ZM189.18 349.72C189.272 349.718 189.362 349.742 189.44 349.79C191.62 351.11 193.92 352.11 194.37 351.91C195.85 351.24 231.97 328.74 233.77 327.08C235.57 325.42 235.39 324.16 234.88 323.03C234.27 321.64 224.88 300.56 224.88 300.56C224.841 300.488 224.82 300.407 224.82 300.325C224.82 300.243 224.841 300.162 224.88 300.09C225.126 299.709 225.29 299.282 225.362 298.834C225.435 298.387 225.413 297.929 225.3 297.49C224.69 296.11 219.63 285.99 218.58 284.49C218.346 284.145 218.148 283.776 217.99 283.39C217.57 282.44 217.38 282 214.74 283.12C198.69 291.51 174.45 304.41 173.37 305.6C172.29 306.79 172.97 309.06 173.27 310.1V310.22C173.32 310.4 173.6 311.54 174.05 313.33C180.05 337.18 183.47 349.91 184.31 351.18C185.01 351.41 187.18 350.65 188.87 349.77C188.964 349.717 189.074 349.7 189.18 349.72V349.72Z" fill="#263238"/>
<path d="M172.87 310.36C173.17 311.44 182.87 350.99 184.1 351.6C185.33 352.21 189.18 350.22 189.18 350.22C189.18 350.22 193.27 352.7 194.47 352.39C191.47 344.49 179.82 313.5 177.79 308.39C176.07 304.03 174.26 304.46 173.45 304.96L173.12 305.22H173.07C171.79 306.82 172.56 309.28 172.87 310.36Z" fill="#263238"/>
<path d="M194.26 352.91C192.89 352.91 190.26 351.45 189.16 350.79C188.16 351.31 185.16 352.68 183.88 352.05C183.25 351.73 181.88 348.5 173.16 313.58C172.72 311.8 172.43 310.67 172.39 310.5V310.38C172.04 309.17 171.32 306.66 172.67 304.97L172.75 304.88L172.83 304.81C172.92 304.73 173.05 304.64 173.21 304.52C173.502 304.327 173.833 304.203 174.179 304.156C174.525 304.109 174.878 304.141 175.21 304.25C176.37 304.63 177.41 305.95 178.29 308.18C179.53 311.32 184.35 324.11 188.61 335.4C191.32 342.58 193.79 349.14 194.97 352.21C194.993 352.277 195.002 352.348 194.997 352.418C194.992 352.489 194.972 352.558 194.939 352.62C194.907 352.683 194.861 352.739 194.806 352.783C194.752 352.828 194.688 352.861 194.62 352.88C194.501 352.903 194.381 352.913 194.26 352.91ZM189.18 349.72C189.272 349.718 189.362 349.742 189.44 349.79C190.784 350.62 192.221 351.292 193.72 351.79C192.47 348.49 190.15 342.36 187.64 335.7C183.39 324.42 178.56 311.63 177.33 308.49C176.33 306.08 175.46 305.34 174.87 305.14C174.678 305.079 174.475 305.063 174.275 305.093C174.076 305.122 173.886 305.196 173.72 305.31C173.623 305.371 173.533 305.441 173.45 305.52C172.39 306.83 173.01 309.01 173.31 310.05V310.17C173.36 310.35 173.64 311.49 174.09 313.28C180.09 337.13 183.51 349.86 184.35 351.13C185.05 351.36 187.22 350.6 188.91 349.72C188.998 349.693 189.092 349.693 189.18 349.72V349.72Z" fill="#263238"/>
<path d="M185.18 326.71C185.072 326.71 184.967 326.675 184.881 326.61C184.795 326.545 184.732 326.454 184.702 326.351C184.671 326.247 184.675 326.137 184.713 326.036C184.75 325.935 184.819 325.849 184.91 325.79L224.15 301.17C224.205 301.134 224.268 301.109 224.333 301.097C224.398 301.086 224.465 301.088 224.529 301.103C224.594 301.117 224.654 301.145 224.708 301.184C224.761 301.224 224.806 301.273 224.84 301.33C224.876 301.385 224.901 301.446 224.912 301.51C224.924 301.575 224.922 301.641 224.907 301.705C224.892 301.768 224.864 301.828 224.825 301.881C224.786 301.933 224.737 301.977 224.68 302.01L185.44 326.63C185.365 326.685 185.273 326.713 185.18 326.71Z" fill="#263238"/>
<path d="M203.33 312.67L206.1 317.44L210.1 314.52L207.49 310.05L203.33 312.67Z" fill="white"/>
<path d="M206.1 317.94H206C205.931 317.925 205.867 317.896 205.81 317.854C205.753 317.813 205.706 317.761 205.67 317.7L202.9 312.93C202.837 312.818 202.819 312.686 202.851 312.561C202.882 312.436 202.961 312.328 203.07 312.26L207.22 309.64C207.338 309.572 207.477 309.55 207.61 309.58C207.675 309.595 207.736 309.623 207.789 309.662C207.842 309.702 207.887 309.752 207.92 309.81L210.54 314.27C210.603 314.378 210.624 314.505 210.598 314.627C210.572 314.749 210.502 314.857 210.4 314.93L206.4 317.85C206.313 317.913 206.207 317.945 206.1 317.94V317.94ZM204.01 312.84L206.26 316.71L209.45 314.38L207.32 310.75L204.01 312.84Z" fill="#263238"/>
</svg>
